<svg width="777" height="280" viewBox="0 0 777 280" fill="none" xmlns="http://www.w3.org/2000/svg">
<rect x="0.00634766" y="0.557373" width="776.93" height="278.544" rx="14.9631" fill="#1A1D24"/>
<path d="M43.318 35.2884V52.0303H39.8192V38.1659H33.0505V52.0303H29.5517V35.2884H43.318ZM52.2959 52.2755C51.0261 52.2755 49.928 52.0057 49.0015 51.4662C48.0805 50.9212 47.3693 50.1637 46.8679 49.1936C46.3665 48.2181 46.1158 47.0873 46.1158 45.8011C46.1158 44.504 46.3665 43.3705 46.8679 42.4004C47.3693 41.4249 48.0805 40.6673 49.0015 40.1278C49.928 39.5828 51.0261 39.3103 52.2959 39.3103C53.5657 39.3103 54.6612 39.5828 55.5822 40.1278C56.5087 40.6673 57.2226 41.4249 57.724 42.4004C58.2254 43.3705 58.476 44.504 58.476 45.8011C58.476 47.0873 58.2254 48.2181 57.724 49.1936C57.2226 50.1637 56.5087 50.9212 55.5822 51.4662C54.6612 52.0057 53.5657 52.2755 52.2959 52.2755ZM52.3123 49.5778C52.89 49.5778 53.3723 49.4143 53.7592 49.0874C54.1461 48.7549 54.4377 48.3026 54.6339 47.7303C54.8356 47.1581 54.9364 46.5069 54.9364 45.7766C54.9364 45.0463 54.8356 44.395 54.6339 43.8228C54.4377 43.2506 54.1461 42.7982 53.7592 42.4658C53.3723 42.1334 52.89 41.9671 52.3123 41.9671C51.7291 41.9671 51.2387 42.1334 50.8408 42.4658C50.4484 42.7982 50.1514 43.2506 49.9498 43.8228C49.7536 44.395 49.6555 45.0463 49.6555 45.7766C49.6555 46.5069 49.7536 47.1581 49.9498 47.7303C50.1514 48.3026 50.4484 48.7549 50.8408 49.0874C51.2387 49.4143 51.7291 49.5778 52.3123 49.5778ZM60.0047 52.0303L59.9884 49.2672H60.4053C60.6996 49.2672 60.953 49.1964 61.1655 49.0547C61.3835 48.9075 61.5634 48.6704 61.7051 48.3435C61.8468 48.0165 61.9585 47.5832 62.0402 47.0437C62.122 46.4987 62.1765 45.8284 62.2037 45.0327L62.4081 39.4738H71.9562V52.0303H68.6373V42.2124H65.539L65.3428 46.0463C65.2938 47.0982 65.1657 48.0028 64.9586 48.7604C64.757 49.5179 64.4763 50.1392 64.1166 50.6242C63.7569 51.1038 63.3237 51.458 62.8168 51.6869C62.31 51.9158 61.7214 52.0303 61.0511 52.0303H60.0047ZM81.9478 34.5036L76.5525 54.5481H73.5524L78.9477 34.5036H81.9478ZM83.6257 52.0303V39.4738H88.9802C90.5279 39.4738 91.7514 39.7681 92.6507 40.3567C93.5499 40.9453 93.9995 41.7818 93.9995 42.8664C93.9995 43.5476 93.7461 44.1144 93.2392 44.5667C92.7324 45.0191 92.0294 45.3242 91.1301 45.4823C91.8822 45.5368 92.5226 45.7085 93.0512 45.9973C93.5853 46.2807 93.9913 46.6486 94.2693 47.1009C94.5526 47.5532 94.6943 48.0546 94.6943 48.605C94.6943 49.319 94.5036 49.9321 94.1221 50.4444C93.7461 50.9567 93.1929 51.349 92.4626 51.6215C91.7378 51.894 90.8522 52.0303 89.8058 52.0303H83.6257ZM86.8711 49.4225H89.8058C90.2909 49.4225 90.6696 49.3081 90.9421 49.0792C91.2201 48.8448 91.359 48.526 91.359 48.1227C91.359 47.6758 91.2201 47.3243 90.9421 47.0682C90.6696 46.812 90.2909 46.684 89.8058 46.684H86.8711V49.4225ZM86.8711 44.6403H89.0538C89.4025 44.6403 89.6996 44.5912 89.9448 44.4931C90.1955 44.3896 90.3862 44.2424 90.517 44.0517C90.6533 43.861 90.7214 43.6348 90.7214 43.3732C90.7214 42.9863 90.5661 42.6838 90.2554 42.4658C89.9448 42.2478 89.5197 42.1388 88.9802 42.1388H86.8711V44.6403ZM102.563 52.2755C101.293 52.2755 100.195 52.0057 99.2681 51.4662C98.3471 50.9212 97.6359 50.1637 97.1345 49.1936C96.6331 48.2181 96.3824 47.0873 96.3824 45.8011C96.3824 44.504 96.6331 43.3705 97.1345 42.4004C97.6359 41.4249 98.3471 40.6673 99.2681 40.1278C100.195 39.5828 101.293 39.3103 102.563 39.3103C103.832 39.3103 104.928 39.5828 105.849 40.1278C106.775 40.6673 107.489 41.4249 107.991 42.4004C108.492 43.3705 108.743 44.504 108.743 45.8011C108.743 47.0873 108.492 48.2181 107.991 49.1936C107.489 50.1637 106.775 50.9212 105.849 51.4662C104.928 52.0057 103.832 52.2755 102.563 52.2755ZM102.579 49.5778C103.157 49.5778 103.639 49.4143 104.026 49.0874C104.413 48.7549 104.704 48.3026 104.901 47.7303C105.102 47.1581 105.203 46.5069 105.203 45.7766C105.203 45.0463 105.102 44.395 104.901 43.8228C104.704 43.2506 104.413 42.7982 104.026 42.4658C103.639 42.1334 103.157 41.9671 102.579 41.9671C101.996 41.9671 101.505 42.1334 101.107 42.4658C100.715 42.7982 100.418 43.2506 100.216 43.8228C100.02 44.395 99.9221 45.0463 99.9221 45.7766C99.9221 46.5069 100.02 47.1581 100.216 47.7303C100.418 48.3026 100.715 48.7549 101.107 49.0874C101.505 49.4143 101.996 49.5778 102.579 49.5778ZM110.361 48.4743H113.737C113.754 48.8884 113.939 49.2154 114.293 49.4552C114.648 49.695 115.105 49.8149 115.667 49.8149C116.233 49.8149 116.71 49.6841 117.097 49.4225C117.484 49.1555 117.678 48.774 117.678 48.2781C117.678 47.9729 117.601 47.7085 117.449 47.4851C117.296 47.2562 117.084 47.0764 116.811 46.9456C116.539 46.8148 116.223 46.7494 115.863 46.7494H114.056V44.4686H115.863C116.402 44.4686 116.817 44.3433 117.105 44.0926C117.4 43.8419 117.547 43.5285 117.547 43.1525C117.547 42.7274 117.394 42.3868 117.089 42.1306C116.789 41.869 116.383 41.7382 115.871 41.7382C115.353 41.7382 114.923 41.8554 114.579 42.0898C114.242 42.3187 114.067 42.6184 114.056 42.989H110.696C110.707 42.2369 110.934 41.5856 111.375 41.0352C111.822 40.4848 112.421 40.0597 113.173 39.76C113.931 39.4602 114.778 39.3103 115.716 39.3103C116.74 39.3103 117.623 39.4548 118.364 39.7436C119.111 40.027 119.683 40.433 120.081 40.9616C120.484 41.4903 120.686 42.1197 120.686 42.85C120.686 43.5149 120.468 44.0708 120.032 44.5177C119.596 44.9646 118.986 45.2834 118.201 45.4741V45.6049C118.719 45.6376 119.187 45.7766 119.607 46.0218C120.027 46.2671 120.362 46.605 120.612 47.0355C120.863 47.4606 120.988 47.9647 120.988 48.5478C120.988 49.3272 120.76 49.9948 120.302 50.5506C119.849 51.1065 119.223 51.5343 118.422 51.8341C117.626 52.1284 116.713 52.2755 115.683 52.2755C114.68 52.2755 113.781 52.1311 112.985 51.8423C112.195 51.548 111.566 51.1174 111.097 50.5506C110.634 49.9839 110.389 49.2917 110.361 48.4743ZM123.124 56.7389V39.4738H126.558V41.5829H126.713C126.865 41.245 127.086 40.9017 127.375 40.5529C127.669 40.1987 128.051 39.9044 128.519 39.67C128.994 39.4302 129.582 39.3103 130.285 39.3103C131.201 39.3103 132.046 39.5501 132.819 40.0297C133.593 40.5039 134.212 41.2205 134.675 42.1797C135.138 43.1334 135.37 44.3296 135.37 45.7684C135.37 47.169 135.144 48.3516 134.691 49.3163C134.245 50.2754 133.634 51.003 132.86 51.4989C132.092 51.9894 131.231 52.2346 130.277 52.2346C129.601 52.2346 129.026 52.1229 128.552 51.8995C128.083 51.676 127.699 51.3954 127.4 51.0575C127.1 50.7141 126.871 50.3681 126.713 50.0193H126.607V56.7389H123.124ZM126.533 45.7521C126.533 46.4987 126.637 47.1499 126.844 47.7058C127.051 48.2617 127.35 48.695 127.743 49.0056C128.135 49.3108 128.612 49.4634 129.173 49.4634C129.74 49.4634 130.22 49.3081 130.612 48.9974C131.005 48.6813 131.302 48.2454 131.503 47.6895C131.71 47.1281 131.814 46.4823 131.814 45.7521C131.814 45.0272 131.713 44.3896 131.511 43.8392C131.31 43.2887 131.013 42.8582 130.62 42.5475C130.228 42.2369 129.746 42.0816 129.173 42.0816C128.607 42.0816 128.127 42.2315 127.735 42.5312C127.348 42.8309 127.051 43.256 126.844 43.8065C126.637 44.3569 126.533 45.0054 126.533 45.7521ZM141.272 52.2673C140.471 52.2673 139.757 52.1284 139.13 51.8504C138.504 51.567 138.008 51.1501 137.643 50.5997C137.283 50.0438 137.103 49.3517 137.103 48.5233C137.103 47.8257 137.231 47.2399 137.487 46.7657C137.743 46.2916 138.092 45.9101 138.534 45.6213C138.975 45.3324 139.476 45.1144 140.038 44.9673C140.605 44.8201 141.199 44.7166 141.82 44.6566C142.55 44.5803 143.139 44.5095 143.586 44.4441C144.032 44.3732 144.357 44.2697 144.558 44.1335C144.76 43.9972 144.861 43.7956 144.861 43.5285V43.4795C144.861 42.9617 144.697 42.5612 144.37 42.2778C144.049 41.9944 143.591 41.8527 142.997 41.8527C142.37 41.8527 141.872 41.9917 141.501 42.2696C141.13 42.5421 140.885 42.8854 140.765 43.2996L137.544 43.038C137.708 42.2751 138.029 41.6156 138.509 41.0597C138.989 40.4984 139.607 40.0679 140.365 39.7681C141.128 39.4629 142.011 39.3103 143.013 39.3103C143.711 39.3103 144.379 39.3921 145.016 39.5556C145.659 39.7191 146.229 39.9725 146.725 40.3158C147.226 40.6592 147.621 41.1006 147.91 41.6401C148.199 42.1742 148.343 42.8146 148.343 43.5612V52.0303H145.041V50.289H144.943C144.741 50.6814 144.471 51.0275 144.133 51.3272C143.795 51.6215 143.389 51.8532 142.915 52.0221C142.441 52.1856 141.893 52.2673 141.272 52.2673ZM142.269 49.864C142.782 49.864 143.234 49.7631 143.626 49.5615C144.019 49.3544 144.327 49.0765 144.55 48.7277C144.774 48.3789 144.885 47.9838 144.885 47.5423V46.2098C144.776 46.2807 144.626 46.3461 144.436 46.406C144.25 46.4605 144.041 46.5123 143.806 46.5614C143.572 46.605 143.338 46.6458 143.103 46.684C142.869 46.7167 142.656 46.7467 142.466 46.7739C142.057 46.8338 141.7 46.9292 141.395 47.06C141.09 47.1908 140.852 47.3679 140.684 47.5914C140.515 47.8094 140.43 48.0819 140.43 48.4089C140.43 48.883 140.602 49.2454 140.945 49.4961C141.294 49.7413 141.735 49.864 142.269 49.864ZM156.718 52.2755C155.432 52.2755 154.326 52.003 153.399 51.458C152.478 50.9076 151.77 50.1446 151.274 49.1691C150.783 48.1936 150.538 47.0709 150.538 45.8011C150.538 44.5149 150.786 43.3868 151.282 42.4167C151.783 41.4412 152.495 40.681 153.416 40.136C154.337 39.5856 155.432 39.3103 156.702 39.3103C157.797 39.3103 158.757 39.5093 159.579 39.9071C160.402 40.3049 161.054 40.8635 161.533 41.5829C162.013 42.3023 162.277 43.147 162.326 44.1171H159.04C158.947 43.4904 158.702 42.9863 158.304 42.6048C157.912 42.2178 157.397 42.0244 156.759 42.0244C156.22 42.0244 155.748 42.1715 155.345 42.4658C154.947 42.7546 154.636 43.177 154.413 43.7329C154.19 44.2888 154.078 44.9618 154.078 45.7521C154.078 46.5532 154.187 47.2344 154.405 47.7957C154.628 48.3571 154.942 48.7849 155.345 49.0792C155.748 49.3735 156.22 49.5206 156.759 49.5206C157.157 49.5206 157.514 49.4389 157.83 49.2754C158.152 49.1119 158.416 48.8748 158.623 48.5642C158.836 48.2481 158.975 47.8693 159.04 47.4279H162.326C162.272 48.3871 162.01 49.2318 161.541 49.9621C161.078 50.6869 160.438 51.2537 159.62 51.6624C158.803 52.0711 157.836 52.2755 156.718 52.2755ZM163.7 42.2124V39.4738H175.079V42.2124H171.032V52.0303H167.713V42.2124H163.7Z" fill="#CACACA"/>
<rect x="585.294" y="35.6629" width="17.2651" height="17.2651" rx="5.17953" fill="#3B83EF" stroke="#3B83EF" stroke-width="1.15101"/>
<path d="M613.205 49.0874L617.07 45.3205L613.264 41.5535H613.706L617.355 45.1635H617.62V41.5535H617.934V45.1635H618.198L621.848 41.5535H622.289L618.483 45.3205L622.348 49.0874H621.897L618.198 45.4774H617.934V49.0874H617.62V45.4774H617.355L613.657 49.0874H613.205ZM627.063 49.2444C626.405 49.2444 625.83 49.0727 625.336 48.7293C624.846 48.386 624.465 47.92 624.193 47.3315C623.922 46.7429 623.786 46.0791 623.786 45.3401C623.786 44.6011 623.922 43.9373 624.193 43.3487C624.468 42.7601 624.841 42.2942 625.312 41.9508C625.783 41.6075 626.314 41.4358 626.906 41.4358C627.344 41.4358 627.749 41.529 628.122 41.7154C628.498 41.9018 628.825 42.1601 629.103 42.4904C629.381 42.8206 629.597 43.2016 629.751 43.6332C629.908 44.0616 629.986 44.5193 629.986 45.0066V45.3205H623.943V45.0066H629.672C629.672 44.4016 629.548 43.8539 629.299 43.3634C629.051 42.8697 628.717 42.4773 628.299 42.1863C627.88 41.8952 627.416 41.7497 626.906 41.7497C626.389 41.7497 625.922 41.9034 625.503 42.2108C625.084 42.5182 624.749 42.9367 624.498 43.4664C624.246 43.9962 624.113 44.5946 624.1 45.2616V45.3009C624.1 45.9581 624.215 46.563 624.444 47.1156C624.676 47.665 625.013 48.1048 625.454 48.4351C625.895 48.7653 626.432 48.9304 627.063 48.9304C627.527 48.9304 627.916 48.8487 628.23 48.6852C628.547 48.5217 628.801 48.3337 628.99 48.1211C629.183 47.9086 629.326 47.7271 629.417 47.5767L629.672 47.7533C629.561 47.9429 629.394 48.1538 629.172 48.386C628.949 48.6182 628.665 48.8193 628.318 48.9893C627.972 49.1593 627.553 49.2444 627.063 49.2444ZM637.389 45.1635V45.4774H632.415V45.1635H637.389ZM632.523 41.5535V49.0874H632.209V41.5535H632.523ZM637.555 41.5535V49.0874H637.242V41.5535H637.555Z" fill="white"/>
<rect x="674.384" y="35.6629" width="17.2651" height="17.2651" rx="5.17953" fill="#0450C0" stroke="#0450C0" stroke-width="1.15101"/>
<path d="M704.046 48.5577L707.283 41.5535H707.626L704.144 49.0874H703.947L700.465 41.5535H700.808L704.046 48.5577ZM700.779 41.5535V49.0874H700.465V41.5535H700.779ZM707.312 49.0874V41.5535H707.626V49.0874H707.312ZM710.412 51.9126C710.285 51.9126 710.149 51.8946 710.005 51.8586C709.861 51.8259 709.716 51.7785 709.568 51.7164L709.686 51.4417C710.01 51.5791 710.304 51.6281 710.569 51.5889C710.837 51.5529 711.073 51.4303 711.275 51.221C711.481 51.0117 711.651 50.7191 711.785 50.343L712.188 49.2247L709.441 41.5535H709.774L712.325 48.695H712.364L714.915 41.5535H715.248L712.08 50.4608C711.969 50.7747 711.83 51.0395 711.663 51.2554C711.496 51.4712 711.306 51.6347 711.094 51.7458C710.885 51.857 710.657 51.9126 710.412 51.9126ZM716.814 49.0874L720.679 45.3205L716.873 41.5535H717.314L720.964 45.1635H721.228V41.5535H721.542V45.1635H721.807L725.456 41.5535H725.898L722.092 45.3205L725.957 49.0874H725.506L721.807 45.4774H721.542V49.0874H721.228V45.4774H720.964L717.265 49.0874H716.814Z" fill="white"/>
<path d="M81.043 98.3928L81.0406 234.206M736.648 234.223L80.5744 234.212" stroke="#A7B0BF" stroke-width="1.15101"/>
<path d="M46.2703 238.566C45.4953 238.563 44.8331 238.359 44.2838 237.953C43.7345 237.548 43.3143 236.957 43.0233 236.182C42.7322 235.407 42.5867 234.474 42.5867 233.382C42.5867 232.293 42.7322 231.363 43.0233 230.591C43.3175 229.819 43.7394 229.231 44.2887 228.825C44.8413 228.42 45.5018 228.217 46.2703 228.217C47.0387 228.217 47.6976 228.421 48.2469 228.83C48.7963 229.236 49.2165 229.824 49.5075 230.596C49.8018 231.364 49.9489 232.293 49.9489 233.382C49.9489 234.477 49.8034 235.412 49.5124 236.187C49.2214 236.959 48.8012 237.549 48.2518 237.958C47.7025 238.363 47.042 238.566 46.2703 238.566ZM46.2703 237.257C46.9504 237.257 47.4818 236.925 47.8643 236.261C48.2502 235.597 48.4431 234.637 48.4431 233.382C48.4431 232.548 48.3548 231.843 48.1783 231.268C48.005 230.689 47.7548 230.251 47.4278 229.953C47.1041 229.652 46.7182 229.502 46.2703 229.502C45.5934 229.502 45.062 229.836 44.6762 230.503C44.2903 231.17 44.0958 232.129 44.0925 233.382C44.0925 234.219 44.1792 234.927 44.3525 235.506C44.529 236.081 44.7792 236.518 45.1029 236.815C45.4266 237.109 45.8158 237.257 46.2703 237.257ZM56.9322 236.516V235.986C56.9322 235.607 57.0107 235.26 57.1676 234.946C57.3279 234.629 57.56 234.376 57.8641 234.186C58.1715 233.993 58.5426 233.897 58.9775 233.897C59.4222 233.897 59.795 233.992 60.0958 234.181C60.3967 234.371 60.6239 234.624 60.7776 234.941C60.9346 235.259 61.0131 235.607 61.0131 235.986V236.516C61.0131 236.895 60.9346 237.244 60.7776 237.561C60.6207 237.875 60.3901 238.128 60.086 238.321C59.7852 238.511 59.4157 238.605 58.9775 238.605C58.5361 238.605 58.1633 238.511 57.8592 238.321C57.5551 238.128 57.3246 237.875 57.1676 237.561C57.0107 237.244 56.9322 236.895 56.9322 236.516ZM58.075 235.986V236.516C58.075 236.797 58.1421 237.052 58.2761 237.281C58.4102 237.51 58.644 237.624 58.9775 237.624C59.3078 237.624 59.5383 237.51 59.6691 237.281C59.7999 237.052 59.8653 236.797 59.8653 236.516V235.986C59.8653 235.705 59.8016 235.45 59.674 235.221C59.5498 234.992 59.3176 234.878 58.9775 234.878C58.6505 234.878 58.4184 234.992 58.281 235.221C58.1437 235.45 58.075 235.705 58.075 235.986ZM51.8802 230.767V230.238C51.8802 229.858 51.9587 229.51 52.1156 229.193C52.2759 228.876 52.508 228.622 52.8121 228.433C53.1195 228.243 53.4906 228.148 53.9255 228.148C54.3702 228.148 54.743 228.243 55.0438 228.433C55.3447 228.622 55.5719 228.876 55.7256 229.193C55.8793 229.51 55.9561 229.858 55.9561 230.238V230.767C55.9561 231.147 55.8777 231.495 55.7207 231.812C55.567 232.126 55.3381 232.38 55.034 232.572C54.7332 232.762 54.3637 232.857 53.9255 232.857C53.4808 232.857 53.1064 232.762 52.8023 232.572C52.5015 232.38 52.2726 232.126 52.1156 231.812C51.9587 231.495 51.8802 231.147 51.8802 230.767ZM53.0279 230.238V230.767C53.0279 231.049 53.0933 231.304 53.2241 231.533C53.3582 231.762 53.592 231.876 53.9255 231.876C54.2525 231.876 54.4814 231.762 54.6122 231.533C54.7463 231.304 54.8133 231.049 54.8133 230.767V230.238C54.8133 229.957 54.7495 229.701 54.622 229.473C54.4945 229.244 54.2623 229.129 53.9255 229.129C53.5985 229.129 53.3664 229.244 53.229 229.473C53.095 229.701 53.0279 229.957 53.0279 230.238ZM52.3462 238.399L59.2522 228.354H60.4245L53.5184 238.399H52.3462Z" fill="#979797"/>
<path d="M34.3024 170.49V169.391L37.7015 165.87C38.0644 165.487 38.3636 165.152 38.5991 164.864C38.8378 164.573 39.016 164.297 39.1337 164.035C39.2514 163.774 39.3103 163.496 39.3103 163.201C39.3103 162.868 39.2318 162.58 39.0748 162.338C38.9179 162.093 38.7037 161.905 38.4323 161.774C38.1609 161.64 37.8552 161.573 37.5151 161.573C37.1554 161.573 36.8415 161.647 36.5734 161.794C36.3052 161.941 36.0992 162.148 35.9553 162.417C35.8115 162.685 35.7395 162.999 35.7395 163.358H34.2926C34.2926 162.747 34.4332 162.212 34.7144 161.754C34.9956 161.297 35.3815 160.942 35.872 160.69C36.3625 160.435 36.92 160.308 37.5445 160.308C38.1756 160.308 38.7315 160.433 39.2122 160.685C39.6961 160.934 40.0738 161.274 40.3452 161.705C40.6166 162.134 40.7523 162.618 40.7523 163.157C40.7523 163.53 40.682 163.895 40.5414 164.251C40.4041 164.607 40.1637 165.005 39.8204 165.443C39.477 165.878 38.9996 166.406 38.3882 167.027L36.3919 169.117V169.19H40.9142V170.49H34.3024ZM46.2703 170.657C45.4953 170.653 44.8331 170.449 44.2838 170.044C43.7345 169.638 43.3143 169.048 43.0233 168.273C42.7322 167.498 42.5867 166.564 42.5867 165.472C42.5867 164.383 42.7322 163.453 43.0233 162.681C43.3175 161.91 43.7394 161.321 44.2887 160.916C44.8413 160.51 45.5018 160.308 46.2703 160.308C47.0387 160.308 47.6976 160.512 48.2469 160.921C48.7963 161.326 49.2165 161.915 49.5075 162.686C49.8018 163.455 49.9489 164.383 49.9489 165.472C49.9489 166.568 49.8034 167.503 49.5124 168.278C49.2214 169.05 48.8012 169.64 48.2518 170.049C47.7025 170.454 47.042 170.657 46.2703 170.657ZM46.2703 169.347C46.9504 169.347 47.4818 169.015 47.8643 168.351C48.2502 167.688 48.4431 166.728 48.4431 165.472C48.4431 164.638 48.3548 163.934 48.1783 163.358C48.005 162.78 47.7548 162.341 47.4278 162.044C47.1041 161.743 46.7182 161.593 46.2703 161.593C45.5934 161.593 45.062 161.926 44.6762 162.593C44.2903 163.26 44.0958 164.22 44.0925 165.472C44.0925 166.309 44.1792 167.017 44.3525 167.596C44.529 168.172 44.7792 168.608 45.1029 168.906C45.4266 169.2 45.8158 169.347 46.2703 169.347ZM56.9322 168.607V168.077C56.9322 167.697 57.0107 167.351 57.1676 167.037C57.3279 166.72 57.56 166.466 57.8641 166.277C58.1715 166.084 58.5426 165.987 58.9775 165.987C59.4222 165.987 59.795 166.082 60.0958 166.272C60.3967 166.461 60.6239 166.715 60.7776 167.032C60.9346 167.349 61.0131 167.697 61.0131 168.077V168.607C61.0131 168.986 60.9346 169.334 60.7776 169.651C60.6207 169.965 60.3901 170.219 60.086 170.412C59.7852 170.601 59.4157 170.696 58.9775 170.696C58.5361 170.696 58.1633 170.601 57.8592 170.412C57.5551 170.219 57.3246 169.965 57.1676 169.651C57.0107 169.334 56.9322 168.986 56.9322 168.607ZM58.075 168.077V168.607C58.075 168.888 58.1421 169.143 58.2761 169.372C58.4102 169.601 58.644 169.715 58.9775 169.715C59.3078 169.715 59.5383 169.601 59.6691 169.372C59.7999 169.143 59.8653 168.888 59.8653 168.607V168.077C59.8653 167.796 59.8016 167.541 59.674 167.312C59.5498 167.083 59.3176 166.968 58.9775 166.968C58.6505 166.968 58.4184 167.083 58.281 167.312C58.1437 167.541 58.075 167.796 58.075 168.077ZM51.8802 162.858V162.328C51.8802 161.949 51.9587 161.601 52.1156 161.284C52.2759 160.966 52.508 160.713 52.8121 160.523C53.1195 160.334 53.4906 160.239 53.9255 160.239C54.3702 160.239 54.743 160.334 55.0438 160.523C55.3447 160.713 55.5719 160.966 55.7256 161.284C55.8793 161.601 55.9561 161.949 55.9561 162.328V162.858C55.9561 163.237 55.8777 163.586 55.7207 163.903C55.567 164.217 55.3381 164.47 55.034 164.663C54.7332 164.853 54.3637 164.947 53.9255 164.947C53.4808 164.947 53.1064 164.853 52.8023 164.663C52.5015 164.47 52.2726 164.217 52.1156 163.903C51.9587 163.586 51.8802 163.237 51.8802 162.858ZM53.0279 162.328V162.858C53.0279 163.139 53.0933 163.394 53.2241 163.623C53.3582 163.852 53.592 163.967 53.9255 163.967C54.2525 163.967 54.4814 163.852 54.6122 163.623C54.7463 163.394 54.8133 163.139 54.8133 162.858V162.328C54.8133 162.047 54.7495 161.792 54.622 161.563C54.4945 161.334 54.2623 161.22 53.9255 161.22C53.5985 161.22 53.3664 161.334 53.229 161.563C53.095 161.792 53.0279 162.047 53.0279 162.328ZM52.3462 170.49L59.2522 160.445H60.4245L53.5184 170.49H52.3462Z" fill="#979797"/>
<path d="M33.525 101.77V100.544L37.8658 93.6865H38.8321V95.4915H38.2189L35.1142 100.406V100.485H41.0638V101.77H33.525ZM38.2876 103.732V101.397L38.2974 100.838V93.6865H39.7345V103.732H38.2876ZM46.2703 103.898C45.4953 103.895 44.8331 103.691 44.2838 103.285C43.7345 102.88 43.3143 102.29 43.0233 101.515C42.7322 100.74 42.5867 99.8062 42.5867 98.714C42.5867 97.6251 42.7322 96.6949 43.0233 95.9232C43.3175 95.1515 43.7394 94.5629 44.2887 94.1574C44.8413 93.7519 45.5018 93.5492 46.2703 93.5492C47.0387 93.5492 47.6976 93.7536 48.2469 94.1623C48.7963 94.5678 49.2165 95.1564 49.5075 95.9281C49.8018 96.6965 49.9489 97.6251 49.9489 98.714C49.9489 99.8094 49.8034 100.745 49.5124 101.52C49.2214 102.291 48.8012 102.882 48.2518 103.29C47.7025 103.696 47.042 103.898 46.2703 103.898ZM46.2703 102.589C46.9504 102.589 47.4818 102.257 47.8644 101.593C48.2502 100.929 48.4431 99.9697 48.4431 98.714C48.4431 97.8802 48.3548 97.1755 48.1783 96.6C48.005 96.0213 47.7548 95.5831 47.4278 95.2855C47.1041 94.9847 46.7182 94.8343 46.2703 94.8343C45.5934 94.8343 45.062 95.1678 44.6762 95.8349C44.2903 96.5019 44.0958 97.4616 44.0925 98.714C44.0925 99.5511 44.1792 100.259 44.3525 100.838C44.529 101.413 44.7792 101.85 45.1029 102.147C45.4266 102.442 45.8158 102.589 46.2703 102.589ZM56.9322 101.848V101.318C56.9322 100.939 57.0107 100.593 57.1676 100.279C57.3279 99.9615 57.56 99.7081 57.8641 99.5184C58.1715 99.3255 58.5426 99.229 58.9775 99.229C59.4222 99.229 59.795 99.3239 60.0958 99.5135C60.3967 99.7032 60.6239 99.9566 60.7776 100.274C60.9346 100.591 61.0131 100.939 61.0131 101.318V101.848C61.0131 102.228 60.9346 102.576 60.7776 102.893C60.6207 103.207 60.3901 103.46 60.086 103.653C59.7852 103.843 59.4157 103.938 58.9775 103.938C58.5361 103.938 58.1633 103.843 57.8592 103.653C57.5551 103.46 57.3246 103.207 57.1676 102.893C57.0107 102.576 56.9322 102.228 56.9322 101.848ZM58.075 101.318V101.848C58.075 102.129 58.1421 102.384 58.2761 102.613C58.4102 102.842 58.644 102.957 58.9775 102.957C59.3078 102.957 59.5383 102.842 59.6691 102.613C59.7999 102.384 59.8653 102.129 59.8653 101.848V101.318C59.8653 101.037 59.8016 100.782 59.674 100.553C59.5498 100.324 59.3176 100.21 58.9775 100.21C58.6505 100.21 58.4184 100.324 58.281 100.553C58.1437 100.782 58.075 101.037 58.075 101.318ZM51.8802 96.0997V95.57C51.8802 95.1907 51.9587 94.8424 52.1156 94.5253C52.2759 94.2081 52.508 93.9547 52.8121 93.765C53.1195 93.5754 53.4906 93.4805 53.9255 93.4805C54.3702 93.4805 54.743 93.5754 55.0438 93.765C55.3447 93.9547 55.5719 94.2081 55.7256 94.5253C55.8793 94.8424 55.9561 95.1907 55.9561 95.57V96.0997C55.9561 96.479 55.8777 96.8273 55.7207 97.1445C55.567 97.4584 55.3381 97.7118 55.034 97.9047C54.7332 98.0944 54.3637 98.1892 53.9255 98.1892C53.4808 98.1892 53.1064 98.0944 52.8023 97.9047C52.5015 97.7118 52.2726 97.4584 52.1156 97.1445C51.9587 96.8273 51.8802 96.479 51.8802 96.0997ZM53.0279 95.57V96.0997C53.0279 96.3809 53.0933 96.636 53.2241 96.8649C53.3582 97.0938 53.592 97.2082 53.9255 97.2082C54.2525 97.2082 54.4814 97.0938 54.6122 96.8649C54.7463 96.636 54.8133 96.3809 54.8133 96.0997V95.57C54.8133 95.2888 54.7495 95.0337 54.622 94.8048C54.4945 94.576 54.2623 94.4615 53.9255 94.4615C53.5985 94.4615 53.3664 94.576 53.229 94.8048C53.095 95.0337 53.0279 95.2888 53.0279 95.57ZM52.3462 103.732L59.2522 93.6865H60.4245L53.5184 103.732H52.3462Z" fill="#979797"/>
<path d="M67.916 98.3928H736.653" stroke="#A7B0BF" stroke-width="1.15101"/>
<path d="M70.5154 165.96H731.368" stroke="#A7B0BF" stroke-width="1.15101"/>
<path d="M107.74 256.055V254.956L114.254 251.798V253.294L109.447 255.486L109.491 255.398V255.609L109.447 255.525L114.254 257.713V259.214L107.74 256.055ZM124.028 250.356V260.401H122.507V251.876H122.449L120.045 253.446V251.994L122.552 250.356H124.028ZM130.139 260.538C129.436 260.538 128.815 260.417 128.276 260.175C127.739 259.933 127.319 259.6 127.015 259.175C126.711 258.75 126.56 258.266 126.564 257.723C126.56 257.298 126.647 256.907 126.824 256.551C127.004 256.191 127.247 255.892 127.555 255.653C127.862 255.411 128.205 255.257 128.585 255.192V255.133C128.084 255.012 127.684 254.744 127.383 254.329C127.082 253.913 126.933 253.436 126.937 252.896C126.933 252.383 127.069 251.925 127.344 251.523C127.622 251.118 128.003 250.799 128.486 250.567C128.97 250.334 129.521 250.218 130.139 250.218C130.751 250.218 131.297 250.336 131.778 250.572C132.262 250.804 132.643 251.123 132.92 251.528C133.198 251.93 133.339 252.386 133.342 252.896C133.339 253.436 133.185 253.913 132.881 254.329C132.577 254.744 132.181 255.012 131.694 255.133V255.192C132.07 255.257 132.409 255.411 132.71 255.653C133.014 255.892 133.256 256.191 133.435 256.551C133.619 256.907 133.712 257.298 133.715 257.723C133.712 258.266 133.558 258.75 133.254 259.175C132.95 259.6 132.528 259.933 131.989 260.175C131.452 260.417 130.836 260.538 130.139 260.538ZM130.139 259.297C130.555 259.297 130.914 259.229 131.218 259.091C131.523 258.951 131.758 258.756 131.925 258.508C132.092 258.256 132.177 257.962 132.18 257.625C132.177 257.275 132.085 256.966 131.905 256.698C131.729 256.43 131.488 256.219 131.184 256.065C130.88 255.911 130.532 255.834 130.139 255.834C129.744 255.834 129.392 255.911 129.085 256.065C128.777 256.219 128.536 256.43 128.359 256.698C128.182 256.966 128.096 257.275 128.099 257.625C128.096 257.962 128.176 258.256 128.339 258.508C128.506 258.756 128.743 258.951 129.051 259.091C129.358 259.229 129.721 259.297 130.139 259.297ZM130.139 254.623C130.473 254.623 130.769 254.556 131.027 254.422C131.285 254.288 131.488 254.101 131.635 253.863C131.786 253.624 131.863 253.344 131.866 253.024C131.863 252.71 131.787 252.435 131.64 252.2C131.496 251.965 131.295 251.783 131.037 251.656C130.779 251.525 130.479 251.459 130.139 251.459C129.793 251.459 129.489 251.525 129.227 251.656C128.969 251.783 128.768 251.965 128.624 252.2C128.48 252.435 128.41 252.71 128.413 253.024C128.41 253.344 128.482 253.624 128.629 253.863C128.776 254.101 128.979 254.288 129.237 254.422C129.498 254.556 129.799 254.623 130.139 254.623Z" fill="#979797"/>
<rect x="97.468" y="231.375" width="24.7779" height="1.88188" fill="#3B83EF"/>
<rect x="122.246" y="231.375" width="24.7779" height="1.88188" fill="#0450C0"/>
<path d="M191.267 251.742V261.787H189.747V253.262H189.688L187.285 254.832V253.38L189.791 251.742H191.267ZM197.379 261.924C196.676 261.924 196.055 261.803 195.515 261.561C194.979 261.319 194.559 260.986 194.255 260.561C193.95 260.136 193.8 259.652 193.803 259.109C193.8 258.684 193.887 258.293 194.063 257.937C194.243 257.577 194.487 257.278 194.794 257.039C195.101 256.797 195.445 256.643 195.824 256.578V256.519C195.324 256.398 194.923 256.13 194.622 255.715C194.322 255.299 194.173 254.822 194.176 254.282C194.173 253.769 194.308 253.311 194.583 252.909C194.861 252.504 195.242 252.185 195.726 251.953C196.21 251.72 196.761 251.604 197.379 251.604C197.99 251.604 198.536 251.722 199.017 251.958C199.501 252.19 199.882 252.509 200.16 252.914C200.438 253.316 200.579 253.772 200.582 254.282C200.579 254.822 200.425 255.299 200.121 255.715C199.817 256.13 199.421 256.398 198.934 256.519V256.578C199.31 256.643 199.648 256.797 199.949 257.039C200.253 257.278 200.495 257.577 200.675 257.937C200.858 258.293 200.951 258.684 200.955 259.109C200.951 259.652 200.798 260.136 200.493 260.561C200.189 260.986 199.768 261.319 199.228 261.561C198.692 261.803 198.075 261.924 197.379 261.924ZM197.379 260.683C197.794 260.683 198.154 260.615 198.458 260.477C198.762 260.337 198.998 260.142 199.164 259.894C199.331 259.642 199.416 259.348 199.419 259.011C199.416 258.661 199.324 258.352 199.145 258.084C198.968 257.816 198.728 257.605 198.424 257.451C198.12 257.297 197.771 257.22 197.379 257.22C196.983 257.22 196.632 257.297 196.324 257.451C196.017 257.605 195.775 257.816 195.598 258.084C195.422 258.352 195.335 258.661 195.338 259.011C195.335 259.348 195.415 259.642 195.579 259.894C195.746 260.142 195.983 260.337 196.29 260.477C196.597 260.615 196.96 260.683 197.379 260.683ZM197.379 256.009C197.712 256.009 198.008 255.942 198.267 255.808C198.525 255.674 198.728 255.487 198.875 255.249C199.025 255.01 199.102 254.73 199.105 254.41C199.102 254.096 199.027 253.821 198.88 253.586C198.736 253.351 198.535 253.169 198.276 253.042C198.018 252.911 197.719 252.845 197.379 252.845C197.032 252.845 196.728 252.911 196.467 253.042C196.208 253.169 196.007 253.351 195.863 253.586C195.719 253.821 195.649 254.096 195.652 254.41C195.649 254.73 195.721 255.01 195.868 255.249C196.015 255.487 196.218 255.674 196.476 255.808C196.738 255.942 197.039 256.009 197.379 256.009ZM207.17 256.127V257.402H202.717V256.127H207.17ZM208.701 261.787V260.688L212.1 257.166C212.463 256.784 212.762 256.449 212.997 256.161C213.236 255.87 213.414 255.594 213.532 255.332C213.65 255.07 213.708 254.793 213.708 254.498C213.708 254.165 213.63 253.877 213.473 253.635C213.316 253.39 213.102 253.202 212.83 253.071C212.559 252.937 212.253 252.87 211.913 252.87C211.554 252.87 211.24 252.943 210.971 253.091C210.703 253.238 210.497 253.445 210.353 253.713C210.21 253.982 210.138 254.296 210.138 254.655H208.691C208.691 254.044 208.831 253.509 209.113 253.051C209.394 252.594 209.78 252.239 210.27 251.987C210.761 251.732 211.318 251.604 211.943 251.604C212.574 251.604 213.13 251.73 213.61 251.982C214.094 252.231 214.472 252.571 214.743 253.002C215.015 253.431 215.15 253.915 215.15 254.454C215.15 254.827 215.08 255.191 214.94 255.548C214.802 255.904 214.562 256.302 214.219 256.74C213.875 257.175 213.398 257.703 212.786 258.324L210.79 260.414V260.487H215.312V261.787H208.701ZM220.982 251.742V261.787H219.462V253.262H219.403L217 254.832V253.38L219.506 251.742H220.982Z" fill="#979797"/>
<rect x="179.835" y="232.611" width="24.7779" height="1.88188" fill="#3B83EF"/>
<path d="M204.613 172.676C204.613 169.497 207.189 166.921 210.368 166.921H223.636C226.814 166.921 229.391 169.497 229.391 172.676V234.493H204.613V172.676Z" fill="#0450C0"/>
<path d="M266.502 260.485V259.386L269.901 255.865C270.264 255.482 270.563 255.147 270.799 254.859C271.037 254.568 271.216 254.292 271.333 254.03C271.451 253.769 271.51 253.491 271.51 253.196C271.51 252.863 271.431 252.575 271.274 252.333C271.117 252.088 270.903 251.9 270.632 251.769C270.36 251.635 270.055 251.568 269.715 251.568C269.355 251.568 269.041 251.642 268.773 251.789C268.505 251.936 268.299 252.144 268.155 252.412C268.011 252.68 267.939 252.994 267.939 253.353H266.492C266.492 252.742 266.633 252.207 266.914 251.75C267.195 251.292 267.581 250.937 268.072 250.685C268.562 250.43 269.12 250.303 269.744 250.303C270.375 250.303 270.931 250.429 271.412 250.68C271.896 250.929 272.273 251.269 272.545 251.701C272.816 252.129 272.952 252.613 272.952 253.152C272.952 253.525 272.882 253.89 272.741 254.246C272.604 254.603 272.363 255 272.02 255.438C271.677 255.873 271.199 256.401 270.588 257.022L268.591 259.112V259.185H273.114V260.485H266.502ZM278.784 250.44V260.485H277.263V251.96H277.204L274.801 253.53V252.078L277.307 250.44H278.784ZM285.96 254.825V256.1H281.506V254.825H285.96ZM287.49 260.485V259.386L290.889 255.865C291.252 255.482 291.551 255.147 291.787 254.859C292.025 254.568 292.203 254.292 292.321 254.03C292.439 253.769 292.498 253.491 292.498 253.196C292.498 252.863 292.419 252.575 292.262 252.333C292.105 252.088 291.891 251.9 291.62 251.769C291.348 251.635 291.043 251.568 290.703 251.568C290.343 251.568 290.029 251.642 289.761 251.789C289.493 251.936 289.287 252.144 289.143 252.412C288.999 252.68 288.927 252.994 288.927 253.353H287.48C287.48 252.742 287.621 252.207 287.902 251.75C288.183 251.292 288.569 250.937 289.059 250.685C289.55 250.43 290.107 250.303 290.732 250.303C291.363 250.303 291.919 250.429 292.4 250.68C292.884 250.929 293.261 251.269 293.533 251.701C293.804 252.129 293.94 252.613 293.94 253.152C293.94 253.525 293.869 253.89 293.729 254.246C293.591 254.603 293.351 255 293.008 255.438C292.664 255.873 292.187 256.401 291.576 257.022L289.579 259.112V259.185H294.102V260.485H287.49ZM295.534 258.523V257.297L299.875 250.44H300.841V252.245H300.228L297.123 257.16V257.238H303.073V258.523H295.534ZM300.296 260.485V258.15L300.306 257.591V250.44H301.743V260.485H300.296Z" fill="#979797"/>
<rect x="259.899" y="230.945" width="24.7779" height="1.88188" fill="#3B83EF"/>
<path d="M284.677 171.525C284.677 168.347 287.253 165.77 290.432 165.77H303.7C306.878 165.77 309.455 168.347 309.455 171.525V232.826H284.677V171.525Z" fill="#0450C0"/>
<path d="M348.134 261.177V260.079L351.533 256.557C351.896 256.174 352.195 255.839 352.43 255.551C352.669 255.26 352.847 254.984 352.965 254.722C353.083 254.461 353.141 254.183 353.141 253.889C353.141 253.555 353.063 253.267 352.906 253.025C352.749 252.78 352.535 252.592 352.263 252.461C351.992 252.327 351.686 252.26 351.346 252.26C350.987 252.26 350.673 252.334 350.404 252.481C350.136 252.628 349.93 252.836 349.786 253.104C349.643 253.372 349.571 253.686 349.571 254.046H348.124C348.124 253.434 348.264 252.899 348.546 252.442C348.827 251.984 349.213 251.629 349.703 251.377C350.194 251.122 350.751 250.995 351.376 250.995C352.007 250.995 352.563 251.121 353.043 251.372C353.527 251.621 353.905 251.961 354.176 252.393C354.448 252.821 354.583 253.305 354.583 253.844C354.583 254.217 354.513 254.582 354.373 254.938C354.235 255.295 353.995 255.692 353.652 256.13C353.308 256.565 352.831 257.093 352.219 257.714L350.223 259.804V259.877H354.745V261.177H348.134ZM356.178 259.215V257.989L360.518 251.132H361.485V252.937H360.871L357.767 257.852V257.93H363.716V259.215H356.178ZM360.94 261.177V258.843L360.95 258.283V251.132H362.387V261.177H360.94ZM369.884 255.517V256.792H365.431V255.517H369.884ZM371.414 261.177V260.079L374.814 256.557C375.176 256.174 375.476 255.839 375.711 255.551C375.95 255.26 376.128 254.984 376.246 254.722C376.363 254.461 376.422 254.183 376.422 253.889C376.422 253.555 376.344 253.267 376.187 253.025C376.03 252.78 375.816 252.592 375.544 252.461C375.273 252.327 374.967 252.26 374.627 252.26C374.267 252.26 373.954 252.334 373.685 252.481C373.417 252.628 373.211 252.836 373.067 253.104C372.924 253.372 372.852 253.686 372.852 254.046H371.405C371.405 253.434 371.545 252.899 371.826 252.442C372.108 251.984 372.494 251.629 372.984 251.377C373.474 251.122 374.032 250.995 374.657 250.995C375.288 250.995 375.844 251.121 376.324 251.372C376.808 251.621 377.186 251.961 377.457 252.393C377.729 252.821 377.864 253.305 377.864 253.844C377.864 254.217 377.794 254.582 377.653 254.938C377.516 255.295 377.276 255.692 376.932 256.13C376.589 256.565 376.112 257.093 375.5 257.714L373.504 259.804V259.877H378.026V261.177H371.414ZM380.224 261.177L384.609 252.505V252.432H379.537V251.132H386.178V252.476L381.808 261.177H380.224Z" fill="#979797"/>
<path d="M342.266 124.335C342.266 121.157 344.842 118.58 348.021 118.58H361.289C364.467 118.58 367.044 121.157 367.044 124.335V233.884H342.266V124.335Z" fill="#3B83EF"/>
<path d="M367.047 171.525C367.047 168.347 369.624 165.77 372.802 165.77H386.622C389.801 165.77 392.377 168.347 392.377 171.525V233.678H367.047V171.525Z" fill="#0450C0"/>
<path d="M427.8 260.485V259.386L431.199 255.865C431.562 255.482 431.861 255.147 432.097 254.859C432.335 254.568 432.513 254.292 432.631 254.03C432.749 253.769 432.808 253.491 432.808 253.196C432.808 252.863 432.729 252.575 432.572 252.333C432.415 252.088 432.201 251.9 431.93 251.769C431.658 251.635 431.353 251.568 431.013 251.568C430.653 251.568 430.339 251.642 430.071 251.789C429.803 251.936 429.597 252.144 429.453 252.412C429.309 252.68 429.237 252.994 429.237 253.353H427.79C427.79 252.742 427.931 252.207 428.212 251.75C428.493 251.292 428.879 250.937 429.369 250.685C429.86 250.43 430.417 250.303 431.042 250.303C431.673 250.303 432.229 250.429 432.71 250.68C433.194 250.929 433.571 251.269 433.843 251.701C434.114 252.129 434.25 252.613 434.25 253.152C434.25 253.525 434.179 253.89 434.039 254.246C433.901 254.603 433.661 255 433.318 255.438C432.974 255.873 432.497 256.401 431.886 257.022L429.889 259.112V259.185H434.412V260.485H427.8ZM436.609 260.485L440.994 251.813V251.74H435.922V250.44H442.563V251.784L438.193 260.485H436.609ZM448.728 254.825V256.1H444.274V254.825H448.728ZM454.025 260.622C453.351 260.622 452.75 260.506 452.22 260.274C451.693 260.042 451.277 259.72 450.969 259.308C450.665 258.893 450.502 258.412 450.479 257.866H452.019C452.038 258.163 452.138 258.422 452.318 258.641C452.501 258.857 452.74 259.023 453.034 259.141C453.328 259.259 453.655 259.318 454.015 259.318C454.411 259.318 454.761 259.249 455.065 259.112C455.372 258.974 455.612 258.783 455.786 258.538C455.959 258.289 456.046 258.003 456.046 257.68C456.046 257.343 455.959 257.047 455.786 256.792C455.616 256.533 455.366 256.331 455.035 256.184C454.708 256.036 454.313 255.963 453.848 255.963H453V254.727H453.848C454.221 254.727 454.548 254.66 454.829 254.526C455.114 254.392 455.336 254.205 455.496 253.967C455.657 253.725 455.737 253.442 455.737 253.118C455.737 252.807 455.666 252.538 455.526 252.309C455.388 252.077 455.192 251.895 454.937 251.764C454.685 251.633 454.388 251.568 454.045 251.568C453.718 251.568 453.412 251.629 453.127 251.75C452.846 251.867 452.617 252.037 452.441 252.26C452.264 252.479 452.169 252.742 452.156 253.049H450.69C450.706 252.507 450.866 252.029 451.17 251.617C451.478 251.205 451.883 250.883 452.387 250.651C452.89 250.419 453.449 250.303 454.064 250.303C454.708 250.303 455.264 250.429 455.732 250.68C456.203 250.929 456.566 251.261 456.821 251.676C457.079 252.091 457.207 252.546 457.203 253.04C457.207 253.602 457.05 254.079 456.732 254.472C456.418 254.864 456 255.127 455.477 255.261V255.34C456.144 255.441 456.66 255.706 457.027 256.134C457.396 256.563 457.579 257.094 457.576 257.729C457.579 258.281 457.426 258.777 457.115 259.215C456.808 259.653 456.387 259.998 455.854 260.25C455.321 260.498 454.712 260.622 454.025 260.622ZM462.927 260.652C462.152 260.649 461.49 260.444 460.941 260.039C460.391 259.633 459.971 259.043 459.68 258.268C459.389 257.493 459.244 256.56 459.244 255.467C459.244 254.379 459.389 253.448 459.68 252.677C459.974 251.905 460.396 251.316 460.946 250.911C461.498 250.505 462.159 250.303 462.927 250.303C463.696 250.303 464.355 250.507 464.904 250.916C465.453 251.321 465.873 251.91 466.164 252.681C466.459 253.45 466.606 254.379 466.606 255.467C466.606 256.563 466.46 257.498 466.169 258.273C465.878 259.045 465.458 259.635 464.909 260.044C464.359 260.449 463.699 260.652 462.927 260.652ZM462.927 259.342C463.607 259.342 464.139 259.01 464.521 258.347C464.907 257.683 465.1 256.723 465.1 255.467C465.1 254.634 465.012 253.929 464.835 253.353C464.662 252.775 464.412 252.337 464.085 252.039C463.761 251.738 463.375 251.588 462.927 251.588C462.25 251.588 461.719 251.921 461.333 252.588C460.947 253.255 460.753 254.215 460.749 255.467C460.749 256.305 460.836 257.012 461.009 257.591C461.186 258.167 461.436 258.603 461.76 258.901C462.084 259.195 462.473 259.342 462.927 259.342Z" fill="#979797"/>
<path d="M422.329 171.525C422.329 168.346 424.906 165.77 428.084 165.77H441.352C444.531 165.77 447.107 168.346 447.107 171.525V233.342H422.329V171.525Z" fill="#3B83EF"/>
<rect x="447.107" y="230.52" width="24.7779" height="1.88188" fill="#0450C0"/>
<path d="M512.014 260.538C511.34 260.538 510.738 260.422 510.209 260.19C509.682 259.958 509.265 259.636 508.958 259.224C508.654 258.808 508.49 258.328 508.467 257.782H510.007C510.027 258.079 510.127 258.338 510.307 258.557C510.49 258.772 510.728 258.939 511.023 259.057C511.317 259.175 511.644 259.234 512.004 259.234C512.399 259.234 512.749 259.165 513.053 259.028C513.361 258.89 513.601 258.699 513.774 258.454C513.948 258.205 514.034 257.919 514.034 257.595C514.034 257.258 513.948 256.963 513.774 256.708C513.604 256.449 513.354 256.246 513.024 256.099C512.697 255.952 512.301 255.879 511.837 255.879H510.988V254.643H511.837C512.21 254.643 512.537 254.576 512.818 254.441C513.102 254.307 513.325 254.121 513.485 253.882C513.645 253.64 513.725 253.358 513.725 253.034C513.725 252.723 513.655 252.453 513.514 252.224C513.377 251.992 513.181 251.811 512.926 251.68C512.674 251.549 512.376 251.484 512.033 251.484C511.706 251.484 511.4 251.544 511.116 251.665C510.835 251.783 510.606 251.953 510.429 252.175C510.253 252.395 510.158 252.658 510.145 252.965H508.678C508.695 252.422 508.855 251.945 509.159 251.533C509.466 251.121 509.872 250.799 510.375 250.567C510.879 250.334 511.438 250.218 512.053 250.218C512.697 250.218 513.253 250.344 513.72 250.596C514.191 250.845 514.554 251.176 514.809 251.592C515.068 252.007 515.195 252.462 515.192 252.955C515.195 253.518 515.038 253.995 514.721 254.388C514.407 254.78 513.989 255.043 513.465 255.177V255.256C514.132 255.357 514.649 255.622 515.015 256.05C515.385 256.479 515.568 257.01 515.565 257.644C515.568 258.197 515.414 258.692 515.104 259.131C514.796 259.569 514.376 259.914 513.843 260.165C513.31 260.414 512.7 260.538 512.014 260.538ZM520.916 260.568C520.141 260.564 519.479 260.36 518.929 259.955C518.38 259.549 517.96 258.959 517.669 258.184C517.378 257.409 517.232 256.475 517.232 255.383C517.232 254.294 517.378 253.364 517.669 252.592C517.963 251.821 518.385 251.232 518.934 250.827C519.487 250.421 520.147 250.218 520.916 250.218C521.684 250.218 522.343 250.423 522.892 250.831C523.442 251.237 523.862 251.826 524.153 252.597C524.447 253.366 524.594 254.294 524.594 255.383C524.594 256.479 524.449 257.414 524.158 258.189C523.867 258.96 523.447 259.551 522.897 259.959C522.348 260.365 521.688 260.568 520.916 260.568ZM520.916 259.258C521.596 259.258 522.127 258.926 522.51 258.262C522.896 257.599 523.089 256.639 523.089 255.383C523.089 254.549 523 253.845 522.824 253.269C522.651 252.69 522.4 252.252 522.073 251.955C521.75 251.654 521.364 251.503 520.916 251.503C520.239 251.503 519.708 251.837 519.322 252.504C518.936 253.171 518.741 254.131 518.738 255.383C518.738 256.22 518.825 256.928 518.998 257.507C519.175 258.083 519.425 258.519 519.748 258.817C520.072 259.111 520.461 259.258 520.916 259.258ZM530.793 254.741V256.016H526.339V254.741H530.793ZM536.09 260.538C535.417 260.538 534.815 260.422 534.285 260.19C533.759 259.958 533.342 259.636 533.035 259.224C532.73 258.808 532.567 258.328 532.544 257.782H534.084C534.104 258.079 534.204 258.338 534.383 258.557C534.566 258.772 534.805 258.939 535.099 259.057C535.394 259.175 535.721 259.234 536.08 259.234C536.476 259.234 536.826 259.165 537.13 259.028C537.437 258.89 537.678 258.699 537.851 258.454C538.024 258.205 538.111 257.919 538.111 257.595C538.111 257.258 538.024 256.963 537.851 256.708C537.681 256.449 537.431 256.246 537.101 256.099C536.774 255.952 536.378 255.879 535.914 255.879H535.065V254.643H535.914C536.286 254.643 536.613 254.576 536.895 254.441C537.179 254.307 537.401 254.121 537.562 253.882C537.722 253.64 537.802 253.358 537.802 253.034C537.802 252.723 537.732 252.453 537.591 252.224C537.454 251.992 537.258 251.811 537.003 251.68C536.751 251.549 536.453 251.484 536.11 251.484C535.783 251.484 535.477 251.544 535.193 251.665C534.911 251.783 534.683 251.953 534.506 252.175C534.329 252.395 534.235 252.658 534.221 252.965H532.755C532.771 252.422 532.932 251.945 533.236 251.533C533.543 251.121 533.948 250.799 534.452 250.567C534.956 250.334 535.515 250.218 536.129 250.218C536.774 250.218 537.33 250.344 537.797 250.596C538.268 250.845 538.631 251.176 538.886 251.592C539.144 252.007 539.272 252.462 539.269 252.955C539.272 253.518 539.115 253.995 538.798 254.388C538.484 254.78 538.065 255.043 537.542 255.177V255.256C538.209 255.357 538.726 255.622 539.092 256.05C539.462 256.479 539.645 257.01 539.641 257.644C539.645 258.197 539.491 258.692 539.18 259.131C538.873 259.569 538.453 259.914 537.92 260.165C537.387 260.414 536.777 260.538 536.09 260.538ZM544.811 260.538C544.196 260.538 543.644 260.42 543.153 260.185C542.666 259.946 542.277 259.619 541.986 259.204C541.695 258.789 541.54 258.315 541.52 257.782H542.991C543.027 258.213 543.219 258.568 543.565 258.846C543.912 259.124 544.327 259.263 544.811 259.263C545.197 259.263 545.539 259.175 545.836 258.998C546.137 258.818 546.372 258.571 546.543 258.257C546.716 257.944 546.802 257.585 546.802 257.183C546.802 256.775 546.714 256.41 546.538 256.09C546.361 255.769 546.117 255.517 545.807 255.334C545.499 255.151 545.146 255.058 544.747 255.055C544.443 255.055 544.137 255.107 543.83 255.212C543.523 255.316 543.274 255.454 543.085 255.624L541.697 255.418L542.261 250.356H547.783V251.656H543.521L543.202 254.466H543.261C543.457 254.276 543.717 254.118 544.041 253.99C544.368 253.863 544.718 253.799 545.091 253.799C545.702 253.799 546.247 253.944 546.724 254.235C547.205 254.526 547.582 254.924 547.857 255.427C548.135 255.928 548.272 256.503 548.269 257.154C548.272 257.805 548.125 258.385 547.828 258.895C547.533 259.405 547.125 259.807 546.601 260.102C546.081 260.393 545.485 260.538 544.811 260.538Z" fill="#979797"/>
<rect x="503.545" y="231.375" width="24.7779" height="1.88188" fill="#3B83EF"/>
<rect x="528.323" y="231.375" width="24.7779" height="1.88188" fill="#0450C0"/>
<path d="M595.923 260.813C595.249 260.813 594.648 260.697 594.118 260.465C593.591 260.233 593.174 259.911 592.867 259.499C592.563 259.084 592.399 258.603 592.377 258.057H593.917C593.936 258.354 594.036 258.613 594.216 258.832C594.399 259.048 594.638 259.214 594.932 259.332C595.226 259.45 595.553 259.509 595.913 259.509C596.309 259.509 596.659 259.44 596.963 259.303C597.27 259.165 597.51 258.974 597.684 258.729C597.857 258.48 597.944 258.194 597.944 257.87C597.944 257.534 597.857 257.238 597.684 256.983C597.514 256.724 597.263 256.522 596.933 256.374C596.606 256.227 596.211 256.154 595.746 256.154H594.898V254.918H595.746C596.119 254.918 596.446 254.851 596.727 254.717C597.012 254.583 597.234 254.396 597.394 254.157C597.555 253.915 597.635 253.633 597.635 253.309C597.635 252.998 597.564 252.729 597.424 252.5C597.286 252.267 597.09 252.086 596.835 251.955C596.583 251.824 596.286 251.759 595.942 251.759C595.615 251.759 595.31 251.819 595.025 251.94C594.744 252.058 594.515 252.228 594.339 252.451C594.162 252.67 594.067 252.933 594.054 253.24H592.588C592.604 252.697 592.764 252.22 593.068 251.808C593.376 251.396 593.781 251.074 594.285 250.842C594.788 250.61 595.347 250.494 595.962 250.494C596.606 250.494 597.162 250.619 597.63 250.871C598.101 251.12 598.464 251.452 598.719 251.867C598.977 252.282 599.104 252.737 599.101 253.23C599.104 253.793 598.947 254.27 598.63 254.663C598.316 255.055 597.898 255.318 597.375 255.452V255.531C598.042 255.632 598.558 255.897 598.925 256.325C599.294 256.754 599.477 257.285 599.474 257.919C599.477 258.472 599.324 258.967 599.013 259.406C598.706 259.844 598.285 260.189 597.752 260.441C597.219 260.689 596.61 260.813 595.923 260.813ZM604.644 260.813C604.029 260.813 603.476 260.696 602.986 260.46C602.499 260.222 602.109 259.895 601.818 259.479C601.527 259.064 601.372 258.59 601.353 258.057H602.824C602.86 258.488 603.051 258.843 603.398 259.121C603.744 259.399 604.16 259.538 604.644 259.538C605.03 259.538 605.371 259.45 605.669 259.273C605.97 259.093 606.205 258.847 606.375 258.533C606.548 258.219 606.635 257.861 606.635 257.458C606.635 257.05 606.547 256.685 606.37 256.365C606.194 256.044 605.95 255.792 605.639 255.609C605.332 255.426 604.979 255.333 604.58 255.33C604.276 255.33 603.97 255.382 603.663 255.487C603.355 255.591 603.107 255.729 602.917 255.899L601.529 255.693L602.093 250.631H607.616V251.931H603.354L603.035 254.741H603.094C603.29 254.551 603.55 254.393 603.874 254.265C604.201 254.138 604.55 254.074 604.923 254.074C605.535 254.074 606.079 254.22 606.557 254.511C607.037 254.802 607.415 255.199 607.69 255.702C607.968 256.203 608.105 256.778 608.102 257.429C608.105 258.08 607.958 258.66 607.66 259.17C607.366 259.68 606.957 260.083 606.434 260.377C605.914 260.668 605.317 260.813 604.644 260.813ZM614.352 255.016V256.291H609.898V255.016H614.352ZM616.076 258.714V257.488L620.416 250.631H621.383V252.436H620.77L617.665 257.351V257.429H623.614V258.714H616.076ZM620.838 260.676V258.341L620.848 257.782V250.631H622.285V260.676H620.838ZM628.821 260.843C628.046 260.84 627.384 260.635 626.834 260.23C626.285 259.824 625.865 259.234 625.574 258.459C625.283 257.684 625.137 256.751 625.137 255.658C625.137 254.569 625.283 253.639 625.574 252.867C625.868 252.096 626.29 251.507 626.839 251.102C627.392 250.696 628.053 250.494 628.821 250.494C629.589 250.494 630.248 250.698 630.798 251.107C631.347 251.512 631.767 252.101 632.058 252.872C632.352 253.641 632.5 254.569 632.5 255.658C632.5 256.754 632.354 257.689 632.063 258.464C631.772 259.236 631.352 259.826 630.803 260.235C630.253 260.64 629.593 260.843 628.821 260.843ZM628.821 259.533C629.501 259.533 630.032 259.201 630.415 258.538C630.801 257.874 630.994 256.914 630.994 255.658C630.994 254.825 630.906 254.12 630.729 253.544C630.556 252.966 630.305 252.527 629.978 252.23C629.655 251.929 629.269 251.779 628.821 251.779C628.144 251.779 627.613 252.112 627.227 252.779C626.841 253.446 626.646 254.406 626.643 255.658C626.643 256.495 626.73 257.203 626.903 257.782C627.08 258.358 627.33 258.794 627.654 259.092C627.977 259.386 628.366 259.533 628.821 259.533Z" fill="#979797"/>
<path d="M583.609 204.903C583.609 201.725 586.186 199.148 589.364 199.148H602.632C605.81 199.148 608.387 201.725 608.387 204.903V233.533H583.609V204.903Z" fill="#3B83EF"/>
<rect x="610.69" y="231.651" width="24.7779" height="1.88188" fill="#0450C0"/>
<path d="M687.221 256.57L680.707 259.729V258.228L685.514 256.04L685.465 256.124V255.913L685.514 256.001L680.707 253.809V252.313L687.221 255.471V256.57ZM689.317 258.954V257.728L693.658 250.871H694.625V252.676H694.011L690.907 257.59V257.669H696.856V258.954H689.317ZM694.08 260.916V258.581L694.09 258.022V250.871H695.527V260.916H694.08ZM702.063 261.083C701.288 261.079 700.626 260.875 700.076 260.469C699.527 260.064 699.107 259.474 698.816 258.699C698.525 257.924 698.379 256.99 698.379 255.898C698.379 254.809 698.525 253.879 698.816 253.107C699.11 252.336 699.532 251.747 700.081 251.341C700.634 250.936 701.294 250.733 702.063 250.733C702.831 250.733 703.49 250.938 704.039 251.346C704.589 251.752 705.009 252.34 705.3 253.112C705.594 253.881 705.741 254.809 705.741 255.898C705.741 256.994 705.596 257.929 705.305 258.704C705.014 259.475 704.594 260.066 704.044 260.474C703.495 260.88 702.834 261.083 702.063 261.083ZM702.063 259.773C702.743 259.773 703.274 259.441 703.657 258.777C704.043 258.113 704.236 257.154 704.236 255.898C704.236 255.064 704.147 254.36 703.971 253.784C703.797 253.205 703.547 252.767 703.22 252.47C702.897 252.169 702.511 252.018 702.063 252.018C701.386 252.018 700.855 252.352 700.469 253.019C700.083 253.686 699.888 254.646 699.885 255.898C699.885 256.735 699.972 257.443 700.145 258.022C700.322 258.597 700.572 259.034 700.895 259.332C701.219 259.626 701.608 259.773 702.063 259.773Z" fill="#979797"/>
<rect x="669.956" y="231.892" width="24.7779" height="1.88188" fill="#3B83EF"/>
<path d="M694.734 212.96C694.734 209.781 697.311 207.205 700.489 207.205H713.757C716.936 207.205 719.512 209.781 719.512 212.96V233.773H694.734V212.96Z" fill="#0450C0"/>
<path d="M63.6592 98.9221H70.1206" stroke="#979797" stroke-width="1.15101"/>
<path d="M63.6592 166.492H70.1206" stroke="#979797" stroke-width="1.15101"/>
<path d="M63.6592 234.534H70.1206" stroke="#979797" stroke-width="1.15101"/>
<path d="M164.52 98.3928L164.52 234.212" stroke="#A7B0BF" stroke-width="1.15101"/>
<path d="M246.193 98.3928L246.193 234.212" stroke="#A7B0BF" stroke-width="1.15101"/>
<path d="M327.866 98.3928L327.866 234.212" stroke="#A7B0BF" stroke-width="1.15101"/>
<path d="M409.539 98.3928L409.539 234.212" stroke="#A7B0BF" stroke-width="1.15101"/>
<path d="M491.212 98.3928L491.212 234.212" stroke="#A7B0BF" stroke-width="1.15101"/>
<path d="M572.886 98.3928L572.886 234.212" stroke="#A7B0BF" stroke-width="1.15101"/>
<path d="M654.559 98.3928L654.559 234.212" stroke="#A7B0BF" stroke-width="1.15101"/>
<path d="M736.232 98.3928L736.232 234.212" stroke="#A7B0BF" stroke-width="1.15101"/>
</svg>
