<svg width="333" height="279" viewBox="0 0 333 279" fill="none" xmlns="http://www.w3.org/2000/svg">
<rect x="0.661133" y="0.181152" width="331.49" height="278.544" rx="14.9631" fill="#1A1D24"/>
<path d="M44.5121 40.6228H40.9315C40.8661 40.1596 40.7326 39.7481 40.531 39.3884C40.3293 39.0233 40.0704 38.7126 39.7544 38.4565C39.4383 38.2003 39.0731 38.0042 38.6589 37.8679C38.2502 37.7317 37.806 37.6635 37.3264 37.6635C36.4599 37.6635 35.7051 37.8788 35.062 38.3093C34.419 38.7344 33.9203 39.3557 33.5661 40.1732C33.2118 40.9852 33.0347 41.9716 33.0347 43.1325C33.0347 44.326 33.2118 45.3287 33.5661 46.1408C33.9257 46.9528 34.4271 47.5659 35.0702 47.9801C35.7133 48.3943 36.4572 48.6014 37.3019 48.6014C37.7761 48.6014 38.2148 48.5387 38.6181 48.4134C39.0268 48.288 39.3892 48.1054 39.7053 47.8656C40.0214 47.6204 40.283 47.3234 40.4901 46.9746C40.7026 46.6258 40.8498 46.228 40.9315 45.7811L44.5121 45.7974C44.4194 46.5659 44.1878 47.307 43.8172 48.021C43.4521 48.7294 42.9589 49.3644 42.3376 49.9257C41.7217 50.4816 40.986 50.923 40.1304 51.25C39.2802 51.5715 38.3183 51.7323 37.2447 51.7323C35.7514 51.7323 34.4162 51.3944 33.2391 50.7186C32.0673 50.0429 31.1409 49.0646 30.4596 47.7839C29.7839 46.5032 29.446 44.9527 29.446 43.1325C29.446 41.3068 29.7893 39.7536 30.476 38.4728C31.1627 37.1921 32.0946 36.2166 33.2718 35.5463C34.4489 34.8705 35.7732 34.5326 37.2447 34.5326C38.2148 34.5326 39.114 34.6689 39.9424 34.9413C40.7762 35.2138 41.5147 35.6117 42.1577 36.1349C42.8008 36.6526 43.324 37.2875 43.7273 38.0396C44.136 38.7917 44.3976 39.6527 44.5121 40.6228ZM63.2098 38.947V51.5034H59.9072V38.947H63.2098ZM61.5994 44.4568V47.2035C61.3323 47.3234 60.9999 47.4378 60.602 47.5468C60.2042 47.6504 59.7873 47.7349 59.3513 47.8002C58.9153 47.8656 58.5066 47.8983 58.1251 47.8983C56.3212 47.8983 54.9015 47.5278 53.866 46.7866C52.8306 46.0399 52.3128 44.8492 52.3128 43.2142V38.9306H55.5991V43.2142C55.5991 43.6992 55.6808 44.0835 55.8443 44.3668C56.0133 44.6502 56.2803 44.8546 56.6455 44.98C57.016 45.0999 57.5093 45.1598 58.1251 45.1598C58.6973 45.1598 59.2587 45.0999 59.8091 44.98C60.3595 44.8601 60.9563 44.6857 61.5994 44.4568ZM71.6359 51.7487C70.3443 51.7487 69.2326 51.4871 68.3006 50.9639C67.3742 50.4352 66.6602 49.6886 66.1588 48.724C65.6575 47.7539 65.4068 46.6067 65.4068 45.2824C65.4068 43.9908 65.6575 42.8572 66.1588 41.8817C66.6602 40.9062 67.366 40.1459 68.2761 39.601C69.1917 39.056 70.2653 38.7835 71.497 38.7835C72.3253 38.7835 73.0965 38.917 73.8104 39.184C74.5298 39.4456 75.1565 39.8408 75.6906 40.3694C76.2302 40.898 76.6498 41.5629 76.9495 42.364C77.2493 43.1597 77.3991 44.0916 77.3991 45.1598V46.1162H66.7965V43.9581H74.1211C74.1211 43.4567 74.0121 43.0126 73.7941 42.6256C73.5761 42.2387 73.2736 41.9362 72.8867 41.7182C72.5052 41.4948 72.061 41.3831 71.5542 41.3831C71.0256 41.3831 70.5569 41.5057 70.1481 41.7509C69.7448 41.9907 69.4287 42.315 69.1999 42.7237C68.971 43.127 68.8538 43.5766 68.8483 44.0726V46.1244C68.8483 46.7457 68.9628 47.2825 69.1917 47.7349C69.426 48.1872 69.7557 48.536 70.1808 48.7812C70.6059 49.0265 71.11 49.1491 71.6932 49.1491C72.0801 49.1491 72.4343 49.0946 72.7559 48.9856C73.0774 48.8766 73.3526 48.7131 73.5815 48.4951C73.8104 48.2771 73.9848 48.0101 74.1047 47.694L77.3256 47.9065C77.1621 48.6804 76.8269 49.3562 76.3201 49.9339C75.8187 50.5061 75.1702 50.953 74.3745 51.2745C73.5843 51.5906 72.6714 51.7487 71.6359 51.7487ZM88.2716 38.947V41.6855H83.0561V51.5034H79.6717V38.947H88.2716ZM95.6186 51.7487C94.3488 51.7487 93.2507 51.4789 92.3242 50.9394C91.4032 50.3944 90.692 49.6368 90.1906 48.6668C89.6892 47.6913 89.4385 46.5604 89.4385 45.2742C89.4385 43.9772 89.6892 42.8436 90.1906 41.8735C90.692 40.898 91.4032 40.1405 92.3242 39.601C93.2507 39.056 94.3488 38.7835 95.6186 38.7835C96.8885 38.7835 97.9839 39.056 98.9049 39.601C99.8314 40.1405 100.545 40.898 101.047 41.8735C101.548 42.8436 101.799 43.9772 101.799 45.2742C101.799 46.5604 101.548 47.6913 101.047 48.6668C100.545 49.6368 99.8314 50.3944 98.9049 50.9394C97.9839 51.4789 96.8885 51.7487 95.6186 51.7487ZM95.635 49.051C96.2127 49.051 96.695 48.8875 97.0819 48.5605C97.4689 48.2281 97.7604 47.7757 97.9566 47.2035C98.1583 46.6313 98.2591 45.98 98.2591 45.2497C98.2591 44.5194 98.1583 43.8682 97.9566 43.296C97.7604 42.7237 97.4689 42.2714 97.0819 41.9389C96.695 41.6065 96.2127 41.4403 95.635 41.4403C95.0519 41.4403 94.5614 41.6065 94.1635 41.9389C93.7712 42.2714 93.4741 42.7237 93.2725 43.296C93.0763 43.8682 92.9782 44.5194 92.9782 45.2497C92.9782 45.98 93.0763 46.6313 93.2725 47.2035C93.4741 47.7757 93.7712 48.2281 94.1635 48.5605C94.5614 48.8875 95.0519 49.051 95.635 49.051ZM109.391 51.5034V38.947H120.37V51.5034H117.043V41.6855H112.677V51.5034H109.391ZM128.823 51.7487C127.553 51.7487 126.455 51.4789 125.528 50.9394C124.607 50.3944 123.896 49.6368 123.394 48.6668C122.893 47.6913 122.642 46.5604 122.642 45.2742C122.642 43.9772 122.893 42.8436 123.394 41.8735C123.896 40.898 124.607 40.1405 125.528 39.601C126.455 39.056 127.553 38.7835 128.823 38.7835C130.092 38.7835 131.188 39.056 132.109 39.601C133.035 40.1405 133.749 40.898 134.251 41.8735C134.752 42.8436 135.003 43.9772 135.003 45.2742C135.003 46.5604 134.752 47.6913 134.251 48.6668C133.749 49.6368 133.035 50.3944 132.109 50.9394C131.188 51.4789 130.092 51.7487 128.823 51.7487ZM128.839 49.051C129.417 49.051 129.899 48.8875 130.286 48.5605C130.673 48.2281 130.964 47.7757 131.16 47.2035C131.362 46.6313 131.463 45.98 131.463 45.2497C131.463 44.5194 131.362 43.8682 131.16 43.296C130.964 42.7237 130.673 42.2714 130.286 41.9389C129.899 41.6065 129.417 41.4403 128.839 41.4403C128.256 41.4403 127.765 41.6065 127.367 41.9389C126.975 42.2714 126.678 42.7237 126.476 43.296C126.28 43.8682 126.182 44.5194 126.182 45.2497C126.182 45.98 126.28 46.6313 126.476 47.2035C126.678 47.7757 126.975 48.2281 127.367 48.5605C127.765 48.8875 128.256 49.051 128.839 49.051ZM142.94 51.7487C141.654 51.7487 140.548 51.4762 139.621 50.9312C138.7 50.3808 137.992 49.6178 137.496 48.6423C137.005 47.6667 136.76 46.5441 136.76 45.2742C136.76 43.9881 137.008 42.86 137.504 41.8899C138.005 40.9144 138.717 40.1541 139.638 39.6091C140.559 39.0587 141.654 38.7835 142.924 38.7835C144.019 38.7835 144.979 38.9824 145.801 39.3802C146.624 39.7781 147.276 40.3367 147.755 41.0561C148.235 41.7754 148.499 42.6202 148.548 43.5902H145.262C145.169 42.9635 144.924 42.4594 144.526 42.0779C144.134 41.691 143.619 41.4975 142.981 41.4975C142.442 41.4975 141.97 41.6447 141.567 41.9389C141.169 42.2278 140.858 42.6501 140.635 43.206C140.412 43.7619 140.3 44.435 140.3 45.2252C140.3 46.0263 140.409 46.7076 140.627 47.2689C140.85 47.8302 141.164 48.258 141.567 48.5523C141.97 48.8466 142.442 48.9938 142.981 48.9938C143.379 48.9938 143.736 48.912 144.052 48.7485C144.374 48.585 144.638 48.348 144.845 48.0373C145.058 47.7212 145.197 47.3425 145.262 46.901H148.548C148.494 47.8602 148.232 48.7049 147.763 49.4352C147.3 50.16 146.66 50.7268 145.842 51.1356C145.025 51.5443 144.058 51.7487 142.94 51.7487ZM156.5 51.7487C155.209 51.7487 154.097 51.4871 153.165 50.9639C152.238 50.4352 151.525 49.6886 151.023 48.724C150.522 47.7539 150.271 46.6067 150.271 45.2824C150.271 43.9908 150.522 42.8572 151.023 41.8817C151.525 40.9062 152.23 40.1459 153.14 39.601C154.056 39.056 155.13 38.7835 156.361 38.7835C157.19 38.7835 157.961 38.917 158.675 39.184C159.394 39.4456 160.021 39.8408 160.555 40.3694C161.094 40.898 161.514 41.5629 161.814 42.364C162.114 43.1597 162.263 44.0916 162.263 45.1598V46.1162H151.661V43.9581H158.985C158.985 43.4567 158.876 43.0126 158.658 42.6256C158.44 42.2387 158.138 41.9362 157.751 41.7182C157.369 41.4948 156.925 41.3831 156.418 41.3831C155.89 41.3831 155.421 41.5057 155.012 41.7509C154.609 41.9907 154.293 42.315 154.064 42.7237C153.835 43.127 153.718 43.5766 153.713 44.0726V46.1244C153.713 46.7457 153.827 47.2825 154.056 47.7349C154.29 48.1872 154.62 48.536 155.045 48.7812C155.47 49.0265 155.974 49.1491 156.557 49.1491C156.944 49.1491 157.299 49.0946 157.62 48.9856C157.942 48.8766 158.217 48.7131 158.446 48.4951C158.675 48.2771 158.849 48.0101 158.969 47.694L162.19 47.9065C162.026 48.6804 161.691 49.3562 161.184 49.9339C160.683 50.5061 160.034 50.953 159.239 51.2745C158.449 51.5906 157.536 51.7487 156.5 51.7487ZM184.262 48.7649L184.016 55.1003H180.82V51.5034H179.422V48.7649H184.262ZM164.536 38.947H167.863V48.7403H171.403V38.947H174.73V48.7403H178.27V38.947H181.597V51.5034H164.536V38.947ZM189.923 51.7405C189.122 51.7405 188.408 51.6015 187.781 51.3236C187.154 51.0402 186.658 50.6233 186.293 50.0728C185.933 49.517 185.754 48.8248 185.754 47.9964C185.754 47.2989 185.882 46.713 186.138 46.2389C186.394 45.7647 186.743 45.3832 187.184 45.0944C187.626 44.8056 188.127 44.5876 188.688 44.4404C189.255 44.2933 189.849 44.1897 190.47 44.1298C191.201 44.0535 191.789 43.9826 192.236 43.9172C192.683 43.8464 193.007 43.7428 193.209 43.6066C193.411 43.4703 193.511 43.2687 193.511 43.0017V42.9526C193.511 42.4349 193.348 42.0343 193.021 41.7509C192.699 41.4675 192.242 41.3258 191.648 41.3258C191.021 41.3258 190.522 41.4648 190.152 41.7427C189.781 42.0152 189.536 42.3586 189.416 42.7728L186.195 42.5112C186.359 41.7482 186.68 41.0888 187.16 40.5329C187.639 39.9715 188.258 39.541 189.015 39.2413C189.778 38.9361 190.661 38.7835 191.664 38.7835C192.362 38.7835 193.029 38.8652 193.667 39.0287C194.31 39.1922 194.879 39.4456 195.375 39.789C195.877 40.1323 196.272 40.5738 196.561 41.1133C196.849 41.6474 196.994 42.2877 196.994 43.0344V51.5034H193.691V49.7622H193.593C193.392 50.1546 193.122 50.5006 192.784 50.8004C192.446 51.0947 192.04 51.3263 191.566 51.4952C191.092 51.6587 190.544 51.7405 189.923 51.7405ZM190.92 49.3371C191.432 49.3371 191.885 49.2363 192.277 49.0346C192.669 48.8275 192.977 48.5496 193.201 48.2008C193.424 47.852 193.536 47.4569 193.536 47.0155V45.683C193.427 45.7538 193.277 45.8192 193.086 45.8792C192.901 45.9337 192.691 45.9855 192.457 46.0345C192.223 46.0781 191.988 46.119 191.754 46.1571C191.52 46.1898 191.307 46.2198 191.116 46.247C190.708 46.307 190.351 46.4024 190.045 46.5332C189.74 46.664 189.503 46.8411 189.334 47.0645C189.165 47.2825 189.081 47.555 189.081 47.882C189.081 48.3561 189.252 48.7185 189.596 48.9692C189.945 49.2145 190.386 49.3371 190.92 49.3371ZM206.636 43.9091V46.6721H199.826V43.9091H206.636ZM202.516 38.947V51.5034H199.042V38.947H202.516ZM210.396 51.7487C209.154 51.7487 208.08 51.4707 207.176 50.9148C206.271 50.359 205.573 49.5905 205.083 48.6096C204.598 47.6286 204.355 46.5032 204.355 45.2334C204.355 43.9636 204.598 42.8436 205.083 41.8735C205.573 40.9035 206.271 40.1459 207.176 39.601C208.08 39.056 209.154 38.7835 210.396 38.7835C211.644 38.7835 212.718 39.056 213.617 39.601C214.522 40.1459 215.217 40.9035 215.702 41.8735C216.192 42.8436 216.438 43.9636 216.438 45.2334C216.438 46.5032 216.192 47.6286 215.702 48.6096C215.217 49.5905 214.522 50.359 213.617 50.9148C212.718 51.4707 211.644 51.7487 210.396 51.7487ZM210.396 48.9365C211.045 48.9365 211.568 48.7785 211.966 48.4624C212.364 48.1409 212.655 47.7022 212.841 47.1463C213.026 46.5849 213.119 45.9473 213.119 45.2334C213.119 44.5194 213.026 43.8873 212.841 43.3368C212.655 42.7809 212.364 42.345 211.966 42.0289C211.568 41.7128 211.045 41.5547 210.396 41.5547C209.753 41.5547 209.23 41.7128 208.827 42.0289C208.424 42.3395 208.127 42.77 207.936 43.3205C207.751 43.8709 207.658 44.5085 207.658 45.2334C207.658 45.9528 207.751 46.5904 207.936 47.1463C208.127 47.7022 208.424 48.1409 208.827 48.4624C209.23 48.7785 209.753 48.9365 210.396 48.9365ZM217.588 41.6855V38.947H228.967V41.6855H224.921V51.5034H221.602V41.6855H217.588Z" fill="#CACACA"/>
<path d="M220.355 149.986C219.78 149.986 219.255 149.864 218.781 149.619C218.31 149.373 217.934 149.045 217.653 148.633C217.375 148.221 217.236 147.763 217.236 147.259C217.236 146.86 217.326 146.481 217.505 146.121C217.689 145.762 217.939 145.454 218.256 145.199C218.576 144.941 218.943 144.764 219.355 144.67V144.63C218.835 144.451 218.406 144.141 218.07 143.703C217.736 143.265 217.569 142.77 217.569 142.217C217.569 141.74 217.693 141.31 217.942 140.927C218.194 140.541 218.531 140.236 218.952 140.01C219.374 139.781 219.842 139.667 220.355 139.667C220.862 139.667 221.326 139.779 221.748 140.005C222.17 140.231 222.507 140.536 222.759 140.922C223.014 141.305 223.141 141.736 223.141 142.217C223.141 142.763 222.976 143.259 222.646 143.703C222.315 144.145 221.885 144.454 221.356 144.63V144.67C221.768 144.758 222.132 144.931 222.45 145.19C222.77 145.448 223.02 145.758 223.2 146.121C223.383 146.481 223.475 146.86 223.475 147.259C223.475 147.763 223.334 148.221 223.053 148.633C222.775 149.045 222.399 149.373 221.925 149.619C221.454 149.864 220.931 149.986 220.355 149.986ZM220.355 149.673C220.878 149.673 221.351 149.563 221.773 149.344C222.198 149.122 222.535 148.827 222.783 148.461C223.035 148.092 223.161 147.684 223.161 147.24C223.161 146.795 223.035 146.39 222.783 146.023C222.535 145.654 222.198 145.36 221.773 145.14C221.351 144.918 220.878 144.807 220.355 144.807C219.832 144.807 219.358 144.918 218.933 145.14C218.511 145.36 218.174 145.654 217.922 146.023C217.674 146.39 217.55 146.795 217.55 147.24C217.55 147.684 217.674 148.092 217.922 148.461C218.174 148.827 218.513 149.122 218.938 149.344C219.363 149.563 219.835 149.673 220.355 149.673ZM220.355 144.532C220.81 144.532 221.223 144.426 221.596 144.213C221.969 144.001 222.266 143.72 222.489 143.37C222.714 143.017 222.827 142.632 222.827 142.217C222.827 141.799 222.714 141.421 222.489 141.084C222.266 140.744 221.969 140.476 221.596 140.28C221.223 140.08 220.81 139.981 220.355 139.981C219.904 139.981 219.49 140.08 219.114 140.28C218.741 140.476 218.442 140.744 218.217 141.084C217.994 141.421 217.883 141.799 217.883 142.217C217.883 142.632 217.994 143.017 218.217 143.37C218.442 143.72 218.741 144.001 219.114 144.213C219.49 144.426 219.904 144.532 220.355 144.532ZM228.619 149.986C228.194 149.986 227.8 149.89 227.437 149.697C227.074 149.504 226.756 149.215 226.485 148.829C226.217 148.44 226.008 147.951 225.857 147.362C225.71 146.774 225.636 146.085 225.636 145.297C225.636 144.621 225.684 143.95 225.779 143.286C225.877 142.619 226.04 142.013 226.269 141.467C226.498 140.921 226.812 140.484 227.211 140.157C227.61 139.83 228.112 139.667 228.717 139.667C229.214 139.667 229.647 139.779 230.017 140.005C230.386 140.227 230.679 140.538 230.894 140.937C231.11 141.333 231.235 141.792 231.267 142.315H230.953C230.904 141.625 230.684 141.065 230.291 140.633C229.902 140.198 229.377 139.981 228.717 139.981C227.801 139.981 227.111 140.45 226.647 141.388C226.183 142.323 225.95 143.672 225.95 145.435H225.99C226.098 145.101 226.279 144.805 226.534 144.547C226.792 144.285 227.098 144.081 227.451 143.934C227.804 143.783 228.174 143.708 228.56 143.708C229.086 143.708 229.567 143.846 230.002 144.12C230.44 144.395 230.79 144.769 231.051 145.243C231.313 145.718 231.444 146.252 231.444 146.847C231.444 147.403 231.324 147.92 231.086 148.397C230.85 148.875 230.52 149.259 230.095 149.55C229.673 149.841 229.181 149.986 228.619 149.986ZM228.619 149.673C229.103 149.673 229.533 149.545 229.909 149.29C230.288 149.035 230.585 148.693 230.801 148.265C231.02 147.836 231.13 147.364 231.13 146.847C231.13 146.318 231.014 145.84 230.782 145.415C230.553 144.987 230.242 144.648 229.85 144.4C229.461 144.148 229.024 144.022 228.54 144.022C228.158 144.022 227.803 144.102 227.476 144.262C227.149 144.419 226.869 144.637 226.637 144.915C226.408 145.19 226.245 145.505 226.147 145.861C226.048 146.218 226.035 146.592 226.107 146.985C226.219 147.573 226.392 148.067 226.627 148.466C226.866 148.865 227.154 149.166 227.491 149.368C227.831 149.571 228.207 149.673 228.619 149.673ZM238.835 148.025V147.711C238.835 147.318 238.907 146.975 239.051 146.681C239.198 146.386 239.396 146.157 239.645 145.994C239.893 145.83 240.173 145.749 240.483 145.749C240.794 145.749 241.074 145.83 241.322 145.994C241.571 146.157 241.767 146.386 241.911 146.681C242.058 146.975 242.132 147.318 242.132 147.711V148.025C242.132 148.417 242.058 148.76 241.911 149.055C241.767 149.349 241.571 149.578 241.322 149.741C241.074 149.905 240.794 149.986 240.483 149.986C240.173 149.986 239.893 149.905 239.645 149.741C239.396 149.578 239.198 149.349 239.051 149.055C238.907 148.76 238.835 148.417 238.835 148.025ZM239.149 147.711V148.025C239.149 148.525 239.277 148.925 239.532 149.226C239.79 149.524 240.107 149.673 240.483 149.673C240.86 149.673 241.175 149.524 241.43 149.226C241.688 148.925 241.818 148.525 241.818 148.025V147.711C241.818 147.21 241.688 146.811 241.43 146.514C241.175 146.213 240.86 146.063 240.483 146.063C240.107 146.063 239.79 146.213 239.532 146.514C239.277 146.811 239.149 147.21 239.149 147.711ZM233.656 141.942V141.629C233.656 141.236 233.728 140.893 233.872 140.599C234.019 140.304 234.217 140.075 234.465 139.912C234.714 139.748 234.993 139.667 235.304 139.667C235.615 139.667 235.894 139.748 236.143 139.912C236.391 140.075 236.587 140.304 236.731 140.599C236.878 140.893 236.952 141.236 236.952 141.629V141.942C236.952 142.332 236.878 142.675 236.731 142.973C236.587 143.267 236.391 143.496 236.143 143.659C235.894 143.823 235.615 143.904 235.304 143.904C234.993 143.904 234.714 143.823 234.465 143.659C234.217 143.496 234.019 143.267 233.872 142.973C233.728 142.675 233.656 142.332 233.656 141.942ZM233.97 141.629V141.942C233.97 142.443 234.097 142.843 234.352 143.144C234.611 143.442 234.928 143.591 235.304 143.591C235.68 143.591 235.996 143.442 236.251 143.144C236.509 142.843 236.638 142.443 236.638 141.942V141.629C236.638 141.128 236.509 140.729 236.251 140.432C235.996 140.131 235.68 139.981 235.304 139.981C234.928 139.981 234.611 140.131 234.352 140.432C234.097 140.729 233.97 141.128 233.97 141.629ZM234.264 149.849L241.151 139.804H241.523L234.637 149.849H234.264Z" fill="#1A1D24"/>
<path d="M156.065 115.051C157.297 113.603 159.474 113.417 160.865 114.711C167.566 120.946 172.982 128.435 176.795 136.762C180.605 145.081 182.732 154.053 183.069 163.167C183.139 165.073 181.564 166.6 179.658 166.577L120.256 165.839C117.332 165.802 115.775 162.375 117.671 160.148L156.065 115.051Z" fill="#3B83EF"/>
<path d="M145.116 145.296L145.244 155.34L144.327 155.352L144.211 146.269L144.152 146.269L141.818 147.864L141.806 146.912L144.159 145.308L145.116 145.296ZM148.026 153.146L148.017 152.401L152.404 145.203L152.953 145.196L152.969 146.446L152.562 146.452L149.04 152.245L149.041 152.309L154.912 152.234L154.922 153.058L148.026 153.146ZM152.743 155.244L152.712 152.851L152.708 152.508L152.615 145.2L153.488 145.189L153.616 155.233L152.743 155.244ZM161.997 153.262L161.991 152.806C161.986 152.43 162.057 152.091 162.204 151.788C162.35 151.482 162.561 151.239 162.837 151.059C163.113 150.879 163.442 150.786 163.824 150.781C164.21 150.777 164.542 150.861 164.818 151.034C165.095 151.207 165.309 151.444 165.46 151.747C165.611 152.045 165.689 152.383 165.694 152.759L165.7 153.215C165.705 153.591 165.634 153.93 165.487 154.233C165.344 154.536 165.136 154.779 164.864 154.962C164.591 155.142 164.264 155.235 163.881 155.24C163.492 155.245 163.157 155.161 162.877 154.988C162.6 154.811 162.385 154.574 162.231 154.275C162.08 153.976 162.002 153.638 161.997 153.262ZM162.761 152.796L162.767 153.252C162.772 153.622 162.866 153.936 163.049 154.196C163.235 154.452 163.51 154.577 163.873 154.573C164.226 154.568 164.491 154.436 164.667 154.175C164.844 153.911 164.93 153.594 164.925 153.225L164.919 152.769C164.914 152.399 164.822 152.087 164.642 151.831C164.462 151.571 164.193 151.444 163.833 151.448C163.476 151.453 163.207 151.587 163.024 151.851C162.844 152.112 162.756 152.427 162.761 152.796ZM156.861 147.466L156.855 147.01C156.85 146.634 156.921 146.295 157.068 145.992C157.214 145.689 157.425 145.448 157.701 145.268C157.977 145.084 158.306 144.99 158.688 144.985C159.074 144.98 159.405 145.066 159.682 145.242C159.959 145.415 160.173 145.651 160.324 145.95C160.475 146.249 160.553 146.587 160.558 146.963L160.564 147.419C160.568 147.795 160.498 148.136 160.351 148.442C160.208 148.745 160 148.986 159.727 149.166C159.455 149.346 159.128 149.438 158.745 149.443C158.356 149.448 158.021 149.364 157.741 149.191C157.464 149.018 157.249 148.782 157.094 148.483C156.943 148.181 156.866 147.842 156.861 147.466ZM157.625 147L157.631 147.456C157.635 147.826 157.729 148.14 157.913 148.399C158.099 148.655 158.374 148.781 158.737 148.776C159.09 148.772 159.354 148.639 159.531 148.379C159.708 148.115 159.793 147.798 159.789 147.429L159.783 146.973C159.778 146.603 159.686 146.29 159.506 146.034C159.326 145.775 159.056 145.648 158.697 145.652C158.34 145.657 158.071 145.791 157.888 146.055C157.708 146.316 157.62 146.631 157.625 147ZM157.41 155.185L164.183 145.052L165.051 145.041L158.279 155.174L157.41 155.185Z" fill="white"/>
<rect x="206.116" y="105.498" width="17.2651" height="17.2651" rx="5.17953" fill="#3B83EF" stroke="#3B83EF" stroke-width="1.15101"/>
<path d="M242.359 108.878V118.923H242.045V109.192H235.944V118.923H235.63V108.878H242.359ZM250.92 118.923L247.447 113.93H245.573V118.923H245.259V108.878H245.573V113.626H247.241L250.302 108.878H250.674L247.624 113.626L251.302 118.923H250.92Z" fill="white"/>
<rect x="206.116" y="136.576" width="17.2651" height="17.2651" rx="5.17953" fill="#0450C0" stroke="#0450C0" stroke-width="1.15101"/>
<path d="M235.159 140.269V139.955H241.947V140.269H238.71V150H238.396V140.269H235.159ZM245.853 150.157C245.196 150.157 244.62 149.985 244.126 149.642C243.636 149.299 243.255 148.833 242.984 148.244C242.712 147.655 242.576 146.992 242.576 146.253C242.576 145.514 242.712 144.85 242.984 144.261C243.258 143.673 243.631 143.207 244.102 142.863C244.573 142.52 245.104 142.348 245.696 142.348C246.134 142.348 246.54 142.442 246.912 142.628C247.288 142.814 247.615 143.073 247.893 143.403C248.171 143.733 248.387 144.114 248.541 144.546C248.698 144.974 248.776 145.432 248.776 145.919V146.233H242.733V145.919H248.462C248.462 145.314 248.338 144.767 248.09 144.276C247.841 143.782 247.507 143.39 247.089 143.099C246.67 142.808 246.206 142.662 245.696 142.662C245.179 142.662 244.712 142.816 244.293 143.123C243.875 143.431 243.539 143.849 243.288 144.379C243.036 144.909 242.903 145.507 242.89 146.174V146.213C242.89 146.871 243.005 147.476 243.234 148.028C243.466 148.578 243.803 149.017 244.244 149.348C244.686 149.678 245.222 149.843 245.853 149.843C246.317 149.843 246.706 149.761 247.02 149.598C247.337 149.434 247.591 149.246 247.78 149.034C247.973 148.821 248.116 148.64 248.207 148.489L248.462 148.666C248.351 148.856 248.184 149.066 247.962 149.299C247.74 149.531 247.455 149.732 247.109 149.902C246.762 150.072 246.343 150.157 245.853 150.157ZM250.116 150V149.686H250.273C250.627 149.686 250.9 149.627 251.093 149.51C251.289 149.389 251.431 149.199 251.519 148.941C251.608 148.679 251.668 148.337 251.701 147.915C251.737 147.494 251.771 146.979 251.804 146.37L252.02 142.466H256.336V150H256.022V142.78H252.314L252.118 146.39C252.085 146.992 252.049 147.52 252.01 147.974C251.974 148.426 251.902 148.802 251.794 149.102C251.689 149.4 251.518 149.624 251.279 149.774C251.043 149.925 250.708 150 250.273 150H250.116ZM261.864 150.157C261.206 150.157 260.631 149.985 260.137 149.642C259.647 149.299 259.266 148.833 258.994 148.244C258.723 147.655 258.587 146.992 258.587 146.253C258.587 145.514 258.723 144.85 258.994 144.261C259.269 143.673 259.642 143.207 260.113 142.863C260.583 142.52 261.115 142.348 261.707 142.348C262.145 142.348 262.55 142.442 262.923 142.628C263.299 142.814 263.626 143.073 263.904 143.403C264.182 143.733 264.398 144.114 264.551 144.546C264.708 144.974 264.787 145.432 264.787 145.919V146.233H258.744V145.919H264.473C264.473 145.314 264.349 144.767 264.1 144.276C263.852 143.782 263.518 143.39 263.1 143.099C262.681 142.808 262.217 142.662 261.707 142.662C261.19 142.662 260.722 142.816 260.304 143.123C259.885 143.431 259.55 143.849 259.298 144.379C259.047 144.909 258.914 145.507 258.901 146.174V146.213C258.901 146.871 259.015 147.476 259.244 148.028C259.477 148.578 259.813 149.017 260.255 149.348C260.696 149.678 261.232 149.843 261.864 149.843C262.328 149.843 262.717 149.761 263.031 149.598C263.348 149.434 263.602 149.246 263.791 149.034C263.984 148.821 264.126 148.64 264.218 148.489L264.473 148.666C264.362 148.856 264.195 149.066 263.973 149.299C263.75 149.531 263.466 149.732 263.119 149.902C262.773 150.072 262.354 150.157 261.864 150.157ZM270.443 152.57V139.955H270.757V152.57H270.443ZM270.443 150.157C269.907 150.157 269.404 150.057 268.933 149.858C268.465 149.655 268.053 149.375 267.697 149.019C267.34 148.659 267.061 148.246 266.858 147.778C266.658 147.307 266.559 146.805 266.559 146.272C266.559 145.733 266.658 145.228 266.858 144.757C267.061 144.283 267.34 143.867 267.697 143.511C268.053 143.154 268.465 142.875 268.933 142.672C269.404 142.469 269.907 142.368 270.443 142.368H270.522V150.157H270.443ZM270.443 149.843H270.483V142.682H270.443C269.95 142.682 269.487 142.775 269.055 142.962C268.624 143.148 268.244 143.406 267.917 143.736C267.59 144.063 267.334 144.444 267.147 144.879C266.964 145.311 266.873 145.775 266.873 146.272C266.873 146.93 267.033 147.53 267.353 148.072C267.677 148.612 268.109 149.044 268.648 149.367C269.191 149.688 269.789 149.846 270.443 149.843ZM270.757 150.157H270.679V142.368H270.757C271.294 142.368 271.796 142.469 272.263 142.672C272.734 142.875 273.148 143.154 273.504 143.511C273.86 143.867 274.138 144.283 274.338 144.757C274.541 145.228 274.642 145.733 274.642 146.272C274.642 146.805 274.541 147.307 274.338 147.778C274.138 148.246 273.86 148.659 273.504 149.019C273.148 149.375 272.734 149.655 272.263 149.858C271.796 150.057 271.294 150.157 270.757 150.157ZM270.757 149.843C271.248 149.843 271.709 149.751 272.14 149.568C272.572 149.382 272.951 149.125 273.278 148.798C273.609 148.468 273.865 148.087 274.048 147.655C274.235 147.224 274.328 146.763 274.328 146.272C274.328 145.612 274.168 145.01 273.847 144.467C273.527 143.925 273.095 143.491 272.552 143.168C272.013 142.844 271.415 142.682 270.757 142.682H270.718V149.843H270.757ZM279.525 150.157C278.933 150.157 278.402 149.987 277.931 149.647C277.46 149.304 277.087 148.838 276.812 148.249C276.541 147.657 276.405 146.992 276.405 146.253C276.405 145.51 276.541 144.845 276.812 144.256C277.087 143.668 277.46 143.203 277.931 142.863C278.402 142.52 278.933 142.348 279.525 142.348C280.117 142.348 280.646 142.52 281.114 142.863C281.585 143.207 281.958 143.673 282.232 144.261C282.507 144.85 282.644 145.514 282.644 146.253C282.644 146.992 282.507 147.657 282.232 148.249C281.961 148.838 281.59 149.304 281.119 149.647C280.648 149.987 280.117 150.157 279.525 150.157ZM279.525 149.843C280.058 149.843 280.535 149.686 280.957 149.372C281.382 149.058 281.717 148.63 281.962 148.087C282.208 147.544 282.33 146.933 282.33 146.253C282.33 145.573 282.206 144.963 281.958 144.423C281.712 143.88 281.379 143.452 280.957 143.138C280.535 142.821 280.058 142.662 279.525 142.662C278.995 142.662 278.518 142.821 278.093 143.138C277.671 143.452 277.336 143.88 277.087 144.423C276.842 144.963 276.719 145.573 276.719 146.253C276.719 146.933 276.842 147.544 277.087 148.087C277.332 148.63 277.666 149.058 278.088 149.372C278.513 149.686 278.992 149.843 279.525 149.843ZM290.035 146.076V146.39H285.061V146.076H290.035ZM285.169 142.466V150H284.855V142.466H285.169ZM290.201 142.466V150H289.887V142.466H290.201Z" fill="white"/>
<path d="M161.802 173.408C164.345 173.408 166.422 175.471 166.254 178.009C165.315 192.194 160.051 205.794 151.116 216.947C141.219 229.3 127.409 237.913 111.961 241.367C96.5129 244.82 80.3496 242.906 66.1346 235.943C51.9197 228.979 40.5014 217.38 33.7617 203.057C27.022 188.735 25.3631 172.543 29.0583 157.151C32.7535 141.76 41.5824 128.086 54.0898 118.384C66.5973 108.683 82.0368 103.532 97.864 103.78C112.152 104.005 125.987 108.618 137.516 116.937C139.578 118.425 139.844 121.34 138.223 123.3L103.007 165.869C100.524 168.871 102.659 173.408 106.554 173.408H161.802Z" fill="#0450C0"/>
<path d="M54.8046 189.97C54.1637 189.97 53.5931 189.849 53.0928 189.607C52.5925 189.365 52.2001 189.034 51.9156 188.616C51.6311 188.194 51.4889 187.718 51.4889 187.189C51.4889 186.773 51.5755 186.386 51.7489 186.026C51.9222 185.663 52.1609 185.359 52.465 185.114C52.7691 184.865 53.1108 184.703 53.4901 184.628V184.574C52.9963 184.43 52.599 184.148 52.2982 183.726C51.9974 183.301 51.8486 182.818 51.8519 182.279C51.8486 181.778 51.9761 181.331 52.2344 180.935C52.4928 180.539 52.8443 180.227 53.289 179.998C53.737 179.766 54.2422 179.65 54.8046 179.65C55.3637 179.65 55.8657 179.766 56.3104 179.998C56.7551 180.227 57.1066 180.539 57.3649 180.935C57.6265 181.331 57.7589 181.778 57.7622 182.279C57.7589 182.815 57.6069 183.297 57.3061 183.726C57.0052 184.151 56.6096 184.434 56.1191 184.574V184.628C56.4984 184.7 56.8385 184.86 57.1393 185.109C57.4401 185.357 57.6788 185.663 57.8554 186.026C58.032 186.386 58.1203 186.773 58.1203 187.189C58.1203 187.718 57.9764 188.194 57.6886 188.616C57.4042 189.034 57.0118 189.365 56.5115 189.607C56.0144 189.849 55.4455 189.97 54.8046 189.97ZM54.8046 189.146C55.282 189.146 55.7005 189.061 56.0602 188.891C56.4232 188.717 56.706 188.48 56.9088 188.179C57.1148 187.879 57.2178 187.534 57.2178 187.144C57.2178 186.742 57.1115 186.384 56.899 186.07C56.6864 185.753 56.3987 185.503 56.0357 185.32C55.6727 185.133 55.2624 185.04 54.8046 185.04C54.3468 185.04 53.9348 185.133 53.5686 185.32C53.2056 185.503 52.9178 185.753 52.7053 186.07C52.496 186.384 52.3914 186.742 52.3914 187.144C52.3914 187.534 52.4911 187.879 52.6906 188.179C52.8933 188.48 53.1762 188.717 53.5391 188.891C53.9054 189.061 54.3272 189.146 54.8046 189.146ZM54.8046 184.255C55.197 184.255 55.5485 184.172 55.8591 184.005C56.1698 183.839 56.415 183.611 56.5949 183.324C56.778 183.033 56.8712 182.702 56.8744 182.333C56.8712 181.967 56.7796 181.643 56.5998 181.362C56.4199 181.077 56.1747 180.856 55.864 180.699C55.5567 180.539 55.2035 180.459 54.8046 180.459C54.4057 180.459 54.0492 180.539 53.7353 180.699C53.4247 180.856 53.1794 181.077 52.9996 181.362C52.823 181.643 52.7364 181.967 52.7396 182.333C52.7364 182.702 52.8247 183.033 53.0045 183.324C53.1876 183.611 53.4345 183.839 53.7451 184.005C54.059 184.172 54.4122 184.255 54.8046 184.255ZM63.3206 189.97C62.9054 189.966 62.4999 189.883 62.1042 189.719C61.7086 189.553 61.3522 189.286 61.035 188.92C60.7178 188.55 60.466 188.063 60.2796 187.458C60.0932 186.853 60.0001 186.109 60.0001 185.227C60.0001 184.409 60.072 183.66 60.2159 182.98C60.3597 182.3 60.5756 181.711 60.8633 181.214C61.1511 180.717 61.5108 180.333 61.9424 180.062C62.374 179.787 62.8792 179.65 63.458 179.65C64.0008 179.65 64.4798 179.763 64.8951 179.988C65.3104 180.211 65.6472 180.521 65.9055 180.92C66.1638 181.319 66.3257 181.778 66.3911 182.298H65.4886C65.397 181.769 65.1796 181.332 64.8362 180.989C64.4929 180.645 64.0335 180.474 63.458 180.474C62.634 180.474 61.9963 180.856 61.5451 181.622C61.0938 182.383 60.8666 183.466 60.8633 184.869H60.9271C61.0873 184.571 61.2933 184.314 61.5451 184.098C61.8001 183.879 62.0895 183.709 62.4132 183.588C62.737 183.464 63.077 183.402 63.4335 183.402C63.9926 183.402 64.5044 183.544 64.9687 183.829C65.433 184.11 65.8041 184.497 66.0821 184.991C66.36 185.482 66.499 186.042 66.499 186.674C66.499 187.272 66.3666 187.823 66.1017 188.326C65.8401 188.83 65.4706 189.231 64.9932 189.528C64.5191 189.826 63.9615 189.973 63.3206 189.97ZM63.3206 189.146C63.7588 189.146 64.1496 189.034 64.4929 188.812C64.8395 188.59 65.1126 188.292 65.312 187.919C65.5115 187.543 65.6112 187.128 65.6112 186.674C65.6112 186.219 65.5115 185.807 65.312 185.438C65.1126 185.068 64.8395 184.774 64.4929 184.555C64.1496 184.336 63.7588 184.226 63.3206 184.226C62.9871 184.226 62.6765 184.295 62.3887 184.432C62.101 184.566 61.8508 184.751 61.6383 184.986C61.429 185.218 61.2688 185.485 61.1576 185.786C61.0497 186.087 61.0088 186.402 61.035 186.732C61.0709 187.193 61.1903 187.607 61.393 187.973C61.599 188.336 61.8672 188.622 62.1974 188.832C62.531 189.041 62.9054 189.146 63.3206 189.146ZM73.6552 187.968V187.512C73.6552 187.136 73.7304 186.798 73.8808 186.497C74.0312 186.193 74.2454 185.953 74.5233 185.776C74.8013 185.599 75.1315 185.511 75.5141 185.511C75.9 185.511 76.2302 185.599 76.5049 185.776C76.7796 185.953 76.9905 186.193 77.1376 186.497C77.2848 186.798 77.3584 187.136 77.3584 187.512V187.968C77.3584 188.344 77.2831 188.683 77.1327 188.984C76.9856 189.285 76.7747 189.525 76.5 189.705C76.2253 189.881 75.8967 189.97 75.5141 189.97C75.125 189.97 74.7915 189.881 74.5135 189.705C74.2389 189.525 74.0263 189.285 73.8759 188.984C73.7288 188.683 73.6552 188.344 73.6552 187.968ZM74.4252 187.512V187.968C74.4252 188.338 74.5152 188.653 74.695 188.915C74.8781 189.173 75.1512 189.303 75.5141 189.303C75.8673 189.303 76.1338 189.173 76.3136 188.915C76.4935 188.653 76.5834 188.338 76.5834 187.968V187.512C76.5834 187.143 76.4951 186.829 76.3185 186.571C76.1419 186.309 75.8738 186.178 75.5141 186.178C75.1577 186.178 74.8863 186.309 74.6999 186.571C74.5168 186.829 74.4252 187.143 74.4252 187.512ZM68.5934 182.107V181.651C68.5934 181.275 68.6686 180.936 68.819 180.636C68.9694 180.335 69.1836 180.096 69.4615 179.92C69.7395 179.74 70.0697 179.65 70.4523 179.65C70.8382 179.65 71.1684 179.74 71.4431 179.92C71.7178 180.096 71.9287 180.335 72.0758 180.636C72.223 180.936 72.2965 181.275 72.2965 181.651V182.107C72.2965 182.483 72.2213 182.823 72.0709 183.127C71.9238 183.428 71.7129 183.667 71.4382 183.843C71.1635 184.02 70.8349 184.108 70.4523 184.108C70.0632 184.108 69.7297 184.02 69.4517 183.843C69.177 183.667 68.9645 183.428 68.8141 183.127C68.6669 182.823 68.5934 182.483 68.5934 182.107ZM69.3634 181.651V182.107C69.3634 182.477 69.4534 182.792 69.6332 183.054C69.8163 183.312 70.0894 183.441 70.4523 183.441C70.8055 183.441 71.072 183.312 71.2518 183.054C71.4316 182.792 71.5216 182.477 71.5216 182.107V181.651C71.5216 181.281 71.4333 180.968 71.2567 180.709C71.0801 180.448 70.812 180.317 70.4523 180.317C70.0959 180.317 69.8245 180.448 69.6381 180.709C69.455 180.968 69.3634 181.281 69.3634 181.651ZM69.0446 189.832L75.9458 179.787H76.8139L69.9128 189.832H69.0446Z" fill="white"/>
</svg>
