<svg width="440" height="280" viewBox="0 0 440 280" fill="none" xmlns="http://www.w3.org/2000/svg">
<rect x="0.617432" y="0.557373" width="438.534" height="278.544" rx="14.9631" fill="#1A1D24"/>
<path d="M29.0592 39.2067V36.2884H42.8091V39.2067H37.6836V53.0303H34.1848V39.2067H29.0592ZM48.9095 53.2755C47.6179 53.2755 46.5062 53.0139 45.5742 52.4907C44.6478 51.9621 43.9338 51.2155 43.4325 50.2509C42.9311 49.2808 42.6804 48.1336 42.6804 46.8093C42.6804 45.5177 42.9311 44.3841 43.4325 43.4086C43.9338 42.4331 44.6396 41.6728 45.5497 41.1278C46.4653 40.5828 47.5389 40.3103 48.7706 40.3103C49.599 40.3103 50.3701 40.4439 51.084 40.7109C51.8034 40.9725 52.4301 41.3676 52.9642 41.8962C53.5038 42.4249 53.9234 43.0898 54.2231 43.8909C54.5229 44.6866 54.6728 45.6185 54.6728 46.6867V47.6431H44.0701V45.485H51.3947C51.3947 44.9836 51.2857 44.5394 51.0677 44.1525C50.8497 43.7655 50.5472 43.4631 50.1603 43.2451C49.7788 43.0216 49.3346 42.9099 48.8278 42.9099C48.2992 42.9099 47.8305 43.0325 47.4217 43.2778C47.0185 43.5176 46.7024 43.8418 46.4735 44.2506C46.2446 44.6539 46.1274 45.1035 46.122 45.5994V47.6513C46.122 48.2726 46.2364 48.8094 46.4653 49.2617C46.6996 49.714 47.0294 50.0628 47.4544 50.3081C47.8795 50.5533 48.3836 50.6759 48.9668 50.6759C49.3537 50.6759 49.708 50.6214 50.0295 50.5124C50.351 50.4034 50.6262 50.24 50.8551 50.022C51.084 49.804 51.2584 49.5369 51.3783 49.2208L54.5992 49.4334C54.4357 50.2073 54.1005 50.883 53.5937 51.4607C53.0923 52.033 52.4438 52.4798 51.6481 52.8014C50.8579 53.1175 49.945 53.2755 48.9095 53.2755ZM56.9453 57.7389V40.4738H60.3787V42.5829H60.5341C60.6867 42.245 60.9074 41.9017 61.1962 41.5529C61.4905 41.1987 61.872 40.9044 62.3407 40.67C62.8148 40.4302 63.4034 40.3103 64.1064 40.3103C65.022 40.3103 65.8667 40.5501 66.6406 41.0297C67.4145 41.5039 68.033 42.2205 68.4963 43.1797C68.9595 44.1334 69.1911 45.3296 69.1911 46.7684C69.1911 48.169 68.965 49.3516 68.5126 50.3163C68.0657 51.2754 67.4554 52.003 66.6815 52.4989C65.9131 52.9894 65.052 53.2346 64.0983 53.2346C63.4225 53.2346 62.8475 53.1229 62.3734 52.8995C61.9047 52.676 61.5205 52.3954 61.2207 52.0575C60.921 51.7141 60.6921 51.3681 60.5341 51.0193H60.4278V57.7389H56.9453ZM60.3542 46.7521C60.3542 47.4987 60.4578 48.1499 60.6649 48.7058C60.872 49.2617 61.1717 49.695 61.5641 50.0056C61.9565 50.3108 62.4333 50.4634 62.9947 50.4634C63.5615 50.4634 64.041 50.3081 64.4334 49.9974C64.8258 49.6813 65.1228 49.2454 65.3245 48.6895C65.5316 48.1281 65.6351 47.4823 65.6351 46.7521C65.6351 46.0272 65.5343 45.3896 65.3327 44.8392C65.131 44.2887 64.834 43.8582 64.4416 43.5475C64.0492 43.2369 63.5669 43.0816 62.9947 43.0816C62.4279 43.0816 61.9483 43.2315 61.5559 43.5312C61.169 43.8309 60.872 44.256 60.6649 44.8065C60.4578 45.3569 60.3542 46.0054 60.3542 46.7521ZM71.5128 57.7389V40.4738H74.9462V42.5829H75.1015C75.2541 42.245 75.4748 41.9017 75.7637 41.5529C76.0579 41.1987 76.4394 40.9044 76.9081 40.67C77.3823 40.4302 77.9708 40.3103 78.6739 40.3103C79.5894 40.3103 80.4342 40.5501 81.208 41.0297C81.9819 41.5039 82.6005 42.2205 83.0637 43.1797C83.527 44.1334 83.7586 45.3296 83.7586 46.7684C83.7586 48.169 83.5324 49.3516 83.0801 50.3163C82.6332 51.2754 82.0228 52.003 81.2489 52.4989C80.4805 52.9894 79.6194 53.2346 78.6657 53.2346C77.9899 53.2346 77.415 53.1229 76.9408 52.8995C76.4721 52.676 76.0879 52.3954 75.7882 52.0575C75.4884 51.7141 75.2595 51.3681 75.1015 51.0193H74.9952V57.7389H71.5128ZM74.9216 46.7521C74.9216 47.4987 75.0252 48.1499 75.2323 48.7058C75.4394 49.2617 75.7391 49.695 76.1315 50.0056C76.5239 50.3108 77.0008 50.4634 77.5621 50.4634C78.1289 50.4634 78.6085 50.3081 79.0009 49.9974C79.3932 49.6813 79.6903 49.2454 79.8919 48.6895C80.099 48.1281 80.2025 47.4823 80.2025 46.7521C80.2025 46.0272 80.1017 45.3896 79.9001 44.8392C79.6984 44.2887 79.4014 43.8582 79.009 43.5475C78.6166 43.2369 78.1343 43.0816 77.5621 43.0816C76.9953 43.0816 76.5157 43.2315 76.1233 43.5312C75.7364 43.8309 75.4394 44.256 75.2323 44.8065C75.0252 45.3569 74.9216 46.0054 74.9216 46.7521ZM89.4073 48.4361L93.928 40.4738H97.3614V53.0303H94.0424V45.0435L89.5381 53.0303H86.0802V40.4738H89.4073V48.4361ZM98.8921 43.2124V40.4738H110.271V43.2124H106.225V53.0303H102.906V43.2124H98.8921ZM117.606 53.2755C116.336 53.2755 115.238 53.0057 114.312 52.4662C113.391 51.9212 112.68 51.1637 112.178 50.1936C111.677 49.2181 111.426 48.0873 111.426 46.8011C111.426 45.504 111.677 44.3705 112.178 43.4004C112.68 42.4249 113.391 41.6673 114.312 41.1278C115.238 40.5828 116.336 40.3103 117.606 40.3103C118.876 40.3103 119.971 40.5828 120.892 41.1278C121.819 41.6673 122.533 42.4249 123.034 43.4004C123.536 44.3705 123.786 45.504 123.786 46.8011C123.786 48.0873 123.536 49.2181 123.034 50.1936C122.533 51.1637 121.819 51.9212 120.892 52.4662C119.971 53.0057 118.876 53.2755 117.606 53.2755ZM117.623 50.5778C118.2 50.5778 118.683 50.4143 119.069 50.0874C119.456 49.7549 119.748 49.3026 119.944 48.7303C120.146 48.1581 120.247 47.5069 120.247 46.7766C120.247 46.0463 120.146 45.395 119.944 44.8228C119.748 44.2506 119.456 43.7982 119.069 43.4658C118.683 43.1334 118.2 42.9671 117.623 42.9671C117.039 42.9671 116.549 43.1334 116.151 43.4658C115.759 43.7982 115.462 44.2506 115.26 44.8228C115.064 45.395 114.966 46.0463 114.966 46.7766C114.966 47.5069 115.064 48.1581 115.26 48.7303C115.462 49.3026 115.759 49.7549 116.151 50.0874C116.549 50.4143 117.039 50.5778 117.623 50.5778ZM126.051 57.7389V40.4738H129.484V42.5829H129.639C129.792 42.245 130.013 41.9017 130.302 41.5529C130.596 41.1987 130.977 40.9044 131.446 40.67C131.92 40.4302 132.509 40.3103 133.212 40.3103C134.127 40.3103 134.972 40.5501 135.746 41.0297C136.52 41.5039 137.138 42.2205 137.602 43.1797C138.065 44.1334 138.297 45.3296 138.297 46.7684C138.297 48.169 138.07 49.3516 137.618 50.3163C137.171 51.2754 136.561 52.003 135.787 52.4989C135.018 52.9894 134.157 53.2346 133.204 53.2346C132.528 53.2346 131.953 53.1229 131.479 52.8995C131.01 52.676 130.626 52.3954 130.326 52.0575C130.026 51.7141 129.797 51.3681 129.639 51.0193H129.533V57.7389H126.051ZM129.46 46.7521C129.46 47.4987 129.563 48.1499 129.77 48.7058C129.977 49.2617 130.277 49.695 130.669 50.0056C131.062 50.3108 131.539 50.4634 132.1 50.4634C132.667 50.4634 133.146 50.3081 133.539 49.9974C133.931 49.6813 134.228 49.2454 134.43 48.6895C134.637 48.1281 134.74 47.4823 134.74 46.7521C134.74 46.0272 134.64 45.3896 134.438 44.8392C134.236 44.2887 133.939 43.8582 133.547 43.5475C133.155 43.2369 132.672 43.0816 132.1 43.0816C131.533 43.0816 131.054 43.2315 130.661 43.5312C130.274 43.8309 129.977 44.256 129.77 44.8065C129.563 45.3569 129.46 46.0054 129.46 46.7521ZM143.945 48.4361L148.466 40.4738H151.899V53.0303H148.58V45.0435L144.076 53.0303H140.618V40.4738H143.945V48.4361ZM158.272 53.2673C157.47 53.2673 156.756 53.1284 156.13 52.8504C155.503 52.567 155.007 52.1501 154.642 51.5997C154.282 51.0438 154.102 50.3517 154.102 49.5233C154.102 48.8257 154.23 48.2399 154.487 47.7657C154.743 47.2916 155.092 46.9101 155.533 46.6213C155.974 46.3324 156.476 46.1144 157.037 45.9673C157.604 45.8201 158.198 45.7166 158.819 45.6566C159.55 45.5803 160.138 45.5095 160.585 45.4441C161.032 45.3732 161.356 45.2697 161.558 45.1335C161.759 44.9972 161.86 44.7956 161.86 44.5285V44.4795C161.86 43.9617 161.697 43.5612 161.37 43.2778C161.048 42.9944 160.59 42.8527 159.996 42.8527C159.37 42.8527 158.871 42.9917 158.5 43.2696C158.13 43.5421 157.885 43.8854 157.765 44.2996L154.544 44.038C154.707 43.2751 155.029 42.6156 155.508 42.0597C155.988 41.4984 156.607 41.0679 157.364 40.7681C158.127 40.4629 159.01 40.3103 160.013 40.3103C160.71 40.3103 161.378 40.3921 162.016 40.5556C162.659 40.7191 163.228 40.9725 163.724 41.3158C164.226 41.6592 164.621 42.1006 164.909 42.6401C165.198 43.1742 165.343 43.8146 165.343 44.5612V53.0303H162.04V51.289H161.942C161.74 51.6814 161.471 52.0275 161.133 52.3272C160.795 52.6215 160.389 52.8532 159.915 53.0221C159.441 53.1856 158.893 53.2673 158.272 53.2673ZM159.269 50.864C159.781 50.864 160.233 50.7631 160.626 50.5615C161.018 50.3544 161.326 50.0765 161.55 49.7277C161.773 49.3789 161.885 48.9838 161.885 48.5423V47.2098C161.776 47.2807 161.626 47.3461 161.435 47.406C161.25 47.4605 161.04 47.5123 160.806 47.5614C160.571 47.605 160.337 47.6458 160.103 47.684C159.868 47.7167 159.656 47.7467 159.465 47.7739C159.056 47.8338 158.699 47.9292 158.394 48.06C158.089 48.1908 157.852 48.3679 157.683 48.5914C157.514 48.8094 157.43 49.0819 157.43 49.4089C157.43 49.883 157.601 50.2454 157.945 50.4961C158.293 50.7413 158.735 50.864 159.269 50.864ZM167.309 53.0303L167.292 50.2672H167.709C168.004 50.2672 168.257 50.1964 168.47 50.0547C168.688 49.9075 168.867 49.6704 169.009 49.3435C169.151 49.0165 169.263 48.5832 169.344 48.0437C169.426 47.4987 169.481 46.8284 169.508 46.0327L169.712 40.4738H179.26V53.0303H175.941V43.2124H172.843L172.647 47.0463C172.598 48.0982 172.47 49.0028 172.263 49.7604C172.061 50.5179 171.78 51.1392 171.421 51.6242C171.061 52.1038 170.628 52.458 170.121 52.6869C169.614 52.9158 169.025 53.0303 168.355 53.0303H167.309ZM184.143 44.3323H187.895C189.557 44.3323 190.854 44.7302 191.786 45.5258C192.718 46.3161 193.184 47.3733 193.184 48.6976C193.184 49.5587 192.974 50.3163 192.554 50.9702C192.135 51.6188 191.53 52.1256 190.74 52.4907C189.949 52.8504 189.001 53.0303 187.895 53.0303H181.96V40.4738H185.287V50.2917H187.895C188.478 50.2917 188.958 50.1446 189.334 49.8503C189.71 49.556 189.9 49.18 189.906 48.7222C189.9 48.2371 189.71 47.842 189.334 47.5368C188.958 47.2262 188.478 47.0709 187.895 47.0709H184.143V44.3323ZM204.232 45.3623V48.1009H197.676V45.3623H204.232ZM198.82 40.4738V53.0303H195.493V40.4738H198.82ZM206.415 40.4738V53.0303H203.112V40.4738H206.415ZM214.79 53.2755C213.52 53.2755 212.422 53.0057 211.495 52.4662C210.574 51.9212 209.863 51.1637 209.362 50.1936C208.86 49.2181 208.61 48.0873 208.61 46.8011C208.61 45.504 208.86 44.3705 209.362 43.4004C209.863 42.4249 210.574 41.6673 211.495 41.1278C212.422 40.5828 213.52 40.3103 214.79 40.3103C216.06 40.3103 217.155 40.5828 218.076 41.1278C219.003 41.6673 219.716 42.4249 220.218 43.4004C220.719 44.3705 220.97 45.504 220.97 46.8011C220.97 48.0873 220.719 49.2181 220.218 50.1936C219.716 51.1637 219.003 51.9212 218.076 52.4662C217.155 53.0057 216.06 53.2755 214.79 53.2755ZM214.806 50.5778C215.384 50.5778 215.866 50.4143 216.253 50.0874C216.64 49.7549 216.932 49.3026 217.128 48.7303C217.329 48.1581 217.43 47.5069 217.43 46.7766C217.43 46.0463 217.329 45.395 217.128 44.8228C216.932 44.2506 216.64 43.7982 216.253 43.4658C215.866 43.1334 215.384 42.9671 214.806 42.9671C214.223 42.9671 213.733 43.1334 213.335 43.4658C212.942 43.7982 212.645 44.2506 212.444 44.8228C212.247 45.395 212.149 46.0463 212.149 46.7766C212.149 47.5069 212.247 48.1581 212.444 48.7303C212.645 49.3026 212.942 49.7549 213.335 50.0874C213.733 50.4143 214.223 50.5778 214.806 50.5778Z" fill="#CACACA"/>
<path d="M321.829 42.1814H321.495C321.433 41.8478 321.312 41.5078 321.132 41.1611C320.953 40.8145 320.714 40.4941 320.416 40.1998C320.119 39.9055 319.767 39.6684 319.362 39.4886C318.956 39.3087 318.497 39.2188 317.983 39.2188C317.297 39.2188 316.661 39.4068 316.075 39.7829C315.493 40.1557 315.024 40.7034 314.668 41.426C314.315 42.1454 314.138 43.025 314.138 44.0648C314.138 45.1177 314.315 46.0039 314.668 46.7233C315.024 47.4426 315.493 47.9871 316.075 48.3566C316.661 48.7261 317.297 48.9108 317.983 48.9108C318.497 48.9108 318.956 48.8225 319.362 48.646C319.767 48.4661 320.119 48.2307 320.416 47.9397C320.714 47.6454 320.953 47.3249 321.132 46.9783C321.312 46.6284 321.433 46.2851 321.495 45.9483H321.829C321.767 46.3014 321.643 46.6693 321.456 47.0519C321.27 47.4312 321.018 47.786 320.701 48.1162C320.384 48.4465 319.999 48.7146 319.548 48.9206C319.097 49.1234 318.575 49.2247 317.983 49.2247C317.159 49.2247 316.435 49.0089 315.811 48.5773C315.186 48.1457 314.699 47.5424 314.349 46.7674C313.999 45.9924 313.824 45.0916 313.824 44.0648C313.824 43.0381 313.999 42.1372 314.349 41.3622C314.699 40.5873 315.186 39.984 315.811 39.5524C316.435 39.1207 317.159 38.9049 317.983 38.9049C318.575 38.9049 319.097 39.0063 319.548 39.209C319.999 39.4117 320.384 39.6782 320.701 40.0085C321.018 40.3355 321.27 40.6903 321.456 41.0729C321.643 41.4522 321.767 41.8217 321.829 42.1814ZM323.629 41.8674V41.5535H329.044V41.8674H326.513V49.0874H326.199V41.8674H323.629ZM331.193 51.9126V41.5535H331.507V43.4762H331.547C331.684 43.0577 331.875 42.6964 332.121 42.3923C332.366 42.0882 332.655 41.8527 332.989 41.686C333.325 41.5192 333.695 41.4358 334.097 41.4358C334.692 41.4358 335.206 41.6075 335.637 41.9508C336.072 42.2909 336.407 42.7552 336.643 43.3438C336.881 43.9324 337.001 44.5978 337.001 45.3401C337.001 46.0791 336.881 46.7429 336.643 47.3315C336.404 47.92 336.067 48.386 335.632 48.7293C335.197 49.0727 334.686 49.2444 334.097 49.2444C333.698 49.2444 333.33 49.1626 332.994 48.9991C332.657 48.8323 332.364 48.5969 332.116 48.2928C331.867 47.9854 331.677 47.6225 331.547 47.2039H331.507V51.9126H331.193ZM331.507 45.3401C331.507 46.0202 331.612 46.6317 331.821 47.1745C332.034 47.714 332.333 48.1424 332.719 48.4596C333.108 48.7735 333.567 48.9304 334.097 48.9304C334.627 48.9304 335.085 48.7735 335.471 48.4596C335.86 48.1424 336.159 47.714 336.368 47.1745C336.581 46.6317 336.687 46.0202 336.687 45.3401C336.687 44.6599 336.582 44.0501 336.373 43.5106C336.164 42.9678 335.865 42.5394 335.475 42.2255C335.09 41.9083 334.63 41.7497 334.097 41.7497C333.564 41.7497 333.103 41.9083 332.714 42.2255C332.328 42.5394 332.031 42.9678 331.821 43.5106C331.612 44.0501 331.507 44.6599 331.507 45.3401ZM341.103 49.2444C340.691 49.2444 340.31 49.1593 339.96 48.9893C339.613 48.8193 339.334 48.5708 339.121 48.2438C338.912 47.9168 338.807 47.5178 338.807 47.047C338.807 46.7919 338.848 46.5532 338.93 46.3309C339.011 46.1052 339.155 45.9009 339.361 45.7178C339.567 45.5346 339.855 45.3777 340.225 45.2469C340.597 45.1161 341.073 45.0164 341.652 44.9477C341.998 44.9085 342.325 44.8627 342.633 44.8104C342.94 44.758 343.19 44.6796 343.383 44.5749C343.576 44.4703 343.673 44.3199 343.673 44.1237V43.6724C343.673 43.0937 343.478 42.6293 343.089 42.2795C342.7 41.9263 342.182 41.7497 341.534 41.7497C341.004 41.7497 340.542 41.8674 340.146 42.1029C339.75 42.335 339.474 42.662 339.317 43.0839L339.023 42.9661C339.141 42.6522 339.322 42.3808 339.567 42.1519C339.813 41.923 340.104 41.7465 340.44 41.6222C340.777 41.4979 341.142 41.4358 341.534 41.4358C341.917 41.4358 342.258 41.493 342.559 41.6075C342.863 41.7187 343.122 41.8756 343.334 42.0784C343.547 42.2778 343.709 42.5133 343.82 42.7847C343.931 43.0561 343.987 43.352 343.987 43.6724V49.0874H343.673V47.5571H343.633C343.476 47.8972 343.272 48.1947 343.02 48.4498C342.772 48.7016 342.484 48.8977 342.157 49.0384C341.833 49.1757 341.482 49.2444 341.103 49.2444ZM341.103 48.9304C341.58 48.9304 342.013 48.8029 342.402 48.5479C342.791 48.2895 343.1 47.9315 343.329 47.4737C343.558 47.0126 343.673 46.478 343.673 45.8698V44.7319C343.581 44.8006 343.47 44.861 343.339 44.9134C343.212 44.9657 343.066 45.0131 342.903 45.0556C342.742 45.0948 342.567 45.1292 342.378 45.1586C342.188 45.188 341.985 45.2158 341.77 45.242C341.096 45.3205 340.566 45.4398 340.18 45.6C339.795 45.7603 339.522 45.9614 339.361 46.2033C339.201 46.4453 339.121 46.7265 339.121 47.047C339.121 47.6159 339.311 48.0721 339.69 48.4154C340.073 48.7588 340.543 48.9304 341.103 48.9304ZM351.871 45.1635V45.4774H346.898V45.1635H351.871ZM347.006 41.5535V49.0874H346.692V41.5535H347.006ZM352.038 41.5535V49.0874H351.724V41.5535H352.038ZM356.628 49.2444C356.216 49.2444 355.835 49.1593 355.485 48.9893C355.138 48.8193 354.859 48.5708 354.646 48.2438C354.437 47.9168 354.332 47.5178 354.332 47.047C354.332 46.7919 354.373 46.5532 354.455 46.3309C354.537 46.1052 354.68 45.9009 354.886 45.7178C355.092 45.5346 355.38 45.3777 355.75 45.2469C356.122 45.1161 356.598 45.0164 357.177 44.9477C357.524 44.9085 357.851 44.8627 358.158 44.8104C358.465 44.758 358.715 44.6796 358.908 44.5749C359.101 44.4703 359.198 44.3199 359.198 44.1237V43.6724C359.198 43.0937 359.003 42.6293 358.614 42.2795C358.225 41.9263 357.707 41.7497 357.059 41.7497C356.53 41.7497 356.067 41.8674 355.671 42.1029C355.276 42.335 354.999 42.662 354.842 43.0839L354.548 42.9661C354.666 42.6522 354.847 42.3808 355.092 42.1519C355.338 41.923 355.629 41.7465 355.965 41.6222C356.302 41.4979 356.667 41.4358 357.059 41.4358C357.442 41.4358 357.784 41.493 358.084 41.6075C358.388 41.7187 358.647 41.8756 358.859 42.0784C359.072 42.2778 359.234 42.5133 359.345 42.7847C359.456 43.0561 359.512 43.352 359.512 43.6724V49.0874H359.198V47.5571H359.159C359.002 47.8972 358.797 48.1947 358.545 48.4498C358.297 48.7016 358.009 48.8977 357.682 49.0384C357.358 49.1757 357.007 49.2444 356.628 49.2444ZM356.628 48.9304C357.105 48.9304 357.538 48.8029 357.927 48.5479C358.317 48.2895 358.626 47.9315 358.854 47.4737C359.083 47.0126 359.198 46.478 359.198 45.8698V44.7319C359.106 44.8006 358.995 44.861 358.864 44.9134C358.737 44.9657 358.591 45.0131 358.428 45.0556C358.268 45.0948 358.093 45.1292 357.903 45.1586C357.713 45.188 357.511 45.2158 357.295 45.242C356.621 45.3205 356.091 45.4398 355.706 45.6C355.32 45.7603 355.047 45.9614 354.886 46.2033C354.726 46.4453 354.646 46.7265 354.646 47.047C354.646 47.6159 354.836 48.0721 355.215 48.4154C355.598 48.7588 356.068 48.9304 356.628 48.9304Z" fill="white"/>
<path d="M376.86 39.0422V40.3469H372.112V49.0874H370.596V39.0422H376.86ZM380.531 49.2395C379.825 49.2395 379.208 49.0776 378.682 48.7539C378.155 48.4302 377.747 47.9773 377.456 47.3952C377.165 46.8132 377.019 46.133 377.019 45.3548C377.019 44.5733 377.165 43.8899 377.456 43.3046C377.747 42.7193 378.155 42.2647 378.682 41.941C379.208 41.6173 379.825 41.4554 380.531 41.4554C381.237 41.4554 381.854 41.6173 382.38 41.941C382.907 42.2647 383.315 42.7193 383.606 43.3046C383.897 43.8899 384.043 44.5733 384.043 45.3548C384.043 46.133 383.897 46.8132 383.606 47.3952C383.315 47.9773 382.907 48.4302 382.38 48.7539C381.854 49.0776 381.237 49.2395 380.531 49.2395ZM380.536 48.0083C380.994 48.0083 381.373 47.8873 381.674 47.6454C381.975 47.4034 382.197 47.0813 382.341 46.6791C382.488 46.2769 382.562 45.8338 382.562 45.3499C382.562 44.8692 382.488 44.4278 382.341 44.0256C382.197 43.6201 381.975 43.2948 381.674 43.0495C381.373 42.8043 380.994 42.6817 380.536 42.6817C380.075 42.6817 379.692 42.8043 379.388 43.0495C379.087 43.2948 378.863 43.6201 378.716 44.0256C378.572 44.4278 378.5 44.8692 378.5 45.3499C378.5 45.8338 378.572 46.2769 378.716 46.6791C378.863 47.0813 379.087 47.4034 379.388 47.6454C379.692 47.8873 380.075 48.0083 380.536 48.0083ZM385.68 51.9126V41.5535H387.112V42.7748H387.235C387.32 42.6179 387.442 42.4364 387.603 42.2304C387.763 42.0244 387.985 41.8446 388.27 41.6909C388.554 41.5339 388.93 41.4554 389.398 41.4554C390.006 41.4554 390.549 41.6091 391.026 41.9165C391.504 42.2239 391.878 42.6669 392.149 43.2457C392.424 43.8245 392.561 44.521 392.561 45.3352C392.561 46.1494 392.426 46.8475 392.154 47.4296C391.883 48.0083 391.51 48.4547 391.036 48.7686C390.562 49.0792 390.021 49.2345 389.412 49.2345C388.955 49.2345 388.58 49.1577 388.289 49.004C388.001 48.8503 387.776 48.6705 387.612 48.4645C387.449 48.2585 387.323 48.0754 387.235 47.9151H387.146V51.9126H385.68ZM387.117 45.3205C387.117 45.8502 387.194 46.3145 387.347 46.7135C387.501 47.1124 387.723 47.4247 388.015 47.6503C388.306 47.8726 388.662 47.9838 389.084 47.9838C389.522 47.9838 389.888 47.8677 390.182 47.6356C390.477 47.4001 390.699 47.0813 390.85 46.6791C391.003 46.2769 391.08 45.824 391.08 45.3205C391.08 44.8234 391.005 44.3771 390.854 43.9814C390.707 43.5858 390.485 43.2735 390.187 43.0446C389.893 42.8157 389.525 42.7013 389.084 42.7013C388.659 42.7013 388.299 42.8108 388.005 43.0299C387.714 43.249 387.493 43.5547 387.343 43.9471C387.192 44.3395 387.117 44.7973 387.117 45.3205ZM397.378 49.2395C396.672 49.2395 396.055 49.0776 395.529 48.7539C395.002 48.4302 394.594 47.9773 394.303 47.3952C394.012 46.8132 393.866 46.133 393.866 45.3548C393.866 44.5733 394.012 43.8899 394.303 43.3046C394.594 42.7193 395.002 42.2647 395.529 41.941C396.055 41.6173 396.672 41.4554 397.378 41.4554C398.084 41.4554 398.701 41.6173 399.227 41.941C399.753 42.2647 400.162 42.7193 400.453 43.3046C400.744 43.8899 400.89 44.5733 400.89 45.3548C400.89 46.133 400.744 46.8132 400.453 47.3952C400.162 47.9773 399.753 48.4302 399.227 48.7539C398.701 49.0776 398.084 49.2395 397.378 49.2395ZM397.383 48.0083C397.841 48.0083 398.22 47.8873 398.521 47.6454C398.822 47.4034 399.044 47.0813 399.188 46.6791C399.335 46.2769 399.409 45.8338 399.409 45.3499C399.409 44.8692 399.335 44.4278 399.188 44.0256C399.044 43.6201 398.822 43.2948 398.521 43.0495C398.22 42.8043 397.841 42.6817 397.383 42.6817C396.922 42.6817 396.539 42.8043 396.235 43.0495C395.934 43.2948 395.71 43.6201 395.563 44.0256C395.419 44.4278 395.347 44.8692 395.347 45.3499C395.347 45.8338 395.419 46.2769 395.563 46.6791C395.71 47.0813 395.934 47.4034 396.235 47.6454C396.539 47.8873 396.922 48.0083 397.383 48.0083ZM401.791 51.2603V47.817H402.404C402.561 47.6732 402.694 47.5015 402.801 47.302C402.913 47.1026 403.006 46.8655 403.081 46.5908C403.16 46.3162 403.225 45.9957 403.277 45.6295C403.33 45.26 403.375 44.8382 403.415 44.364L403.65 41.5535H408.771V47.817H409.928V51.2603H408.496V49.0874H403.243V51.2603H401.791ZM403.974 47.817H407.338V42.8092H404.964L404.808 44.364C404.732 45.1553 404.637 45.842 404.523 46.4241C404.409 47.0028 404.225 47.4672 403.974 47.817Z" fill="white"/>
<rect x="250.386" y="109.903" width="161.141" height="11.5101" rx="5.75503" fill="#A7B0BF"/>
<rect x="250.386" y="109.903" width="63.3054" height="11.5101" rx="5.75503" fill="#0450C0"/>
<path d="M257.449 97.5806L254.074 93.0779H253.005V97.5806H251.489V87.5354H253.005V91.7781H253.5L257.297 87.5354H259.146L255.129 92.0332L259.298 97.5806H257.449ZM262.777 97.7473C262.299 97.7473 261.868 97.659 261.482 97.4825C261.096 97.3026 260.79 97.0427 260.565 96.7026C260.342 96.3625 260.231 95.9456 260.231 95.4519C260.231 95.0268 260.313 94.6769 260.476 94.4022C260.64 94.1275 260.86 93.9101 261.138 93.7499C261.416 93.5896 261.727 93.4687 262.07 93.3869C262.414 93.3052 262.764 93.243 263.12 93.2005C263.571 93.1482 263.937 93.1057 264.219 93.073C264.5 93.037 264.704 92.9798 264.832 92.9013C264.959 92.8229 265.023 92.6953 265.023 92.5188V92.4844C265.023 92.0561 264.902 91.7242 264.66 91.4887C264.421 91.2533 264.065 91.1356 263.591 91.1356C263.097 91.1356 262.708 91.2451 262.423 91.4642C262.142 91.68 261.948 91.9204 261.84 92.1852L260.462 91.8713C260.625 91.4135 260.864 91.044 261.178 90.7628C261.495 90.4783 261.859 90.2723 262.271 90.1448C262.683 90.014 263.117 89.9486 263.571 89.9486C263.872 89.9486 264.191 89.9846 264.528 90.0565C264.868 90.1252 265.185 90.2527 265.479 90.4391C265.777 90.6255 266.02 90.892 266.21 91.2386C266.4 91.5819 266.495 92.0283 266.495 92.5776V97.5806H265.062V96.5505H265.003C264.909 96.7402 264.766 96.9266 264.577 97.1097C264.387 97.2928 264.143 97.4449 263.846 97.5659C263.548 97.6868 263.192 97.7473 262.777 97.7473ZM263.095 96.5702C263.501 96.5702 263.848 96.4901 264.135 96.3298C264.426 96.1696 264.647 95.9603 264.797 95.702C264.951 95.4404 265.028 95.1608 265.028 94.8633V93.8921C264.976 93.9444 264.874 93.9935 264.724 94.0393C264.577 94.0818 264.408 94.1194 264.219 94.1521C264.029 94.1815 263.844 94.2093 263.664 94.2355C263.485 94.2583 263.334 94.278 263.213 94.2943C262.929 94.3303 262.669 94.3908 262.433 94.4758C262.201 94.5608 262.015 94.6834 261.874 94.8437C261.737 95.0006 261.668 95.2099 261.668 95.4715C261.668 95.8344 261.802 96.1091 262.07 96.2955C262.338 96.4786 262.68 96.5702 263.095 96.5702ZM268.002 95.5892H269.502C269.522 95.8966 269.661 96.1336 269.919 96.3004C270.181 96.4672 270.519 96.5505 270.935 96.5505C271.356 96.5505 271.716 96.4606 272.014 96.2808C272.311 96.0977 272.46 95.8148 272.46 95.4322C272.46 95.2033 272.403 95.0039 272.288 94.8338C272.177 94.6605 272.019 94.5265 271.813 94.4316C271.61 94.3368 271.37 94.2894 271.092 94.2894H269.865V93.1368H271.092C271.507 93.1368 271.818 93.0419 272.024 92.8523C272.23 92.6626 272.333 92.4256 272.333 92.1411C272.333 91.8337 272.221 91.5868 271.999 91.4004C271.78 91.2108 271.474 91.116 271.082 91.116C270.683 91.116 270.351 91.2059 270.086 91.3857C269.821 91.5623 269.682 91.7912 269.669 92.0724H268.188C268.198 91.6506 268.325 91.2811 268.571 90.9639C268.819 90.6435 269.153 90.3949 269.571 90.2184C269.993 90.0385 270.472 89.9486 271.008 89.9486C271.567 89.9486 272.051 90.0385 272.46 90.2184C272.869 90.3982 273.184 90.6467 273.407 90.9639C273.632 91.2811 273.745 91.6457 273.745 92.0577C273.745 92.473 273.621 92.813 273.372 93.0779C273.127 93.3395 272.807 93.5275 272.411 93.642V93.7204C272.702 93.7401 272.96 93.8283 273.186 93.9853C273.412 94.1423 273.588 94.3499 273.716 94.6082C273.843 94.8665 273.907 95.1592 273.907 95.4862C273.907 95.9472 273.779 96.3462 273.524 96.683C273.273 97.0198 272.923 97.2797 272.475 97.4628C272.03 97.6427 271.522 97.7326 270.949 97.7326C270.393 97.7326 269.895 97.646 269.453 97.4727C269.015 97.2961 268.667 97.0476 268.409 96.7271C268.154 96.4067 268.018 96.0274 268.002 95.5892ZM277.614 97.7473C277.136 97.7473 276.705 97.659 276.319 97.4825C275.933 97.3026 275.627 97.0427 275.402 96.7026C275.179 96.3625 275.068 95.9456 275.068 95.4519C275.068 95.0268 275.15 94.6769 275.313 94.4022C275.477 94.1275 275.698 93.9101 275.976 93.7499C276.254 93.5896 276.564 93.4687 276.908 93.3869C277.251 93.3052 277.601 93.243 277.957 93.2005C278.408 93.1482 278.775 93.1057 279.056 93.073C279.337 93.037 279.541 92.9798 279.669 92.9013C279.797 92.8229 279.86 92.6953 279.86 92.5188V92.4844C279.86 92.0561 279.739 91.7242 279.497 91.4887C279.259 91.2533 278.902 91.1356 278.428 91.1356C277.934 91.1356 277.545 91.2451 277.261 91.4642C276.979 91.68 276.785 91.9204 276.677 92.1852L275.299 91.8713C275.462 91.4135 275.701 91.044 276.015 90.7628C276.332 90.4783 276.697 90.2723 277.109 90.1448C277.521 90.014 277.954 89.9486 278.408 89.9486C278.709 89.9486 279.028 89.9846 279.365 90.0565C279.705 90.1252 280.022 90.2527 280.316 90.4391C280.614 90.6255 280.858 90.892 281.047 91.2386C281.237 91.5819 281.332 92.0283 281.332 92.5776V97.5806H279.9V96.5505H279.841C279.746 96.7402 279.604 96.9266 279.414 97.1097C279.224 97.2928 278.981 97.4449 278.683 97.5659C278.386 97.6868 278.029 97.7473 277.614 97.7473ZM277.933 96.5702C278.338 96.5702 278.685 96.4901 278.972 96.3298C279.264 96.1696 279.484 95.9603 279.635 95.702C279.788 95.4404 279.865 95.1608 279.865 94.8633V93.8921C279.813 93.9444 279.711 93.9935 279.561 94.0393C279.414 94.0818 279.246 94.1194 279.056 94.1521C278.866 94.1815 278.681 94.2093 278.502 94.2355C278.322 94.2583 278.171 94.278 278.05 94.2943C277.766 94.3303 277.506 94.3908 277.271 94.4758C277.038 94.5608 276.852 94.6834 276.711 94.8437C276.574 95.0006 276.505 95.2099 276.505 95.4715C276.505 95.8344 276.639 96.1091 276.908 96.2955C277.176 96.4786 277.517 96.5702 277.933 96.5702ZM288.391 93.1809V94.4513H284.31V93.1809H288.391ZM284.722 90.0467V97.5806H283.285V90.0467H284.722ZM289.416 90.0467V97.5806H287.984V90.0467H289.416ZM292.482 92.6365H294.669C295.591 92.6365 296.301 92.8654 296.798 93.3231C297.295 93.7809 297.544 94.3712 297.544 95.0938C297.544 95.5647 297.432 95.9881 297.21 96.3642C296.988 96.7402 296.662 97.0378 296.234 97.2568C295.806 97.4727 295.284 97.5806 294.669 97.5806H291.378V90.0467H292.815V96.3151H294.669C295.091 96.3151 295.438 96.2056 295.709 95.9865C295.98 95.7641 296.116 95.4813 296.116 95.1379C296.116 94.775 295.98 94.4791 295.709 94.2502C295.438 94.018 295.091 93.9019 294.669 93.9019H292.482V92.6365Z" fill="#CACACA"/>
<path d="M386.923 97.7179C386.249 97.7179 385.647 97.6018 385.118 97.3697C384.591 97.1375 384.174 96.8154 383.867 96.4034C383.563 95.9881 383.399 95.5074 383.376 94.9614H384.917C384.936 95.2589 385.036 95.5173 385.216 95.7363C385.399 95.9522 385.638 96.1189 385.932 96.2366C386.226 96.3544 386.553 96.4132 386.913 96.4132C387.308 96.4132 387.658 96.3445 387.962 96.2072C388.27 96.0699 388.51 95.8786 388.683 95.6333C388.857 95.3848 388.943 95.0987 388.943 94.775C388.943 94.4382 388.857 94.1423 388.683 93.8872C388.513 93.6289 388.263 93.4262 387.933 93.279C387.606 93.1319 387.21 93.0583 386.746 93.0583H385.897V91.8223H386.746C387.119 91.8223 387.446 91.7552 387.727 91.6212C388.011 91.4871 388.234 91.3007 388.394 91.062C388.554 90.82 388.634 90.5372 388.634 90.2135C388.634 89.9028 388.564 89.6331 388.423 89.4042C388.286 89.172 388.09 88.9905 387.835 88.8597C387.583 88.7289 387.286 88.6635 386.942 88.6635C386.615 88.6635 386.309 88.724 386.025 88.845C385.744 88.9627 385.515 89.1328 385.338 89.3551C385.162 89.5742 385.067 89.8374 385.054 90.1448H383.587C383.604 89.602 383.764 89.1246 384.068 88.7126C384.375 88.3006 384.781 87.9785 385.284 87.7463C385.788 87.5142 386.347 87.3981 386.962 87.3981C387.606 87.3981 388.162 87.524 388.629 87.7758C389.1 88.0243 389.463 88.3562 389.718 88.7714C389.977 89.1867 390.104 89.6412 390.101 90.135C390.104 90.6974 389.947 91.1748 389.63 91.5672C389.316 91.9596 388.898 92.2228 388.374 92.3569V92.4354C389.042 92.5367 389.558 92.8016 389.924 93.23C390.294 93.6583 390.477 94.1897 390.474 94.824C390.477 95.3766 390.323 95.872 390.013 96.3102C389.705 96.7484 389.285 97.0934 388.752 97.3451C388.219 97.5936 387.609 97.7179 386.923 97.7179ZM395.722 97.7179C395.019 97.7179 394.398 97.5969 393.858 97.3549C393.322 97.113 392.902 96.7794 392.598 96.3544C392.293 95.9293 392.143 95.4453 392.146 94.9025C392.143 94.4774 392.23 94.0867 392.406 93.7303C392.586 93.3706 392.83 93.0714 393.137 92.8327C393.444 92.5907 393.788 92.437 394.167 92.3716V92.3127C393.667 92.1918 393.266 91.9236 392.965 91.5084C392.665 91.0931 392.516 90.6157 392.519 90.0761C392.516 89.5628 392.651 89.105 392.926 88.7028C393.204 88.2973 393.585 87.9785 394.069 87.7463C394.553 87.5142 395.104 87.3981 395.722 87.3981C396.333 87.3981 396.879 87.5158 397.36 87.7512C397.844 87.9834 398.225 88.3022 398.503 88.7077C398.781 89.1099 398.922 89.566 398.925 90.0761C398.922 90.6157 398.768 91.0931 398.464 91.5084C398.16 91.9236 397.764 92.1918 397.277 92.3127V92.3716C397.653 92.437 397.991 92.5907 398.292 92.8327C398.596 93.0714 398.838 93.3706 399.018 93.7303C399.201 94.0867 399.294 94.4774 399.298 94.9025C399.294 95.4453 399.141 95.9293 398.837 96.3544C398.532 96.7794 398.111 97.113 397.571 97.3549C397.035 97.5969 396.418 97.7179 395.722 97.7179ZM395.722 96.477C396.137 96.477 396.497 96.4083 396.801 96.271C397.105 96.1304 397.341 95.9358 397.507 95.6873C397.674 95.4355 397.759 95.1412 397.762 94.8044C397.759 94.4545 397.668 94.1455 397.488 93.8774C397.311 93.6093 397.071 93.3984 396.767 93.2447C396.463 93.091 396.114 93.0141 395.722 93.0141C395.326 93.0141 394.975 93.091 394.667 93.2447C394.36 93.3984 394.118 93.6093 393.941 93.8774C393.765 94.1455 393.678 94.4545 393.681 94.8044C393.678 95.1412 393.758 95.4355 393.922 95.6873C394.089 95.9358 394.326 96.1304 394.633 96.271C394.94 96.4083 395.303 96.477 395.722 96.477ZM395.722 91.8026C396.055 91.8026 396.351 91.7356 396.61 91.6015C396.868 91.4675 397.071 91.2811 397.218 91.0424C397.368 90.8037 397.445 90.5241 397.448 90.2037C397.445 89.8897 397.37 89.6151 397.223 89.3796C397.079 89.1442 396.878 88.9627 396.62 88.8352C396.361 88.7044 396.062 88.639 395.722 88.639C395.375 88.639 395.071 88.7044 394.81 88.8352C394.551 88.9627 394.35 89.1442 394.206 89.3796C394.062 89.6151 393.992 89.8897 393.995 90.2037C393.992 90.5241 394.064 90.8037 394.211 91.0424C394.358 91.2811 394.561 91.4675 394.819 91.6015C395.081 91.7356 395.382 91.8026 395.722 91.8026ZM406.298 95.6971V95.1674C406.298 94.7881 406.377 94.4415 406.533 94.1275C406.694 93.8104 406.926 93.5569 407.23 93.3673C407.537 93.1744 407.908 93.0779 408.343 93.0779C408.788 93.0779 409.161 93.1727 409.462 93.3624C409.762 93.552 409.99 93.8055 410.143 94.1226C410.3 94.4398 410.379 94.7881 410.379 95.1674V95.6971C410.379 96.0764 410.3 96.4247 410.143 96.7418C409.986 97.0557 409.756 97.3092 409.452 97.5021C409.151 97.6917 408.782 97.7866 408.343 97.7866C407.902 97.7866 407.529 97.6917 407.225 97.5021C406.921 97.3092 406.69 97.0557 406.533 96.7418C406.377 96.4247 406.298 96.0764 406.298 95.6971ZM407.441 95.1674V95.6971C407.441 95.9783 407.508 96.2334 407.642 96.4623C407.776 96.6912 408.01 96.8056 408.343 96.8056C408.674 96.8056 408.904 96.6912 409.035 96.4623C409.166 96.2334 409.231 95.9783 409.231 95.6971V95.1674C409.231 94.8862 409.167 94.6311 409.04 94.4022C408.916 94.1733 408.683 94.0589 408.343 94.0589C408.016 94.0589 407.784 94.1733 407.647 94.4022C407.51 94.6311 407.441 94.8862 407.441 95.1674ZM401.246 89.9486V89.4189C401.246 89.0396 401.324 88.6913 401.481 88.3741C401.642 88.057 401.874 87.8035 402.178 87.6139C402.485 87.4242 402.856 87.3294 403.291 87.3294C403.736 87.3294 404.109 87.4242 404.41 87.6139C404.71 87.8035 404.938 88.057 405.091 88.3741C405.245 88.6913 405.322 89.0396 405.322 89.4189V89.9486C405.322 90.3279 405.243 90.6762 405.087 90.9933C404.933 91.3073 404.704 91.5607 404.4 91.7536C404.099 91.9432 403.73 92.0381 403.291 92.0381C402.847 92.0381 402.472 91.9432 402.168 91.7536C401.867 91.5607 401.638 91.3073 401.481 90.9933C401.324 90.6762 401.246 90.3279 401.246 89.9486ZM402.394 89.4189V89.9486C402.394 90.2298 402.459 90.4849 402.59 90.7138C402.724 90.9427 402.958 91.0571 403.291 91.0571C403.618 91.0571 403.847 90.9427 403.978 90.7138C404.112 90.4849 404.179 90.2298 404.179 89.9486V89.4189C404.179 89.1377 404.115 88.8826 403.988 88.6537C403.86 88.4248 403.628 88.3104 403.291 88.3104C402.964 88.3104 402.732 88.4248 402.595 88.6537C402.461 88.8826 402.394 89.1377 402.394 89.4189ZM401.712 97.5806L408.618 87.5354H409.79L402.884 97.5806H401.712Z" fill="#979797"/>
<rect x="29.3926" y="173.208" width="161.141" height="11.5101" rx="5.75503" fill="#A7B0BF"/>
<rect x="29.3926" y="173.208" width="89.7785" height="11.5101" rx="5.75503" fill="#0450C0"/>
<path d="M38.8393 152.956H37.309C37.2502 152.629 37.1406 152.342 36.9804 152.093C36.8202 151.845 36.624 151.634 36.3918 151.46C36.1596 151.287 35.8997 151.156 35.6119 151.068C35.3275 150.98 35.025 150.936 34.7045 150.936C34.1258 150.936 33.6075 151.081 33.1497 151.372C32.6952 151.663 32.3355 152.09 32.0706 152.652C31.809 153.215 31.6782 153.901 31.6782 154.712C31.6782 155.53 31.809 156.22 32.0706 156.782C32.3355 157.345 32.6968 157.77 33.1546 158.057C33.6124 158.345 34.1274 158.489 34.6996 158.489C35.0168 158.489 35.3176 158.447 35.6021 158.362C35.8899 158.273 36.1498 158.144 36.382 157.974C36.6142 157.804 36.8104 157.596 36.9706 157.351C37.1341 157.103 37.2469 156.818 37.309 156.498L38.8393 156.503C38.7576 156.996 38.599 157.451 38.3636 157.866C38.1314 158.278 37.8322 158.635 37.466 158.935C37.103 159.233 36.6877 159.463 36.2201 159.627C35.7525 159.79 35.2424 159.872 34.6898 159.872C33.82 159.872 33.0451 159.666 32.3649 159.254C31.6848 158.839 31.1485 158.245 30.7561 157.474C30.367 156.702 30.1725 155.782 30.1725 154.712C30.1725 153.64 30.3686 152.719 30.761 151.951C31.1534 151.179 31.6897 150.587 32.3698 150.175C33.05 149.76 33.8233 149.552 34.6898 149.552C35.2228 149.552 35.7198 149.629 36.1809 149.783C36.6452 149.933 37.0621 150.156 37.4316 150.45C37.8011 150.741 38.1069 151.097 38.3489 151.519C38.5908 151.938 38.7543 152.417 38.8393 152.956ZM48.5056 149.69V159.735H46.9949V150.985H42.2666V159.735H40.7559V149.69H48.5056ZM56.5177 149.395L57.1259 150.322C56.9003 150.528 56.6436 150.676 56.3558 150.764C56.0713 150.849 55.7427 150.903 55.3699 150.926C54.9972 150.945 54.5704 150.963 54.0898 150.98C53.547 150.996 53.1006 151.114 52.7507 151.333C52.4009 151.549 52.1311 151.869 51.9414 152.294C51.7551 152.716 51.6341 153.246 51.5785 153.883H51.6717C51.9169 153.416 52.257 153.066 52.6919 152.834C53.1301 152.602 53.6222 152.485 54.1682 152.485C54.7765 152.485 55.3176 152.624 55.7918 152.902C56.2659 153.18 56.6387 153.587 56.9101 154.124C57.1847 154.657 57.3221 155.309 57.3221 156.081C57.3221 156.862 57.1782 157.537 56.8904 158.106C56.606 158.675 56.2038 159.115 55.6839 159.426C55.1672 159.733 54.5574 159.887 53.8543 159.887C53.1513 159.887 52.5382 159.728 52.015 159.411C51.4951 159.091 51.0913 158.617 50.8035 157.989C50.519 157.361 50.3768 156.586 50.3768 155.664V154.918C50.3768 153.195 50.6842 151.899 51.2989 151.029C51.9136 150.159 52.8325 149.713 54.0554 149.69C54.4511 149.68 54.8042 149.678 55.1149 149.685C55.4255 149.688 55.6969 149.673 55.9291 149.641C56.1645 149.605 56.3607 149.523 56.5177 149.395ZM53.8592 158.656C54.268 158.656 54.6195 158.553 54.9138 158.347C55.2113 158.138 55.4402 157.842 55.6005 157.459C55.7607 157.076 55.8408 156.625 55.8408 156.105C55.8408 155.595 55.7607 155.162 55.6005 154.805C55.4402 154.449 55.2113 154.178 54.9138 153.991C54.6162 153.802 54.2598 153.707 53.8445 153.707C53.5372 153.707 53.2625 153.761 53.0205 153.869C52.7785 153.973 52.5709 154.129 52.3976 154.335C52.2276 154.541 52.0951 154.792 52.0003 155.09C51.9087 155.384 51.8597 155.723 51.8532 156.105C51.8532 156.884 52.0314 157.503 52.3878 157.964C52.7475 158.425 53.238 158.656 53.8592 158.656Z" fill="#CACACA"/>
<path d="M165.775 159.872C165.16 159.872 164.608 159.755 164.117 159.519C163.63 159.281 163.241 158.954 162.95 158.538C162.659 158.123 162.504 157.649 162.484 157.116H163.955C163.991 157.548 164.183 157.902 164.529 158.18C164.876 158.458 165.291 158.597 165.775 158.597C166.161 158.597 166.503 158.509 166.8 158.332C167.101 158.152 167.337 157.906 167.507 157.592C167.68 157.278 167.767 156.92 167.767 156.518C167.767 156.109 167.678 155.744 167.502 155.424C167.325 155.103 167.082 154.852 166.771 154.668C166.463 154.485 166.11 154.392 165.711 154.389C165.407 154.389 165.102 154.441 164.794 154.546C164.487 154.65 164.238 154.788 164.049 154.958L162.661 154.752L163.225 149.69H168.748V150.99H164.485L164.166 153.8H164.225C164.421 153.611 164.681 153.452 165.005 153.324C165.332 153.197 165.682 153.133 166.055 153.133C166.666 153.133 167.211 153.279 167.688 153.57C168.169 153.861 168.546 154.258 168.821 154.762C169.099 155.262 169.236 155.837 169.233 156.488C169.236 157.139 169.089 157.719 168.792 158.229C168.497 158.739 168.089 159.142 167.565 159.436C167.046 159.727 166.449 159.872 165.775 159.872ZM170.814 157.773V156.547L175.154 149.69H176.121V151.495H175.508L172.403 156.41V156.488H178.352V157.773H170.814ZM175.576 159.735V157.4L175.586 156.841V149.69H177.023V159.735H175.576ZM185.305 157.852V157.322C185.305 156.943 185.384 156.596 185.541 156.282C185.701 155.965 185.933 155.711 186.237 155.522C186.544 155.329 186.916 155.232 187.35 155.232C187.795 155.232 188.168 155.327 188.469 155.517C188.77 155.707 188.997 155.96 189.151 156.277C189.307 156.594 189.386 156.943 189.386 157.322V157.852C189.386 158.231 189.307 158.579 189.151 158.896C188.994 159.21 188.763 159.464 188.459 159.657C188.158 159.846 187.789 159.941 187.35 159.941C186.909 159.941 186.536 159.846 186.232 159.657C185.928 159.464 185.697 159.21 185.541 158.896C185.384 158.579 185.305 158.231 185.305 157.852ZM186.448 157.322V157.852C186.448 158.133 186.515 158.388 186.649 158.617C186.783 158.846 187.017 158.96 187.35 158.96C187.681 158.96 187.911 158.846 188.042 158.617C188.173 158.388 188.238 158.133 188.238 157.852V157.322C188.238 157.041 188.174 156.786 188.047 156.557C187.923 156.328 187.69 156.213 187.35 156.213C187.023 156.213 186.791 156.328 186.654 156.557C186.517 156.786 186.448 157.041 186.448 157.322ZM180.253 152.103V151.573C180.253 151.194 180.332 150.846 180.489 150.529C180.649 150.212 180.881 149.958 181.185 149.768C181.492 149.579 181.864 149.484 182.298 149.484C182.743 149.484 183.116 149.579 183.417 149.768C183.718 149.958 183.945 150.212 184.099 150.529C184.252 150.846 184.329 151.194 184.329 151.573V152.103C184.329 152.482 184.251 152.831 184.094 153.148C183.94 153.462 183.711 153.715 183.407 153.908C183.106 154.098 182.737 154.193 182.298 154.193C181.854 154.193 181.479 154.098 181.175 153.908C180.874 153.715 180.645 153.462 180.489 153.148C180.332 152.831 180.253 152.482 180.253 152.103ZM181.401 151.573V152.103C181.401 152.384 181.466 152.639 181.597 152.868C181.731 153.097 181.965 153.212 182.298 153.212C182.625 153.212 182.854 153.097 182.985 152.868C183.119 152.639 183.186 152.384 183.186 152.103V151.573C183.186 151.292 183.122 151.037 182.995 150.808C182.867 150.579 182.635 150.465 182.298 150.465C181.971 150.465 181.739 150.579 181.602 150.808C181.468 151.037 181.401 151.292 181.401 151.573ZM180.719 159.735L187.625 149.69H188.797L181.891 159.735H180.719Z" fill="#979797"/>
<rect x="29.3926" y="111.054" width="161.141" height="11.5101" rx="5.75503" fill="#A7B0BF"/>
<rect x="29.3926" y="111.054" width="109.346" height="11.5101" rx="5.75503" fill="#0450C0"/>
<path d="M30.4962 87.5354H32.3355L35.5335 95.344H35.6512L38.8491 87.5354H40.6885V97.5806H39.2464V90.3116H39.1532L36.1907 97.5659H34.9939L32.0314 90.3067H31.9382V97.5806H30.4962V87.5354ZM45.9477 97.7326C45.2414 97.7326 44.625 97.5708 44.0986 97.247C43.5721 96.9233 43.1634 96.4704 42.8724 95.8884C42.5813 95.3063 42.4358 94.6262 42.4358 93.848C42.4358 93.0665 42.5813 92.3831 42.8724 91.7977C43.1634 91.2124 43.5721 90.7579 44.0986 90.4342C44.625 90.1105 45.2414 89.9486 45.9477 89.9486C46.654 89.9486 47.2704 90.1105 47.7968 90.4342C48.3233 90.7579 48.732 91.2124 49.0231 91.7977C49.3141 92.3831 49.4596 93.0665 49.4596 93.848C49.4596 94.6262 49.3141 95.3063 49.0231 95.8884C48.732 96.4704 48.3233 96.9233 47.7968 97.247C47.2704 97.5708 46.654 97.7326 45.9477 97.7326ZM45.9526 96.5015C46.4104 96.5015 46.7897 96.3805 47.0905 96.1385C47.3914 95.8966 47.6137 95.5745 47.7576 95.1723C47.9047 94.7701 47.9783 94.327 47.9783 93.8431C47.9783 93.3624 47.9047 92.9209 47.7576 92.5188C47.6137 92.1133 47.3914 91.7879 47.0905 91.5427C46.7897 91.2974 46.4104 91.1748 45.9526 91.1748C45.4916 91.1748 45.109 91.2974 44.8049 91.5427C44.504 91.7879 44.2801 92.1133 44.1329 92.5188C43.989 92.9209 43.9171 93.3624 43.9171 93.8431C43.9171 94.327 43.989 94.7701 44.1329 95.1723C44.2801 95.5745 44.504 95.8966 44.8049 96.1385C45.109 96.3805 45.4916 96.5015 45.9526 96.5015ZM54.27 97.7326C53.5408 97.7326 52.913 97.5675 52.3866 97.2372C51.8634 96.9037 51.4612 96.4443 51.18 95.859C50.8988 95.2736 50.7581 94.6033 50.7581 93.848C50.7581 93.0828 50.902 92.4076 51.1898 91.8223C51.4775 91.2337 51.883 90.7743 52.4062 90.444C52.9294 90.1137 53.5457 89.9486 54.2553 89.9486C54.8275 89.9486 55.3376 90.0549 55.7856 90.2674C56.2336 90.4767 56.5949 90.771 56.8696 91.1503C57.1475 91.5296 57.3127 91.9727 57.365 92.4795H55.9377C55.8592 92.1264 55.6794 91.8223 55.3981 91.5672C55.1202 91.3122 54.7474 91.1846 54.2798 91.1846C53.8711 91.1846 53.513 91.2925 53.2057 91.5084C52.9016 91.7209 52.6645 92.025 52.4945 92.4207C52.3244 92.813 52.2394 93.2774 52.2394 93.8136C52.2394 94.363 52.3228 94.8371 52.4896 95.236C52.6563 95.635 52.8918 95.944 53.1959 96.1631C53.5032 96.3821 53.8646 96.4917 54.2798 96.4917C54.5578 96.4917 54.8096 96.441 55.0352 96.3396C55.2641 96.235 55.4554 96.0862 55.6091 95.8933C55.766 95.7004 55.8755 95.4682 55.9377 95.1968H57.365C57.3127 95.684 57.1541 96.1189 56.8892 96.5015C56.6244 96.8841 56.2696 97.1849 55.8249 97.404C55.3834 97.6231 54.8651 97.7326 54.27 97.7326ZM58.9333 97.5806V90.0467H60.3999V93.2054H61.1062L63.5929 90.0467H65.4077L62.4893 93.7106L65.4421 97.5806H63.6224L61.3514 94.569H60.3999V97.5806H58.9333ZM66.5812 97.5806V90.0467H69.7056C70.5558 90.0467 71.2294 90.2282 71.7264 90.5911C72.2234 90.9508 72.472 91.4397 72.472 92.0577C72.472 92.4991 72.3314 92.849 72.0501 93.1073C71.7689 93.3657 71.3962 93.539 70.9318 93.6272C71.2686 93.6665 71.5776 93.7679 71.8589 93.9314C72.1401 94.0916 72.3657 94.3074 72.5357 94.5788C72.709 94.8502 72.7957 95.1739 72.7957 95.55C72.7957 95.9489 72.6927 96.302 72.4867 96.6094C72.2807 96.9135 71.9815 97.1522 71.5891 97.3255C71.2 97.4955 70.7307 97.5806 70.1814 97.5806H66.5812ZM67.9595 96.3544H70.1814C70.5443 96.3544 70.8288 96.2677 71.0348 96.0944C71.2408 95.9211 71.3438 95.6857 71.3438 95.3881C71.3438 95.0382 71.2408 94.7635 71.0348 94.5641C70.8288 94.3613 70.5443 94.26 70.1814 94.26H67.9595V96.3544ZM67.9595 93.1858H69.7203C69.995 93.1858 70.2304 93.1466 70.4266 93.0681C70.6261 92.9896 70.7781 92.8784 70.8828 92.7346C70.9907 92.5874 71.0446 92.4141 71.0446 92.2146C71.0446 91.9236 70.9253 91.6964 70.6866 91.5329C70.4479 91.3694 70.1209 91.2876 69.7056 91.2876H67.9595V93.1858ZM76.5969 97.7473C76.1195 97.7473 75.6879 97.659 75.3021 97.4825C74.9162 97.3026 74.6105 97.0427 74.3849 96.7026C74.1625 96.3625 74.0513 95.9456 74.0513 95.4519C74.0513 95.0268 74.1331 94.6769 74.2966 94.4022C74.4601 94.1275 74.6808 93.9101 74.9587 93.7499C75.2367 93.5896 75.5473 93.4687 75.8906 93.3869C76.234 93.3052 76.5839 93.243 76.9403 93.2005C77.3915 93.1482 77.7578 93.1057 78.039 93.073C78.3202 93.037 78.5246 92.9798 78.6521 92.9013C78.7796 92.8229 78.8434 92.6953 78.8434 92.5188V92.4844C78.8434 92.0561 78.7224 91.7242 78.4804 91.4887C78.2417 91.2533 77.8853 91.1356 77.4111 91.1356C76.9174 91.1356 76.5283 91.2451 76.2438 91.4642C75.9626 91.68 75.768 91.9204 75.6601 92.1852L74.2818 91.8713C74.4453 91.4135 74.684 91.044 74.998 90.7628C75.3151 90.4783 75.6797 90.2723 76.0917 90.1448C76.5038 90.014 76.937 89.9486 77.3915 89.9486C77.6924 89.9486 78.0112 89.9846 78.348 90.0565C78.688 90.1252 79.0052 90.2527 79.2995 90.4391C79.5971 90.6255 79.8407 90.892 80.0303 91.2386C80.22 91.5819 80.3148 92.0283 80.3148 92.5776V97.5806H78.8826V96.5505H78.8237C78.7289 96.7402 78.5867 96.9266 78.397 97.1097C78.2074 97.2928 77.9638 97.4449 77.6662 97.5659C77.3686 97.6868 77.0122 97.7473 76.5969 97.7473ZM76.9158 96.5702C77.3212 96.5702 77.6678 96.4901 77.9556 96.3298C78.2466 96.1696 78.4673 95.9603 78.6177 95.702C78.7714 95.4404 78.8483 95.1608 78.8483 94.8633V93.8921C78.796 93.9444 78.6946 93.9935 78.5442 94.0393C78.397 94.0818 78.2286 94.1194 78.039 94.1521C77.8493 94.1815 77.6646 94.2093 77.4847 94.2355C77.3049 94.2583 77.1545 94.278 77.0335 94.2943C76.749 94.3303 76.489 94.3908 76.2536 94.4758C76.0214 94.5608 75.8351 94.6834 75.6944 94.8437C75.5571 95.0006 75.4884 95.2099 75.4884 95.4715C75.4884 95.8344 75.6225 96.1091 75.8906 96.2955C76.1588 96.4786 76.5005 96.5702 76.9158 96.5702Z" fill="#CACACA"/>
<path d="M165.872 97.7179C165.424 97.7114 164.983 97.6296 164.548 97.4727C164.116 97.3157 163.724 97.0541 163.371 96.6879C163.017 96.3217 162.735 95.8295 162.522 95.2115C162.313 94.5935 162.208 93.8218 162.208 92.8964C162.208 92.0201 162.295 91.2419 162.468 90.5617C162.645 89.8816 162.898 89.3077 163.228 88.8401C163.559 88.3692 163.958 88.0112 164.425 87.7659C164.893 87.5207 165.418 87.3981 166 87.3981C166.598 87.3981 167.129 87.5158 167.594 87.7512C168.058 87.9867 168.434 88.312 168.722 88.7273C169.013 89.1426 169.198 89.6151 169.276 90.1448H167.78C167.679 89.7263 167.478 89.3845 167.177 89.1197C166.876 88.8548 166.484 88.7224 166 88.7224C165.264 88.7224 164.69 89.0428 164.278 89.6837C163.869 90.3246 163.663 91.2157 163.66 92.3569H163.734C163.907 92.0724 164.119 91.8304 164.371 91.631C164.626 91.4282 164.911 91.2729 165.225 91.165C165.542 91.0538 165.875 90.9982 166.225 90.9982C166.807 90.9982 167.334 91.1405 167.805 91.425C168.279 91.7062 168.656 92.0953 168.938 92.5923C169.219 93.0893 169.359 93.6583 169.359 94.2992C169.359 94.9401 169.214 95.5205 168.923 96.0404C168.635 96.5604 168.23 96.9724 167.706 97.2765C167.183 97.5773 166.572 97.7244 165.872 97.7179ZM165.867 96.4426C166.253 96.4426 166.598 96.3478 166.902 96.1582C167.206 95.9685 167.447 95.7134 167.623 95.393C167.8 95.0725 167.888 94.7145 167.888 94.3188C167.888 93.933 167.801 93.5815 167.628 93.2643C167.458 92.9471 167.223 92.6953 166.922 92.5089C166.624 92.3226 166.284 92.2294 165.901 92.2294C165.61 92.2294 165.341 92.285 165.092 92.3961C164.847 92.5073 164.631 92.661 164.445 92.8572C164.258 93.0534 164.111 93.279 164.003 93.5341C163.899 93.7858 163.846 94.0523 163.846 94.3335C163.846 94.7096 163.933 95.0578 164.106 95.3783C164.283 95.6987 164.523 95.9571 164.827 96.1533C165.135 96.3462 165.481 96.4426 165.867 96.4426ZM174.643 97.7473C173.868 97.7441 173.206 97.5397 172.657 97.1342C172.107 96.7288 171.687 96.1385 171.396 95.3636C171.105 94.5886 170.96 93.655 170.96 92.5629C170.96 91.474 171.105 90.5437 171.396 89.772C171.69 89.0003 172.112 88.4117 172.662 88.0063C173.214 87.6008 173.875 87.3981 174.643 87.3981C175.412 87.3981 176.07 87.6024 176.62 88.0112C177.169 88.4167 177.589 89.0052 177.88 89.7769C178.175 90.5454 178.322 91.474 178.322 92.5629C178.322 93.6583 178.176 94.5935 177.885 95.3685C177.594 96.1402 177.174 96.7304 176.625 97.1391C176.075 97.5446 175.415 97.7473 174.643 97.7473ZM174.643 96.4377C175.323 96.4377 175.855 96.1058 176.237 95.442C176.623 94.7783 176.816 93.8185 176.816 92.5629C176.816 91.7291 176.728 91.0244 176.551 90.4489C176.378 89.8701 176.128 89.432 175.801 89.1344C175.477 88.8336 175.091 88.6832 174.643 88.6832C173.966 88.6832 173.435 89.0167 173.049 89.6837C172.663 90.3508 172.469 91.3105 172.465 92.5629C172.465 93.4 172.552 94.1079 172.725 94.6867C172.902 95.2622 173.152 95.6987 173.476 95.9963C173.8 96.2906 174.189 96.4377 174.643 96.4377ZM185.305 95.6971V95.1674C185.305 94.7881 185.384 94.4415 185.541 94.1275C185.701 93.8104 185.933 93.5569 186.237 93.3673C186.544 93.1744 186.916 93.0779 187.35 93.0779C187.795 93.0779 188.168 93.1727 188.469 93.3624C188.77 93.552 188.997 93.8055 189.151 94.1226C189.307 94.4398 189.386 94.7881 189.386 95.1674V95.6971C189.386 96.0764 189.307 96.4247 189.151 96.7418C188.994 97.0557 188.763 97.3092 188.459 97.5021C188.158 97.6917 187.789 97.7866 187.35 97.7866C186.909 97.7866 186.536 97.6917 186.232 97.5021C185.928 97.3092 185.697 97.0557 185.541 96.7418C185.384 96.4247 185.305 96.0764 185.305 95.6971ZM186.448 95.1674V95.6971C186.448 95.9783 186.515 96.2334 186.649 96.4623C186.783 96.6912 187.017 96.8056 187.35 96.8056C187.681 96.8056 187.911 96.6912 188.042 96.4623C188.173 96.2334 188.238 95.9783 188.238 95.6971V95.1674C188.238 94.8862 188.174 94.6311 188.047 94.4022C187.923 94.1733 187.69 94.0589 187.35 94.0589C187.023 94.0589 186.791 94.1733 186.654 94.4022C186.517 94.6311 186.448 94.8862 186.448 95.1674ZM180.253 89.9486V89.4189C180.253 89.0396 180.332 88.6913 180.489 88.3741C180.649 88.057 180.881 87.8035 181.185 87.6139C181.492 87.4242 181.864 87.3294 182.298 87.3294C182.743 87.3294 183.116 87.4242 183.417 87.6139C183.718 87.8035 183.945 88.057 184.099 88.3741C184.252 88.6913 184.329 89.0396 184.329 89.4189V89.9486C184.329 90.3279 184.251 90.6762 184.094 90.9933C183.94 91.3073 183.711 91.5607 183.407 91.7536C183.106 91.9432 182.737 92.0381 182.298 92.0381C181.854 92.0381 181.479 91.9432 181.175 91.7536C180.874 91.5607 180.645 91.3073 180.489 90.9933C180.332 90.6762 180.253 90.3279 180.253 89.9486ZM181.401 89.4189V89.9486C181.401 90.2298 181.466 90.4849 181.597 90.7138C181.731 90.9427 181.965 91.0571 182.298 91.0571C182.625 91.0571 182.854 90.9427 182.985 90.7138C183.119 90.4849 183.186 90.2298 183.186 89.9486V89.4189C183.186 89.1377 183.122 88.8826 182.995 88.6537C182.867 88.4248 182.635 88.3104 182.298 88.3104C181.971 88.3104 181.739 88.4248 181.602 88.6537C181.468 88.8826 181.401 89.1377 181.401 89.4189ZM180.719 97.5806L187.625 87.5354H188.797L181.891 97.5806H180.719Z" fill="#979797"/>
<rect x="250.386" y="172.057" width="161.141" height="11.5101" rx="5.75503" fill="#A7B0BF"/>
<rect x="250.386" y="172.057" width="50.6443" height="11.5101" rx="5.75503" fill="#0450C0"/>
<path d="M251.489 158.584V148.539H255.07C255.851 148.539 256.499 148.681 257.012 148.966C257.526 149.25 257.91 149.639 258.165 150.133C258.42 150.623 258.547 151.176 258.547 151.791C258.547 152.409 258.418 152.965 258.16 153.458C257.905 153.949 257.519 154.338 257.002 154.626C256.489 154.91 255.843 155.052 255.065 155.052H252.603V153.767H254.928C255.421 153.767 255.822 153.682 256.129 153.512C256.437 153.339 256.662 153.104 256.806 152.806C256.95 152.508 257.022 152.17 257.022 151.791C257.022 151.411 256.95 151.075 256.806 150.78C256.662 150.486 256.435 150.256 256.124 150.089C255.817 149.922 255.412 149.839 254.908 149.839H253.005V158.584H251.489ZM263.286 158.736C262.579 158.736 261.963 158.574 261.436 158.25C260.91 157.927 260.501 157.474 260.21 156.892C259.919 156.31 259.774 155.63 259.774 154.851C259.774 154.07 259.919 153.386 260.21 152.801C260.501 152.216 260.91 151.761 261.436 151.438C261.963 151.114 262.579 150.952 263.286 150.952C263.992 150.952 264.608 151.114 265.135 151.438C265.661 151.761 266.07 152.216 266.361 152.801C266.652 153.386 266.797 154.07 266.797 154.851C266.797 155.63 266.652 156.31 266.361 156.892C266.07 157.474 265.661 157.927 265.135 158.25C264.608 158.574 263.992 158.736 263.286 158.736ZM263.29 157.505C263.748 157.505 264.128 157.384 264.428 157.142C264.729 156.9 264.952 156.578 265.095 156.176C265.243 155.773 265.316 155.33 265.316 154.846C265.316 154.366 265.243 153.924 265.095 153.522C264.952 153.117 264.729 152.791 264.428 152.546C264.128 152.301 263.748 152.178 263.29 152.178C262.829 152.178 262.447 152.301 262.143 152.546C261.842 152.791 261.618 153.117 261.471 153.522C261.327 153.924 261.255 154.366 261.255 154.846C261.255 155.33 261.327 155.773 261.471 156.176C261.618 156.578 261.842 156.9 262.143 157.142C262.447 157.384 262.829 157.505 263.29 157.505ZM271.608 158.736C270.879 158.736 270.251 158.571 269.724 158.241C269.201 157.907 268.799 157.448 268.518 156.862C268.237 156.277 268.096 155.607 268.096 154.851C268.096 154.086 268.24 153.411 268.528 152.826C268.815 152.237 269.221 151.778 269.744 151.447C270.267 151.117 270.884 150.952 271.593 150.952C272.165 150.952 272.675 151.058 273.123 151.271C273.571 151.48 273.933 151.774 274.207 152.154C274.485 152.533 274.65 152.976 274.703 153.483H273.275C273.197 153.13 273.017 152.826 272.736 152.571C272.458 152.316 272.085 152.188 271.618 152.188C271.209 152.188 270.851 152.296 270.543 152.512C270.239 152.724 270.002 153.028 269.832 153.424C269.662 153.816 269.577 154.281 269.577 154.817C269.577 155.366 269.661 155.841 269.827 156.239C269.994 156.638 270.23 156.947 270.534 157.166C270.841 157.386 271.202 157.495 271.618 157.495C271.896 157.495 272.147 157.444 272.373 157.343C272.602 157.238 272.793 157.09 272.947 156.897C273.104 156.704 273.213 156.472 273.275 156.2H274.703C274.65 156.687 274.492 157.122 274.227 157.505C273.962 157.887 273.607 158.188 273.163 158.407C272.721 158.626 272.203 158.736 271.608 158.736ZM275.701 152.316V151.05H282.058V152.316H279.6V158.584H278.168V152.316H275.701ZM286.432 158.736C285.725 158.736 285.109 158.574 284.582 158.25C284.056 157.927 283.647 157.474 283.356 156.892C283.065 156.31 282.92 155.63 282.92 154.851C282.92 154.07 283.065 153.386 283.356 152.801C283.647 152.216 284.056 151.761 284.582 151.438C285.109 151.114 285.725 150.952 286.432 150.952C287.138 150.952 287.754 151.114 288.281 151.438C288.807 151.761 289.216 152.216 289.507 152.801C289.798 153.386 289.943 154.07 289.943 154.851C289.943 155.63 289.798 156.31 289.507 156.892C289.216 157.474 288.807 157.927 288.281 158.25C287.754 158.574 287.138 158.736 286.432 158.736ZM286.436 157.505C286.894 157.505 287.274 157.384 287.574 157.142C287.875 156.9 288.098 156.578 288.241 156.176C288.389 155.773 288.462 155.33 288.462 154.846C288.462 154.366 288.389 153.924 288.241 153.522C288.098 153.117 287.875 152.791 287.574 152.546C287.274 152.301 286.894 152.178 286.436 152.178C285.975 152.178 285.593 152.301 285.289 152.546C284.988 152.791 284.764 153.117 284.617 153.522C284.473 153.924 284.401 154.366 284.401 154.846C284.401 155.33 284.473 155.773 284.617 156.176C284.764 156.578 284.988 156.9 285.289 157.142C285.593 157.384 285.975 157.505 286.436 157.505ZM291.58 158.584V151.05H294.705C295.555 151.05 296.229 151.232 296.726 151.595C297.223 151.954 297.471 152.443 297.471 153.061C297.471 153.503 297.331 153.852 297.049 154.111C296.768 154.369 296.395 154.542 295.931 154.631C296.268 154.67 296.577 154.771 296.858 154.935C297.139 155.095 297.365 155.311 297.535 155.582C297.708 155.854 297.795 156.177 297.795 156.553C297.795 156.952 297.692 157.305 297.486 157.613C297.28 157.917 296.981 158.156 296.588 158.329C296.199 158.499 295.73 158.584 295.181 158.584H291.58ZM292.959 157.358H295.181C295.544 157.358 295.828 157.271 296.034 157.098C296.24 156.925 296.343 156.689 296.343 156.392C296.343 156.042 296.24 155.767 296.034 155.567C295.828 155.365 295.544 155.263 295.181 155.263H292.959V157.358ZM292.959 154.189H294.72C294.994 154.189 295.23 154.15 295.426 154.072C295.625 153.993 295.777 153.882 295.882 153.738C295.99 153.591 296.044 153.418 296.044 153.218C296.044 152.927 295.925 152.7 295.686 152.536C295.447 152.373 295.12 152.291 294.705 152.291H292.959V154.189Z" fill="#CACACA"/>
<path d="M386.869 158.721C386.195 158.721 385.593 158.605 385.064 158.373C384.537 158.141 384.12 157.819 383.813 157.407C383.509 156.992 383.345 156.511 383.322 155.965H384.863C384.882 156.262 384.982 156.521 385.162 156.74C385.345 156.956 385.584 157.122 385.878 157.24C386.172 157.358 386.499 157.417 386.859 157.417C387.254 157.417 387.604 157.348 387.908 157.211C388.216 157.073 388.456 156.882 388.629 156.637C388.803 156.388 388.889 156.102 388.889 155.778C388.889 155.442 388.803 155.146 388.629 154.891C388.459 154.632 388.209 154.43 387.879 154.282C387.552 154.135 387.156 154.062 386.692 154.062H385.844V152.826H386.692C387.065 152.826 387.392 152.759 387.673 152.625C387.958 152.491 388.18 152.304 388.34 152.065C388.5 151.823 388.58 151.541 388.58 151.217C388.58 150.906 388.51 150.636 388.37 150.408C388.232 150.175 388.036 149.994 387.781 149.863C387.529 149.732 387.232 149.667 386.888 149.667C386.561 149.667 386.256 149.727 385.971 149.848C385.69 149.966 385.461 150.136 385.284 150.359C385.108 150.578 385.013 150.841 385 151.148H383.533C383.55 150.605 383.71 150.128 384.014 149.716C384.321 149.304 384.727 148.982 385.23 148.75C385.734 148.518 386.293 148.401 386.908 148.401C387.552 148.401 388.108 148.527 388.576 148.779C389.046 149.028 389.409 149.36 389.664 149.775C389.923 150.19 390.05 150.645 390.047 151.138C390.05 151.701 389.893 152.178 389.576 152.571C389.262 152.963 388.844 153.226 388.32 153.36V153.439C388.988 153.54 389.504 153.805 389.87 154.233C390.24 154.662 390.423 155.193 390.42 155.827C390.423 156.38 390.269 156.875 389.959 157.314C389.651 157.752 389.231 158.097 388.698 158.349C388.165 158.597 387.555 158.721 386.869 158.721ZM395.781 158.721C395.333 158.715 394.891 158.633 394.456 158.476C394.025 158.319 393.632 158.058 393.279 157.691C392.926 157.325 392.643 156.833 392.431 156.215C392.221 155.597 392.117 154.825 392.117 153.9C392.117 153.024 392.204 152.245 392.377 151.565C392.553 150.885 392.807 150.311 393.137 149.844C393.467 149.373 393.866 149.015 394.334 148.769C394.801 148.524 395.326 148.401 395.908 148.401C396.507 148.401 397.038 148.519 397.502 148.755C397.967 148.99 398.343 149.315 398.631 149.731C398.922 150.146 399.106 150.618 399.185 151.148H397.689C397.587 150.73 397.386 150.388 397.085 150.123C396.785 149.858 396.392 149.726 395.908 149.726C395.173 149.726 394.599 150.046 394.187 150.687C393.778 151.328 393.572 152.219 393.569 153.36H393.642C393.816 153.076 394.028 152.834 394.28 152.634C394.535 152.432 394.819 152.276 395.133 152.168C395.451 152.057 395.784 152.002 396.134 152.002C396.716 152.002 397.242 152.144 397.713 152.428C398.187 152.71 398.565 153.099 398.846 153.596C399.128 154.093 399.268 154.662 399.268 155.303C399.268 155.944 399.123 156.524 398.832 157.044C398.544 157.564 398.138 157.976 397.615 158.28C397.092 158.581 396.481 158.728 395.781 158.721ZM395.776 157.446C396.162 157.446 396.507 157.351 396.811 157.162C397.115 156.972 397.355 156.717 397.532 156.396C397.708 156.076 397.797 155.718 397.797 155.322C397.797 154.936 397.71 154.585 397.537 154.268C397.367 153.951 397.131 153.699 396.83 153.512C396.533 153.326 396.193 153.233 395.81 153.233C395.519 153.233 395.249 153.288 395.001 153.4C394.756 153.511 394.54 153.664 394.353 153.861C394.167 154.057 394.02 154.282 393.912 154.537C393.807 154.789 393.755 155.056 393.755 155.337C393.755 155.713 393.842 156.061 394.015 156.382C394.192 156.702 394.432 156.96 394.736 157.157C395.043 157.35 395.39 157.446 395.776 157.446ZM406.298 156.701V156.171C406.298 155.791 406.377 155.445 406.533 155.131C406.694 154.814 406.926 154.56 407.23 154.371C407.537 154.178 407.908 154.081 408.343 154.081C408.788 154.081 409.161 154.176 409.462 154.366C409.762 154.555 409.99 154.809 410.143 155.126C410.3 155.443 410.379 155.791 410.379 156.171V156.701C410.379 157.08 410.3 157.428 410.143 157.745C409.986 158.059 409.756 158.313 409.452 158.506C409.151 158.695 408.782 158.79 408.343 158.79C407.902 158.79 407.529 158.695 407.225 158.506C406.921 158.313 406.69 158.059 406.533 157.745C406.377 157.428 406.298 157.08 406.298 156.701ZM407.441 156.171V156.701C407.441 156.982 407.508 157.237 407.642 157.466C407.776 157.695 408.01 157.809 408.343 157.809C408.674 157.809 408.904 157.695 409.035 157.466C409.166 157.237 409.231 156.982 409.231 156.701V156.171C409.231 155.89 409.167 155.635 409.04 155.406C408.916 155.177 408.683 155.062 408.343 155.062C408.016 155.062 407.784 155.177 407.647 155.406C407.51 155.635 407.441 155.89 407.441 156.171ZM401.246 150.952V150.422C401.246 150.043 401.324 149.695 401.481 149.378C401.642 149.06 401.874 148.807 402.178 148.617C402.485 148.428 402.856 148.333 403.291 148.333C403.736 148.333 404.109 148.428 404.41 148.617C404.71 148.807 404.938 149.06 405.091 149.378C405.245 149.695 405.322 150.043 405.322 150.422V150.952C405.322 151.331 405.243 151.68 405.087 151.997C404.933 152.311 404.704 152.564 404.4 152.757C404.099 152.947 403.73 153.041 403.291 153.041C402.847 153.041 402.472 152.947 402.168 152.757C401.867 152.564 401.638 152.311 401.481 151.997C401.324 151.68 401.246 151.331 401.246 150.952ZM402.394 150.422V150.952C402.394 151.233 402.459 151.488 402.59 151.717C402.724 151.946 402.958 152.061 403.291 152.061C403.618 152.061 403.847 151.946 403.978 151.717C404.112 151.488 404.179 151.233 404.179 150.952V150.422C404.179 150.141 404.115 149.886 403.988 149.657C403.86 149.428 403.628 149.314 403.291 149.314C402.964 149.314 402.732 149.428 402.595 149.657C402.461 149.886 402.394 150.141 402.394 150.422ZM401.712 158.584L408.618 148.539H409.79L402.884 158.584H401.712Z" fill="#979797"/>
<rect x="29.3926" y="234.212" width="161.141" height="11.5101" rx="5.75503" fill="#A7B0BF"/>
<rect x="29.3926" y="234.212" width="69.0604" height="11.5101" rx="5.75503" fill="#0450C0"/>
<path d="M30.4962 221.889V211.844H36.794V213.149H32.0118V216.21H36.4654V217.509H32.0118V220.585H36.8529V221.889H30.4962ZM38.7008 221.889V214.356H40.1673V217.514H40.8736L43.3604 214.356H45.1752L42.2568 218.019L45.2095 221.889H43.3898L41.1189 218.878H40.1673V221.889H38.7008ZM48.5411 222.056C48.0637 222.056 47.6321 221.968 47.2463 221.791C46.8604 221.611 46.5547 221.352 46.3291 221.011C46.1067 220.671 45.9955 220.254 45.9955 219.761C45.9955 219.336 46.0773 218.986 46.2408 218.711C46.4043 218.436 46.625 218.219 46.9029 218.059C47.1809 217.898 47.4915 217.777 47.8348 217.696C48.1782 217.614 48.5281 217.552 48.8845 217.509C49.3357 217.457 49.702 217.415 49.9832 217.382C50.2644 217.346 50.4688 217.289 50.5963 217.21C50.7238 217.132 50.7876 217.004 50.7876 216.828V216.793C50.7876 216.365 50.6666 216.033 50.4246 215.798C50.1859 215.562 49.8295 215.444 49.3554 215.444C48.8616 215.444 48.4725 215.554 48.188 215.773C47.9068 215.989 47.7122 216.229 47.6043 216.494L46.2261 216.18C46.3896 215.722 46.6283 215.353 46.9422 215.072C47.2593 214.787 47.6239 214.581 48.0359 214.454C48.448 214.323 48.8812 214.257 49.3357 214.257C49.6366 214.257 49.9554 214.293 50.2922 214.365C50.6323 214.434 50.9494 214.562 51.2437 214.748C51.5413 214.934 51.7849 215.201 51.9746 215.547C52.1642 215.891 52.259 216.337 52.259 216.886V221.889H50.8268V220.859H50.768C50.6731 221.049 50.5309 221.235 50.3412 221.419C50.1516 221.602 49.908 221.754 49.6104 221.875C49.3128 221.996 48.9564 222.056 48.5411 222.056ZM48.86 220.879C49.2654 220.879 49.612 220.799 49.8998 220.639C50.1908 220.478 50.4115 220.269 50.562 220.011C50.7156 219.749 50.7925 219.47 50.7925 219.172V218.201C50.7402 218.253 50.6388 218.302 50.4884 218.348C50.3412 218.391 50.1728 218.428 49.9832 218.461C49.7935 218.49 49.6088 218.518 49.4289 218.544C49.2491 218.567 49.0987 218.587 48.9777 218.603C48.6932 218.639 48.4332 218.7 48.1978 218.785C47.9656 218.87 47.7793 218.992 47.6387 219.152C47.5013 219.309 47.4327 219.519 47.4327 219.78C47.4327 220.143 47.5667 220.418 47.8348 220.604C48.103 220.787 48.4447 220.879 48.86 220.879ZM53.278 215.621V214.356H59.6347V215.621H57.1774V221.889H55.7452V215.621H53.278ZM64.0822 222.041C63.3399 222.041 62.7007 221.883 62.1644 221.566C61.6314 221.245 61.2194 220.796 60.9284 220.217C60.6406 219.635 60.4967 218.953 60.4967 218.172C60.4967 217.4 60.6406 216.72 60.9284 216.131C61.2194 215.543 61.6249 215.083 62.1448 214.753C62.668 214.423 63.2794 214.257 63.9792 214.257C64.4043 214.257 64.8163 214.328 65.2152 214.468C65.6141 214.609 65.9722 214.83 66.2894 215.131C66.6066 215.431 66.8567 215.822 67.0398 216.303C67.2229 216.78 67.3145 217.361 67.3145 218.044V218.564H61.3257V217.465H65.8774C65.8774 217.079 65.7989 216.738 65.6419 216.44C65.485 216.139 65.2643 215.902 64.9798 215.729C64.6986 215.556 64.3683 215.469 63.989 215.469C63.577 215.469 63.2173 215.57 62.9099 215.773C62.6058 215.973 62.3704 216.234 62.2036 216.558C62.0401 216.878 61.9584 217.227 61.9584 217.603V218.461C61.9584 218.964 62.0467 219.393 62.2233 219.746C62.4031 220.099 62.6532 220.369 62.9737 220.555C63.2941 220.738 63.6686 220.83 64.0969 220.83C64.3749 220.83 64.6283 220.791 64.8572 220.712C65.0861 220.63 65.2839 220.51 65.4507 220.349C65.6174 220.189 65.7449 219.991 65.8332 219.756L67.2213 220.006C67.1101 220.415 66.9107 220.773 66.6229 221.08C66.3384 221.384 65.9804 221.621 65.5487 221.791C65.1204 221.958 64.6315 222.041 64.0822 222.041ZM68.9417 224.715V214.356H70.3739V215.577H70.4965C70.5815 215.42 70.7042 215.238 70.8644 215.032C71.0246 214.826 71.247 214.647 71.5315 214.493C71.8159 214.336 72.192 214.257 72.6596 214.257C73.2678 214.257 73.8106 214.411 74.288 214.718C74.7654 215.026 75.1398 215.469 75.4112 216.048C75.6859 216.626 75.8232 217.323 75.8232 218.137C75.8232 218.951 75.6875 219.65 75.4161 220.232C75.1447 220.81 74.7719 221.257 74.2978 221.571C73.8237 221.881 73.2825 222.037 72.6743 222.037C72.2165 222.037 71.8421 221.96 71.5511 221.806C71.2633 221.652 71.0377 221.472 70.8742 221.266C70.7107 221.06 70.5848 220.877 70.4965 220.717H70.4082V224.715H68.9417ZM70.3788 218.122C70.3788 218.652 70.4557 219.117 70.6093 219.515C70.763 219.914 70.9854 220.227 71.2764 220.452C71.5674 220.675 71.9238 220.786 72.3457 220.786C72.7838 220.786 73.1501 220.67 73.4443 220.438C73.7386 220.202 73.961 219.883 74.1114 219.481C74.2651 219.079 74.3419 218.626 74.3419 218.122C74.3419 217.625 74.2667 217.179 74.1163 216.783C73.9692 216.388 73.7468 216.076 73.4493 215.847C73.155 215.618 72.7871 215.503 72.3457 215.503C71.9206 215.503 71.5609 215.613 71.2666 215.832C70.9756 216.051 70.7549 216.357 70.6044 216.749C70.454 217.142 70.3788 217.599 70.3788 218.122ZM80.7133 222.041C79.9711 222.041 79.3318 221.883 78.7955 221.566C78.2626 221.245 77.8505 220.796 77.5595 220.217C77.2718 219.635 77.1279 218.953 77.1279 218.172C77.1279 217.4 77.2718 216.72 77.5595 216.131C77.8505 215.543 78.256 215.083 78.7759 214.753C79.2991 214.423 79.9106 214.257 80.6103 214.257C81.0354 214.257 81.4474 214.328 81.8464 214.468C82.2453 214.609 82.6034 214.83 82.9205 215.131C83.2377 215.431 83.4879 215.822 83.671 216.303C83.8541 216.78 83.9457 217.361 83.9457 218.044V218.564H77.9568V217.465H82.5085C82.5085 217.079 82.43 216.738 82.2731 216.44C82.1161 216.139 81.8954 215.902 81.6109 215.729C81.3297 215.556 80.9995 215.469 80.6202 215.469C80.2081 215.469 79.8485 215.57 79.5411 215.773C79.237 215.973 79.0016 216.234 78.8348 216.558C78.6713 216.878 78.5895 217.227 78.5895 217.603V218.461C78.5895 218.964 78.6778 219.393 78.8544 219.746C79.0343 220.099 79.2844 220.369 79.6048 220.555C79.9253 220.738 80.2997 220.83 80.7281 220.83C81.006 220.83 81.2594 220.791 81.4883 220.712C81.7172 220.63 81.915 220.51 82.0818 220.349C82.2486 220.189 82.3761 219.991 82.4644 219.756L83.8525 220.006C83.7413 220.415 83.5418 220.773 83.2541 221.08C82.9696 221.384 82.6115 221.621 82.1799 221.791C81.7515 221.958 81.2627 222.041 80.7133 222.041ZM90.6788 217.49V218.76H86.598V217.49H90.6788ZM87.01 214.356V221.889H85.5728V214.356H87.01ZM91.7039 214.356V221.889H90.2717V214.356H91.7039ZM99.4781 211.55L100.086 212.477C99.8607 212.683 99.604 212.83 99.3163 212.918C99.0318 213.003 98.7031 213.057 98.3304 213.08C97.9576 213.1 97.5309 213.118 97.0502 213.134C96.5074 213.151 96.0611 213.268 95.7112 213.487C95.3613 213.703 95.0915 214.024 94.9019 214.449C94.7155 214.871 94.5945 215.4 94.5389 216.038H94.6321C94.8774 215.57 95.2174 215.22 95.6523 214.988C96.0905 214.756 96.5826 214.64 97.1287 214.64C97.7369 214.64 98.2781 214.779 98.7522 215.057C99.2263 215.335 99.5991 215.742 99.8705 216.278C100.145 216.811 100.283 217.464 100.283 218.235C100.283 219.017 100.139 219.692 99.8509 220.261C99.5664 220.83 99.1642 221.27 98.6443 221.58C98.1276 221.888 97.5178 222.041 96.8148 222.041C96.1117 222.041 95.4986 221.883 94.9755 221.566C94.4555 221.245 94.0517 220.771 93.764 220.143C93.4795 219.515 93.3372 218.74 93.3372 217.818V217.073C93.3372 215.35 93.6446 214.053 94.2593 213.183C94.8741 212.313 95.7929 211.867 97.0159 211.844C97.4115 211.834 97.7647 211.833 98.0753 211.839C98.386 211.843 98.6574 211.828 98.8895 211.795C99.125 211.759 99.3212 211.677 99.4781 211.55ZM96.8197 220.81C97.2284 220.81 97.5799 220.707 97.8742 220.501C98.1718 220.292 98.4007 219.996 98.5609 219.614C98.7211 219.231 98.8012 218.78 98.8012 218.26C98.8012 217.75 98.7211 217.316 98.5609 216.96C98.4007 216.604 98.1718 216.332 97.8742 216.146C97.5767 215.956 97.2202 215.861 96.805 215.861C96.4976 215.861 96.2229 215.915 95.981 216.023C95.739 216.128 95.5313 216.283 95.358 216.489C95.188 216.695 95.0556 216.947 94.9607 217.245C94.8692 217.539 94.8201 217.877 94.8136 218.26C94.8136 219.038 94.9918 219.658 95.3482 220.119C95.7079 220.58 96.1984 220.81 96.8197 220.81ZM102.848 224.715C102.629 224.715 102.429 224.697 102.249 224.661C102.07 224.628 101.935 224.592 101.847 224.553L102.2 223.351C102.468 223.423 102.707 223.454 102.916 223.444C103.126 223.434 103.31 223.356 103.471 223.209C103.634 223.062 103.778 222.821 103.902 222.488L104.084 221.988L101.327 214.356H102.897L104.805 220.202H104.883L106.791 214.356H108.366L105.261 222.895C105.117 223.287 104.934 223.619 104.712 223.891C104.489 224.165 104.224 224.371 103.917 224.509C103.61 224.646 103.253 224.715 102.848 224.715ZM109.744 224.715V214.356H111.176V215.577H111.299C111.384 215.42 111.506 215.238 111.667 215.032C111.827 214.826 112.049 214.647 112.334 214.493C112.618 214.336 112.994 214.257 113.462 214.257C114.07 214.257 114.613 214.411 115.09 214.718C115.568 215.026 115.942 215.469 116.213 216.048C116.488 216.626 116.626 217.323 116.626 218.137C116.626 218.951 116.49 219.65 116.218 220.232C115.947 220.81 115.574 221.257 115.1 221.571C114.626 221.881 114.085 222.037 113.477 222.037C113.019 222.037 112.644 221.96 112.353 221.806C112.066 221.652 111.84 221.472 111.677 221.266C111.513 221.06 111.387 220.877 111.299 220.717H111.211V224.715H109.744ZM111.181 218.122C111.181 218.652 111.258 219.117 111.412 219.515C111.565 219.914 111.788 220.227 112.079 220.452C112.37 220.675 112.726 220.786 113.148 220.786C113.586 220.786 113.952 220.67 114.247 220.438C114.541 220.202 114.763 219.883 114.914 219.481C115.067 219.079 115.144 218.626 115.144 218.122C115.144 217.625 115.069 217.179 114.919 216.783C114.771 216.388 114.549 216.076 114.252 215.847C113.957 215.618 113.589 215.503 113.148 215.503C112.723 215.503 112.363 215.613 112.069 215.832C111.778 216.051 111.557 216.357 111.407 216.749C111.256 217.142 111.181 217.599 111.181 218.122ZM123.085 214.356V215.621H119.716V221.889H118.269V214.356H123.085Z" fill="#CACACA"/>
<path d="M161.911 219.927V218.701L166.252 211.844H167.218V213.649H166.605L163.501 218.564V218.642H169.45V219.927H161.911ZM166.674 221.889V219.555L166.684 218.996V211.844H168.121V221.889H166.674ZM174.657 222.027C173.983 222.027 173.381 221.911 172.852 221.678C172.325 221.446 171.908 221.124 171.601 220.712C171.297 220.297 171.133 219.816 171.11 219.27H172.651C172.67 219.568 172.77 219.826 172.95 220.045C173.133 220.261 173.372 220.428 173.666 220.545C173.96 220.663 174.287 220.722 174.647 220.722C175.043 220.722 175.392 220.653 175.696 220.516C176.004 220.379 176.244 220.187 176.418 219.942C176.591 219.694 176.677 219.408 176.677 219.084C176.677 218.747 176.591 218.451 176.418 218.196C176.247 217.938 175.997 217.735 175.667 217.588C175.34 217.441 174.944 217.367 174.48 217.367H173.632V216.131H174.48C174.853 216.131 175.18 216.064 175.461 215.93C175.746 215.796 175.968 215.61 176.128 215.371C176.288 215.129 176.368 214.846 176.368 214.522C176.368 214.212 176.298 213.942 176.158 213.713C176.02 213.481 175.824 213.299 175.569 213.169C175.317 213.038 175.02 212.972 174.676 212.972C174.349 212.972 174.044 213.033 173.759 213.154C173.478 213.272 173.249 213.442 173.072 213.664C172.896 213.883 172.801 214.146 172.788 214.454H171.321C171.338 213.911 171.498 213.433 171.802 213.021C172.109 212.609 172.515 212.287 173.018 212.055C173.522 211.823 174.081 211.707 174.696 211.707C175.34 211.707 175.896 211.833 176.364 212.085C176.834 212.333 177.197 212.665 177.452 213.08C177.711 213.496 177.838 213.95 177.835 214.444C177.838 215.006 177.681 215.484 177.364 215.876C177.05 216.268 176.632 216.532 176.108 216.666V216.744C176.776 216.846 177.292 217.11 177.658 217.539C178.028 217.967 178.211 218.499 178.208 219.133C178.211 219.685 178.057 220.181 177.747 220.619C177.439 221.057 177.019 221.402 176.486 221.654C175.953 221.902 175.343 222.027 174.657 222.027ZM185.305 220.006V219.476C185.305 219.097 185.384 218.75 185.541 218.436C185.701 218.119 185.933 217.866 186.237 217.676C186.544 217.483 186.916 217.387 187.35 217.387C187.795 217.387 188.168 217.482 188.469 217.671C188.77 217.861 188.997 218.114 189.151 218.431C189.307 218.749 189.386 219.097 189.386 219.476V220.006C189.386 220.385 189.307 220.733 189.151 221.051C188.994 221.365 188.763 221.618 188.459 221.811C188.158 222.001 187.789 222.095 187.35 222.095C186.909 222.095 186.536 222.001 186.232 221.811C185.928 221.618 185.697 221.365 185.541 221.051C185.384 220.733 185.305 220.385 185.305 220.006ZM186.448 219.476V220.006C186.448 220.287 186.515 220.542 186.649 220.771C186.783 221 187.017 221.114 187.35 221.114C187.681 221.114 187.911 221 188.042 220.771C188.173 220.542 188.238 220.287 188.238 220.006V219.476C188.238 219.195 188.174 218.94 188.047 218.711C187.923 218.482 187.69 218.368 187.35 218.368C187.023 218.368 186.791 218.482 186.654 218.711C186.517 218.94 186.448 219.195 186.448 219.476ZM180.253 214.257V213.728C180.253 213.348 180.332 213 180.489 212.683C180.649 212.366 180.881 212.112 181.185 211.923C181.492 211.733 181.864 211.638 182.298 211.638C182.743 211.638 183.116 211.733 183.417 211.923C183.718 212.112 183.945 212.366 184.099 212.683C184.252 213 184.329 213.348 184.329 213.728V214.257C184.329 214.637 184.251 214.985 184.094 215.302C183.94 215.616 183.711 215.87 183.407 216.062C183.106 216.252 182.737 216.347 182.298 216.347C181.854 216.347 181.479 216.252 181.175 216.062C180.874 215.87 180.645 215.616 180.489 215.302C180.332 214.985 180.253 214.637 180.253 214.257ZM181.401 213.728V214.257C181.401 214.539 181.466 214.794 181.597 215.023C181.731 215.251 181.965 215.366 182.298 215.366C182.625 215.366 182.854 215.251 182.985 215.023C183.119 214.794 183.186 214.539 183.186 214.257V213.728C183.186 213.447 183.122 213.191 182.995 212.963C182.867 212.734 182.635 212.619 182.298 212.619C181.971 212.619 181.739 212.734 181.602 212.963C181.468 213.191 181.401 213.447 181.401 213.728ZM180.719 221.889L187.625 211.844H188.797L181.891 221.889H180.719Z" fill="#979797"/>
<path d="M345.16 241.038C345.16 242.11 344.964 243.033 344.572 243.804C344.179 244.573 343.642 245.165 342.958 245.58C342.278 245.992 341.505 246.198 340.638 246.198C339.768 246.198 338.992 245.992 338.308 245.58C337.628 245.165 337.092 244.571 336.7 243.799C336.307 243.028 336.111 242.107 336.111 241.038C336.111 239.965 336.307 239.045 336.7 238.277C337.092 237.505 337.628 236.913 338.308 236.501C338.992 236.086 339.768 235.878 340.638 235.878C341.505 235.878 342.278 236.086 342.958 236.501C343.642 236.913 344.179 237.505 344.572 238.277C344.964 239.045 345.16 239.965 345.16 241.038ZM343.659 241.038C343.659 240.22 343.527 239.532 343.262 238.973C343.001 238.411 342.641 237.986 342.183 237.698C341.729 237.407 341.214 237.261 340.638 237.261C340.059 237.261 339.543 237.407 339.088 237.698C338.634 237.986 338.274 238.411 338.009 238.973C337.748 239.532 337.617 240.22 337.617 241.038C337.617 241.855 337.748 242.545 338.009 243.108C338.274 243.667 338.634 244.092 339.088 244.383C339.543 244.671 340.059 244.815 340.638 244.815C341.214 244.815 341.729 244.671 342.183 244.383C342.641 244.092 343.001 243.667 343.262 243.108C343.527 242.545 343.659 241.855 343.659 241.038ZM350.106 246.213C349.377 246.213 348.749 246.047 348.222 245.717C347.699 245.384 347.297 244.924 347.016 244.339C346.734 243.754 346.594 243.083 346.594 242.328C346.594 241.563 346.738 240.888 347.025 240.302C347.313 239.714 347.719 239.254 348.242 238.924C348.765 238.594 349.381 238.429 350.091 238.429C350.663 238.429 351.173 238.535 351.621 238.747C352.069 238.957 352.431 239.251 352.705 239.63C352.983 240.01 353.148 240.453 353.201 240.959H351.773C351.695 240.606 351.515 240.302 351.234 240.047C350.956 239.792 350.583 239.665 350.116 239.665C349.707 239.665 349.349 239.773 349.041 239.988C348.737 240.201 348.5 240.505 348.33 240.901C348.16 241.293 348.075 241.757 348.075 242.294C348.075 242.843 348.158 243.317 348.325 243.716C348.492 244.115 348.727 244.424 349.032 244.643C349.339 244.862 349.7 244.972 350.116 244.972C350.393 244.972 350.645 244.921 350.871 244.82C351.1 244.715 351.291 244.566 351.445 244.373C351.602 244.18 351.711 243.948 351.773 243.677H353.201C353.148 244.164 352.99 244.599 352.725 244.981C352.46 245.364 352.105 245.665 351.661 245.884C351.219 246.103 350.701 246.213 350.106 246.213ZM354.199 239.792V238.527H360.556V239.792H358.098V246.061H356.666V239.792H354.199ZM363.948 246.227C363.471 246.227 363.039 246.139 362.654 245.962C362.268 245.783 361.962 245.523 361.736 245.183C361.514 244.843 361.403 244.426 361.403 243.932C361.403 243.507 361.485 243.157 361.648 242.882C361.812 242.608 362.032 242.39 362.31 242.23C362.588 242.07 362.899 241.949 363.242 241.867C363.585 241.785 363.935 241.723 364.292 241.681C364.743 241.628 365.109 241.586 365.39 241.553C365.672 241.517 365.876 241.46 366.004 241.381C366.131 241.303 366.195 241.175 366.195 240.999V240.964C366.195 240.536 366.074 240.204 365.832 239.969C365.593 239.733 365.237 239.616 364.763 239.616C364.269 239.616 363.88 239.725 363.595 239.944C363.314 240.16 363.12 240.4 363.012 240.665L361.633 240.351C361.797 239.894 362.036 239.524 362.349 239.243C362.667 238.958 363.031 238.752 363.443 238.625C363.855 238.494 364.289 238.429 364.743 238.429C365.044 238.429 365.363 238.465 365.699 238.536C366.04 238.605 366.357 238.733 366.651 238.919C366.949 239.105 367.192 239.372 367.382 239.719C367.572 240.062 367.666 240.508 367.666 241.058V246.061H366.234V245.031H366.175C366.08 245.22 365.938 245.407 365.749 245.59C365.559 245.773 365.315 245.925 365.018 246.046C364.72 246.167 364.364 246.227 363.948 246.227ZM364.267 245.05C364.673 245.05 365.019 244.97 365.307 244.81C365.598 244.65 365.819 244.44 365.969 244.182C366.123 243.92 366.2 243.641 366.2 243.343V242.372C366.147 242.424 366.046 242.473 365.896 242.519C365.749 242.562 365.58 242.599 365.39 242.632C365.201 242.661 365.016 242.689 364.836 242.715C364.656 242.738 364.506 242.758 364.385 242.774C364.101 242.81 363.841 242.871 363.605 242.956C363.373 243.041 363.187 243.163 363.046 243.324C362.909 243.481 362.84 243.69 362.84 243.951C362.84 244.314 362.974 244.589 363.242 244.775C363.51 244.959 363.852 245.05 364.267 245.05ZM369.026 246.061L369.021 244.79H369.291C369.5 244.79 369.675 244.746 369.816 244.658C369.96 244.566 370.077 244.413 370.169 244.197C370.261 243.981 370.331 243.683 370.38 243.304C370.429 242.921 370.465 242.441 370.488 241.862L370.62 238.527H375.878V246.061H374.441V239.792H371.979L371.861 242.352C371.832 242.974 371.768 243.517 371.67 243.981C371.575 244.445 371.436 244.833 371.253 245.143C371.07 245.451 370.834 245.681 370.547 245.835C370.259 245.985 369.909 246.061 369.497 246.061H369.026ZM378.938 241.116H381.125C382.047 241.116 382.757 241.345 383.254 241.803C383.751 242.261 384 242.851 384 243.574C384 244.045 383.888 244.468 383.666 244.844C383.444 245.22 383.118 245.518 382.69 245.737C382.262 245.953 381.74 246.061 381.125 246.061H377.834V238.527H379.271V244.795H381.125C381.547 244.795 381.894 244.686 382.165 244.466C382.437 244.244 382.572 243.961 382.572 243.618C382.572 243.255 382.437 242.959 382.165 242.73C381.894 242.498 381.547 242.382 381.125 242.382H378.938V241.116ZM390.75 241.661V242.931H386.669V241.661H390.75ZM387.081 238.527V246.061H385.644V238.527H387.081ZM391.775 238.527V246.061H390.343V238.527H391.775ZM394.84 241.116H397.028C397.95 241.116 398.66 241.345 399.157 241.803C399.654 242.261 399.902 242.851 399.902 243.574C399.902 244.045 399.791 244.468 399.569 244.844C399.346 245.22 399.021 245.518 398.593 245.737C398.164 245.953 397.643 246.061 397.028 246.061H393.737V238.527H395.174V244.795H397.028C397.45 244.795 397.796 244.686 398.068 244.466C398.339 244.244 398.475 243.961 398.475 243.618C398.475 243.255 398.339 242.959 398.068 242.73C397.796 242.498 397.45 242.382 397.028 242.382H394.84V241.116ZM400.972 246.061V238.527H402.438V246.061H400.972ZM407.653 246.213C406.911 246.213 406.272 246.054 405.735 245.737C405.202 245.416 404.79 244.967 404.499 244.388C404.212 243.806 404.068 243.124 404.068 242.343C404.068 241.571 404.212 240.891 404.499 240.302C404.79 239.714 405.196 239.254 405.716 238.924C406.239 238.594 406.85 238.429 407.55 238.429C407.975 238.429 408.387 238.499 408.786 238.639C409.185 238.78 409.543 239.001 409.86 239.302C410.178 239.602 410.428 239.993 410.611 240.474C410.794 240.951 410.886 241.532 410.886 242.215V242.735H404.897V241.636H409.448C409.448 241.251 409.37 240.909 409.213 240.611C409.056 240.31 408.835 240.073 408.551 239.9C408.27 239.727 407.939 239.64 407.56 239.64C407.148 239.64 406.788 239.741 406.481 239.944C406.177 240.144 405.941 240.405 405.775 240.729C405.611 241.049 405.529 241.398 405.529 241.774V242.632C405.529 243.136 405.618 243.564 405.794 243.917C405.974 244.27 406.224 244.54 406.545 244.726C406.865 244.91 407.24 245.001 407.668 245.001C407.946 245.001 408.199 244.962 408.428 244.883C408.657 244.802 408.855 244.681 409.022 244.52C409.188 244.36 409.316 244.162 409.404 243.927L410.792 244.177C410.681 244.586 410.482 244.944 410.194 245.251C409.909 245.555 409.551 245.792 409.12 245.962C408.691 246.129 408.203 246.213 407.653 246.213Z" fill="#3B83EF"/>
<path d="M335.331 248.807H411.533V249.749H335.331V248.807Z" fill="#3B83EF"/>
</svg>
