<svg width="777" height="279" viewBox="0 0 777 279" fill="none" xmlns="http://www.w3.org/2000/svg">
<rect x="0.0065918" y="0.456299" width="776.93" height="278.544" rx="14.9631" fill="white"/>
<path d="M43.318 35.1875V51.9294H39.8192V38.065H33.0505V51.9294H29.5517V35.1875H43.318ZM52.2959 52.1747C51.0261 52.1747 49.928 51.9049 49.0015 51.3654C48.0805 50.8204 47.3693 50.0629 46.8679 49.0928C46.3665 48.1173 46.1158 46.9864 46.1158 45.7003C46.1158 44.4032 46.3665 43.2696 46.8679 42.2996C47.3693 41.324 48.0805 40.5665 49.0015 40.027C49.928 39.482 51.0261 39.2095 52.2959 39.2095C53.5657 39.2095 54.6612 39.482 55.5822 40.027C56.5087 40.5665 57.2226 41.324 57.724 42.2996C58.2254 43.2696 58.476 44.4032 58.476 45.7003C58.476 46.9864 58.2254 48.1173 57.724 49.0928C57.2226 50.0629 56.5087 50.8204 55.5822 51.3654C54.6612 51.9049 53.5657 52.1747 52.2959 52.1747ZM52.3123 49.477C52.89 49.477 53.3723 49.3135 53.7592 48.9865C54.1461 48.6541 54.4377 48.2018 54.6339 47.6295C54.8356 47.0573 54.9364 46.406 54.9364 45.6757C54.9364 44.9455 54.8356 44.2942 54.6339 43.722C54.4377 43.1497 54.1461 42.6974 53.7592 42.365C53.3723 42.0325 52.89 41.8663 52.3123 41.8663C51.7291 41.8663 51.2387 42.0325 50.8408 42.365C50.4484 42.6974 50.1514 43.1497 49.9498 43.722C49.7536 44.2942 49.6555 44.9455 49.6555 45.6757C49.6555 46.406 49.7536 47.0573 49.9498 47.6295C50.1514 48.2018 50.4484 48.6541 50.8408 48.9865C51.2387 49.3135 51.7291 49.477 52.3123 49.477ZM60.0047 51.9294L59.9884 49.1664H60.4053C60.6996 49.1664 60.953 49.0955 61.1655 48.9538C61.3835 48.8067 61.5634 48.5696 61.7051 48.2426C61.8468 47.9156 61.9585 47.4824 62.0402 46.9428C62.122 46.3979 62.1765 45.7275 62.2037 44.9318L62.4081 39.373H71.9562V51.9294H68.6373V42.1116H65.539L65.3428 45.9455C65.2938 46.9973 65.1657 47.902 64.9586 48.6595C64.757 49.4171 64.4763 50.0383 64.1166 50.5234C63.7569 51.003 63.3237 51.3572 62.8168 51.5861C62.31 51.815 61.7214 51.9294 61.0511 51.9294H60.0047ZM81.9478 34.4027L76.5525 54.4473H73.5524L78.9477 34.4027H81.9478ZM83.6257 51.9294V39.373H88.9802C90.5279 39.373 91.7514 39.6673 92.6507 40.2559C93.5499 40.8445 93.9995 41.681 93.9995 42.7655C93.9995 43.4468 93.7461 44.0135 93.2392 44.4659C92.7324 44.9182 92.0294 45.2234 91.1301 45.3815C91.8822 45.436 92.5226 45.6076 93.0512 45.8965C93.5853 46.1799 93.9913 46.5477 94.2693 47.0001C94.5526 47.4524 94.6943 47.9538 94.6943 48.5042C94.6943 49.2181 94.5036 49.8313 94.1221 50.3435C93.7461 50.8558 93.1929 51.2482 92.4626 51.5207C91.7378 51.7932 90.8522 51.9294 89.8058 51.9294H83.6257ZM86.8711 49.3217H89.8058C90.2909 49.3217 90.6696 49.2072 90.9421 48.9784C91.2201 48.744 91.359 48.4252 91.359 48.0219C91.359 47.575 91.2201 47.2235 90.9421 46.9674C90.6696 46.7112 90.2909 46.5831 89.8058 46.5831H86.8711V49.3217ZM86.8711 44.5395H89.0538C89.4025 44.5395 89.6996 44.4904 89.9448 44.3923C90.1955 44.2888 90.3862 44.1416 90.517 43.9509C90.6533 43.7601 90.7214 43.534 90.7214 43.2724C90.7214 42.8854 90.5661 42.583 90.2554 42.365C89.9448 42.147 89.5197 42.038 88.9802 42.038H86.8711V44.5395ZM102.563 52.1747C101.293 52.1747 100.195 51.9049 99.2681 51.3654C98.3471 50.8204 97.6359 50.0629 97.1345 49.0928C96.6331 48.1173 96.3824 46.9864 96.3824 45.7003C96.3824 44.4032 96.6331 43.2696 97.1345 42.2996C97.6359 41.324 98.3471 40.5665 99.2681 40.027C100.195 39.482 101.293 39.2095 102.563 39.2095C103.832 39.2095 104.928 39.482 105.849 40.027C106.775 40.5665 107.489 41.324 107.991 42.2996C108.492 43.2696 108.743 44.4032 108.743 45.7003C108.743 46.9864 108.492 48.1173 107.991 49.0928C107.489 50.0629 106.775 50.8204 105.849 51.3654C104.928 51.9049 103.832 52.1747 102.563 52.1747ZM102.579 49.477C103.157 49.477 103.639 49.3135 104.026 48.9865C104.413 48.6541 104.704 48.2018 104.901 47.6295C105.102 47.0573 105.203 46.406 105.203 45.6757C105.203 44.9455 105.102 44.2942 104.901 43.722C104.704 43.1497 104.413 42.6974 104.026 42.365C103.639 42.0325 103.157 41.8663 102.579 41.8663C101.996 41.8663 101.505 42.0325 101.107 42.365C100.715 42.6974 100.418 43.1497 100.216 43.722C100.02 44.2942 99.9221 44.9455 99.9221 45.6757C99.9221 46.406 100.02 47.0573 100.216 47.6295C100.418 48.2018 100.715 48.6541 101.107 48.9865C101.505 49.3135 101.996 49.477 102.579 49.477ZM110.361 48.3734H113.737C113.754 48.7876 113.939 49.1146 114.293 49.3544C114.648 49.5942 115.105 49.7141 115.667 49.7141C116.233 49.7141 116.71 49.5833 117.097 49.3217C117.484 49.0547 117.678 48.6732 117.678 48.1772C117.678 47.872 117.601 47.6077 117.449 47.3843C117.296 47.1554 117.084 46.9755 116.811 46.8447C116.539 46.7139 116.223 46.6485 115.863 46.6485H114.056V44.3678H115.863C116.402 44.3678 116.817 44.2424 117.105 43.9917C117.4 43.7411 117.547 43.4277 117.547 43.0516C117.547 42.6266 117.394 42.2859 117.089 42.0298C116.789 41.7682 116.383 41.6374 115.871 41.6374C115.353 41.6374 114.923 41.7546 114.579 41.9889C114.242 42.2178 114.067 42.5176 114.056 42.8882H110.696C110.707 42.1361 110.934 41.4848 111.375 40.9344C111.822 40.384 112.421 39.9589 113.173 39.6591C113.931 39.3594 114.778 39.2095 115.716 39.2095C116.74 39.2095 117.623 39.3539 118.364 39.6428C119.111 39.9262 119.683 40.3322 120.081 40.8608C120.484 41.3894 120.686 42.0189 120.686 42.7492C120.686 43.4141 120.468 43.9699 120.032 44.4168C119.596 44.8637 118.986 45.1825 118.201 45.3733V45.5041C118.719 45.5368 119.187 45.6757 119.607 45.921C120.027 46.1662 120.362 46.5041 120.612 46.9347C120.863 47.3597 120.988 47.8639 120.988 48.447C120.988 49.2263 120.76 49.8939 120.302 50.4498C119.849 51.0057 119.223 51.4335 118.422 51.7332C117.626 52.0275 116.713 52.1747 115.683 52.1747C114.68 52.1747 113.781 52.0303 112.985 51.7414C112.195 51.4471 111.566 51.0166 111.097 50.4498C110.634 49.883 110.389 49.1909 110.361 48.3734ZM123.124 56.6381V39.373H126.558V41.4821H126.713C126.865 41.1442 127.086 40.8009 127.375 40.4521C127.669 40.0978 128.051 39.8035 128.519 39.5692C128.994 39.3294 129.582 39.2095 130.285 39.2095C131.201 39.2095 132.046 39.4493 132.819 39.9289C133.593 40.403 134.212 41.1197 134.675 42.0789C135.138 43.0326 135.37 44.2288 135.37 45.6676C135.37 47.0682 135.144 48.2508 134.691 49.2154C134.245 50.1746 133.634 50.9021 132.86 51.3981C132.092 51.8886 131.231 52.1338 130.277 52.1338C129.601 52.1338 129.026 52.0221 128.552 51.7986C128.083 51.5752 127.699 51.2945 127.4 50.9566C127.1 50.6133 126.871 50.2672 126.713 49.9185H126.607V56.6381H123.124ZM126.533 45.6512C126.533 46.3979 126.637 47.0491 126.844 47.605C127.051 48.1609 127.35 48.5941 127.743 48.9048C128.135 49.21 128.612 49.3626 129.173 49.3626C129.74 49.3626 130.22 49.2072 130.612 48.8966C131.005 48.5805 131.302 48.1445 131.503 47.5886C131.71 47.0273 131.814 46.3815 131.814 45.6512C131.814 44.9264 131.713 44.2888 131.511 43.7383C131.31 43.1879 131.013 42.7574 130.62 42.4467C130.228 42.1361 129.746 41.9808 129.173 41.9808C128.607 41.9808 128.127 42.1306 127.735 42.4304C127.348 42.7301 127.051 43.1552 126.844 43.7056C126.637 44.2561 126.533 44.9046 126.533 45.6512ZM141.272 52.1665C140.471 52.1665 139.757 52.0275 139.13 51.7496C138.504 51.4662 138.008 51.0493 137.643 50.4989C137.283 49.943 137.103 49.2508 137.103 48.4225C137.103 47.7249 137.231 47.139 137.487 46.6649C137.743 46.1908 138.092 45.8093 138.534 45.5204C138.975 45.2316 139.476 45.0136 140.038 44.8664C140.605 44.7193 141.199 44.6158 141.82 44.5558C142.55 44.4795 143.139 44.4087 143.586 44.3433C144.032 44.2724 144.357 44.1689 144.558 44.0326C144.76 43.8964 144.861 43.6947 144.861 43.4277V43.3786C144.861 42.8609 144.697 42.4603 144.37 42.1769C144.049 41.8936 143.591 41.7519 142.997 41.7519C142.37 41.7519 141.872 41.8908 141.501 42.1688C141.13 42.4413 140.885 42.7846 140.765 43.1988L137.544 42.9372C137.708 42.1742 138.029 41.5148 138.509 40.9589C138.989 40.3976 139.607 39.967 140.365 39.6673C141.128 39.3621 142.011 39.2095 143.013 39.2095C143.711 39.2095 144.379 39.2913 145.016 39.4548C145.659 39.6182 146.229 39.8717 146.725 40.215C147.226 40.5583 147.621 40.9998 147.91 41.5393C148.199 42.0734 148.343 42.7138 148.343 43.4604V51.9294H145.041V50.1882H144.943C144.741 50.5806 144.471 50.9267 144.133 51.2264C143.795 51.5207 143.389 51.7523 142.915 51.9213C142.441 52.0848 141.893 52.1665 141.272 52.1665ZM142.269 49.7631C142.782 49.7631 143.234 49.6623 143.626 49.4607C144.019 49.2536 144.327 48.9756 144.55 48.6268C144.774 48.278 144.885 47.8829 144.885 47.4415V46.109C144.776 46.1799 144.626 46.2453 144.436 46.3052C144.25 46.3597 144.041 46.4115 143.806 46.4605C143.572 46.5041 143.338 46.545 143.103 46.5831C142.869 46.6158 142.656 46.6458 142.466 46.6731C142.057 46.733 141.7 46.8284 141.395 46.9592C141.09 47.09 140.852 47.2671 140.684 47.4905C140.515 47.7085 140.43 47.981 140.43 48.308C140.43 48.7822 140.602 49.1446 140.945 49.3953C141.294 49.6405 141.735 49.7631 142.269 49.7631ZM156.718 52.1747C155.432 52.1747 154.326 51.9022 153.399 51.3572C152.478 50.8068 151.77 50.0438 151.274 49.0683C150.783 48.0928 150.538 46.9701 150.538 45.7003C150.538 44.4141 150.786 43.286 151.282 42.3159C151.783 41.3404 152.495 40.5801 153.416 40.0352C154.337 39.4847 155.432 39.2095 156.702 39.2095C157.797 39.2095 158.757 39.4084 159.579 39.8063C160.402 40.2041 161.054 40.7627 161.533 41.4821C162.013 42.2015 162.277 43.0462 162.326 44.0163H159.04C158.947 43.3895 158.702 42.8854 158.304 42.5039C157.912 42.117 157.397 41.9235 156.759 41.9235C156.22 41.9235 155.748 42.0707 155.345 42.365C154.947 42.6538 154.636 43.0762 154.413 43.6321C154.19 44.1879 154.078 44.861 154.078 45.6512C154.078 46.4524 154.187 47.1336 154.405 47.6949C154.628 48.2562 154.942 48.6841 155.345 48.9784C155.748 49.2726 156.22 49.4198 156.759 49.4198C157.157 49.4198 157.514 49.338 157.83 49.1745C158.152 49.0111 158.416 48.774 158.623 48.4633C158.836 48.1473 158.975 47.7685 159.04 47.3271H162.326C162.272 48.2862 162.01 49.1309 161.541 49.8612C161.078 50.5861 160.438 51.1528 159.62 51.5616C158.803 51.9703 157.836 52.1747 156.718 52.1747ZM163.7 42.1116V39.373H175.079V42.1116H171.032V51.9294H167.713V42.1116H163.7Z" fill="black"/>
<rect x="585.294" y="35.5621" width="17.2651" height="17.2651" rx="5.17953" fill="#0450C0" stroke="#0450C0" stroke-width="1.15101"/>
<path d="M613.205 48.9866L617.07 45.2196L613.264 41.4527H613.706L617.355 45.0627H617.62V41.4527H617.934V45.0627H618.198L621.848 41.4527H622.289L618.483 45.2196L622.348 48.9866H621.897L618.198 45.3766H617.934V48.9866H617.62V45.3766H617.355L613.657 48.9866H613.205ZM627.063 49.1435C626.405 49.1435 625.83 48.9719 625.336 48.6285C624.846 48.2852 624.465 47.8192 624.193 47.2306C623.922 46.642 623.786 45.9783 623.786 45.2393C623.786 44.5003 623.922 43.8365 624.193 43.2479C624.468 42.6593 624.841 42.1933 625.312 41.85C625.783 41.5067 626.314 41.335 626.906 41.335C627.344 41.335 627.749 41.4282 628.122 41.6146C628.498 41.801 628.825 42.0593 629.103 42.3895C629.381 42.7198 629.597 43.1007 629.751 43.5324C629.908 43.9607 629.986 44.4185 629.986 44.9057V45.2196H623.943V44.9057H629.672C629.672 44.3008 629.548 43.7531 629.299 43.2626C629.051 42.7688 628.717 42.3765 628.299 42.0854C627.88 41.7944 627.416 41.6489 626.906 41.6489C626.389 41.6489 625.922 41.8026 625.503 42.11C625.084 42.4173 624.749 42.8359 624.498 43.3656C624.246 43.8953 624.113 44.4937 624.1 45.1608V45.2C624.1 45.8573 624.215 46.4622 624.444 47.0148C624.676 47.5642 625.013 48.004 625.454 48.3342C625.895 48.6645 626.432 48.8296 627.063 48.8296C627.527 48.8296 627.916 48.7479 628.23 48.5844C628.547 48.4209 628.801 48.2329 628.99 48.0203C629.183 47.8078 629.326 47.6263 629.417 47.4759L629.672 47.6525C629.561 47.8421 629.394 48.053 629.172 48.2852C628.949 48.5173 628.665 48.7184 628.318 48.8885C627.972 49.0585 627.553 49.1435 627.063 49.1435ZM637.389 45.0627V45.3766H632.415V45.0627H637.389ZM632.523 41.4527V48.9866H632.209V41.4527H632.523ZM637.555 41.4527V48.9866H637.242V41.4527H637.555Z" fill="#A7B0BF"/>
<rect x="674.384" y="35.5621" width="17.2651" height="17.2651" rx="5.17953" fill="#3B83EF" stroke="#3B83EF" stroke-width="1.15101"/>
<path d="M704.046 48.4568L707.283 41.4527H707.626L704.144 48.9866H703.947L700.465 41.4527H700.808L704.046 48.4568ZM700.779 41.4527V48.9866H700.465V41.4527H700.779ZM707.312 48.9866V41.4527H707.626V48.9866H707.312ZM710.412 51.8118C710.285 51.8118 710.149 51.7938 710.005 51.7578C709.861 51.7251 709.716 51.6777 709.568 51.6156L709.686 51.3409C710.01 51.4782 710.304 51.5273 710.569 51.4881C710.837 51.4521 711.073 51.3295 711.275 51.1202C711.481 50.9109 711.651 50.6183 711.785 50.2422L712.188 49.1239L709.441 41.4527H709.774L712.325 48.5942H712.364L714.915 41.4527H715.248L712.08 50.3599C711.969 50.6738 711.83 50.9387 711.663 51.1545C711.496 51.3703 711.306 51.5338 711.094 51.645C710.885 51.7562 710.657 51.8118 710.412 51.8118ZM716.814 48.9866L720.679 45.2196L716.873 41.4527H717.314L720.964 45.0627H721.228V41.4527H721.542V45.0627H721.807L725.456 41.4527H725.898L722.092 45.2196L725.957 48.9866H725.506L721.807 45.3766H721.542V48.9866H721.228V45.3766H720.964L717.265 48.9866H716.814Z" fill="#A7B0BF"/>
<path d="M81.043 98.292L81.0406 234.106M736.648 234.122L80.5744 234.111" stroke="#A7B0BF" stroke-width="1.15101"/>
<path d="M46.2703 238.465C45.4953 238.462 44.8331 238.258 44.2838 237.852C43.7345 237.447 43.3143 236.857 43.0233 236.082C42.7322 235.307 42.5867 234.373 42.5867 233.281C42.5867 232.192 42.7322 231.262 43.0233 230.49C43.3175 229.718 43.7394 229.13 44.2887 228.724C44.8413 228.319 45.5018 228.116 46.2703 228.116C47.0387 228.116 47.6976 228.32 48.2469 228.729C48.7963 229.135 49.2165 229.723 49.5075 230.495C49.8018 231.263 49.9489 232.192 49.9489 233.281C49.9489 234.376 49.8034 235.312 49.5124 236.086C49.2214 236.858 48.8012 237.448 48.2518 237.857C47.7025 238.263 47.042 238.465 46.2703 238.465ZM46.2703 237.156C46.9504 237.156 47.4818 236.824 47.8644 236.16C48.2502 235.496 48.4431 234.537 48.4431 233.281C48.4431 232.447 48.3548 231.742 48.1783 231.167C48.005 230.588 47.7548 230.15 47.4278 229.852C47.1041 229.552 46.7182 229.401 46.2703 229.401C45.5934 229.401 45.062 229.735 44.6762 230.402C44.2903 231.069 44.0958 232.029 44.0925 233.281C44.0925 234.118 44.1792 234.826 44.3525 235.405C44.529 235.98 44.7792 236.417 45.1029 236.714C45.4266 237.009 45.8158 237.156 46.2703 237.156ZM56.9322 236.415V235.885C56.9322 235.506 57.0107 235.159 57.1676 234.846C57.3279 234.528 57.56 234.275 57.8641 234.085C58.1715 233.892 58.5426 233.796 58.9775 233.796C59.4222 233.796 59.795 233.891 60.0958 234.08C60.3967 234.27 60.6239 234.523 60.7776 234.841C60.9346 235.158 61.0131 235.506 61.0131 235.885V236.415C61.0131 236.794 60.9346 237.143 60.7776 237.46C60.6207 237.774 60.3901 238.027 60.086 238.22C59.7852 238.41 59.4157 238.505 58.9775 238.505C58.5361 238.505 58.1633 238.41 57.8592 238.22C57.5551 238.027 57.3246 237.774 57.1676 237.46C57.0107 237.143 56.9322 236.794 56.9322 236.415ZM58.075 235.885V236.415C58.075 236.696 58.1421 236.951 58.2761 237.18C58.4102 237.409 58.644 237.524 58.9775 237.524C59.3078 237.524 59.5383 237.409 59.6691 237.18C59.7999 236.951 59.8653 236.696 59.8653 236.415V235.885C59.8653 235.604 59.8016 235.349 59.674 235.12C59.5498 234.891 59.3176 234.777 58.9775 234.777C58.6505 234.777 58.4184 234.891 58.281 235.12C58.1437 235.349 58.075 235.604 58.075 235.885ZM51.8802 230.667V230.137C51.8802 229.758 51.9587 229.409 52.1156 229.092C52.2759 228.775 52.508 228.522 52.8121 228.332C53.1195 228.142 53.4906 228.047 53.9255 228.047C54.3702 228.047 54.743 228.142 55.0438 228.332C55.3447 228.522 55.5719 228.775 55.7256 229.092C55.8793 229.409 55.9561 229.758 55.9561 230.137V230.667C55.9561 231.046 55.8777 231.394 55.7207 231.711C55.567 232.025 55.3381 232.279 55.034 232.472C54.7332 232.661 54.3637 232.756 53.9255 232.756C53.4808 232.756 53.1064 232.661 52.8023 232.472C52.5015 232.279 52.2726 232.025 52.1156 231.711C51.9587 231.394 51.8802 231.046 51.8802 230.667ZM53.0279 230.137V230.667C53.0279 230.948 53.0933 231.203 53.2241 231.432C53.3582 231.661 53.592 231.775 53.9255 231.775C54.2525 231.775 54.4814 231.661 54.6122 231.432C54.7463 231.203 54.8133 230.948 54.8133 230.667V230.137C54.8133 229.856 54.7495 229.601 54.622 229.372C54.4945 229.143 54.2623 229.028 53.9255 229.028C53.5985 229.028 53.3664 229.143 53.229 229.372C53.095 229.601 53.0279 229.856 53.0279 230.137ZM52.3462 238.299L59.2522 228.253H60.4245L53.5184 238.299H52.3462Z" fill="#979797"/>
<path d="M34.3024 170.389V169.29L37.7015 165.769C38.0644 165.386 38.3636 165.051 38.5991 164.763C38.8378 164.472 39.016 164.196 39.1337 163.934C39.2514 163.673 39.3103 163.395 39.3103 163.101C39.3103 162.767 39.2318 162.479 39.0748 162.237C38.9179 161.992 38.7037 161.804 38.4323 161.673C38.1609 161.539 37.8552 161.472 37.5151 161.472C37.1554 161.472 36.8415 161.546 36.5734 161.693C36.3052 161.84 36.0992 162.048 35.9554 162.316C35.8115 162.584 35.7395 162.898 35.7395 163.257H34.2926C34.2926 162.646 34.4332 162.111 34.7144 161.654C34.9956 161.196 35.3815 160.841 35.872 160.589C36.3625 160.334 36.92 160.207 37.5445 160.207C38.1756 160.207 38.7315 160.333 39.2122 160.584C39.6961 160.833 40.0738 161.173 40.3452 161.605C40.6166 162.033 40.7523 162.517 40.7523 163.056C40.7523 163.429 40.682 163.794 40.5414 164.15C40.4041 164.507 40.1637 164.904 39.8204 165.342C39.477 165.777 38.9996 166.305 38.3882 166.926L36.3919 169.016V169.089H40.9142V170.389H34.3024ZM46.2703 170.556C45.4953 170.553 44.8331 170.348 44.2838 169.943C43.7345 169.537 43.3143 168.947 43.0233 168.172C42.7322 167.397 42.5867 166.464 42.5867 165.371C42.5867 164.283 42.7322 163.352 43.0233 162.581C43.3175 161.809 43.7394 161.22 44.2887 160.815C44.8413 160.409 45.5018 160.207 46.2703 160.207C47.0387 160.207 47.6976 160.411 48.2469 160.82C48.7963 161.225 49.2165 161.814 49.5075 162.586C49.8018 163.354 49.9489 164.283 49.9489 165.371C49.9489 166.467 49.8034 167.402 49.5124 168.177C49.2214 168.949 48.8012 169.539 48.2518 169.948C47.7025 170.353 47.042 170.556 46.2703 170.556ZM46.2703 169.246C46.9504 169.246 47.4818 168.914 47.8644 168.251C48.2502 167.587 48.4431 166.627 48.4431 165.371C48.4431 164.538 48.3548 163.833 48.1783 163.257C48.005 162.679 47.7548 162.241 47.4278 161.943C47.1041 161.642 46.7182 161.492 46.2703 161.492C45.5934 161.492 45.062 161.825 44.6762 162.492C44.2903 163.159 44.0958 164.119 44.0925 165.371C44.0925 166.209 44.1792 166.917 44.3525 167.495C44.529 168.071 44.7792 168.507 45.1029 168.805C45.4266 169.099 45.8158 169.246 46.2703 169.246ZM56.9322 168.506V167.976C56.9322 167.597 57.0107 167.25 57.1676 166.936C57.3279 166.619 57.56 166.366 57.8641 166.176C58.1715 165.983 58.5426 165.886 58.9775 165.886C59.4222 165.886 59.795 165.981 60.0958 166.171C60.3967 166.361 60.6239 166.614 60.7776 166.931C60.9346 167.248 61.0131 167.597 61.0131 167.976V168.506C61.0131 168.885 60.9346 169.233 60.7776 169.55C60.6207 169.864 60.3901 170.118 60.086 170.311C59.7852 170.5 59.4157 170.595 58.9775 170.595C58.5361 170.595 58.1633 170.5 57.8592 170.311C57.5551 170.118 57.3246 169.864 57.1676 169.55C57.0107 169.233 56.9322 168.885 56.9322 168.506ZM58.075 167.976V168.506C58.075 168.787 58.1421 169.042 58.2761 169.271C58.4102 169.5 58.644 169.614 58.9775 169.614C59.3078 169.614 59.5383 169.5 59.6691 169.271C59.7999 169.042 59.8653 168.787 59.8653 168.506V167.976C59.8653 167.695 59.8016 167.44 59.674 167.211C59.5498 166.982 59.3176 166.867 58.9775 166.867C58.6505 166.867 58.4184 166.982 58.281 167.211C58.1437 167.44 58.075 167.695 58.075 167.976ZM51.8802 162.757V162.227C51.8802 161.848 51.9587 161.5 52.1156 161.183C52.2759 160.866 52.508 160.612 52.8121 160.422C53.1195 160.233 53.4906 160.138 53.9255 160.138C54.3702 160.138 54.743 160.233 55.0438 160.422C55.3447 160.612 55.5719 160.866 55.7256 161.183C55.8793 161.5 55.9561 161.848 55.9561 162.227V162.757C55.9561 163.137 55.8777 163.485 55.7207 163.802C55.567 164.116 55.3381 164.369 55.034 164.562C54.7332 164.752 54.3637 164.847 53.9255 164.847C53.4808 164.847 53.1064 164.752 52.8023 164.562C52.5015 164.369 52.2726 164.116 52.1156 163.802C51.9587 163.485 51.8802 163.137 51.8802 162.757ZM53.0279 162.227V162.757C53.0279 163.038 53.0933 163.293 53.2241 163.522C53.3582 163.751 53.592 163.866 53.9255 163.866C54.2525 163.866 54.4814 163.751 54.6122 163.522C54.7463 163.293 54.8133 163.038 54.8133 162.757V162.227C54.8133 161.946 54.7495 161.691 54.622 161.462C54.4945 161.233 54.2623 161.119 53.9255 161.119C53.5985 161.119 53.3664 161.233 53.229 161.462C53.095 161.691 53.0279 161.946 53.0279 162.227ZM52.3462 170.389L59.2522 160.344H60.4245L53.5184 170.389H52.3462Z" fill="#979797"/>
<path d="M33.525 101.669V100.443L37.8658 93.5857H38.8321V95.3907H38.2189L35.1142 100.305V100.384H41.0638V101.669H33.525ZM38.2876 103.631V101.296L38.2974 100.737V93.5857H39.7345V103.631H38.2876ZM46.2703 103.798C45.4953 103.794 44.8331 103.59 44.2838 103.185C43.7345 102.779 43.3143 102.189 43.0233 101.414C42.7322 100.639 42.5867 99.7053 42.5867 98.6132C42.5867 97.5243 42.7322 96.594 43.0233 95.8223C43.3175 95.0506 43.7394 94.462 44.2887 94.0566C44.8413 93.6511 45.5018 93.4484 46.2703 93.4484C47.0387 93.4484 47.6976 93.6527 48.2469 94.0615C48.7963 94.4669 49.2165 95.0555 49.5075 95.8272C49.8018 96.5957 49.9489 97.5243 49.9489 98.6132C49.9489 99.7086 49.8034 100.644 49.5124 101.419C49.2214 102.19 48.8012 102.781 48.2518 103.189C47.7025 103.595 47.042 103.798 46.2703 103.798ZM46.2703 102.488C46.9504 102.488 47.4818 102.156 47.8644 101.492C48.2502 100.829 48.4431 99.8688 48.4431 98.6132C48.4431 97.7794 48.3548 97.0747 48.1783 96.4992C48.005 95.9204 47.7548 95.4823 47.4278 95.1847C47.1041 94.8839 46.7182 94.7334 46.2703 94.7334C45.5934 94.7334 45.062 95.067 44.6762 95.734C44.2903 96.4011 44.0958 97.3608 44.0925 98.6132C44.0925 99.4503 44.1792 100.158 44.3525 100.737C44.529 101.312 44.7792 101.749 45.1029 102.047C45.4266 102.341 45.8158 102.488 46.2703 102.488ZM56.9322 101.747V101.218C56.9322 100.838 57.0107 100.492 57.1676 100.178C57.3279 99.8607 57.56 99.6072 57.8641 99.4176C58.1715 99.2247 58.5426 99.1282 58.9775 99.1282C59.4222 99.1282 59.795 99.223 60.0958 99.4127C60.3967 99.6023 60.6239 99.8558 60.7776 100.173C60.9346 100.49 61.0131 100.838 61.0131 101.218V101.747C61.0131 102.127 60.9346 102.475 60.7776 102.792C60.6207 103.106 60.3901 103.359 60.086 103.552C59.7852 103.742 59.4157 103.837 58.9775 103.837C58.5361 103.837 58.1633 103.742 57.8592 103.552C57.5551 103.359 57.3246 103.106 57.1676 102.792C57.0107 102.475 56.9322 102.127 56.9322 101.747ZM58.075 101.218V101.747C58.075 102.029 58.1421 102.284 58.2761 102.513C58.4102 102.741 58.644 102.856 58.9775 102.856C59.3078 102.856 59.5383 102.741 59.6691 102.513C59.7999 102.284 59.8653 102.029 59.8653 101.747V101.218C59.8653 100.936 59.8016 100.681 59.674 100.453C59.5498 100.224 59.3176 100.109 58.9775 100.109C58.6505 100.109 58.4184 100.224 58.281 100.453C58.1437 100.681 58.075 100.936 58.075 101.218ZM51.8802 95.9989V95.4692C51.8802 95.0899 51.9587 94.7416 52.1156 94.4244C52.2759 94.1073 52.508 93.8538 52.8121 93.6642C53.1195 93.4745 53.4906 93.3797 53.9255 93.3797C54.3702 93.3797 54.743 93.4745 55.0438 93.6642C55.3447 93.8538 55.5719 94.1073 55.7256 94.4244C55.8793 94.7416 55.9561 95.0899 55.9561 95.4692V95.9989C55.9561 96.3782 55.8777 96.7265 55.7207 97.0436C55.567 97.3575 55.3381 97.611 55.034 97.8039C54.7332 97.9935 54.3637 98.0884 53.9255 98.0884C53.4808 98.0884 53.1064 97.9935 52.8023 97.8039C52.5015 97.611 52.2726 97.3575 52.1156 97.0436C51.9587 96.7265 51.8802 96.3782 51.8802 95.9989ZM53.0279 95.4692V95.9989C53.0279 96.2801 53.0933 96.5352 53.2241 96.7641C53.3582 96.9929 53.592 97.1074 53.9255 97.1074C54.2525 97.1074 54.4814 96.9929 54.6122 96.7641C54.7463 96.5352 54.8133 96.2801 54.8133 95.9989V95.4692C54.8133 95.188 54.7495 94.9329 54.622 94.704C54.4945 94.4751 54.2623 94.3607 53.9255 94.3607C53.5985 94.3607 53.3664 94.4751 53.229 94.704C53.095 94.9329 53.0279 95.188 53.0279 95.4692ZM52.3462 103.631L59.2522 93.5857H60.4245L53.5184 103.631H52.3462Z" fill="#979797"/>
<path d="M67.9158 98.292H736.653" stroke="#A7B0BF" stroke-width="1.15101"/>
<path d="M70.5151 165.859H731.368" stroke="#A7B0BF" stroke-width="1.15101"/>
<path d="M107.74 255.954V254.856L114.254 251.697V253.193L109.447 255.385L109.491 255.297V255.508L109.447 255.425L114.254 257.612V259.113L107.74 255.954ZM124.028 250.255V260.3H122.507V251.775H122.449L120.045 253.345V251.893L122.552 250.255H124.028ZM130.139 260.437C129.436 260.437 128.815 260.316 128.276 260.074C127.739 259.832 127.319 259.499 127.015 259.074C126.711 258.649 126.56 258.165 126.564 257.622C126.56 257.197 126.647 256.806 126.824 256.45C127.004 256.09 127.247 255.791 127.555 255.552C127.862 255.31 128.205 255.156 128.585 255.091V255.032C128.084 254.911 127.684 254.643 127.383 254.228C127.082 253.813 126.933 253.335 126.937 252.796C126.933 252.282 127.069 251.824 127.344 251.422C127.622 251.017 128.003 250.698 128.486 250.466C128.97 250.234 129.521 250.118 130.139 250.118C130.751 250.118 131.297 250.235 131.778 250.471C132.262 250.703 132.643 251.022 132.92 251.427C133.198 251.829 133.339 252.286 133.342 252.796C133.339 253.335 133.185 253.813 132.881 254.228C132.577 254.643 132.181 254.911 131.694 255.032V255.091C132.07 255.156 132.409 255.31 132.71 255.552C133.014 255.791 133.256 256.09 133.435 256.45C133.619 256.806 133.712 257.197 133.715 257.622C133.712 258.165 133.558 258.649 133.254 259.074C132.95 259.499 132.528 259.832 131.989 260.074C131.452 260.316 130.836 260.437 130.139 260.437ZM130.139 259.196C130.555 259.196 130.914 259.128 131.218 258.99C131.523 258.85 131.758 258.655 131.925 258.407C132.092 258.155 132.177 257.861 132.18 257.524C132.177 257.174 132.085 256.865 131.905 256.597C131.729 256.329 131.488 256.118 131.184 255.964C130.88 255.81 130.532 255.734 130.139 255.734C129.744 255.734 129.392 255.81 129.085 255.964C128.777 256.118 128.536 256.329 128.359 256.597C128.182 256.865 128.096 257.174 128.099 257.524C128.096 257.861 128.176 258.155 128.339 258.407C128.506 258.655 128.743 258.85 129.051 258.99C129.358 259.128 129.721 259.196 130.139 259.196ZM130.139 254.522C130.473 254.522 130.769 254.455 131.027 254.321C131.285 254.187 131.488 254.001 131.635 253.762C131.786 253.523 131.863 253.244 131.866 252.923C131.863 252.609 131.787 252.335 131.64 252.099C131.496 251.864 131.295 251.682 131.037 251.555C130.779 251.424 130.479 251.358 130.139 251.358C129.793 251.358 129.489 251.424 129.227 251.555C128.969 251.682 128.768 251.864 128.624 252.099C128.48 252.335 128.41 252.609 128.413 252.923C128.41 253.244 128.482 253.523 128.629 253.762C128.776 254.001 128.979 254.187 129.237 254.321C129.498 254.455 129.799 254.522 130.139 254.522Z" fill="#979797"/>
<rect x="97.468" y="231.275" width="24.7779" height="1.88188" fill="#0450C0"/>
<rect x="122.246" y="231.275" width="24.7779" height="1.88188" fill="#3B83EF"/>
<path d="M191.267 251.641V261.686H189.747V253.161H189.688L187.285 254.731V253.279L189.791 251.641H191.267ZM197.379 261.823C196.676 261.823 196.055 261.702 195.515 261.46C194.979 261.218 194.559 260.885 194.255 260.46C193.95 260.035 193.8 259.551 193.803 259.008C193.8 258.583 193.887 258.192 194.063 257.836C194.243 257.476 194.487 257.177 194.794 256.938C195.101 256.696 195.445 256.542 195.824 256.477V256.418C195.324 256.297 194.923 256.029 194.622 255.614C194.322 255.199 194.173 254.721 194.176 254.182C194.173 253.668 194.308 253.21 194.583 252.808C194.861 252.403 195.242 252.084 195.726 251.852C196.21 251.62 196.761 251.504 197.379 251.504C197.99 251.504 198.536 251.621 199.017 251.857C199.501 252.089 199.882 252.408 200.16 252.813C200.438 253.215 200.578 253.671 200.582 254.182C200.578 254.721 200.425 255.199 200.121 255.614C199.817 256.029 199.421 256.297 198.934 256.418V256.477C199.31 256.542 199.648 256.696 199.949 256.938C200.253 257.177 200.495 257.476 200.675 257.836C200.858 258.192 200.951 258.583 200.955 259.008C200.951 259.551 200.798 260.035 200.493 260.46C200.189 260.885 199.768 261.218 199.228 261.46C198.692 261.702 198.075 261.823 197.379 261.823ZM197.379 260.582C197.794 260.582 198.154 260.514 198.458 260.376C198.762 260.236 198.997 260.041 199.164 259.793C199.331 259.541 199.416 259.247 199.419 258.91C199.416 258.56 199.324 258.251 199.145 257.983C198.968 257.715 198.728 257.504 198.424 257.35C198.12 257.196 197.771 257.12 197.379 257.12C196.983 257.12 196.632 257.196 196.324 257.35C196.017 257.504 195.775 257.715 195.598 257.983C195.422 258.251 195.335 258.56 195.338 258.91C195.335 259.247 195.415 259.541 195.579 259.793C195.746 260.041 195.983 260.236 196.29 260.376C196.597 260.514 196.96 260.582 197.379 260.582ZM197.379 255.908C197.712 255.908 198.008 255.841 198.267 255.707C198.525 255.573 198.728 255.387 198.875 255.148C199.025 254.909 199.102 254.63 199.105 254.309C199.102 253.995 199.027 253.721 198.88 253.485C198.736 253.25 198.535 253.068 198.276 252.941C198.018 252.81 197.719 252.744 197.379 252.744C197.032 252.744 196.728 252.81 196.467 252.941C196.208 253.068 196.007 253.25 195.863 253.485C195.719 253.721 195.649 253.995 195.652 254.309C195.649 254.63 195.721 254.909 195.868 255.148C196.015 255.387 196.218 255.573 196.476 255.707C196.738 255.841 197.039 255.908 197.379 255.908ZM207.17 256.026V257.301H202.717V256.026H207.17ZM208.701 261.686V260.587L212.1 257.066C212.463 256.683 212.762 256.348 212.997 256.06C213.236 255.769 213.414 255.493 213.532 255.231C213.65 254.97 213.708 254.692 213.708 254.397C213.708 254.064 213.63 253.776 213.473 253.534C213.316 253.289 213.102 253.101 212.83 252.97C212.559 252.836 212.253 252.769 211.913 252.769C211.554 252.769 211.24 252.843 210.971 252.99C210.703 253.137 210.497 253.345 210.353 253.613C210.21 253.881 210.138 254.195 210.138 254.554H208.691C208.691 253.943 208.831 253.408 209.113 252.95C209.394 252.493 209.78 252.138 210.27 251.886C210.761 251.631 211.318 251.504 211.943 251.504C212.574 251.504 213.13 251.629 213.61 251.881C214.094 252.13 214.472 252.47 214.743 252.901C215.015 253.33 215.15 253.814 215.15 254.353C215.15 254.726 215.08 255.091 214.94 255.447C214.802 255.803 214.562 256.201 214.219 256.639C213.875 257.074 213.398 257.602 212.786 258.223L210.79 260.313V260.386H215.312V261.686H208.701ZM220.982 251.641V261.686H219.462V253.161H219.403L217 254.731V253.279L219.506 251.641H220.982Z" fill="#979797"/>
<rect x="179.835" y="232.511" width="24.7779" height="1.88188" fill="#0450C0"/>
<path d="M204.613 172.575C204.613 169.397 207.189 166.82 210.368 166.82H223.635C226.814 166.82 229.39 169.397 229.39 172.575V234.392H204.613V172.575Z" fill="#3B83EF"/>
<path d="M266.502 260.385V259.286L269.901 255.764C270.264 255.382 270.563 255.046 270.798 254.759C271.037 254.468 271.215 254.191 271.333 253.93C271.451 253.668 271.51 253.39 271.51 253.096C271.51 252.762 271.431 252.475 271.274 252.233C271.117 251.987 270.903 251.799 270.632 251.669C270.36 251.535 270.054 251.467 269.714 251.467C269.355 251.467 269.041 251.541 268.773 251.688C268.505 251.835 268.299 252.043 268.155 252.311C268.011 252.579 267.939 252.893 267.939 253.253H266.492C266.492 252.641 266.633 252.107 266.914 251.649C267.195 251.191 267.581 250.836 268.071 250.585C268.562 250.33 269.119 250.202 269.744 250.202C270.375 250.202 270.931 250.328 271.411 250.58C271.895 250.828 272.273 251.168 272.545 251.6C272.816 252.028 272.952 252.512 272.952 253.052C272.952 253.425 272.881 253.789 272.741 254.146C272.603 254.502 272.363 254.899 272.02 255.337C271.676 255.772 271.199 256.3 270.587 256.922L268.591 259.011V259.085H273.113V260.385H266.502ZM278.783 250.339V260.385H277.263V251.86H277.204L274.801 253.429V251.978L277.307 250.339H278.783ZM285.959 254.724V256H281.506V254.724H285.959ZM287.49 260.385V259.286L290.889 255.764C291.252 255.382 291.551 255.046 291.786 254.759C292.025 254.468 292.203 254.191 292.321 253.93C292.439 253.668 292.497 253.39 292.497 253.096C292.497 252.762 292.419 252.475 292.262 252.233C292.105 251.987 291.891 251.799 291.619 251.669C291.348 251.535 291.042 251.467 290.702 251.467C290.343 251.467 290.029 251.541 289.761 251.688C289.492 251.835 289.286 252.043 289.143 252.311C288.999 252.579 288.927 252.893 288.927 253.253H287.48C287.48 252.641 287.62 252.107 287.902 251.649C288.183 251.191 288.569 250.836 289.059 250.585C289.55 250.33 290.107 250.202 290.732 250.202C291.363 250.202 291.919 250.328 292.399 250.58C292.883 250.828 293.261 251.168 293.532 251.6C293.804 252.028 293.939 252.512 293.939 253.052C293.939 253.425 293.869 253.789 293.729 254.146C293.591 254.502 293.351 254.899 293.008 255.337C292.664 255.772 292.187 256.3 291.575 256.922L289.579 259.011V259.085H294.101V260.385H287.49ZM295.534 258.423V257.196L299.874 250.339H300.841V252.144H300.228L297.123 257.059V257.138H303.072V258.423H295.534ZM300.296 260.385V258.05L300.306 257.491V250.339H301.743V260.385H300.296Z" fill="#979797"/>
<rect x="259.898" y="230.844" width="24.7779" height="1.88188" fill="#0450C0"/>
<path d="M284.677 171.424C284.677 168.246 287.253 165.669 290.432 165.669H303.7C306.878 165.669 309.455 168.246 309.455 171.424V232.726H284.677V171.424Z" fill="#3B83EF"/>
<path d="M348.134 261.076V259.977L351.533 256.456C351.896 256.073 352.195 255.738 352.43 255.45C352.669 255.159 352.847 254.883 352.965 254.621C353.083 254.36 353.142 254.082 353.142 253.788C353.142 253.454 353.063 253.166 352.906 252.924C352.749 252.679 352.535 252.491 352.264 252.36C351.992 252.226 351.687 252.159 351.346 252.159C350.987 252.159 350.673 252.233 350.405 252.38C350.137 252.527 349.931 252.735 349.787 253.003C349.643 253.271 349.571 253.585 349.571 253.945H348.124C348.124 253.333 348.265 252.798 348.546 252.341C348.827 251.883 349.213 251.528 349.703 251.276C350.194 251.021 350.751 250.894 351.376 250.894C352.007 250.894 352.563 251.02 353.044 251.271C353.527 251.52 353.905 251.86 354.177 252.292C354.448 252.72 354.584 253.204 354.584 253.743C354.584 254.116 354.513 254.481 354.373 254.837C354.235 255.194 353.995 255.591 353.652 256.029C353.308 256.464 352.831 256.992 352.22 257.613L350.223 259.703V259.776H354.746V261.076H348.134ZM356.178 259.114V257.888L360.519 251.031H361.485V252.836H360.872L357.767 257.751V257.829H363.717V259.114H356.178ZM360.94 261.076V258.741L360.95 258.182V251.031H362.387V261.076H360.94ZM369.884 255.416V256.691H365.431V255.416H369.884ZM371.415 261.076V259.977L374.814 256.456C375.177 256.073 375.476 255.738 375.711 255.45C375.95 255.159 376.128 254.883 376.246 254.621C376.364 254.36 376.423 254.082 376.423 253.788C376.423 253.454 376.344 253.166 376.187 252.924C376.03 252.679 375.816 252.491 375.545 252.36C375.273 252.226 374.967 252.159 374.627 252.159C374.268 252.159 373.954 252.233 373.686 252.38C373.418 252.527 373.212 252.735 373.068 253.003C372.924 253.271 372.852 253.585 372.852 253.945H371.405C371.405 253.333 371.545 252.798 371.827 252.341C372.108 251.883 372.494 251.528 372.984 251.276C373.475 251.021 374.032 250.894 374.657 250.894C375.288 250.894 375.844 251.02 376.324 251.271C376.808 251.52 377.186 251.86 377.457 252.292C377.729 252.72 377.865 253.204 377.865 253.743C377.865 254.116 377.794 254.481 377.654 254.837C377.516 255.194 377.276 255.591 376.933 256.029C376.589 256.464 376.112 256.992 375.5 257.613L373.504 259.703V259.776H378.026V261.076H371.415ZM380.224 261.076L384.609 252.404V252.331H379.537V251.031H386.178V252.375L381.808 261.076H380.224Z" fill="#979797"/>
<path d="M342.266 124.234C342.266 121.056 344.842 118.479 348.021 118.479H361.289C364.467 118.479 367.044 121.056 367.044 124.234V233.783H342.266V124.234Z" fill="#0450C0"/>
<path d="M367.048 171.424C367.048 168.246 369.624 165.669 372.803 165.669H386.623C389.801 165.669 392.378 168.246 392.378 171.424V233.577H367.048V171.424Z" fill="#3B83EF"/>
<path d="M427.8 260.385V259.286L431.199 255.764C431.562 255.382 431.861 255.046 432.097 254.759C432.335 254.468 432.513 254.191 432.631 253.93C432.749 253.668 432.808 253.39 432.808 253.096C432.808 252.762 432.729 252.475 432.572 252.233C432.415 251.987 432.201 251.799 431.93 251.669C431.658 251.535 431.353 251.467 431.013 251.467C430.653 251.467 430.339 251.541 430.071 251.688C429.803 251.835 429.597 252.043 429.453 252.311C429.309 252.579 429.237 252.893 429.237 253.253H427.79C427.79 252.641 427.931 252.107 428.212 251.649C428.493 251.191 428.879 250.836 429.369 250.585C429.86 250.33 430.417 250.202 431.042 250.202C431.673 250.202 432.229 250.328 432.71 250.58C433.194 250.828 433.571 251.168 433.843 251.6C434.114 252.028 434.25 252.512 434.25 253.052C434.25 253.425 434.179 253.789 434.039 254.146C433.901 254.502 433.661 254.899 433.318 255.337C432.974 255.772 432.497 256.3 431.886 256.922L429.889 259.011V259.085H434.412V260.385H427.8ZM436.609 260.385L440.994 251.713V251.639H435.922V250.339H442.563V251.683L438.193 260.385H436.609ZM448.728 254.724V256H444.274V254.724H448.728ZM454.025 260.522C453.351 260.522 452.75 260.406 452.22 260.174C451.693 259.941 451.277 259.619 450.969 259.207C450.665 258.792 450.502 258.311 450.479 257.765H452.019C452.038 258.063 452.138 258.321 452.318 258.54C452.501 258.756 452.74 258.923 453.034 259.041C453.328 259.158 453.655 259.217 454.015 259.217C454.411 259.217 454.761 259.148 455.065 259.011C455.372 258.874 455.612 258.683 455.786 258.437C455.959 258.189 456.046 257.903 456.046 257.579C456.046 257.242 455.959 256.946 455.786 256.691C455.616 256.433 455.366 256.23 455.035 256.083C454.708 255.936 454.313 255.862 453.848 255.862H453V254.626H453.848C454.221 254.626 454.548 254.559 454.829 254.425C455.114 254.291 455.336 254.105 455.496 253.866C455.657 253.624 455.737 253.341 455.737 253.017C455.737 252.707 455.666 252.437 455.526 252.208C455.388 251.976 455.192 251.794 454.937 251.664C454.685 251.533 454.388 251.467 454.045 251.467C453.718 251.467 453.412 251.528 453.127 251.649C452.846 251.767 452.617 251.937 452.441 252.159C452.264 252.378 452.169 252.641 452.156 252.949H450.69C450.706 252.406 450.866 251.929 451.17 251.517C451.478 251.105 451.883 250.782 452.387 250.55C452.89 250.318 453.449 250.202 454.064 250.202C454.708 250.202 455.264 250.328 455.732 250.58C456.203 250.828 456.566 251.16 456.821 251.575C457.079 251.991 457.207 252.445 457.203 252.939C457.207 253.501 457.05 253.979 456.732 254.371C456.418 254.764 456 255.027 455.477 255.161V255.239C456.144 255.341 456.66 255.606 457.027 256.034C457.396 256.462 457.579 256.994 457.576 257.628C457.579 258.181 457.426 258.676 457.115 259.114C456.808 259.552 456.387 259.897 455.854 260.149C455.321 260.398 454.712 260.522 454.025 260.522ZM462.927 260.551C462.152 260.548 461.49 260.344 460.941 259.938C460.391 259.533 459.971 258.942 459.68 258.168C459.389 257.393 459.244 256.459 459.244 255.367C459.244 254.278 459.389 253.348 459.68 252.576C459.974 251.804 460.396 251.216 460.946 250.81C461.498 250.405 462.159 250.202 462.927 250.202C463.696 250.202 464.355 250.406 464.904 250.815C465.453 251.221 465.873 251.809 466.164 252.581C466.459 253.349 466.606 254.278 466.606 255.367C466.606 256.462 466.46 257.397 466.169 258.172C465.878 258.944 465.458 259.534 464.909 259.943C464.359 260.349 463.699 260.551 462.927 260.551ZM462.927 259.242C463.607 259.242 464.139 258.91 464.521 258.246C464.907 257.582 465.1 256.622 465.1 255.367C465.1 254.533 465.012 253.828 464.835 253.253C464.662 252.674 464.412 252.236 464.085 251.938C463.761 251.638 463.375 251.487 462.927 251.487C462.25 251.487 461.719 251.821 461.333 252.488C460.947 253.155 460.753 254.114 460.749 255.367C460.749 256.204 460.836 256.912 461.009 257.491C461.186 258.066 461.436 258.503 461.76 258.8C462.084 259.095 462.473 259.242 462.927 259.242Z" fill="#979797"/>
<path d="M422.33 171.424C422.33 168.246 424.906 165.669 428.085 165.669H441.352C444.531 165.669 447.108 168.246 447.108 171.424V233.241H422.33V171.424Z" fill="#0450C0"/>
<rect x="447.107" y="230.419" width="24.7779" height="1.88188" fill="#3B83EF"/>
<path d="M512.014 260.437C511.34 260.437 510.738 260.321 510.209 260.089C509.682 259.857 509.265 259.535 508.958 259.123C508.654 258.708 508.49 258.227 508.468 257.681H510.008C510.027 257.978 510.127 258.237 510.307 258.456C510.49 258.672 510.729 258.838 511.023 258.956C511.317 259.074 511.644 259.133 512.004 259.133C512.4 259.133 512.749 259.064 513.054 258.927C513.361 258.789 513.601 258.598 513.775 258.353C513.948 258.104 514.035 257.818 514.035 257.494C514.035 257.158 513.948 256.862 513.775 256.607C513.605 256.348 513.354 256.146 513.024 255.998C512.697 255.851 512.302 255.778 511.837 255.778H510.989V254.542H511.837C512.21 254.542 512.537 254.475 512.818 254.341C513.103 254.207 513.325 254.02 513.485 253.781C513.645 253.54 513.726 253.257 513.726 252.933C513.726 252.622 513.655 252.353 513.515 252.124C513.377 251.891 513.181 251.71 512.926 251.579C512.674 251.448 512.377 251.383 512.033 251.383C511.706 251.383 511.401 251.444 511.116 251.564C510.835 251.682 510.606 251.852 510.429 252.075C510.253 252.294 510.158 252.557 510.145 252.864H508.678C508.695 252.321 508.855 251.844 509.159 251.432C509.467 251.02 509.872 250.698 510.376 250.466C510.879 250.234 511.438 250.118 512.053 250.118C512.697 250.118 513.253 250.243 513.721 250.495C514.192 250.744 514.554 251.076 514.81 251.491C515.068 251.906 515.195 252.361 515.192 252.854C515.195 253.417 515.038 253.894 514.721 254.287C514.407 254.679 513.989 254.942 513.466 255.076V255.155C514.133 255.256 514.649 255.521 515.016 255.949C515.385 256.378 515.568 256.909 515.565 257.544C515.568 258.096 515.414 258.592 515.104 259.03C514.796 259.468 514.376 259.813 513.843 260.065C513.31 260.313 512.7 260.437 512.014 260.437ZM520.916 260.467C520.141 260.464 519.479 260.259 518.93 259.854C518.38 259.448 517.96 258.858 517.669 258.083C517.378 257.308 517.233 256.375 517.233 255.282C517.233 254.193 517.378 253.263 517.669 252.492C517.963 251.72 518.385 251.131 518.935 250.726C519.487 250.32 520.148 250.118 520.916 250.118C521.685 250.118 522.343 250.322 522.893 250.731C523.442 251.136 523.862 251.725 524.153 252.496C524.448 253.265 524.595 254.193 524.595 255.282C524.595 256.378 524.449 257.313 524.158 258.088C523.867 258.86 523.447 259.45 522.898 259.859C522.348 260.264 521.688 260.467 520.916 260.467ZM520.916 259.157C521.596 259.157 522.128 258.825 522.51 258.162C522.896 257.498 523.089 256.538 523.089 255.282C523.089 254.449 523.001 253.744 522.824 253.168C522.651 252.59 522.401 252.151 522.074 251.854C521.75 251.553 521.364 251.403 520.916 251.403C520.239 251.403 519.708 251.736 519.322 252.403C518.936 253.07 518.742 254.03 518.738 255.282C518.738 256.119 518.825 256.827 518.998 257.406C519.175 257.982 519.425 258.418 519.749 258.716C520.072 259.01 520.462 259.157 520.916 259.157ZM530.793 254.64V255.915H526.34V254.64H530.793ZM536.09 260.437C535.417 260.437 534.815 260.321 534.285 260.089C533.759 259.857 533.342 259.535 533.035 259.123C532.731 258.708 532.567 258.227 532.544 257.681H534.084C534.104 257.978 534.204 258.237 534.384 258.456C534.567 258.672 534.805 258.838 535.1 258.956C535.394 259.074 535.721 259.133 536.081 259.133C536.476 259.133 536.826 259.064 537.13 258.927C537.438 258.789 537.678 258.598 537.851 258.353C538.025 258.104 538.111 257.818 538.111 257.494C538.111 257.158 538.025 256.862 537.851 256.607C537.681 256.348 537.431 256.146 537.101 255.998C536.774 255.851 536.378 255.778 535.914 255.778H535.065V254.542H535.914C536.287 254.542 536.614 254.475 536.895 254.341C537.179 254.207 537.402 254.02 537.562 253.781C537.722 253.54 537.802 253.257 537.802 252.933C537.802 252.622 537.732 252.353 537.591 252.124C537.454 251.891 537.258 251.71 537.003 251.579C536.751 251.448 536.453 251.383 536.11 251.383C535.783 251.383 535.477 251.444 535.193 251.564C534.912 251.682 534.683 251.852 534.506 252.075C534.33 252.294 534.235 252.557 534.222 252.864H532.755C532.772 252.321 532.932 251.844 533.236 251.432C533.543 251.02 533.949 250.698 534.452 250.466C534.956 250.234 535.515 250.118 536.13 250.118C536.774 250.118 537.33 250.243 537.797 250.495C538.268 250.744 538.631 251.076 538.886 251.491C539.145 251.906 539.272 252.361 539.269 252.854C539.272 253.417 539.115 253.894 538.798 254.287C538.484 254.679 538.066 254.942 537.542 255.076V255.155C538.209 255.256 538.726 255.521 539.092 255.949C539.462 256.378 539.645 256.909 539.642 257.544C539.645 258.096 539.491 258.592 539.181 259.03C538.873 259.468 538.453 259.813 537.92 260.065C537.387 260.313 536.777 260.437 536.09 260.437ZM544.811 260.437C544.197 260.437 543.644 260.32 543.153 260.084C542.666 259.846 542.277 259.519 541.986 259.103C541.695 258.688 541.54 258.214 541.52 257.681H542.992C543.028 258.112 543.219 258.467 543.565 258.745C543.912 259.023 544.327 259.162 544.811 259.162C545.197 259.162 545.539 259.074 545.836 258.897C546.137 258.717 546.373 258.471 546.543 258.157C546.716 257.843 546.803 257.485 546.803 257.082C546.803 256.674 546.714 256.309 546.538 255.989C546.361 255.668 546.118 255.416 545.807 255.233C545.5 255.05 545.146 254.957 544.748 254.954C544.443 254.954 544.138 255.006 543.83 255.111C543.523 255.215 543.274 255.353 543.085 255.523L541.697 255.317L542.261 250.255H547.784V251.555H543.521L543.203 254.365H543.261C543.458 254.176 543.718 254.017 544.041 253.889C544.368 253.762 544.718 253.698 545.091 253.698C545.702 253.698 546.247 253.844 546.724 254.135C547.205 254.426 547.583 254.823 547.857 255.327C548.135 255.827 548.273 256.402 548.269 257.053C548.273 257.704 548.125 258.284 547.828 258.794C547.534 259.304 547.125 259.707 546.602 260.001C546.082 260.292 545.485 260.437 544.811 260.437Z" fill="#979797"/>
<rect x="503.545" y="231.275" width="24.7779" height="1.88188" fill="#0450C0"/>
<rect x="528.323" y="231.275" width="24.7779" height="1.88188" fill="#3B83EF"/>
<path d="M595.923 260.712C595.249 260.712 594.648 260.596 594.118 260.364C593.592 260.132 593.175 259.81 592.867 259.398C592.563 258.983 592.4 258.502 592.377 257.956H593.917C593.937 258.253 594.036 258.512 594.216 258.731C594.399 258.947 594.638 259.113 594.932 259.231C595.227 259.349 595.554 259.408 595.913 259.408C596.309 259.408 596.659 259.339 596.963 259.202C597.27 259.064 597.511 258.873 597.684 258.628C597.857 258.379 597.944 258.093 597.944 257.769C597.944 257.433 597.857 257.137 597.684 256.882C597.514 256.623 597.264 256.421 596.933 256.273C596.606 256.126 596.211 256.053 595.746 256.053H594.898V254.817H595.746C596.119 254.817 596.446 254.75 596.727 254.616C597.012 254.481 597.234 254.295 597.395 254.056C597.555 253.814 597.635 253.532 597.635 253.208C597.635 252.897 597.565 252.627 597.424 252.399C597.287 252.166 597.09 251.985 596.835 251.854C596.584 251.723 596.286 251.658 595.943 251.658C595.616 251.658 595.31 251.718 595.025 251.839C594.744 251.957 594.515 252.127 594.339 252.35C594.162 252.569 594.067 252.832 594.054 253.139H592.588C592.604 252.596 592.764 252.119 593.068 251.707C593.376 251.295 593.781 250.973 594.285 250.741C594.788 250.509 595.348 250.392 595.962 250.392C596.606 250.392 597.162 250.518 597.63 250.77C598.101 251.019 598.464 251.351 598.719 251.766C598.977 252.181 599.105 252.636 599.101 253.129C599.105 253.692 598.948 254.169 598.631 254.562C598.317 254.954 597.898 255.217 597.375 255.351V255.43C598.042 255.531 598.559 255.796 598.925 256.224C599.294 256.653 599.477 257.184 599.474 257.818C599.477 258.371 599.324 258.866 599.013 259.305C598.706 259.743 598.286 260.088 597.753 260.34C597.22 260.588 596.61 260.712 595.923 260.712ZM604.644 260.712C604.029 260.712 603.477 260.595 602.986 260.359C602.499 260.12 602.11 259.793 601.819 259.378C601.528 258.963 601.372 258.489 601.353 257.956H602.824C602.86 258.387 603.051 258.742 603.398 259.02C603.745 259.298 604.16 259.437 604.644 259.437C605.03 259.437 605.371 259.349 605.669 259.172C605.97 258.992 606.205 258.745 606.375 258.432C606.549 258.118 606.635 257.76 606.635 257.357C606.635 256.949 606.547 256.584 606.37 256.264C606.194 255.943 605.95 255.691 605.64 255.508C605.332 255.325 604.979 255.232 604.58 255.229C604.276 255.229 603.97 255.281 603.663 255.386C603.356 255.49 603.107 255.628 602.917 255.798L601.529 255.592L602.093 250.53H607.616V251.83H603.354L603.035 254.64H603.094C603.29 254.45 603.55 254.292 603.874 254.164C604.201 254.037 604.551 253.973 604.923 253.973C605.535 253.973 606.079 254.119 606.557 254.41C607.037 254.701 607.415 255.098 607.69 255.601C607.968 256.102 608.105 256.677 608.102 257.328C608.105 257.979 607.958 258.559 607.66 259.069C607.366 259.579 606.957 259.981 606.434 260.276C605.914 260.567 605.318 260.712 604.644 260.712ZM614.352 254.915V256.19H609.898V254.915H614.352ZM616.076 258.613V257.387L620.417 250.53H621.383V252.335H620.77L617.665 257.249V257.328H623.615V258.613H616.076ZM620.839 260.575V258.24L620.848 257.681V250.53H622.285V260.575H620.839ZM628.821 260.742C628.046 260.738 627.384 260.534 626.835 260.129C626.285 259.723 625.865 259.133 625.574 258.358C625.283 257.583 625.138 256.649 625.138 255.557C625.138 254.468 625.283 253.538 625.574 252.766C625.868 251.995 626.29 251.406 626.84 251.001C627.392 250.595 628.053 250.392 628.821 250.392C629.59 250.392 630.248 250.597 630.798 251.006C631.347 251.411 631.767 252 632.058 252.771C632.353 253.54 632.5 254.468 632.5 255.557C632.5 256.653 632.354 257.588 632.063 258.363C631.772 259.135 631.352 259.725 630.803 260.134C630.253 260.539 629.593 260.742 628.821 260.742ZM628.821 259.432C629.501 259.432 630.033 259.1 630.415 258.436C630.801 257.773 630.994 256.813 630.994 255.557C630.994 254.723 630.906 254.019 630.729 253.443C630.556 252.865 630.306 252.426 629.979 252.129C629.655 251.828 629.269 251.678 628.821 251.678C628.144 251.678 627.613 252.011 627.227 252.678C626.841 253.345 626.647 254.305 626.643 255.557C626.643 256.394 626.73 257.102 626.903 257.681C627.08 258.257 627.33 258.693 627.654 258.991C627.978 259.285 628.367 259.432 628.821 259.432Z" fill="#979797"/>
<path d="M583.609 204.802C583.609 201.624 586.186 199.047 589.364 199.047H602.632C605.81 199.047 608.387 201.624 608.387 204.802V233.432H583.609V204.802Z" fill="#0450C0"/>
<rect x="610.69" y="231.55" width="24.7779" height="1.88188" fill="#3B83EF"/>
<path d="M687.221 256.469L680.707 259.628V258.127L685.514 255.94L685.465 256.023V255.812L685.514 255.9L680.707 253.708V252.212L687.221 255.371V256.469ZM689.317 258.853V257.627L693.658 250.77H694.625V252.575H694.011L690.907 257.489V257.568H696.856V258.853H689.317ZM694.08 260.815V258.48L694.09 257.921V250.77H695.527V260.815H694.08ZM702.063 260.982C701.288 260.978 700.626 260.774 700.076 260.369C699.527 259.963 699.107 259.373 698.816 258.598C698.525 257.823 698.379 256.889 698.379 255.797C698.379 254.708 698.525 253.778 698.816 253.006C699.11 252.235 699.532 251.646 700.081 251.241C700.634 250.835 701.294 250.632 702.063 250.632C702.831 250.632 703.49 250.837 704.039 251.246C704.589 251.651 705.009 252.24 705.3 253.011C705.594 253.78 705.741 254.708 705.741 255.797C705.741 256.893 705.596 257.828 705.305 258.603C705.014 259.375 704.594 259.965 704.044 260.374C703.495 260.779 702.834 260.982 702.063 260.982ZM702.063 259.672C702.743 259.672 703.274 259.34 703.657 258.676C704.043 258.013 704.236 257.053 704.236 255.797C704.236 254.963 704.147 254.259 703.971 253.683C703.797 253.105 703.547 252.666 703.22 252.369C702.897 252.068 702.511 251.918 702.063 251.918C701.386 251.918 700.855 252.251 700.469 252.918C700.083 253.585 699.888 254.545 699.885 255.797C699.885 256.634 699.972 257.342 700.145 257.921C700.322 258.497 700.572 258.933 700.895 259.231C701.219 259.525 701.608 259.672 702.063 259.672Z" fill="#979797"/>
<rect x="669.956" y="231.791" width="24.7779" height="1.88188" fill="#0450C0"/>
<path d="M694.734 212.859C694.734 209.681 697.311 207.104 700.489 207.104H713.757C716.935 207.104 719.512 209.681 719.512 212.859V233.672H694.734V212.859Z" fill="#3B83EF"/>
<path d="M63.6592 98.8213H70.1206" stroke="#979797" stroke-width="1.15101"/>
<path d="M63.6592 166.391H70.1206" stroke="#979797" stroke-width="1.15101"/>
<path d="M63.6592 234.433H70.1206" stroke="#979797" stroke-width="1.15101"/>
<path d="M164.52 98.292L164.52 234.111" stroke="#A7B0BF" stroke-width="1.15101"/>
<path d="M246.193 98.292L246.193 234.111" stroke="#A7B0BF" stroke-width="1.15101"/>
<path d="M327.866 98.292L327.866 234.111" stroke="#A7B0BF" stroke-width="1.15101"/>
<path d="M409.539 98.292L409.539 234.111" stroke="#A7B0BF" stroke-width="1.15101"/>
<path d="M491.212 98.292L491.212 234.111" stroke="#A7B0BF" stroke-width="1.15101"/>
<path d="M572.886 98.292L572.886 234.111" stroke="#A7B0BF" stroke-width="1.15101"/>
<path d="M654.559 98.292L654.559 234.111" stroke="#A7B0BF" stroke-width="1.15101"/>
<path d="M736.232 98.292L736.232 234.111" stroke="#A7B0BF" stroke-width="1.15101"/>
</svg>
