<svg width="609" height="172" viewBox="0 0 609 172" fill="none" xmlns="http://www.w3.org/2000/svg">
<rect x="0.855469" y="0.89917" width="607.156" height="170.349" rx="14.9631" fill="white"/>
<path d="M33.4745 38.6304V55.3723H29.9348V38.6304H33.4745ZM37.0714 45.9141V48.6772H31.7251V45.9141H37.0714ZM51.647 47.0014C51.647 48.8271 51.301 50.3803 50.6088 51.661C49.9221 52.9417 48.9848 53.9199 47.7967 54.5957C46.6141 55.266 45.2843 55.6012 43.8074 55.6012C42.3196 55.6012 40.9844 55.2633 39.8018 54.5875C38.6192 53.9118 37.6845 52.9335 36.9978 51.6528C36.3112 50.3721 35.9678 48.8216 35.9678 47.0014C35.9678 45.1757 36.3112 43.6225 36.9978 42.3417C37.6845 41.061 38.6192 40.0855 39.8018 39.4152C40.9844 38.7394 42.3196 38.4015 43.8074 38.4015C45.2843 38.4015 46.6141 38.7394 47.7967 39.4152C48.9848 40.0855 49.9221 41.061 50.6088 42.3417C51.301 43.6225 51.647 45.1757 51.647 47.0014ZM48.0583 47.0014C48.0583 45.8187 47.8812 44.8214 47.5269 44.0094C47.1781 43.1974 46.6849 42.5815 46.0473 42.1619C45.4097 41.7423 44.663 41.5324 43.8074 41.5324C42.9518 41.5324 42.2052 41.7423 41.5675 42.1619C40.9299 42.5815 40.434 43.1974 40.0797 44.0094C39.7309 44.8214 39.5565 45.8187 39.5565 47.0014C39.5565 48.184 39.7309 49.1813 40.0797 49.9933C40.434 50.8053 40.9299 51.4212 41.5675 51.8408C42.2052 52.2605 42.9518 52.4703 43.8074 52.4703C44.663 52.4703 45.4097 52.2605 46.0473 51.8408C46.6849 51.4212 47.1781 50.8053 47.5269 49.9933C47.8812 49.1813 48.0583 48.184 48.0583 47.0014ZM54.1935 60.081V42.8159H57.6269V44.925H57.7822C57.9348 44.5871 58.1555 44.2437 58.4443 43.8949C58.7386 43.5407 59.1201 43.2464 59.5888 43.0121C60.0629 42.7723 60.6515 42.6524 61.3546 42.6524C62.2701 42.6524 63.1149 42.8922 63.8887 43.3718C64.6626 43.8459 65.2812 44.5626 65.7444 45.5217C66.2076 46.4754 66.4393 47.6717 66.4393 49.1104C66.4393 50.5111 66.2131 51.6937 65.7608 52.6583C65.3139 53.6175 64.7035 54.345 63.9296 54.841C63.1612 55.3314 62.3001 55.5767 61.3464 55.5767C60.6706 55.5767 60.0956 55.465 59.6215 55.2415C59.1528 55.0181 58.7686 54.7374 58.4689 54.3995C58.1691 54.0562 57.9402 53.7101 57.7822 53.3613H57.6759V60.081H54.1935ZM57.6023 49.0941C57.6023 49.8407 57.7059 50.492 57.913 51.0479C58.1201 51.6037 58.4198 52.037 58.8122 52.3477C59.2046 52.6528 59.6815 52.8054 60.2428 52.8054C60.8096 52.8054 61.2892 52.6501 61.6815 52.3395C62.0739 52.0234 62.3709 51.5874 62.5726 51.0315C62.7797 50.4702 62.8832 49.8244 62.8832 49.0941C62.8832 48.3693 62.7824 47.7316 62.5808 47.1812C62.3791 46.6308 62.0821 46.2002 61.6897 45.8896C61.2973 45.5789 60.815 45.4236 60.2428 45.4236C59.676 45.4236 59.1964 45.5735 58.804 45.8732C58.4171 46.173 58.1201 46.5981 57.913 47.1485C57.7059 47.6989 57.6023 48.3475 57.6023 49.0941ZM73.3531 55.3723L73.3367 52.6092H73.7536C74.0479 52.6092 74.3013 52.5384 74.5139 52.3967C74.7319 52.2496 74.9117 52.0125 75.0534 51.6855C75.1951 51.3585 75.3068 50.9252 75.3886 50.3857C75.4703 49.8407 75.5248 49.1704 75.5521 48.3747L75.7564 42.8159H85.3046V55.3723H81.9856V45.5544H78.8874L78.6912 49.3884C78.6421 50.4402 78.5141 51.3449 78.307 52.1024C78.1053 52.8599 77.8247 53.4812 77.465 53.9663C77.1053 54.4458 76.672 54.8001 76.1652 55.029C75.6583 55.2579 75.0698 55.3723 74.3994 55.3723H73.3531ZM91.3314 50.7781L95.8521 42.8159H99.2855V55.3723H95.9665V47.3856L91.4622 55.3723H88.0043V42.8159H91.3314V50.7781ZM113.056 42.8159V52.9689H115.059V59.4106H111.674V55.3723H102.077V42.8159H105.404V52.6338H109.77V42.8159H113.056ZM120.787 55.6094C119.986 55.6094 119.272 55.4704 118.645 55.1925C118.019 54.9091 117.523 54.4922 117.158 53.9417C116.798 53.3858 116.618 52.6937 116.618 51.8653C116.618 51.1678 116.746 50.5819 117.002 50.1078C117.258 49.6336 117.607 49.2521 118.049 48.9633C118.49 48.6745 118.991 48.4565 119.553 48.3093C120.12 48.1622 120.714 48.0586 121.335 47.9987C122.065 47.9224 122.654 47.8515 123.101 47.7861C123.547 47.7153 123.872 47.6117 124.073 47.4755C124.275 47.3392 124.376 47.1376 124.376 46.8706V46.8215C124.376 46.3038 124.212 45.9032 123.885 45.6198C123.564 45.3364 123.106 45.1947 122.512 45.1947C121.885 45.1947 121.387 45.3337 121.016 45.6116C120.645 45.8841 120.4 46.2275 120.28 46.6417L117.059 46.3801C117.223 45.6171 117.544 44.9577 118.024 44.4018C118.504 43.8404 119.122 43.4099 119.88 43.1102C120.643 42.805 121.526 42.6524 122.528 42.6524C123.226 42.6524 123.894 42.7341 124.531 42.8976C125.174 43.0611 125.744 43.3145 126.24 43.6579C126.741 44.0012 127.136 44.4427 127.425 44.9822C127.714 45.5163 127.858 46.1566 127.858 46.9033V55.3723H124.556V53.6311H124.458C124.256 54.0235 123.986 54.3695 123.648 54.6693C123.31 54.9636 122.904 55.1952 122.43 55.3641C121.956 55.5276 121.408 55.6094 120.787 55.6094ZM121.784 53.206C122.297 53.206 122.749 53.1052 123.141 52.9035C123.534 52.6964 123.842 52.4185 124.065 52.0697C124.289 51.7209 124.4 51.3258 124.4 50.8844V49.5519C124.291 49.6227 124.142 49.6881 123.951 49.7481C123.765 49.8026 123.556 49.8543 123.321 49.9034C123.087 49.947 122.853 49.9879 122.618 50.026C122.384 50.0587 122.171 50.0887 121.981 50.1159C121.572 50.1759 121.215 50.2713 120.91 50.4021C120.605 50.5329 120.367 50.71 120.199 50.9334C120.03 51.1514 119.945 51.4239 119.945 51.7509C119.945 52.225 120.117 52.5874 120.46 52.8381C120.809 53.0834 121.25 53.206 121.784 53.206Z" fill="black"/>
<path d="M441.001 132.282V121.229H443.2V132.282H441.001ZM436.579 127.851V125.66H447.631V127.851H436.579ZM463.3 135.372C462.008 135.366 460.905 135.026 459.989 134.35C459.073 133.674 458.373 132.69 457.888 131.399C457.403 130.107 457.161 128.551 457.161 126.731C457.161 124.916 457.403 123.366 457.888 122.08C458.379 120.793 459.082 119.812 459.997 119.137C460.918 118.461 462.019 118.123 463.3 118.123C464.58 118.123 465.679 118.464 466.594 119.145C467.51 119.821 468.21 120.802 468.695 122.088C469.186 123.368 469.431 124.916 469.431 126.731C469.431 128.557 469.188 130.115 468.703 131.407C468.218 132.693 467.518 133.677 466.602 134.358C465.687 135.034 464.586 135.372 463.3 135.372ZM463.3 133.189C464.433 133.189 465.319 132.636 465.957 131.53C466.6 130.423 466.921 128.824 466.921 126.731C466.921 125.341 466.774 124.167 466.48 123.208C466.191 122.243 465.774 121.513 465.229 121.017C464.689 120.515 464.046 120.265 463.3 120.265C462.172 120.265 461.286 120.821 460.643 121.932C460 123.044 459.676 124.644 459.67 126.731C459.67 128.126 459.815 129.306 460.103 130.271C460.398 131.23 460.815 131.957 461.354 132.453C461.894 132.944 462.542 133.189 463.3 133.189ZM474.937 132.805L474.814 133.696C474.732 134.35 474.593 135.031 474.397 135.74C474.206 136.453 474.007 137.116 473.8 137.726C473.599 138.336 473.432 138.821 473.302 139.181H471.569C471.639 138.843 471.738 138.385 471.863 137.808C471.988 137.236 472.111 136.595 472.231 135.887C472.351 135.178 472.441 134.456 472.5 133.72L472.582 132.805H474.937ZM478.493 135.094L485.801 120.641V120.518H477.348V118.352H488.417V120.592L481.133 135.094H478.493ZM499.998 131.955V131.072C499.998 130.44 500.129 129.862 500.391 129.339C500.658 128.81 501.045 128.388 501.552 128.072C502.064 127.75 502.682 127.589 503.407 127.589C504.148 127.589 504.77 127.747 505.271 128.063C505.772 128.38 506.151 128.802 506.407 129.331C506.669 129.859 506.8 130.44 506.8 131.072V131.955C506.8 132.587 506.669 133.167 506.407 133.696C506.146 134.219 505.762 134.641 505.255 134.963C504.753 135.279 504.138 135.437 503.407 135.437C502.671 135.437 502.05 135.279 501.543 134.963C501.037 134.641 500.652 134.219 500.391 133.696C500.129 133.167 499.998 132.587 499.998 131.955ZM501.903 131.072V131.955C501.903 132.423 502.015 132.848 502.238 133.23C502.462 133.611 502.851 133.802 503.407 133.802C503.958 133.802 504.342 133.611 504.56 133.23C504.778 132.848 504.887 132.423 504.887 131.955V131.072C504.887 130.603 504.781 130.178 504.568 129.797C504.361 129.415 503.974 129.224 503.407 129.224C502.862 129.224 502.475 129.415 502.246 129.797C502.018 130.178 501.903 130.603 501.903 131.072ZM491.578 122.374V121.491C491.578 120.859 491.709 120.278 491.971 119.75C492.238 119.221 492.625 118.799 493.132 118.483C493.644 118.167 494.262 118.008 494.987 118.008C495.728 118.008 496.35 118.167 496.851 118.483C497.352 118.799 497.731 119.221 497.987 119.75C498.243 120.278 498.372 120.859 498.372 121.491V122.374C498.372 123.006 498.241 123.586 497.979 124.115C497.723 124.638 497.342 125.061 496.835 125.382C496.333 125.698 495.717 125.856 494.987 125.856C494.246 125.856 493.622 125.698 493.115 125.382C492.614 125.061 492.232 124.638 491.971 124.115C491.709 123.586 491.578 123.006 491.578 122.374ZM493.491 121.491V122.374C493.491 122.843 493.6 123.268 493.818 123.649C494.042 124.031 494.431 124.221 494.987 124.221C495.532 124.221 495.914 124.031 496.132 123.649C496.355 123.268 496.467 122.843 496.467 122.374V121.491C496.467 121.022 496.361 120.597 496.148 120.216C495.935 119.834 495.549 119.643 494.987 119.643C494.442 119.643 494.055 119.834 493.826 120.216C493.603 120.597 493.491 121.022 493.491 121.491ZM492.355 135.094L503.865 118.352H505.819L494.309 135.094H492.355Z" fill="#979797"/>
<path d="M30.0902 135.094V133.263L35.7553 127.393C36.3602 126.755 36.8589 126.197 37.2513 125.717C37.6491 125.232 37.9461 124.772 38.1423 124.336C38.3385 123.9 38.4366 123.437 38.4366 122.946C38.4366 122.39 38.3058 121.911 38.0442 121.507C37.7826 121.099 37.4257 120.785 36.9733 120.567C36.521 120.344 36.0114 120.232 35.4446 120.232C34.8452 120.232 34.322 120.355 33.8751 120.6C33.4282 120.845 33.0849 121.191 32.8451 121.638C32.6053 122.085 32.4854 122.608 32.4854 123.208H30.0738C30.0738 122.189 30.3082 121.297 30.7768 120.534C31.2455 119.772 31.8886 119.18 32.7061 118.761C33.5236 118.335 34.4528 118.123 35.4937 118.123C36.5455 118.123 37.472 118.333 38.2731 118.752C39.0797 119.167 39.7091 119.733 40.1615 120.453C40.6138 121.167 40.84 121.973 40.84 122.872C40.84 123.494 40.7228 124.101 40.4885 124.695C40.2596 125.289 39.859 125.952 39.2868 126.682C38.7145 127.407 37.9189 128.287 36.8997 129.322L33.5726 132.805V132.927H41.1097V135.094H30.0902ZM49.7341 135.323C48.7096 135.323 47.7885 135.126 46.9711 134.734C46.159 134.336 45.5105 133.791 45.0255 133.099C44.5404 132.407 44.2816 131.617 44.2489 130.728H46.7013C46.7612 131.448 47.0801 132.039 47.6577 132.502C48.2354 132.966 48.9275 133.197 49.7341 133.197C50.3772 133.197 50.9467 133.05 51.4427 132.756C51.944 132.456 52.3364 132.045 52.6198 131.521C52.9087 130.998 53.0531 130.401 53.0531 129.731C53.0531 129.05 52.9059 128.442 52.6116 127.908C52.3174 127.374 51.9113 126.954 51.3936 126.649C50.8813 126.344 50.2927 126.189 49.6279 126.183C49.121 126.183 48.6115 126.27 48.0992 126.445C47.5869 126.619 47.1727 126.848 46.8566 127.132L44.5431 126.788L45.4832 118.352H54.688V120.518H47.5842L47.0528 125.202H47.1509C47.4779 124.886 47.9112 124.622 48.4507 124.409C48.9957 124.197 49.5788 124.091 50.2001 124.091C51.2192 124.091 52.1266 124.333 52.9223 124.818C53.7234 125.303 54.3529 125.965 54.8107 126.805C55.2739 127.638 55.5028 128.598 55.4973 129.682C55.5028 130.767 55.2575 131.734 54.7616 132.584C54.2711 133.434 53.5899 134.105 52.7179 134.595C51.8514 135.08 50.8568 135.323 49.7341 135.323ZM64.3118 135.372C63.0202 135.366 61.9166 135.026 61.001 134.35C60.0854 133.674 59.3851 132.69 58.9001 131.399C58.415 130.107 58.1725 128.551 58.1725 126.731C58.1725 124.916 58.415 123.366 58.9001 122.08C59.3906 120.793 60.0936 119.812 61.0092 119.137C61.9302 118.461 63.0311 118.123 64.3118 118.123C65.5925 118.123 66.6906 118.464 67.6062 119.145C68.5218 119.821 69.2221 120.802 69.7071 122.088C70.1976 123.368 70.4428 124.916 70.4428 126.731C70.4428 128.557 70.2003 130.115 69.7153 131.407C69.2303 132.693 68.53 133.677 67.6144 134.358C66.6988 135.034 65.5979 135.372 64.3118 135.372ZM64.3118 133.189C65.4453 133.189 66.3309 132.636 66.9686 131.53C67.6117 130.423 67.9332 128.824 67.9332 126.731C67.9332 125.341 67.786 124.167 67.4918 123.208C67.2029 122.243 66.786 121.513 66.241 121.017C65.7015 120.515 65.0584 120.265 64.3118 120.265C63.1837 120.265 62.2981 120.821 61.655 121.932C61.0119 123.044 60.6876 124.644 60.6822 126.731C60.6822 128.126 60.8266 129.306 61.1154 130.271C61.4097 131.23 61.8266 131.957 62.3662 132.453C62.9057 132.944 63.5542 133.189 64.3118 133.189ZM85.2637 135.372C83.9721 135.366 82.8685 135.026 81.9529 134.35C81.0373 133.674 80.337 132.69 79.852 131.399C79.367 130.107 79.1244 128.551 79.1244 126.731C79.1244 124.916 79.367 123.366 79.852 122.08C80.3425 120.793 81.0455 119.812 81.9611 119.137C82.8821 118.461 83.983 118.123 85.2637 118.123C86.5444 118.123 87.6426 118.464 88.5581 119.145C89.4737 119.821 90.174 120.802 90.659 122.088C91.1495 123.368 91.3948 124.916 91.3948 126.731C91.3948 128.557 91.1523 130.115 90.6672 131.407C90.1822 132.693 89.4819 133.677 88.5663 134.358C87.6507 135.034 86.5499 135.372 85.2637 135.372ZM85.2637 133.189C86.3973 133.189 87.2829 132.636 87.9205 131.53C88.5636 130.423 88.8851 128.824 88.8851 126.731C88.8851 125.341 88.738 124.167 88.4437 123.208C88.1548 122.243 87.7379 121.513 87.1929 121.017C86.6534 120.515 86.0103 120.265 85.2637 120.265C84.1356 120.265 83.25 120.821 82.6069 121.932C81.9638 123.044 81.6396 124.644 81.6341 126.731C81.6341 128.126 81.7785 129.306 82.0674 130.271C82.3617 131.23 82.7786 131.957 83.3181 132.453C83.8576 132.944 84.5062 133.189 85.2637 133.189ZM100.123 135.372C98.8318 135.366 97.7282 135.026 96.8126 134.35C95.897 133.674 95.1967 132.69 94.7117 131.399C94.2266 130.107 93.9841 128.551 93.9841 126.731C93.9841 124.916 94.2266 123.366 94.7117 122.08C95.2022 120.793 95.9052 119.812 96.8208 119.137C97.7418 118.461 98.8427 118.123 100.123 118.123C101.404 118.123 102.502 118.464 103.418 119.145C104.333 119.821 105.034 120.802 105.519 122.088C106.009 123.368 106.254 124.916 106.254 126.731C106.254 128.557 106.012 130.115 105.527 131.407C105.042 132.693 104.342 133.677 103.426 134.358C102.51 135.034 101.41 135.372 100.123 135.372ZM100.123 133.189C101.257 133.189 102.143 132.636 102.78 131.53C103.423 130.423 103.745 128.824 103.745 126.731C103.745 125.341 103.598 124.167 103.303 123.208C103.015 122.243 102.598 121.513 102.053 121.017C101.513 120.515 100.87 120.265 100.123 120.265C98.9953 120.265 98.1097 120.821 97.4666 121.932C96.8235 123.044 96.4992 124.644 96.4938 126.731C96.4938 128.126 96.6382 129.306 96.927 130.271C97.2213 131.23 97.6382 131.957 98.1778 132.453C98.7173 132.944 99.3658 133.189 100.123 133.189ZM114.983 135.372C113.691 135.366 112.588 135.026 111.672 134.35C110.757 133.674 110.056 132.69 109.571 131.399C109.086 130.107 108.844 128.551 108.844 126.731C108.844 124.916 109.086 123.366 109.571 122.08C110.062 120.793 110.765 119.812 111.68 119.137C112.601 118.461 113.702 118.123 114.983 118.123C116.264 118.123 117.362 118.464 118.277 119.145C119.193 119.821 119.893 120.802 120.378 122.088C120.869 123.368 121.114 124.916 121.114 126.731C121.114 128.557 120.872 130.115 120.387 131.407C119.902 132.693 119.201 133.677 118.286 134.358C117.37 135.034 116.269 135.372 114.983 135.372ZM114.983 133.189C116.117 133.189 117.002 132.636 117.64 131.53C118.283 130.423 118.604 128.824 118.604 126.731C118.604 125.341 118.457 124.167 118.163 123.208C117.874 122.243 117.457 121.513 116.912 121.017C116.373 120.515 115.73 120.265 114.983 120.265C113.855 120.265 112.969 120.821 112.326 121.932C111.683 123.044 111.359 124.644 111.353 126.731C111.353 128.126 111.498 129.306 111.787 130.271C112.081 131.23 112.498 131.957 113.037 132.453C113.577 132.944 114.226 133.189 114.983 133.189ZM129.15 135.094L129.142 132.976H129.591C129.94 132.976 130.232 132.903 130.466 132.756C130.706 132.603 130.902 132.347 131.055 131.987C131.207 131.628 131.324 131.132 131.406 130.5C131.488 129.862 131.548 129.061 131.586 128.096L131.807 122.537H140.57V135.094H138.175V124.646H134.071L133.875 128.914C133.826 129.949 133.72 130.854 133.556 131.628C133.398 132.402 133.166 133.047 132.861 133.565C132.556 134.077 132.164 134.462 131.684 134.718C131.205 134.968 130.621 135.094 129.935 135.094H129.15ZM146.225 131.669L151.759 122.537H154.392V135.094H151.996V125.954L146.487 135.094H143.83V122.537H146.225V131.669ZM167.921 122.537V133.091H169.76V139.14H167.349V135.094H157.678V122.537H160.073V132.985H165.534V122.537H167.921Z" fill="black"/>
<ellipse cx="550.499" cy="47.5151" rx="2.87752" ry="3.1184" transform="rotate(-90 550.499 47.5151)" fill="#979797"/>
<ellipse cx="562.972" cy="47.5151" rx="2.87752" ry="3.1184" transform="rotate(-90 562.972 47.5151)" fill="#979797"/>
<ellipse cx="576.693" cy="47.5151" rx="2.87752" ry="3.1184" transform="rotate(-90 576.693 47.5151)" fill="#979797"/>
<path d="M566.091 125.297L572.951 119.453M572.951 119.453L579.812 125.297M572.951 119.453L572.951 133.265" stroke="#3B83EF" stroke-width="2.30201" stroke-linecap="round" stroke-linejoin="round"/>
</svg>
