<svg width="609" height="171" viewBox="0 0 609 171" fill="none" xmlns="http://www.w3.org/2000/svg">
<rect x="0.855469" width="607.156" height="170.349" rx="14.9631" fill="#1A1D24"/>
<path d="M33.4743 37.7312V54.4731H29.9346V37.7312H33.4743ZM37.0712 45.0149V47.778H31.7249V45.0149H37.0712ZM51.6468 46.1022C51.6468 47.9279 51.3007 49.4811 50.6086 50.7618C49.9219 52.0425 48.9845 53.0208 47.7965 53.6965C46.6138 54.3669 45.2841 54.702 43.8072 54.702C42.3194 54.702 40.9842 54.3641 39.8015 53.6884C38.6189 53.0126 37.6843 52.0343 36.9976 50.7536C36.3109 49.4729 35.9676 47.9224 35.9676 46.1022C35.9676 44.2765 36.3109 42.7233 36.9976 41.4426C37.6843 40.1619 38.6189 39.1863 39.8015 38.516C40.9842 37.8402 42.3194 37.5023 43.8072 37.5023C45.2841 37.5023 46.6138 37.8402 47.7965 38.516C48.9845 39.1863 49.9219 40.1619 50.6086 41.4426C51.3007 42.7233 51.6468 44.2765 51.6468 46.1022ZM48.0581 46.1022C48.0581 44.9196 47.8809 43.9222 47.5267 43.1102C47.1779 42.2982 46.6847 41.6824 46.0471 41.2627C45.4094 40.8431 44.6628 40.6333 43.8072 40.6333C42.9516 40.6333 42.2049 40.8431 41.5673 41.2627C40.9297 41.6824 40.4337 42.2982 40.0795 43.1102C39.7307 43.9222 39.5563 44.9196 39.5563 46.1022C39.5563 47.2848 39.7307 48.2821 40.0795 49.0941C40.4337 49.9062 40.9297 50.522 41.5673 50.9416C42.2049 51.3613 42.9516 51.5711 43.8072 51.5711C44.6628 51.5711 45.4094 51.3613 46.0471 50.9416C46.6847 50.522 47.1779 49.9062 47.5267 49.0941C47.8809 48.2821 48.0581 47.2848 48.0581 46.1022ZM54.1932 59.1818V41.9167H57.6266V44.0258H57.7819C57.9345 43.6879 58.1553 43.3446 58.4441 42.9958C58.7384 42.6415 59.1199 42.3472 59.5886 42.1129C60.0627 41.8731 60.6513 41.7532 61.3543 41.7532C62.2699 41.7532 63.1146 41.993 63.8885 42.4726C64.6624 42.9467 65.2809 43.6634 65.7442 44.6226C66.2074 45.5763 66.439 46.7725 66.439 48.2113C66.439 49.6119 66.2128 50.7945 65.7605 51.7591C65.3136 52.7183 64.7032 53.4458 63.9294 53.9418C63.1609 54.4323 62.2999 54.6775 61.3461 54.6775C60.6704 54.6775 60.0954 54.5658 59.6213 54.3423C59.1526 54.1189 58.7684 53.8382 58.4686 53.5003C58.1689 53.157 57.94 52.8109 57.7819 52.4622H57.6757V59.1818H54.1932ZM57.6021 48.1949C57.6021 48.9416 57.7056 49.5928 57.9127 50.1487C58.1198 50.7046 58.4196 51.1378 58.812 51.4485C59.2043 51.7537 59.6812 51.9063 60.2425 51.9063C60.8093 51.9063 61.2889 51.7509 61.6813 51.4403C62.0737 51.1242 62.3707 50.6882 62.5723 50.1323C62.7794 49.571 62.883 48.9252 62.883 48.1949C62.883 47.4701 62.7822 46.8325 62.5805 46.282C62.3789 45.7316 62.0819 45.3011 61.6895 44.9904C61.2971 44.6798 60.8148 44.5245 60.2425 44.5245C59.6758 44.5245 59.1962 44.6743 58.8038 44.9741C58.4168 45.2738 58.1198 45.6989 57.9127 46.2493C57.7056 46.7998 57.6021 47.4483 57.6021 48.1949ZM73.3528 54.4731L73.3365 51.7101H73.7534C74.0477 51.7101 74.3011 51.6392 74.5136 51.4975C74.7316 51.3504 74.9115 51.1133 75.0532 50.7863C75.1949 50.4593 75.3066 50.0261 75.3883 49.4865C75.4701 48.9416 75.5246 48.2712 75.5518 47.4755L75.7562 41.9167H85.3043V54.4731H81.9854V44.6553H78.8871L78.6909 48.4892C78.6419 49.541 78.5138 50.4457 78.3067 51.2032C78.1051 51.9608 77.8244 52.582 77.4647 53.0671C77.105 53.5467 76.6718 53.9009 76.1649 54.1298C75.6581 54.3587 75.0695 54.4731 74.3992 54.4731H73.3528ZM91.3312 49.8789L95.8518 41.9167H99.2852V54.4731H95.9663V46.4864L91.462 54.4731H88.004V41.9167H91.3312V49.8789ZM113.056 41.9167V52.0698H115.058V58.5115H111.674V54.4731H102.077V41.9167H105.404V51.7346H109.769V41.9167H113.056ZM120.787 54.7102C119.986 54.7102 119.272 54.5712 118.645 54.2933C118.018 54.0099 117.522 53.593 117.157 53.0426C116.798 52.4867 116.618 51.7945 116.618 50.9662C116.618 50.2686 116.746 49.6827 117.002 49.2086C117.258 48.7345 117.607 48.353 118.048 48.0641C118.49 47.7753 118.991 47.5573 119.553 47.4101C120.119 47.263 120.713 47.1595 121.335 47.0995C122.065 47.0232 122.653 46.9524 123.1 46.887C123.547 46.8161 123.872 46.7126 124.073 46.5763C124.275 46.4401 124.376 46.2384 124.376 45.9714V45.9223C124.376 45.4046 124.212 45.004 123.885 44.7206C123.564 44.4373 123.106 44.2956 122.512 44.2956C121.885 44.2956 121.386 44.4345 121.016 44.7125C120.645 44.985 120.4 45.3283 120.28 45.7425L117.059 45.4809C117.223 44.7179 117.544 44.0585 118.024 43.5026C118.503 42.9413 119.122 42.5107 119.879 42.211C120.642 41.9058 121.525 41.7532 122.528 41.7532C123.226 41.7532 123.893 41.835 124.531 41.9985C125.174 42.1619 125.744 42.4154 126.239 42.7587C126.741 43.102 127.136 43.5435 127.425 44.083C127.714 44.6171 127.858 45.2575 127.858 46.0041V54.4731H124.555V52.7319H124.457C124.256 53.1243 123.986 53.4704 123.648 53.7701C123.31 54.0644 122.904 54.296 122.43 54.465C121.956 54.6285 121.408 54.7102 120.787 54.7102ZM121.784 52.3068C122.296 52.3068 122.749 52.206 123.141 52.0044C123.534 51.7973 123.842 51.5193 124.065 51.1705C124.288 50.8217 124.4 50.4266 124.4 49.9852V48.6527C124.291 48.7236 124.141 48.789 123.951 48.8489C123.765 48.9034 123.555 48.9552 123.321 49.0042C123.087 49.0478 122.852 49.0887 122.618 49.1268C122.384 49.1595 122.171 49.1895 121.98 49.2168C121.572 49.2767 121.215 49.3721 120.91 49.5029C120.604 49.6337 120.367 49.8108 120.198 50.0342C120.029 50.2522 119.945 50.5247 119.945 50.8517C119.945 51.3259 120.117 51.6883 120.46 51.939C120.809 52.1842 121.25 52.3068 121.784 52.3068Z" fill="#CACACA"/>
<path d="M441.001 131.382V120.33H443.2V131.382H441.001ZM436.579 126.952V124.761H447.631V126.952H436.579ZM463.3 134.473C462.008 134.467 460.905 134.126 459.989 133.451C459.074 132.775 458.373 131.791 457.888 130.5C457.403 129.208 457.161 127.652 457.161 125.832C457.161 124.017 457.403 122.467 457.888 121.18C458.379 119.894 459.082 118.913 459.997 118.237C460.918 117.562 462.019 117.224 463.3 117.224C464.581 117.224 465.679 117.564 466.594 118.246C467.51 118.921 468.21 119.902 468.695 121.189C469.186 122.469 469.431 124.017 469.431 125.832C469.431 127.657 469.189 129.216 468.704 130.508C468.219 131.794 467.518 132.778 466.603 133.459C465.687 134.135 464.586 134.473 463.3 134.473ZM463.3 132.29C464.434 132.29 465.319 131.737 465.957 130.63C466.6 129.524 466.921 127.925 466.921 125.832C466.921 124.442 466.774 123.268 466.48 122.308C466.191 121.344 465.774 120.614 465.229 120.118C464.69 119.616 464.047 119.366 463.3 119.366C462.172 119.366 461.286 119.921 460.643 121.033C460 122.145 459.676 123.745 459.67 125.832C459.67 127.227 459.815 128.407 460.104 129.371C460.398 130.331 460.815 131.058 461.354 131.554C461.894 132.045 462.542 132.29 463.3 132.29ZM474.937 131.906L474.814 132.797C474.732 133.451 474.593 134.132 474.397 134.84C474.207 135.554 474.008 136.216 473.801 136.827C473.599 137.437 473.433 137.922 473.302 138.282H471.569C471.64 137.944 471.738 137.486 471.863 136.909C471.988 136.336 472.111 135.696 472.231 134.988C472.351 134.279 472.441 133.557 472.501 132.821L472.582 131.906H474.937ZM478.493 134.195L485.801 119.742V119.619H477.348V117.453H488.417V119.693L481.133 134.195H478.493ZM499.999 131.055V130.173C499.999 129.54 500.129 128.963 500.391 128.44C500.658 127.911 501.045 127.489 501.552 127.172C502.064 126.851 502.683 126.69 503.407 126.69C504.149 126.69 504.77 126.848 505.271 127.164C505.773 127.48 506.151 127.903 506.408 128.431C506.669 128.96 506.8 129.54 506.8 130.173V131.055C506.8 131.688 506.669 132.268 506.408 132.797C506.146 133.32 505.762 133.742 505.255 134.064C504.754 134.38 504.138 134.538 503.407 134.538C502.672 134.538 502.05 134.38 501.544 134.064C501.037 133.742 500.653 133.32 500.391 132.797C500.129 132.268 499.999 131.688 499.999 131.055ZM501.903 130.173V131.055C501.903 131.524 502.015 131.949 502.238 132.331C502.462 132.712 502.852 132.903 503.407 132.903C503.958 132.903 504.342 132.712 504.56 132.331C504.778 131.949 504.887 131.524 504.887 131.055V130.173C504.887 129.704 504.781 129.279 504.568 128.897C504.361 128.516 503.974 128.325 503.407 128.325C502.862 128.325 502.476 128.516 502.247 128.897C502.018 129.279 501.903 129.704 501.903 130.173ZM491.579 121.475V120.592C491.579 119.96 491.709 119.379 491.971 118.851C492.238 118.322 492.625 117.9 493.132 117.583C493.644 117.267 494.263 117.109 494.987 117.109C495.729 117.109 496.35 117.267 496.851 117.583C497.353 117.9 497.731 118.322 497.988 118.851C498.244 119.379 498.372 119.96 498.372 120.592V121.475C498.372 122.107 498.241 122.687 497.979 123.216C497.723 123.739 497.342 124.161 496.835 124.483C496.334 124.799 495.718 124.957 494.987 124.957C494.246 124.957 493.622 124.799 493.115 124.483C492.614 124.161 492.233 123.739 491.971 123.216C491.709 122.687 491.579 122.107 491.579 121.475ZM493.491 120.592V121.475C493.491 121.943 493.6 122.368 493.818 122.75C494.042 123.131 494.432 123.322 494.987 123.322C495.532 123.322 495.914 123.131 496.132 122.75C496.355 122.368 496.467 121.943 496.467 121.475V120.592C496.467 120.123 496.361 119.698 496.148 119.317C495.936 118.935 495.549 118.744 494.987 118.744C494.442 118.744 494.056 118.935 493.827 119.317C493.603 119.698 493.491 120.123 493.491 120.592ZM492.355 134.195L503.865 117.453H505.819L494.309 134.195H492.355Z" fill="#979797"/>
<path d="M30.0899 134.195V132.363L35.755 126.494C36.36 125.856 36.8586 125.298 37.251 124.818C37.6489 124.333 37.9459 123.873 38.1421 123.437C38.3383 123.001 38.4364 122.537 38.4364 122.047C38.4364 121.491 38.3056 121.011 38.044 120.608C37.7824 120.199 37.4254 119.886 36.9731 119.668C36.5207 119.445 36.0112 119.333 35.4444 119.333C34.8449 119.333 34.3217 119.455 33.8748 119.701C33.4279 119.946 33.0846 120.292 32.8448 120.739C32.605 121.186 32.4851 121.709 32.4851 122.308H30.0736C30.0736 121.289 30.3079 120.398 30.7766 119.635C31.2453 118.872 31.8884 118.281 32.7058 117.861C33.5233 117.436 34.4525 117.224 35.4934 117.224C36.5453 117.224 37.4717 117.434 38.2729 117.853C39.0794 118.267 39.7089 118.834 40.1612 119.554C40.6136 120.268 40.8397 121.074 40.8397 121.973C40.8397 122.595 40.7226 123.202 40.4882 123.796C40.2593 124.39 39.8588 125.052 39.2865 125.783C38.7143 126.508 37.9186 127.388 36.8995 128.423L33.5724 131.906V132.028H41.1095V134.195H30.0899ZM49.7339 134.423C48.7093 134.423 47.7883 134.227 46.9708 133.835C46.1588 133.437 45.5103 132.892 45.0252 132.2C44.5402 131.508 44.2813 130.718 44.2486 129.829H46.701C46.761 130.549 47.0798 131.14 47.6575 131.603C48.2352 132.066 48.9273 132.298 49.7339 132.298C50.377 132.298 50.9465 132.151 51.4424 131.857C51.9438 131.557 52.3362 131.145 52.6196 130.622C52.9084 130.099 53.0528 129.502 53.0528 128.832C53.0528 128.151 52.9057 127.543 52.6114 127.009C52.3171 126.475 51.9111 126.055 51.3934 125.75C50.8811 125.445 50.2925 125.29 49.6276 125.284C49.1208 125.284 48.6112 125.371 48.0989 125.546C47.5866 125.72 47.1725 125.949 46.8564 126.232L44.5429 125.889L45.483 117.453H54.6878V119.619H47.5839L47.0526 124.303H47.1507C47.4776 123.987 47.9109 123.723 48.4504 123.51C48.9954 123.298 49.5786 123.191 50.1998 123.191C51.219 123.191 52.1264 123.434 52.922 123.919C53.7232 124.404 54.3526 125.066 54.8104 125.905C55.2736 126.739 55.5025 127.698 55.4971 128.783C55.5025 129.867 55.2573 130.835 54.7614 131.685C54.2709 132.535 53.5896 133.205 52.7177 133.696C51.8511 134.181 50.8565 134.423 49.7339 134.423ZM64.3115 134.473C63.0199 134.467 61.9163 134.126 61.0008 133.451C60.0852 132.775 59.3849 131.791 58.8998 130.5C58.4148 129.208 58.1723 127.652 58.1723 125.832C58.1723 124.017 58.4148 122.467 58.8998 121.18C59.3903 119.894 60.0934 118.913 61.0089 118.237C61.9299 117.562 63.0308 117.224 64.3115 117.224C65.5922 117.224 66.6904 117.564 67.606 118.246C68.5215 118.921 69.2218 119.902 69.7069 121.189C70.1974 122.469 70.4426 124.017 70.4426 125.832C70.4426 127.657 70.2001 129.216 69.7151 130.508C69.23 131.794 68.5297 132.778 67.6141 133.459C66.6986 134.135 65.5977 134.473 64.3115 134.473ZM64.3115 132.29C65.4451 132.29 66.3307 131.737 66.9683 130.63C67.6114 129.524 67.933 127.925 67.933 125.832C67.933 124.442 67.7858 123.268 67.4915 122.308C67.2027 121.344 66.7858 120.614 66.2408 120.118C65.7012 119.616 65.0582 119.366 64.3115 119.366C63.1834 119.366 62.2978 119.921 61.6547 121.033C61.0116 122.145 60.6874 123.745 60.6819 125.832C60.6819 127.227 60.8264 128.407 61.1152 129.371C61.4095 130.331 61.8264 131.058 62.3659 131.554C62.9055 132.045 63.554 132.29 64.3115 132.29ZM85.2635 134.473C83.9718 134.467 82.8682 134.126 81.9527 133.451C81.0371 132.775 80.3368 131.791 79.8518 130.5C79.3667 129.208 79.1242 127.652 79.1242 125.832C79.1242 124.017 79.3667 122.467 79.8518 121.18C80.3422 119.894 81.0453 118.913 81.9608 118.237C82.8819 117.562 83.9827 117.224 85.2635 117.224C86.5442 117.224 87.6423 117.564 88.5579 118.246C89.4735 118.921 90.1738 119.902 90.6588 121.189C91.1493 122.469 91.3945 124.017 91.3945 125.832C91.3945 127.657 91.152 129.216 90.667 130.508C90.1819 131.794 89.4816 132.778 88.5661 133.459C87.6505 134.135 86.5496 134.473 85.2635 134.473ZM85.2635 132.29C86.397 132.29 87.2826 131.737 87.9203 130.63C88.5633 129.524 88.8849 127.925 88.8849 125.832C88.8849 124.442 88.7377 123.268 88.4434 122.308C88.1546 121.344 87.7377 120.614 87.1927 120.118C86.6532 119.616 86.0101 119.366 85.2635 119.366C84.1353 119.366 83.2497 119.921 82.6067 121.033C81.9636 122.145 81.6393 123.745 81.6339 125.832C81.6339 127.227 81.7783 128.407 82.0671 129.371C82.3614 130.331 82.7783 131.058 83.3179 131.554C83.8574 132.045 84.5059 132.29 85.2635 132.29ZM100.123 134.473C98.8315 134.467 97.7279 134.126 96.8124 133.451C95.8968 132.775 95.1965 131.791 94.7114 130.5C94.2264 129.208 93.9839 127.652 93.9839 125.832C93.9839 124.017 94.2264 122.467 94.7114 121.18C95.2019 119.894 95.905 118.913 96.8205 118.237C97.7416 117.562 98.8424 117.224 100.123 117.224C101.404 117.224 102.502 117.564 103.418 118.246C104.333 118.921 105.033 119.902 105.518 121.189C106.009 122.469 106.254 124.017 106.254 125.832C106.254 127.657 106.012 129.216 105.527 130.508C105.042 131.794 104.341 132.778 103.426 133.459C102.51 134.135 101.409 134.473 100.123 134.473ZM100.123 132.29C101.257 132.29 102.142 131.737 102.78 130.63C103.423 129.524 103.745 127.925 103.745 125.832C103.745 124.442 103.597 123.268 103.303 122.308C103.014 121.344 102.597 120.614 102.052 120.118C101.513 119.616 100.87 119.366 100.123 119.366C98.995 119.366 98.1094 119.921 97.4663 121.033C96.8233 122.145 96.499 123.745 96.4935 125.832C96.4935 127.227 96.638 128.407 96.9268 129.371C97.2211 130.331 97.638 131.058 98.1775 131.554C98.7171 132.045 99.3656 132.29 100.123 132.29ZM114.983 134.473C113.691 134.467 112.588 134.126 111.672 133.451C110.756 132.775 110.056 131.791 109.571 130.5C109.086 129.208 108.844 127.652 108.844 125.832C108.844 124.017 109.086 122.467 109.571 121.18C110.062 119.894 110.765 118.913 111.68 118.237C112.601 117.562 113.702 117.224 114.983 117.224C116.264 117.224 117.362 117.564 118.277 118.246C119.193 118.921 119.893 119.902 120.378 121.189C120.869 122.469 121.114 124.017 121.114 125.832C121.114 127.657 120.871 129.216 120.386 130.508C119.901 131.794 119.201 132.778 118.285 133.459C117.37 134.135 116.269 134.473 114.983 134.473ZM114.983 132.29C116.116 132.29 117.002 131.737 117.64 130.63C118.283 129.524 118.604 127.925 118.604 125.832C118.604 124.442 118.457 123.268 118.163 122.308C117.874 121.344 117.457 120.614 116.912 120.118C116.373 119.616 115.729 119.366 114.983 119.366C113.855 119.366 112.969 119.921 112.326 121.033C111.683 122.145 111.359 123.745 111.353 125.832C111.353 127.227 111.498 128.407 111.786 129.371C112.081 130.331 112.498 131.058 113.037 131.554C113.577 132.045 114.225 132.29 114.983 132.29ZM129.15 134.195L129.142 132.077H129.591C129.94 132.077 130.231 132.004 130.466 131.857C130.706 131.704 130.902 131.448 131.054 131.088C131.207 130.728 131.324 130.233 131.406 129.6C131.488 128.963 131.548 128.162 131.586 127.197L131.806 121.638H140.57V134.195H138.175V123.747H134.071L133.875 128.014C133.826 129.05 133.719 129.955 133.556 130.728C133.398 131.502 133.166 132.148 132.861 132.666C132.556 133.178 132.163 133.562 131.684 133.819C131.204 134.069 130.621 134.195 129.934 134.195H129.15ZM146.225 130.769L151.759 121.638H154.391V134.195H151.996V125.055L146.486 134.195H143.83V121.638H146.225V130.769ZM167.921 121.638V132.192H169.76V138.241H167.348V134.195H157.678V121.638H160.073V132.085H165.534V121.638H167.921Z" fill="#CACACA"/>
<ellipse cx="550.499" cy="46.6158" rx="2.87752" ry="3.1184" transform="rotate(-90 550.499 46.6158)" fill="#979797"/>
<ellipse cx="562.972" cy="46.6158" rx="2.87752" ry="3.1184" transform="rotate(-90 562.972 46.6158)" fill="#979797"/>
<ellipse cx="576.693" cy="46.6158" rx="2.87752" ry="3.1184" transform="rotate(-90 576.693 46.6158)" fill="#979797"/>
<path d="M566.091 124.397L572.951 118.554M572.951 118.554L579.812 124.397M572.951 118.554L572.951 132.366" stroke="#0450C0" stroke-width="2.30201" stroke-linecap="round" stroke-linejoin="round"/>
</svg>
