<svg width="608" height="172" viewBox="0 0 608 172" fill="none" xmlns="http://www.w3.org/2000/svg">
<rect x="0.513428" y="0.89917" width="607.156" height="170.349" rx="14.9631" fill="white"/>
<path d="M36.2141 40.4288H39.9582C41.2988 40.4288 42.4869 40.7122 43.5224 41.279C44.5633 41.8458 45.378 42.6442 45.9666 43.6742C46.5606 44.6988 46.8577 45.9032 46.8577 47.2875C46.8577 48.6281 46.5606 49.7971 45.9666 50.7944C45.378 51.7918 44.5633 52.5684 43.5224 53.1243C42.4869 53.6747 41.2988 53.9499 39.9582 53.9499H36.2141C34.868 53.9499 33.6745 53.6774 32.6336 53.1324C31.5927 52.582 30.7752 51.8081 30.1811 50.8108C29.5926 49.8135 29.2983 48.6363 29.2983 47.2793C29.2983 45.895 29.5953 44.6906 30.1893 43.6661C30.7888 42.636 31.609 41.8404 32.6499 41.279C33.6908 40.7122 34.8789 40.4288 36.2141 40.4288ZM36.2141 43.3881C35.4947 43.3881 34.8598 43.5325 34.3094 43.8214C33.7644 44.1048 33.3393 44.5353 33.0341 45.113C32.7289 45.6907 32.5763 46.4128 32.5763 47.2793C32.5763 48.1077 32.7317 48.7971 33.0423 49.3475C33.3584 49.8979 33.7889 50.3094 34.3339 50.5819C34.8789 50.8544 35.5056 50.9906 36.2141 50.9906H39.9827C40.6966 50.9906 41.3206 50.8517 41.8547 50.5737C42.3942 50.2958 42.8112 49.8816 43.1054 49.3312C43.4052 48.7807 43.5551 48.0995 43.5551 47.2875C43.5551 46.4209 43.4052 45.6988 43.1054 45.1212C42.8112 44.5435 42.3942 44.1102 41.8547 43.8214C41.3206 43.5325 40.6966 43.3881 39.9827 43.3881H36.2141ZM39.762 38.3361V56.059H36.4021V38.3361H39.762ZM52.7271 50.7781L57.2478 42.8159H60.6812V55.3723H57.3622V47.3856L52.8579 55.3723H49.4V42.8159H52.7271V50.7781ZM62.8271 51.8163H66.2032C66.2196 52.2305 66.4049 52.5575 66.7591 52.7973C67.1134 53.0371 67.5712 53.157 68.1325 53.157C68.6993 53.157 69.1761 53.0262 69.5631 52.7646C69.95 52.4975 70.1435 52.116 70.1435 51.6201C70.1435 51.3149 70.0672 51.0506 69.9146 50.8271C69.762 50.5983 69.5494 50.4184 69.277 50.2876C69.0045 50.1568 68.6884 50.0914 68.3287 50.0914H66.5221V47.8107H68.3287C68.8682 47.8107 69.2824 47.6853 69.5712 47.4346C69.8655 47.1839 70.0127 46.8706 70.0127 46.4945C70.0127 46.0694 69.8601 45.7288 69.5549 45.4727C69.2552 45.2111 68.8491 45.0803 68.3369 45.0803C67.8191 45.0803 67.3886 45.1975 67.0452 45.4318C66.7074 45.6607 66.533 45.9604 66.5221 46.331H63.1622C63.1731 45.5789 63.3993 44.9277 63.8407 44.3773C64.2876 43.8268 64.8871 43.4017 65.6392 43.102C66.3967 42.8023 67.2442 42.6524 68.1815 42.6524C69.2061 42.6524 70.089 42.7968 70.8302 43.0856C71.5768 43.369 72.149 43.775 72.5469 44.3037C72.9502 44.8323 73.1518 45.4618 73.1518 46.1921C73.1518 46.8569 72.9338 47.4128 72.4978 47.8597C72.0618 48.3066 71.4514 48.6254 70.6667 48.8162V48.9469C71.1844 48.9796 71.6531 49.1186 72.0727 49.3639C72.4924 49.6091 72.8275 49.947 73.0782 50.3775C73.3289 50.8026 73.4543 51.3067 73.4543 51.8899C73.4543 52.6692 73.2254 53.3368 72.7676 53.8927C72.3152 54.4486 71.6885 54.8764 70.8874 55.1761C70.0917 55.4704 69.1789 55.6176 68.1488 55.6176C67.1461 55.6176 66.2468 55.4731 65.4512 55.1843C64.6609 54.89 64.0315 54.4595 63.5628 53.8927C63.0996 53.3259 62.8543 52.6338 62.8271 51.8163ZM80.1821 55.3723L80.1657 52.6092H80.5827C80.8769 52.6092 81.1304 52.5384 81.3429 52.3967C81.5609 52.2496 81.7407 52.0125 81.8824 51.6855C82.0241 51.3585 82.1359 50.9252 82.2176 50.3857C82.2994 49.8407 82.3539 49.1704 82.3811 48.3747L82.5855 42.8159H92.1336V55.3723H88.8146V45.5544H85.7164L85.5202 49.3884C85.4712 50.4402 85.3431 51.3449 85.136 52.1024C84.9344 52.8599 84.6537 53.4812 84.294 53.9663C83.9343 54.4458 83.501 54.8001 82.9942 55.029C82.4874 55.2579 81.8988 55.3723 81.2285 55.3723H80.1821ZM98.1604 50.7781L102.681 42.8159H106.114V55.3723H102.796V47.3856L98.2912 55.3723H94.8333V42.8159H98.1604V50.7781ZM119.885 42.8159V52.9689H121.888V59.4106H118.503V55.3723H108.906V42.8159H112.233V52.6338H116.599V42.8159H119.885ZM127.616 55.6094C126.815 55.6094 126.101 55.4704 125.474 55.1925C124.848 54.9091 124.352 54.4922 123.987 53.9417C123.627 53.3858 123.447 52.6937 123.447 51.8653C123.447 51.1678 123.575 50.5819 123.831 50.1078C124.087 49.6336 124.436 49.2521 124.878 48.9633C125.319 48.6745 125.82 48.4565 126.382 48.3093C126.949 48.1622 127.543 48.0586 128.164 47.9987C128.894 47.9224 129.483 47.8515 129.93 47.7861C130.377 47.7153 130.701 47.6117 130.902 47.4755C131.104 47.3392 131.205 47.1376 131.205 46.8706V46.8215C131.205 46.3038 131.041 45.9032 130.714 45.6198C130.393 45.3364 129.935 45.1947 129.341 45.1947C128.714 45.1947 128.216 45.3337 127.845 45.6116C127.474 45.8841 127.229 46.2275 127.109 46.6417L123.888 46.3801C124.052 45.6171 124.374 44.9577 124.853 44.4018C125.333 43.8404 125.951 43.4099 126.709 43.1102C127.472 42.805 128.355 42.6524 129.357 42.6524C130.055 42.6524 130.723 42.7341 131.36 42.8976C132.003 43.0611 132.573 43.3145 133.069 43.6579C133.57 44.0012 133.965 44.4427 134.254 44.9822C134.543 45.5163 134.687 46.1566 134.687 46.9033V55.3723H131.385V53.6311H131.287C131.085 54.0235 130.815 54.3695 130.477 54.6693C130.139 54.9636 129.733 55.1952 129.259 55.3641C128.785 55.5276 128.237 55.6094 127.616 55.6094ZM128.613 53.206C129.126 53.206 129.578 53.1052 129.97 52.9035C130.363 52.6964 130.671 52.4185 130.894 52.0697C131.118 51.7209 131.229 51.3258 131.229 50.8844V49.5519C131.12 49.6227 130.971 49.6881 130.78 49.7481C130.595 49.8026 130.385 49.8543 130.15 49.9034C129.916 49.947 129.682 49.9879 129.447 50.026C129.213 50.0587 129 50.0887 128.81 50.1159C128.401 50.1759 128.044 50.2713 127.739 50.4021C127.434 50.5329 127.197 50.71 127.028 50.9334C126.859 51.1514 126.774 51.4239 126.774 51.7509C126.774 52.225 126.946 52.5874 127.289 52.8381C127.638 53.0834 128.079 53.206 128.613 53.206Z" fill="black"/>
<path d="M448.409 125.66V127.786H440.986V125.66H448.409ZM464.077 118.352V135.094H461.543V120.886H461.445L457.44 123.502V121.082L461.617 118.352H464.077ZM470.852 132.805L470.73 133.696C470.648 134.35 470.509 135.031 470.313 135.74C470.122 136.453 469.923 137.116 469.716 137.726C469.514 138.336 469.348 138.821 469.217 139.181H467.484C467.555 138.843 467.653 138.385 467.779 137.808C467.904 137.236 468.027 136.595 468.146 135.887C468.266 135.178 468.356 134.456 468.416 133.72L468.498 132.805H470.852ZM474.408 135.094L481.717 120.641V120.518H473.264V118.352H484.333V120.592L477.049 135.094H474.408ZM495.914 131.955V131.072C495.914 130.44 496.045 129.862 496.307 129.339C496.574 128.81 496.96 128.388 497.467 128.072C497.98 127.75 498.598 127.589 499.323 127.589C500.064 127.589 500.685 127.747 501.187 128.063C501.688 128.38 502.067 128.802 502.323 129.331C502.585 129.859 502.716 130.44 502.716 131.072V131.955C502.716 132.587 502.585 133.167 502.323 133.696C502.062 134.219 501.677 134.641 501.17 134.963C500.669 135.279 500.053 135.437 499.323 135.437C498.587 135.437 497.966 135.279 497.459 134.963C496.952 134.641 496.568 134.219 496.307 133.696C496.045 133.167 495.914 132.587 495.914 131.955ZM497.819 131.072V131.955C497.819 132.423 497.931 132.848 498.154 133.23C498.377 133.611 498.767 133.802 499.323 133.802C499.873 133.802 500.258 133.611 500.476 133.23C500.694 132.848 500.803 132.423 500.803 131.955V131.072C500.803 130.603 500.696 130.178 500.484 129.797C500.277 129.415 499.89 129.224 499.323 129.224C498.778 129.224 498.391 129.415 498.162 129.797C497.933 130.178 497.819 130.603 497.819 131.072ZM487.494 122.374V121.491C487.494 120.859 487.625 120.278 487.886 119.75C488.154 119.221 488.54 118.799 489.047 118.483C489.56 118.167 490.178 118.008 490.903 118.008C491.644 118.008 492.265 118.167 492.767 118.483C493.268 118.799 493.647 119.221 493.903 119.75C494.159 120.278 494.287 120.859 494.287 121.491V122.374C494.287 123.006 494.157 123.586 493.895 124.115C493.639 124.638 493.257 125.061 492.75 125.382C492.249 125.698 491.633 125.856 490.903 125.856C490.162 125.856 489.538 125.698 489.031 125.382C488.53 125.061 488.148 124.638 487.886 124.115C487.625 123.586 487.494 123.006 487.494 122.374ZM489.407 121.491V122.374C489.407 122.843 489.516 123.268 489.734 123.649C489.957 124.031 490.347 124.221 490.903 124.221C491.448 124.221 491.829 124.031 492.047 123.649C492.271 123.268 492.383 122.843 492.383 122.374V121.491C492.383 121.022 492.276 120.597 492.064 120.216C491.851 119.834 491.464 119.643 490.903 119.643C490.358 119.643 489.971 119.834 489.742 120.216C489.519 120.597 489.407 121.022 489.407 121.491ZM488.271 135.094L499.781 118.352H501.735L490.224 135.094H488.271Z" fill="#979797"/>
<path d="M29.3964 131.824V129.78L36.631 118.352H38.2415V121.36H37.2196L32.045 129.551V129.682H41.961V131.824H29.3964ZM37.3341 135.094V131.203L37.3504 130.271V118.352H39.7456V135.094H37.3341ZM50.6385 135.372C49.3469 135.366 48.2433 135.026 47.3277 134.35C46.4121 133.674 45.7118 132.69 45.2268 131.399C44.7418 130.107 44.4992 128.551 44.4992 126.731C44.4992 124.916 44.7418 123.366 45.2268 122.08C45.7173 120.793 46.4203 119.812 47.3359 119.137C48.2569 118.461 49.3578 118.123 50.6385 118.123C51.9192 118.123 53.0173 118.464 53.9329 119.145C54.8485 119.821 55.5488 120.802 56.0338 122.088C56.5243 123.368 56.7696 124.916 56.7696 126.731C56.7696 128.557 56.527 130.115 56.042 131.407C55.557 132.693 54.8567 133.677 53.9411 134.358C53.0255 135.034 51.9247 135.372 50.6385 135.372ZM50.6385 133.189C51.7721 133.189 52.6577 132.636 53.2953 131.53C53.9384 130.423 54.2599 128.824 54.2599 126.731C54.2599 125.341 54.1128 124.167 53.8185 123.208C53.5296 122.243 53.1127 121.513 52.5677 121.017C52.0282 120.515 51.3851 120.265 50.6385 120.265C49.5104 120.265 48.6248 120.821 47.9817 121.932C47.3386 123.044 47.0143 124.644 47.0089 126.731C47.0089 128.126 47.1533 129.306 47.4422 130.271C47.7364 131.23 48.1534 131.957 48.6929 132.453C49.2324 132.944 49.881 133.189 50.6385 133.189ZM65.4982 135.372C64.2066 135.366 63.103 135.026 62.1874 134.35C61.2718 133.674 60.5715 132.69 60.0865 131.399C59.6014 130.107 59.3589 128.551 59.3589 126.731C59.3589 124.916 59.6014 123.366 60.0865 122.08C60.577 120.793 61.28 119.812 62.1956 119.137C63.1166 118.461 64.2175 118.123 65.4982 118.123C66.7789 118.123 67.877 118.464 68.7926 119.145C69.7082 119.821 70.4085 120.802 70.8935 122.088C71.384 123.368 71.6292 124.916 71.6292 126.731C71.6292 128.557 71.3867 130.115 70.9017 131.407C70.4167 132.693 69.7164 133.677 68.8008 134.358C67.8852 135.034 66.7843 135.372 65.4982 135.372ZM65.4982 133.189C66.6317 133.189 67.5173 132.636 68.155 131.53C68.7981 130.423 69.1196 128.824 69.1196 126.731C69.1196 125.341 68.9724 124.167 68.6782 123.208C68.3893 122.243 67.9724 121.513 67.4274 121.017C66.8879 120.515 66.2448 120.265 65.4982 120.265C64.3701 120.265 63.4845 120.821 62.8414 121.932C62.1983 123.044 61.874 124.644 61.8686 126.731C61.8686 128.126 62.013 129.306 62.3018 130.271C62.5961 131.23 63.013 131.957 63.5526 132.453C64.0921 132.944 64.7406 133.189 65.4982 133.189ZM86.4501 135.372C85.1585 135.366 84.0549 135.026 83.1393 134.35C82.2237 133.674 81.5234 132.69 81.0384 131.399C80.5534 130.107 80.3108 128.551 80.3108 126.731C80.3108 124.916 80.5534 123.366 81.0384 122.08C81.5289 120.793 82.2319 119.812 83.1475 119.137C84.0685 118.461 85.1694 118.123 86.4501 118.123C87.7308 118.123 88.829 118.464 89.7445 119.145C90.6601 119.821 91.3604 120.802 91.8454 122.088C92.3359 123.368 92.5812 124.916 92.5812 126.731C92.5812 128.557 92.3387 130.115 91.8536 131.407C91.3686 132.693 90.6683 133.677 89.7527 134.358C88.8371 135.034 87.7363 135.372 86.4501 135.372ZM86.4501 133.189C87.5837 133.189 88.4693 132.636 89.1069 131.53C89.75 130.423 90.0715 128.824 90.0715 126.731C90.0715 125.341 89.9244 124.167 89.6301 123.208C89.3412 122.243 88.9243 121.513 88.3793 121.017C87.8398 120.515 87.1967 120.265 86.4501 120.265C85.322 120.265 84.4364 120.821 83.7933 121.932C83.1502 123.044 82.8259 124.644 82.8205 126.731C82.8205 128.126 82.9649 129.306 83.2538 130.271C83.5481 131.23 83.965 131.957 84.5045 132.453C85.044 132.944 85.6926 133.189 86.4501 133.189ZM101.31 135.372C100.018 135.366 98.9146 135.026 97.999 134.35C97.0834 133.674 96.3831 132.69 95.8981 131.399C95.413 130.107 95.1705 128.551 95.1705 126.731C95.1705 124.916 95.413 123.366 95.8981 122.08C96.3886 120.793 97.0916 119.812 98.0072 119.137C98.9282 118.461 100.029 118.123 101.31 118.123C102.59 118.123 103.689 118.464 104.604 119.145C105.52 119.821 106.22 120.802 106.705 122.088C107.196 123.368 107.441 124.916 107.441 126.731C107.441 128.557 107.198 130.115 106.713 131.407C106.228 132.693 105.528 133.677 104.612 134.358C103.697 135.034 102.596 135.372 101.31 135.372ZM101.31 133.189C102.443 133.189 103.329 132.636 103.967 131.53C104.61 130.423 104.931 128.824 104.931 126.731C104.931 125.341 104.784 124.167 104.49 123.208C104.201 122.243 103.784 121.513 103.239 121.017C102.699 120.515 102.056 120.265 101.31 120.265C100.182 120.265 99.2961 120.821 98.653 121.932C98.0099 123.044 97.6856 124.644 97.6802 126.731C97.6802 128.126 97.8246 129.306 98.1134 130.271C98.4077 131.23 98.8246 131.957 99.3642 132.453C99.9037 132.944 100.552 133.189 101.31 133.189ZM116.169 135.372C114.878 135.366 113.774 135.026 112.859 134.35C111.943 133.674 111.243 132.69 110.758 131.399C110.273 130.107 110.03 128.551 110.03 126.731C110.03 124.916 110.273 123.366 110.758 122.08C111.248 120.793 111.951 119.812 112.867 119.137C113.788 118.461 114.889 118.123 116.169 118.123C117.45 118.123 118.548 118.464 119.464 119.145C120.379 119.821 121.08 120.802 121.565 122.088C122.055 123.368 122.301 124.916 122.301 126.731C122.301 128.557 122.058 130.115 121.573 131.407C121.088 132.693 120.388 133.677 119.472 134.358C118.556 135.034 117.456 135.372 116.169 135.372ZM116.169 133.189C117.303 133.189 118.189 132.636 118.826 131.53C119.469 130.423 119.791 128.824 119.791 126.731C119.791 125.341 119.644 124.167 119.349 123.208C119.061 122.243 118.644 121.513 118.099 121.017C117.559 120.515 116.916 120.265 116.169 120.265C115.041 120.265 114.156 120.821 113.513 121.932C112.87 123.044 112.545 124.644 112.54 126.731C112.54 128.126 112.684 129.306 112.973 130.271C113.267 131.23 113.684 131.957 114.224 132.453C114.763 132.944 115.412 133.189 116.169 133.189ZM130.336 135.094L130.328 132.976H130.778C131.127 132.976 131.418 132.903 131.652 132.756C131.892 132.603 132.088 132.347 132.241 131.987C132.394 131.628 132.511 131.132 132.593 130.5C132.674 129.862 132.734 129.061 132.772 128.096L132.993 122.537H141.756V135.094H139.361V124.646H135.258L135.061 128.914C135.012 129.949 134.906 130.854 134.743 131.628C134.584 132.402 134.353 133.047 134.048 133.565C133.742 134.077 133.35 134.462 132.871 134.718C132.391 134.968 131.808 135.094 131.121 135.094H130.336ZM151.335 127.851V129.976H144.64V127.851H151.335ZM146.627 122.537V135.094H144.182V122.537H146.627ZM155.161 135.347C153.995 135.347 152.976 135.075 152.104 134.53C151.232 133.985 150.556 133.227 150.076 132.257C149.597 131.282 149.357 130.151 149.357 128.865C149.357 127.568 149.597 126.434 150.076 125.464C150.556 124.488 151.232 123.731 152.104 123.191C152.976 122.646 153.995 122.374 155.161 122.374C156.333 122.374 157.352 122.646 158.218 123.191C159.09 123.731 159.766 124.488 160.246 125.464C160.731 126.434 160.973 127.568 160.973 128.865C160.973 130.151 160.731 131.282 160.246 132.257C159.766 133.227 159.09 133.985 158.218 134.53C157.352 135.075 156.333 135.347 155.161 135.347ZM155.161 133.254C155.951 133.254 156.597 133.056 157.098 132.658C157.605 132.254 157.979 131.72 158.218 131.055C158.458 130.391 158.578 129.66 158.578 128.865C158.578 128.063 158.458 127.33 158.218 126.666C157.979 125.995 157.605 125.458 157.098 125.055C156.597 124.652 155.951 124.45 155.161 124.45C154.376 124.45 153.73 124.652 153.224 125.055C152.717 125.458 152.343 125.995 152.104 126.666C151.864 127.33 151.744 128.063 151.744 128.865C151.744 129.66 151.864 130.391 152.104 131.055C152.343 131.72 152.717 132.254 153.224 132.658C153.73 133.056 154.376 133.254 155.161 133.254ZM162.629 138.715V132.976H163.651C163.912 132.737 164.133 132.451 164.313 132.118C164.498 131.786 164.653 131.391 164.779 130.933C164.909 130.475 165.018 129.941 165.106 129.331C165.193 128.715 165.269 128.012 165.335 127.221L165.727 122.537H174.261V132.976H176.191V138.715H173.804V135.094H165.048V138.715H162.629ZM166.266 132.976H171.874V124.63H167.918L167.656 127.221C167.531 128.54 167.373 129.685 167.182 130.655C166.991 131.619 166.686 132.393 166.266 132.976ZM183.991 135.347C182.754 135.347 181.689 135.083 180.795 134.554C179.907 134.02 179.22 133.271 178.735 132.306C178.255 131.336 178.016 130.2 178.016 128.897C178.016 127.611 178.255 126.478 178.735 125.497C179.22 124.516 179.896 123.75 180.762 123.199C181.634 122.649 182.653 122.374 183.82 122.374C184.528 122.374 185.215 122.491 185.88 122.725C186.545 122.96 187.141 123.328 187.67 123.829C188.199 124.33 188.616 124.982 188.921 125.783C189.226 126.578 189.379 127.546 189.379 128.685V129.551H179.397V127.72H186.983C186.983 127.077 186.853 126.508 186.591 126.012C186.329 125.51 185.962 125.115 185.487 124.826C185.019 124.537 184.468 124.393 183.836 124.393C183.149 124.393 182.55 124.562 182.038 124.9C181.531 125.232 181.138 125.668 180.86 126.208C180.588 126.742 180.452 127.322 180.452 127.949V129.38C180.452 130.219 180.599 130.933 180.893 131.521C181.193 132.11 181.61 132.56 182.144 132.87C182.678 133.175 183.302 133.328 184.016 133.328C184.479 133.328 184.902 133.263 185.283 133.132C185.664 132.996 185.994 132.794 186.272 132.527C186.55 132.26 186.763 131.93 186.91 131.538L189.223 131.955C189.038 132.636 188.706 133.233 188.226 133.745C187.752 134.252 187.155 134.647 186.436 134.93C185.722 135.208 184.907 135.347 183.991 135.347ZM194.486 131.669L200.02 122.537H202.652V135.094H200.257V125.954L194.747 135.094H192.091V122.537H194.486V131.669ZM198.974 118.286H200.985C200.985 119.207 200.658 119.957 200.004 120.534C199.355 121.107 198.478 121.393 197.371 121.393C196.271 121.393 195.396 121.107 194.747 120.534C194.099 119.957 193.775 119.207 193.775 118.286H195.777C195.777 118.695 195.897 119.058 196.137 119.374C196.377 119.684 196.788 119.84 197.371 119.84C197.944 119.84 198.352 119.684 198.598 119.374C198.848 119.063 198.974 118.701 198.974 118.286Z" fill="black"/>
<ellipse cx="550.157" cy="47.5151" rx="2.87752" ry="3.1184" transform="rotate(-90 550.157 47.5151)" fill="#979797"/>
<ellipse cx="562.631" cy="47.5151" rx="2.87752" ry="3.1184" transform="rotate(-90 562.631 47.5151)" fill="#979797"/>
<ellipse cx="576.351" cy="47.5151" rx="2.87752" ry="3.1184" transform="rotate(-90 576.351 47.5151)" fill="#979797"/>
<path d="M579.47 127.421L572.609 133.265M572.609 133.265L565.749 127.421M572.609 133.265L572.609 119.453" stroke="#3B83EF" stroke-width="2.30201" stroke-linecap="round" stroke-linejoin="round"/>
</svg>
