<svg width="608" height="171" viewBox="0 0 608 171" fill="none" xmlns="http://www.w3.org/2000/svg">
<rect x="0.513428" width="607.156" height="170.349" rx="14.9631" fill="#1A1D24"/>
<path d="M36.2141 39.5297H39.9582C41.2988 39.5297 42.4869 39.8131 43.5224 40.3798C44.5633 40.9466 45.378 41.745 45.9666 42.7751C46.5606 43.7996 46.8577 45.004 46.8577 46.3883C46.8577 47.729 46.5606 48.898 45.9666 49.8953C45.378 50.8926 44.5633 51.6692 43.5224 52.2251C42.4869 52.7755 41.2988 53.0507 39.9582 53.0507H36.2141C34.868 53.0507 33.6745 52.7782 32.6336 52.2333C31.5927 51.6828 30.7752 50.9089 30.1811 49.9116C29.5926 48.9143 29.2983 47.7371 29.2983 46.3801C29.2983 44.9959 29.5953 43.7915 30.1893 42.7669C30.7888 41.7369 31.609 40.9412 32.6499 40.3798C33.6908 39.8131 34.8789 39.5297 36.2141 39.5297ZM36.2141 42.4889C35.4947 42.4889 34.8598 42.6334 34.3094 42.9222C33.7644 43.2056 33.3393 43.6361 33.0341 44.2138C32.7289 44.7915 32.5763 45.5136 32.5763 46.3801C32.5763 47.2085 32.7317 47.8979 33.0423 48.4483C33.3584 48.9988 33.7889 49.4102 34.3339 49.6827C34.8789 49.9552 35.5056 50.0915 36.2141 50.0915H39.9827C40.6966 50.0915 41.3206 49.9525 41.8547 49.6746C42.3942 49.3966 42.8112 48.9824 43.1054 48.432C43.4052 47.8816 43.5551 47.2003 43.5551 46.3883C43.5551 45.5218 43.4052 44.7997 43.1054 44.222C42.8112 43.6443 42.3942 43.211 41.8547 42.9222C41.3206 42.6334 40.6966 42.4889 39.9827 42.4889H36.2141ZM39.762 37.4369V55.1598H36.4021V37.4369H39.762ZM52.7271 49.8789L57.2478 41.9167H60.6812V54.4731H57.3622V46.4864L52.8579 54.4731H49.4V41.9167H52.7271V49.8789ZM62.8271 50.9171H66.2032C66.2196 51.3313 66.4049 51.6583 66.7591 51.8981C67.1134 52.1379 67.5712 52.2578 68.1325 52.2578C68.6993 52.2578 69.1761 52.127 69.5631 51.8654C69.95 51.5984 70.1435 51.2169 70.1435 50.7209C70.1435 50.4157 70.0672 50.1514 69.9146 49.928C69.762 49.6991 69.5494 49.5192 69.277 49.3884C69.0045 49.2576 68.6884 49.1922 68.3287 49.1922H66.5221V46.9115H68.3287C68.8682 46.9115 69.2824 46.7861 69.5712 46.5354C69.8655 46.2848 70.0127 45.9714 70.0127 45.5953C70.0127 45.1703 69.8601 44.8296 69.5549 44.5735C69.2552 44.3119 68.8491 44.1811 68.3369 44.1811C67.8191 44.1811 67.3886 44.2983 67.0452 44.5326C66.7074 44.7615 66.533 45.0613 66.5221 45.4319H63.1622C63.1731 44.6798 63.3993 44.0285 63.8407 43.4781C64.2876 42.9277 64.8871 42.5026 65.6392 42.2028C66.3967 41.9031 67.2442 41.7532 68.1815 41.7532C69.2061 41.7532 70.089 41.8976 70.8302 42.1865C71.5768 42.4699 72.149 42.8759 72.5469 43.4045C72.9502 43.9331 73.1518 44.5626 73.1518 45.2929C73.1518 45.9578 72.9338 46.5136 72.4978 46.9605C72.0618 47.4074 71.4514 47.7262 70.6667 47.917V48.0478C71.1844 48.0805 71.6531 48.2194 72.0727 48.4647C72.4924 48.7099 72.8275 49.0478 73.0782 49.4784C73.3289 49.9035 73.4543 50.4076 73.4543 50.9907C73.4543 51.77 73.2254 52.4376 72.7676 52.9935C72.3152 53.5494 71.6885 53.9772 70.8874 54.277C70.0917 54.5712 69.1789 54.7184 68.1488 54.7184C67.1461 54.7184 66.2468 54.574 65.4512 54.2851C64.6609 53.9908 64.0315 53.5603 63.5628 52.9935C63.0996 52.4267 62.8543 51.7346 62.8271 50.9171ZM80.1821 54.4731L80.1657 51.7101H80.5827C80.8769 51.7101 81.1304 51.6392 81.3429 51.4975C81.5609 51.3504 81.7407 51.1133 81.8824 50.7863C82.0241 50.4593 82.1359 50.0261 82.2176 49.4865C82.2994 48.9416 82.3539 48.2712 82.3811 47.4755L82.5855 41.9167H92.1336V54.4731H88.8146V44.6553H85.7164L85.5202 48.4892C85.4712 49.541 85.3431 50.4457 85.136 51.2032C84.9344 51.9608 84.6537 52.582 84.294 53.0671C83.9343 53.5467 83.501 53.9009 82.9942 54.1298C82.4874 54.3587 81.8988 54.4731 81.2285 54.4731H80.1821ZM98.1604 49.8789L102.681 41.9167H106.114V54.4731H102.796V46.4864L98.2912 54.4731H94.8333V41.9167H98.1604V49.8789ZM119.885 41.9167V52.0698H121.888V58.5115H118.503V54.4731H108.906V41.9167H112.233V51.7346H116.599V41.9167H119.885ZM127.616 54.7102C126.815 54.7102 126.101 54.5712 125.474 54.2933C124.848 54.0099 124.352 53.593 123.987 53.0426C123.627 52.4867 123.447 51.7945 123.447 50.9662C123.447 50.2686 123.575 49.6827 123.831 49.2086C124.087 48.7345 124.436 48.353 124.878 48.0641C125.319 47.7753 125.82 47.5573 126.382 47.4101C126.949 47.263 127.543 47.1595 128.164 47.0995C128.894 47.0232 129.483 46.9524 129.93 46.887C130.377 46.8161 130.701 46.7126 130.902 46.5763C131.104 46.4401 131.205 46.2384 131.205 45.9714V45.9223C131.205 45.4046 131.041 45.004 130.714 44.7206C130.393 44.4373 129.935 44.2956 129.341 44.2956C128.714 44.2956 128.216 44.4345 127.845 44.7125C127.474 44.985 127.229 45.3283 127.109 45.7425L123.888 45.4809C124.052 44.7179 124.374 44.0585 124.853 43.5026C125.333 42.9413 125.951 42.5107 126.709 42.211C127.472 41.9058 128.355 41.7532 129.357 41.7532C130.055 41.7532 130.723 41.835 131.36 41.9985C132.003 42.1619 132.573 42.4154 133.069 42.7587C133.57 43.102 133.965 43.5435 134.254 44.083C134.543 44.6171 134.687 45.2575 134.687 46.0041V54.4731H131.385V52.7319H131.287C131.085 53.1243 130.815 53.4704 130.477 53.7701C130.139 54.0644 129.733 54.296 129.259 54.465C128.785 54.6285 128.237 54.7102 127.616 54.7102ZM128.613 52.3068C129.126 52.3068 129.578 52.206 129.97 52.0044C130.363 51.7973 130.671 51.5193 130.894 51.1705C131.118 50.8217 131.229 50.4266 131.229 49.9852V48.6527C131.12 48.7236 130.971 48.789 130.78 48.8489C130.595 48.9034 130.385 48.9552 130.15 49.0042C129.916 49.0478 129.682 49.0887 129.447 49.1268C129.213 49.1595 129 49.1895 128.81 49.2168C128.401 49.2767 128.044 49.3721 127.739 49.5029C127.434 49.6337 127.197 49.8108 127.028 50.0342C126.859 50.2522 126.774 50.5247 126.774 50.8517C126.774 51.3259 126.946 51.6883 127.289 51.939C127.638 52.1842 128.079 52.3068 128.613 52.3068Z" fill="#CACACA"/>
<path d="M448.409 124.761V126.886H440.986V124.761H448.409ZM464.078 117.453V134.195H461.544V119.987H461.446L457.44 122.603V120.183L461.617 117.453H464.078ZM470.853 131.906L470.73 132.797C470.648 133.451 470.509 134.132 470.313 134.84C470.123 135.554 469.924 136.216 469.717 136.827C469.515 137.437 469.349 137.922 469.218 138.282H467.485C467.556 137.944 467.654 137.486 467.779 136.909C467.904 136.336 468.027 135.696 468.147 134.988C468.267 134.279 468.357 133.557 468.417 132.821L468.498 131.906H470.853ZM474.409 134.195L481.717 119.742V119.619H473.264V117.453H484.333V119.693L477.049 134.195H474.409ZM495.915 131.055V130.173C495.915 129.54 496.045 128.963 496.307 128.44C496.574 127.911 496.961 127.489 497.468 127.172C497.98 126.851 498.599 126.69 499.323 126.69C500.065 126.69 500.686 126.848 501.187 127.164C501.689 127.48 502.067 127.903 502.324 128.431C502.585 128.96 502.716 129.54 502.716 130.173V131.055C502.716 131.688 502.585 132.268 502.324 132.797C502.062 133.32 501.678 133.742 501.171 134.064C500.67 134.38 500.054 134.538 499.323 134.538C498.588 134.538 497.966 134.38 497.46 134.064C496.953 133.742 496.569 133.32 496.307 132.797C496.045 132.268 495.915 131.688 495.915 131.055ZM497.819 130.173V131.055C497.819 131.524 497.931 131.949 498.154 132.331C498.378 132.712 498.768 132.903 499.323 132.903C499.874 132.903 500.258 132.712 500.476 132.331C500.694 131.949 500.803 131.524 500.803 131.055V130.173C500.803 129.704 500.697 129.279 500.484 128.897C500.277 128.516 499.89 128.325 499.323 128.325C498.778 128.325 498.392 128.516 498.163 128.897C497.934 129.279 497.819 129.704 497.819 130.173ZM487.495 121.475V120.592C487.495 119.96 487.625 119.379 487.887 118.851C488.154 118.322 488.541 117.9 489.048 117.583C489.56 117.267 490.179 117.109 490.903 117.109C491.645 117.109 492.266 117.267 492.767 117.583C493.269 117.9 493.647 118.322 493.904 118.851C494.16 119.379 494.288 119.96 494.288 120.592V121.475C494.288 122.107 494.157 122.687 493.895 123.216C493.639 123.739 493.258 124.161 492.751 124.483C492.25 124.799 491.634 124.957 490.903 124.957C490.162 124.957 489.538 124.799 489.031 124.483C488.53 124.161 488.149 123.739 487.887 123.216C487.625 122.687 487.495 122.107 487.495 121.475ZM489.407 120.592V121.475C489.407 121.943 489.516 122.368 489.734 122.75C489.958 123.131 490.348 123.322 490.903 123.322C491.448 123.322 491.83 123.131 492.048 122.75C492.271 122.368 492.383 121.943 492.383 121.475V120.592C492.383 120.123 492.277 119.698 492.064 119.317C491.852 118.935 491.465 118.744 490.903 118.744C490.358 118.744 489.972 118.935 489.743 119.317C489.519 119.698 489.407 120.123 489.407 120.592ZM488.271 134.195L499.781 117.453H501.735L490.225 134.195H488.271Z" fill="#979797"/>
<path d="M29.3964 130.925V128.881L36.631 117.453H38.2415V120.461H37.2196L32.045 128.652V128.783H41.961V130.925H29.3964ZM37.3341 134.195V130.303L37.3504 129.371V117.453H39.7456V134.195H37.3341ZM50.6385 134.473C49.3469 134.467 48.2433 134.126 47.3277 133.451C46.4121 132.775 45.7118 131.791 45.2268 130.5C44.7418 129.208 44.4992 127.652 44.4992 125.832C44.4992 124.017 44.7418 122.467 45.2268 121.18C45.7173 119.894 46.4203 118.913 47.3359 118.237C48.2569 117.562 49.3578 117.224 50.6385 117.224C51.9192 117.224 53.0173 117.564 53.9329 118.246C54.8485 118.921 55.5488 119.902 56.0338 121.189C56.5243 122.469 56.7696 124.017 56.7696 125.832C56.7696 127.657 56.527 129.216 56.042 130.508C55.557 131.794 54.8567 132.778 53.9411 133.459C53.0255 134.135 51.9247 134.473 50.6385 134.473ZM50.6385 132.29C51.7721 132.29 52.6577 131.737 53.2953 130.63C53.9384 129.524 54.2599 127.925 54.2599 125.832C54.2599 124.442 54.1128 123.268 53.8185 122.308C53.5296 121.344 53.1127 120.614 52.5677 120.118C52.0282 119.616 51.3851 119.366 50.6385 119.366C49.5104 119.366 48.6248 119.921 47.9817 121.033C47.3386 122.145 47.0143 123.745 47.0089 125.832C47.0089 127.227 47.1533 128.407 47.4422 129.371C47.7364 130.331 48.1534 131.058 48.6929 131.554C49.2324 132.045 49.881 132.29 50.6385 132.29ZM65.4982 134.473C64.2066 134.467 63.103 134.126 62.1874 133.451C61.2718 132.775 60.5715 131.791 60.0865 130.5C59.6014 129.208 59.3589 127.652 59.3589 125.832C59.3589 124.017 59.6014 122.467 60.0865 121.18C60.577 119.894 61.28 118.913 62.1956 118.237C63.1166 117.562 64.2175 117.224 65.4982 117.224C66.7789 117.224 67.877 117.564 68.7926 118.246C69.7082 118.921 70.4085 119.902 70.8935 121.189C71.384 122.469 71.6292 124.017 71.6292 125.832C71.6292 127.657 71.3867 129.216 70.9017 130.508C70.4167 131.794 69.7164 132.778 68.8008 133.459C67.8852 134.135 66.7843 134.473 65.4982 134.473ZM65.4982 132.29C66.6317 132.29 67.5173 131.737 68.155 130.63C68.7981 129.524 69.1196 127.925 69.1196 125.832C69.1196 124.442 68.9724 123.268 68.6782 122.308C68.3893 121.344 67.9724 120.614 67.4274 120.118C66.8879 119.616 66.2448 119.366 65.4982 119.366C64.3701 119.366 63.4845 119.921 62.8414 121.033C62.1983 122.145 61.874 123.745 61.8686 125.832C61.8686 127.227 62.013 128.407 62.3018 129.371C62.5961 130.331 63.013 131.058 63.5526 131.554C64.0921 132.045 64.7406 132.29 65.4982 132.29ZM86.4501 134.473C85.1585 134.467 84.0549 134.126 83.1393 133.451C82.2237 132.775 81.5234 131.791 81.0384 130.5C80.5534 129.208 80.3108 127.652 80.3108 125.832C80.3108 124.017 80.5534 122.467 81.0384 121.18C81.5289 119.894 82.2319 118.913 83.1475 118.237C84.0685 117.562 85.1694 117.224 86.4501 117.224C87.7308 117.224 88.829 117.564 89.7445 118.246C90.6601 118.921 91.3604 119.902 91.8454 121.189C92.3359 122.469 92.5812 124.017 92.5812 125.832C92.5812 127.657 92.3387 129.216 91.8536 130.508C91.3686 131.794 90.6683 132.778 89.7527 133.459C88.8371 134.135 87.7363 134.473 86.4501 134.473ZM86.4501 132.29C87.5837 132.29 88.4693 131.737 89.1069 130.63C89.75 129.524 90.0715 127.925 90.0715 125.832C90.0715 124.442 89.9244 123.268 89.6301 122.308C89.3412 121.344 88.9243 120.614 88.3793 120.118C87.8398 119.616 87.1967 119.366 86.4501 119.366C85.322 119.366 84.4364 119.921 83.7933 121.033C83.1502 122.145 82.8259 123.745 82.8205 125.832C82.8205 127.227 82.9649 128.407 83.2538 129.371C83.5481 130.331 83.965 131.058 84.5045 131.554C85.044 132.045 85.6926 132.29 86.4501 132.29ZM101.31 134.473C100.018 134.467 98.9146 134.126 97.999 133.451C97.0834 132.775 96.3831 131.791 95.8981 130.5C95.413 129.208 95.1705 127.652 95.1705 125.832C95.1705 124.017 95.413 122.467 95.8981 121.18C96.3886 119.894 97.0916 118.913 98.0072 118.237C98.9282 117.562 100.029 117.224 101.31 117.224C102.59 117.224 103.689 117.564 104.604 118.246C105.52 118.921 106.22 119.902 106.705 121.189C107.196 122.469 107.441 124.017 107.441 125.832C107.441 127.657 107.198 129.216 106.713 130.508C106.228 131.794 105.528 132.778 104.612 133.459C103.697 134.135 102.596 134.473 101.31 134.473ZM101.31 132.29C102.443 132.29 103.329 131.737 103.967 130.63C104.61 129.524 104.931 127.925 104.931 125.832C104.931 124.442 104.784 123.268 104.49 122.308C104.201 121.344 103.784 120.614 103.239 120.118C102.699 119.616 102.056 119.366 101.31 119.366C100.182 119.366 99.2961 119.921 98.653 121.033C98.0099 122.145 97.6856 123.745 97.6802 125.832C97.6802 127.227 97.8246 128.407 98.1134 129.371C98.4077 130.331 98.8246 131.058 99.3642 131.554C99.9037 132.045 100.552 132.29 101.31 132.29ZM116.169 134.473C114.878 134.467 113.774 134.126 112.859 133.451C111.943 132.775 111.243 131.791 110.758 130.5C110.273 129.208 110.03 127.652 110.03 125.832C110.03 124.017 110.273 122.467 110.758 121.18C111.248 119.894 111.951 118.913 112.867 118.237C113.788 117.562 114.889 117.224 116.169 117.224C117.45 117.224 118.548 117.564 119.464 118.246C120.379 118.921 121.08 119.902 121.565 121.189C122.055 122.469 122.301 124.017 122.301 125.832C122.301 127.657 122.058 129.216 121.573 130.508C121.088 131.794 120.388 132.778 119.472 133.459C118.556 134.135 117.456 134.473 116.169 134.473ZM116.169 132.29C117.303 132.29 118.189 131.737 118.826 130.63C119.469 129.524 119.791 127.925 119.791 125.832C119.791 124.442 119.644 123.268 119.349 122.308C119.061 121.344 118.644 120.614 118.099 120.118C117.559 119.616 116.916 119.366 116.169 119.366C115.041 119.366 114.156 119.921 113.513 121.033C112.87 122.145 112.545 123.745 112.54 125.832C112.54 127.227 112.684 128.407 112.973 129.371C113.267 130.331 113.684 131.058 114.224 131.554C114.763 132.045 115.412 132.29 116.169 132.29ZM130.336 134.195L130.328 132.077H130.778C131.127 132.077 131.418 132.004 131.652 131.857C131.892 131.704 132.088 131.448 132.241 131.088C132.394 130.728 132.511 130.233 132.593 129.6C132.674 128.963 132.734 128.162 132.772 127.197L132.993 121.638H141.756V134.195H139.361V123.747H135.258L135.061 128.014C135.012 129.05 134.906 129.955 134.743 130.728C134.584 131.502 134.353 132.148 134.048 132.666C133.742 133.178 133.35 133.562 132.871 133.819C132.391 134.069 131.808 134.195 131.121 134.195H130.336ZM151.335 126.952V129.077H144.64V126.952H151.335ZM146.627 121.638V134.195H144.182V121.638H146.627ZM155.161 134.448C153.995 134.448 152.976 134.176 152.104 133.631C151.232 133.086 150.556 132.328 150.076 131.358C149.597 130.382 149.357 129.252 149.357 127.965C149.357 126.668 149.597 125.535 150.076 124.565C150.556 123.589 151.232 122.832 152.104 122.292C152.976 121.747 153.995 121.475 155.161 121.475C156.333 121.475 157.352 121.747 158.218 122.292C159.09 122.832 159.766 123.589 160.246 124.565C160.731 125.535 160.973 126.668 160.973 127.965C160.973 129.252 160.731 130.382 160.246 131.358C159.766 132.328 159.09 133.086 158.218 133.631C157.352 134.176 156.333 134.448 155.161 134.448ZM155.161 132.355C155.951 132.355 156.597 132.156 157.098 131.759C157.605 131.355 157.979 130.821 158.218 130.156C158.458 129.491 158.578 128.761 158.578 127.965C158.578 127.164 158.458 126.431 158.218 125.766C157.979 125.096 157.605 124.559 157.098 124.156C156.597 123.753 155.951 123.551 155.161 123.551C154.376 123.551 153.73 123.753 153.224 124.156C152.717 124.559 152.343 125.096 152.104 125.766C151.864 126.431 151.744 127.164 151.744 127.965C151.744 128.761 151.864 129.491 152.104 130.156C152.343 130.821 152.717 131.355 153.224 131.759C153.73 132.156 154.376 132.355 155.161 132.355ZM162.629 137.816V132.077H163.651C163.912 131.838 164.133 131.551 164.313 131.219C164.498 130.887 164.653 130.491 164.779 130.034C164.909 129.576 165.018 129.042 165.106 128.431C165.193 127.816 165.269 127.113 165.335 126.322L165.727 121.638H174.261V132.077H176.191V137.816H173.804V134.195H165.048V137.816H162.629ZM166.266 132.077H171.874V123.731H167.918L167.656 126.322C167.531 127.641 167.373 128.786 167.182 129.756C166.991 130.72 166.686 131.494 166.266 132.077ZM183.991 134.448C182.754 134.448 181.689 134.184 180.795 133.655C179.907 133.121 179.22 132.372 178.735 131.407C178.255 130.437 178.016 129.301 178.016 127.998C178.016 126.712 178.255 125.578 178.735 124.597C179.22 123.616 179.896 122.851 180.762 122.3C181.634 121.75 182.653 121.475 183.82 121.475C184.528 121.475 185.215 121.592 185.88 121.826C186.545 122.061 187.141 122.428 187.67 122.93C188.199 123.431 188.616 124.082 188.921 124.884C189.226 125.679 189.379 126.647 189.379 127.786V128.652H179.397V126.821H186.983C186.983 126.178 186.853 125.608 186.591 125.112C186.329 124.611 185.962 124.216 185.487 123.927C185.019 123.638 184.468 123.494 183.836 123.494C183.149 123.494 182.55 123.663 182.038 124.001C181.531 124.333 181.138 124.769 180.86 125.309C180.588 125.843 180.452 126.423 180.452 127.05V128.48C180.452 129.32 180.599 130.034 180.893 130.622C181.193 131.211 181.61 131.66 182.144 131.971C182.678 132.276 183.302 132.429 184.016 132.429C184.479 132.429 184.902 132.363 185.283 132.233C185.664 132.096 185.994 131.895 186.272 131.628C186.55 131.361 186.763 131.031 186.91 130.639L189.223 131.055C189.038 131.737 188.706 132.333 188.226 132.846C187.752 133.353 187.155 133.748 186.436 134.031C185.722 134.309 184.907 134.448 183.991 134.448ZM194.486 130.769L200.02 121.638H202.652V134.195H200.257V125.055L194.747 134.195H192.091V121.638H194.486V130.769ZM198.974 117.387H200.985C200.985 118.308 200.658 119.058 200.004 119.635C199.355 120.208 198.478 120.494 197.371 120.494C196.271 120.494 195.396 120.208 194.747 119.635C194.099 119.058 193.775 118.308 193.775 117.387H195.777C195.777 117.796 195.897 118.158 196.137 118.475C196.377 118.785 196.788 118.94 197.371 118.94C197.944 118.94 198.352 118.785 198.598 118.475C198.848 118.164 198.974 117.801 198.974 117.387Z" fill="#CACACA"/>
<ellipse cx="550.157" cy="46.6158" rx="2.87752" ry="3.1184" transform="rotate(-90 550.157 46.6158)" fill="#979797"/>
<ellipse cx="562.631" cy="46.6158" rx="2.87752" ry="3.1184" transform="rotate(-90 562.631 46.6158)" fill="#979797"/>
<ellipse cx="576.351" cy="46.6158" rx="2.87752" ry="3.1184" transform="rotate(-90 576.351 46.6158)" fill="#979797"/>
<path d="M579.47 126.522L572.609 132.366M572.609 132.366L565.749 126.522M572.609 132.366L572.609 118.554" stroke="#3B83EF" stroke-width="2.30201" stroke-linecap="round" stroke-linejoin="round"/>
</svg>
