<svg width="440" height="279" viewBox="0 0 440 279" fill="none" xmlns="http://www.w3.org/2000/svg">
<rect x="0.617432" y="0.456299" width="438.534" height="278.544" rx="14.9631" fill="white"/>
<path d="M29.0589 39.1059V36.1875H42.8089V39.1059H37.6833V52.9294H34.1845V39.1059H29.0589ZM48.9093 53.1747C47.6177 53.1747 46.5059 52.9131 45.574 52.3899C44.6475 51.8613 43.9336 51.1146 43.4322 50.15C42.9308 49.18 42.6801 48.0328 42.6801 46.7084C42.6801 45.4168 42.9308 44.2833 43.4322 43.3077C43.9336 42.3322 44.6394 41.572 45.5495 41.027C46.4651 40.482 47.5387 40.2095 48.7703 40.2095C49.5987 40.2095 50.3699 40.343 51.0838 40.6101C51.8032 40.8717 52.4299 41.2668 52.964 41.7954C53.5035 42.324 53.9232 42.9889 54.2229 43.7901C54.5226 44.5857 54.6725 45.5177 54.6725 46.5858V47.5423H44.0698V45.3841H51.3944C51.3944 44.8827 51.2854 44.4386 51.0674 44.0516C50.8494 43.6647 50.547 43.3622 50.16 43.1442C49.7786 42.9208 49.3344 42.8091 48.8276 42.8091C48.2989 42.8091 47.8302 42.9317 47.4215 43.1769C47.0182 43.4167 46.7021 43.741 46.4732 44.1497C46.2443 44.553 46.1272 45.0026 46.1217 45.4986V47.5504C46.1217 48.1717 46.2362 48.7085 46.4651 49.1609C46.6994 49.6132 47.0291 49.962 47.4542 50.2072C47.8793 50.4525 48.3834 50.5751 48.9665 50.5751C49.3535 50.5751 49.7077 50.5206 50.0292 50.4116C50.3508 50.3026 50.626 50.1391 50.8549 49.9211C51.0838 49.7031 51.2582 49.4361 51.3781 49.12L54.5989 49.3325C54.4354 50.1064 54.1003 50.7822 53.5934 51.3599C53.0921 51.9321 52.4435 52.379 51.6479 52.7005C50.8576 53.0166 49.9448 53.1747 48.9093 53.1747ZM56.9451 57.6381V40.373H60.3785V42.4821H60.5338C60.6864 42.1442 60.9071 41.8009 61.196 41.4521C61.4903 41.0978 61.8718 40.8035 62.3404 40.5692C62.8146 40.3294 63.4032 40.2095 64.1062 40.2095C65.0218 40.2095 65.8665 40.4493 66.6404 40.9289C67.4142 41.403 68.0328 42.1197 68.496 43.0789C68.9593 44.0326 69.1909 45.2288 69.1909 46.6676C69.1909 48.0682 68.9647 49.2508 68.5124 50.2154C68.0655 51.1746 67.4551 51.9021 66.6812 52.3981C65.9128 52.8886 65.0517 53.1338 64.098 53.1338C63.4222 53.1338 62.8473 53.0221 62.3731 52.7986C61.9045 52.5752 61.5202 52.2945 61.2205 51.9566C60.9208 51.6133 60.6919 51.2672 60.5338 50.9185H60.4275V57.6381H56.9451ZM60.354 46.6512C60.354 47.3979 60.4575 48.0491 60.6646 48.605C60.8717 49.1609 61.1715 49.5941 61.5638 49.9048C61.9562 50.21 62.4331 50.3626 62.9944 50.3626C63.5612 50.3626 64.0408 50.2072 64.4332 49.8966C64.8256 49.5805 65.1226 49.1445 65.3242 48.5886C65.5313 48.0273 65.6349 47.3815 65.6349 46.6512C65.6349 45.9264 65.5341 45.2888 65.3324 44.7383C65.1308 44.1879 64.8337 43.7574 64.4414 43.4467C64.049 43.1361 63.5667 42.9808 62.9944 42.9808C62.4276 42.9808 61.9481 43.1306 61.5557 43.4304C61.1687 43.7301 60.8717 44.1552 60.6646 44.7056C60.4575 45.2561 60.354 45.9046 60.354 46.6512ZM71.5125 57.6381V40.373H74.9459V42.4821H75.1013C75.2538 42.1442 75.4746 41.8009 75.7634 41.4521C76.0577 41.0978 76.4392 40.8035 76.9079 40.5692C77.382 40.3294 77.9706 40.2095 78.6736 40.2095C79.5892 40.2095 80.4339 40.4493 81.2078 40.9289C81.9817 41.403 82.6002 42.1197 83.0635 43.0789C83.5267 44.0326 83.7583 45.2288 83.7583 46.6676C83.7583 48.0682 83.5322 49.2508 83.0798 50.2154C82.6329 51.1746 82.0226 51.9021 81.2487 52.3981C80.4802 52.8886 79.6192 53.1338 78.6654 53.1338C77.9897 53.1338 77.4147 53.0221 76.9406 52.7986C76.4719 52.5752 76.0877 52.2945 75.7879 51.9566C75.4882 51.6133 75.2593 51.2672 75.1013 50.9185H74.995V57.6381H71.5125ZM74.9214 46.6512C74.9214 47.3979 75.025 48.0491 75.232 48.605C75.4391 49.1609 75.7389 49.5941 76.1313 49.9048C76.5237 50.21 77.0005 50.3626 77.5619 50.3626C78.1286 50.3626 78.6082 50.2072 79.0006 49.8966C79.393 49.5805 79.69 49.1445 79.8917 48.5886C80.0988 48.0273 80.2023 47.3815 80.2023 46.6512C80.2023 45.9264 80.1015 45.2888 79.8998 44.7383C79.6982 44.1879 79.4012 43.7574 79.0088 43.4467C78.6164 43.1361 78.1341 42.9808 77.5619 42.9808C76.9951 42.9808 76.5155 43.1306 76.1231 43.4304C75.7362 43.7301 75.4391 44.1552 75.232 44.7056C75.025 45.2561 74.9214 45.9046 74.9214 46.6512ZM89.4071 48.3352L93.9277 40.373H97.3611V52.9294H94.0422V44.9427L89.5379 52.9294H86.08V40.373H89.4071V48.3352ZM98.8919 43.1116V40.373H110.271V43.1116H106.225V52.9294H102.906V43.1116H98.8919ZM117.606 53.1747C116.336 53.1747 115.238 52.9049 114.312 52.3654C113.39 51.8204 112.679 51.0629 112.178 50.0928C111.677 49.1173 111.426 47.9864 111.426 46.7003C111.426 45.4032 111.677 44.2696 112.178 43.2996C112.679 42.324 113.39 41.5665 114.312 41.027C115.238 40.482 116.336 40.2095 117.606 40.2095C118.876 40.2095 119.971 40.482 120.892 41.027C121.819 41.5665 122.533 42.324 123.034 43.2996C123.535 44.2696 123.786 45.4032 123.786 46.7003C123.786 47.9864 123.535 49.1173 123.034 50.0928C122.533 51.0629 121.819 51.8204 120.892 52.3654C119.971 52.9049 118.876 53.1747 117.606 53.1747ZM117.622 50.477C118.2 50.477 118.682 50.3135 119.069 49.9865C119.456 49.6541 119.748 49.2018 119.944 48.6295C120.146 48.0573 120.246 47.406 120.246 46.6757C120.246 45.9455 120.146 45.2942 119.944 44.722C119.748 44.1497 119.456 43.6974 119.069 43.365C118.682 43.0325 118.2 42.8663 117.622 42.8663C117.039 42.8663 116.549 43.0325 116.151 43.365C115.758 43.6974 115.461 44.1497 115.26 44.722C115.064 45.2942 114.965 45.9455 114.965 46.6757C114.965 47.406 115.064 48.0573 115.26 48.6295C115.461 49.2018 115.758 49.6541 116.151 49.9865C116.549 50.3135 117.039 50.477 117.622 50.477ZM126.05 57.6381V40.373H129.484V42.4821H129.639C129.792 42.1442 130.013 41.8009 130.301 41.4521C130.596 41.0978 130.977 40.8035 131.446 40.5692C131.92 40.3294 132.509 40.2095 133.212 40.2095C134.127 40.2095 134.972 40.4493 135.746 40.9289C136.52 41.403 137.138 42.1197 137.601 43.0789C138.065 44.0326 138.296 45.2288 138.296 46.6676C138.296 48.0682 138.07 49.2508 137.618 50.2154C137.171 51.1746 136.56 51.9021 135.787 52.3981C135.018 52.8886 134.157 53.1338 133.203 53.1338C132.528 53.1338 131.953 53.0221 131.479 52.7986C131.01 52.5752 130.626 52.2945 130.326 51.9566C130.026 51.6133 129.797 51.2672 129.639 50.9185H129.533V57.6381H126.05ZM129.459 46.6512C129.459 47.3979 129.563 48.0491 129.77 48.605C129.977 49.1609 130.277 49.5941 130.669 49.9048C131.062 50.21 131.538 50.3626 132.1 50.3626C132.667 50.3626 133.146 50.2072 133.539 49.8966C133.931 49.5805 134.228 49.1445 134.43 48.5886C134.637 48.0273 134.74 47.3815 134.74 46.6512C134.74 45.9264 134.639 45.2888 134.438 44.7383C134.236 44.1879 133.939 43.7574 133.547 43.4467C133.154 43.1361 132.672 42.9808 132.1 42.9808C131.533 42.9808 131.053 43.1306 130.661 43.4304C130.274 43.7301 129.977 44.1552 129.77 44.7056C129.563 45.2561 129.459 45.9046 129.459 46.6512ZM143.945 48.3352L148.466 40.373H151.899V52.9294H148.58V44.9427L144.076 52.9294H140.618V40.373H143.945V48.3352ZM158.271 53.1665C157.47 53.1665 156.756 53.0275 156.13 52.7496C155.503 52.4662 155.007 52.0493 154.642 51.4989C154.282 50.943 154.102 50.2508 154.102 49.4225C154.102 48.7249 154.23 48.139 154.486 47.6649C154.743 47.1908 155.091 46.8093 155.533 46.5204C155.974 46.2316 156.476 46.0136 157.037 45.8664C157.604 45.7193 158.198 45.6158 158.819 45.5558C159.549 45.4795 160.138 45.4087 160.585 45.3433C161.032 45.2724 161.356 45.1689 161.558 45.0326C161.759 44.8964 161.86 44.6947 161.86 44.4277V44.3786C161.86 43.8609 161.697 43.4603 161.37 43.1769C161.048 42.8936 160.59 42.7519 159.996 42.7519C159.369 42.7519 158.871 42.8908 158.5 43.1688C158.13 43.4413 157.884 43.7846 157.764 44.1988L154.544 43.9372C154.707 43.1742 155.029 42.5148 155.508 41.9589C155.988 41.3976 156.606 40.967 157.364 40.6673C158.127 40.3621 159.01 40.2095 160.013 40.2095C160.71 40.2095 161.378 40.2913 162.015 40.4548C162.658 40.6182 163.228 40.8717 163.724 41.215C164.225 41.5583 164.62 41.9998 164.909 42.5393C165.198 43.0734 165.342 43.7138 165.342 44.4604V52.9294H162.04V51.1882H161.942C161.74 51.5806 161.47 51.9267 161.132 52.2264C160.795 52.5207 160.389 52.7523 159.914 52.9213C159.44 53.0848 158.893 53.1665 158.271 53.1665ZM159.269 50.7631C159.781 50.7631 160.233 50.6623 160.626 50.4607C161.018 50.2536 161.326 49.9756 161.549 49.6268C161.773 49.278 161.885 48.8829 161.885 48.4415V47.109C161.776 47.1799 161.626 47.2453 161.435 47.3052C161.25 47.3597 161.04 47.4115 160.805 47.4605C160.571 47.5041 160.337 47.545 160.102 47.5831C159.868 47.6158 159.656 47.6458 159.465 47.6731C159.056 47.733 158.699 47.8284 158.394 47.9592C158.089 48.09 157.852 48.2671 157.683 48.4905C157.514 48.7085 157.429 48.981 157.429 49.308C157.429 49.7822 157.601 50.1446 157.944 50.3953C158.293 50.6405 158.735 50.7631 159.269 50.7631ZM167.309 52.9294L167.292 50.1664H167.709C168.003 50.1664 168.257 50.0955 168.469 49.9538C168.687 49.8067 168.867 49.5696 169.009 49.2426C169.151 48.9156 169.262 48.4824 169.344 47.9428C169.426 47.3979 169.48 46.7275 169.508 45.9318L169.712 40.373H179.26V52.9294H175.941V43.1116H172.843L172.647 46.9455C172.598 47.9973 172.47 48.902 172.262 49.6595C172.061 50.4171 171.78 51.0383 171.42 51.5234C171.061 52.003 170.627 52.3572 170.121 52.5861C169.614 52.815 169.025 52.9294 168.355 52.9294H167.309ZM184.142 44.2315H187.895C189.557 44.2315 190.854 44.6293 191.786 45.425C192.718 46.2152 193.184 47.2725 193.184 48.5968C193.184 49.4579 192.974 50.2154 192.554 50.8694C192.135 51.5179 191.53 52.0248 190.739 52.3899C189.949 52.7496 189.001 52.9294 187.895 52.9294H181.96V40.373H185.287V50.1909H187.895C188.478 50.1909 188.957 50.0438 189.333 49.7495C189.709 49.4552 189.9 49.0791 189.906 48.6213C189.9 48.1363 189.709 47.7412 189.333 47.436C188.957 47.1254 188.478 46.97 187.895 46.97H184.142V44.2315ZM204.232 45.2615V48.0001H197.676V45.2615H204.232ZM198.82 40.373V52.9294H195.493V40.373H198.82ZM206.415 40.373V52.9294H203.112V40.373H206.415ZM214.79 53.1747C213.52 53.1747 212.422 52.9049 211.495 52.3654C210.574 51.8204 209.863 51.0629 209.362 50.0928C208.86 49.1173 208.609 47.9864 208.609 46.7003C208.609 45.4032 208.86 44.2696 209.362 43.2996C209.863 42.324 210.574 41.5665 211.495 41.027C212.422 40.482 213.52 40.2095 214.79 40.2095C216.059 40.2095 217.155 40.482 218.076 41.027C219.002 41.5665 219.716 42.324 220.218 43.2996C220.719 44.2696 220.97 45.4032 220.97 46.7003C220.97 47.9864 220.719 49.1173 220.218 50.0928C219.716 51.0629 219.002 51.8204 218.076 52.3654C217.155 52.9049 216.059 53.1747 214.79 53.1747ZM214.806 50.477C215.384 50.477 215.866 50.3135 216.253 49.9865C216.64 49.6541 216.931 49.2018 217.128 48.6295C217.329 48.0573 217.43 47.406 217.43 46.6757C217.43 45.9455 217.329 45.2942 217.128 44.722C216.931 44.1497 216.64 43.6974 216.253 43.365C215.866 43.0325 215.384 42.8663 214.806 42.8663C214.223 42.8663 213.732 43.0325 213.334 43.365C212.942 43.6974 212.645 44.1497 212.443 44.722C212.247 45.2942 212.149 45.9455 212.149 46.6757C212.149 47.406 212.247 48.0573 212.443 48.6295C212.645 49.2018 212.942 49.6541 213.334 49.9865C213.732 50.3135 214.223 50.477 214.806 50.477Z" fill="black"/>
<path d="M321.081 42.0805H320.159C320.09 41.7372 319.966 41.42 319.786 41.129C319.609 40.8347 319.387 40.578 319.119 40.3589C318.851 40.1398 318.547 39.9698 318.207 39.8488C317.867 39.7278 317.499 39.6673 317.103 39.6673C316.469 39.6673 315.89 39.8325 315.367 40.1627C314.847 40.493 314.43 40.9786 314.116 41.6195C313.805 42.2571 313.65 43.0386 313.65 43.964C313.65 44.8959 313.805 45.6807 314.116 46.3183C314.43 46.956 314.847 47.4399 315.367 47.7702C315.89 48.0972 316.469 48.2607 317.103 48.2607C317.499 48.2607 317.867 48.2002 318.207 48.0792C318.547 47.9582 318.851 47.7898 319.119 47.574C319.387 47.3549 319.609 47.0982 319.786 46.8039C319.966 46.5096 320.09 46.1908 320.159 45.8475H321.081C320.999 46.3085 320.845 46.7385 320.62 47.1374C320.397 47.5331 320.113 47.8797 319.766 48.1773C319.423 48.4748 319.027 48.707 318.579 48.8738C318.131 49.0405 317.639 49.1239 317.103 49.1239C316.259 49.1239 315.511 48.913 314.857 48.4912C314.203 48.0661 313.689 47.4677 313.317 46.696C312.947 45.9243 312.762 45.0136 312.762 43.964C312.762 42.9144 312.947 42.0037 313.317 41.232C313.689 40.4603 314.203 39.8635 314.857 39.4417C315.511 39.0166 316.259 38.8041 317.103 38.8041C317.639 38.8041 318.131 38.8875 318.579 39.0542C319.027 39.2177 319.423 39.4499 319.766 39.7507C320.113 40.0483 320.397 40.3949 320.62 40.7906C320.845 41.1862 320.999 41.6162 321.081 42.0805ZM322.593 42.2767V41.4527H328.479V42.2767H325.987V48.9866H325.114V42.2767H322.593ZM330.324 51.8118V41.4527H331.173V42.8898H331.276C331.38 42.6642 331.524 42.4337 331.707 42.1982C331.89 41.9595 332.132 41.7584 332.433 41.5949C332.737 41.4315 333.12 41.3497 333.581 41.3497C334.202 41.3497 334.745 41.5132 335.209 41.8402C335.677 42.1639 336.04 42.6184 336.298 43.2037C336.56 43.7858 336.691 44.4643 336.691 45.2393C336.691 46.0175 336.56 46.6993 336.298 47.2846C336.04 47.8699 335.677 48.3261 335.209 48.653C334.745 48.98 334.205 49.1435 333.591 49.1435C333.136 49.1435 332.755 49.0618 332.448 48.8983C332.144 48.7348 331.897 48.5337 331.707 48.295C331.521 48.053 331.377 47.8176 331.276 47.5887H331.197V51.8118H330.324ZM331.187 45.2245C331.187 45.8327 331.277 46.3723 331.457 46.8431C331.64 47.3107 331.902 47.6786 332.242 47.9467C332.585 48.2116 333.001 48.344 333.488 48.344C333.988 48.344 334.41 48.2067 334.753 47.932C335.1 47.6541 335.363 47.2797 335.543 46.8088C335.726 46.3379 335.818 45.8099 335.818 45.2245C335.818 44.6458 335.728 44.1242 335.548 43.6599C335.371 43.1956 335.11 42.8277 334.763 42.5563C334.416 42.2816 333.991 42.1443 333.488 42.1443C332.997 42.1443 332.58 42.2767 332.237 42.5416C331.894 42.8032 331.632 43.1661 331.452 43.6305C331.276 44.0915 331.187 44.6229 331.187 45.2245ZM340.71 49.1582C340.256 49.1582 339.84 49.07 339.464 48.8934C339.088 48.7135 338.789 48.4552 338.567 48.1184C338.344 47.7783 338.233 47.3663 338.233 46.8824C338.233 46.5096 338.304 46.1957 338.444 45.9407C338.585 45.6856 338.784 45.4763 339.043 45.3128C339.301 45.1493 339.607 45.0202 339.96 44.9253C340.313 44.8305 340.702 44.7569 341.127 44.7046C341.549 44.6523 341.905 44.6065 342.196 44.5673C342.491 44.5281 342.715 44.4659 342.868 44.3809C343.022 44.2959 343.099 44.1586 343.099 43.9689V43.7923C343.099 43.279 342.945 42.8751 342.638 42.5808C342.334 42.2833 341.895 42.1345 341.323 42.1345C340.78 42.1345 340.337 42.2538 339.994 42.4925C339.654 42.7312 339.415 43.0125 339.278 43.3362L338.449 43.037C338.619 42.625 338.854 42.2963 339.155 42.0511C339.456 41.8026 339.793 41.6244 340.166 41.5165C340.538 41.4053 340.916 41.3497 341.299 41.3497C341.586 41.3497 341.886 41.3873 342.196 41.4625C342.51 41.5377 342.801 41.6685 343.069 41.8549C343.338 42.038 343.555 42.2947 343.722 42.625C343.889 42.952 343.972 43.3672 343.972 43.8708V48.9866H343.099V47.7947H343.045C342.94 48.017 342.785 48.2329 342.579 48.4421C342.373 48.6514 342.115 48.8231 341.804 48.9571C341.493 49.0912 341.129 49.1582 340.71 49.1582ZM340.828 48.3588C341.292 48.3588 341.694 48.2557 342.034 48.0497C342.375 47.8437 342.636 47.5707 342.819 47.2306C343.006 46.8873 343.099 46.5096 343.099 46.0976V45.0087C343.033 45.0709 342.924 45.1264 342.77 45.1755C342.62 45.2245 342.445 45.2687 342.245 45.3079C342.049 45.3439 341.853 45.375 341.657 45.4011C341.461 45.4273 341.284 45.4502 341.127 45.4698C340.702 45.5221 340.339 45.6039 340.038 45.715C339.737 45.8262 339.507 45.9799 339.347 46.1761C339.186 46.369 339.106 46.6175 339.106 46.9216C339.106 47.3794 339.27 47.7342 339.597 47.986C339.924 48.2345 340.334 48.3588 340.828 48.3588ZM351.381 44.8125V45.6366H346.952V44.8125H351.381ZM347.167 41.4527V48.9866H346.294V41.4527H347.167ZM352.023 41.4527V48.9866H351.15V41.4527H352.023ZM356.451 49.1582C355.997 49.1582 355.581 49.07 355.205 48.8934C354.829 48.7135 354.53 48.4552 354.308 48.1184C354.085 47.7783 353.974 47.3663 353.974 46.8824C353.974 46.5096 354.044 46.1957 354.185 45.9407C354.326 45.6856 354.525 45.4763 354.783 45.3128C355.042 45.1493 355.347 45.0202 355.701 44.9253C356.054 44.8305 356.443 44.7569 356.868 44.7046C357.29 44.6523 357.646 44.6065 357.937 44.5673C358.232 44.5281 358.456 44.4659 358.609 44.3809C358.763 44.2959 358.84 44.1586 358.84 43.9689V43.7923C358.84 43.279 358.686 42.8751 358.379 42.5808C358.075 42.2833 357.636 42.1345 357.064 42.1345C356.521 42.1345 356.078 42.2538 355.735 42.4925C355.395 42.7312 355.156 43.0125 355.019 43.3362L354.19 43.037C354.36 42.625 354.595 42.2963 354.896 42.0511C355.197 41.8026 355.534 41.6244 355.907 41.5165C356.279 41.4053 356.657 41.3497 357.04 41.3497C357.327 41.3497 357.627 41.3873 357.937 41.4625C358.251 41.5377 358.542 41.6685 358.81 41.8549C359.078 42.038 359.296 42.2947 359.463 42.625C359.629 42.952 359.713 43.3672 359.713 43.8708V48.9866H358.84V47.7947H358.786C358.681 48.017 358.526 48.2329 358.32 48.4421C358.114 48.6514 357.855 48.8231 357.545 48.9571C357.234 49.0912 356.87 49.1582 356.451 49.1582ZM356.569 48.3588C357.033 48.3588 357.435 48.2557 357.775 48.0497C358.115 47.8437 358.377 47.5707 358.56 47.2306C358.747 46.8873 358.84 46.5096 358.84 46.0976V45.0087C358.774 45.0709 358.665 45.1264 358.511 45.1755C358.361 45.2245 358.186 45.2687 357.986 45.3079C357.79 45.3439 357.594 45.375 357.398 45.4011C357.202 45.4273 357.025 45.4502 356.868 45.4698C356.443 45.5221 356.08 45.6039 355.779 45.715C355.478 45.8262 355.248 45.9799 355.088 46.1761C354.927 46.369 354.847 46.6175 354.847 46.9216C354.847 47.3794 355.011 47.7342 355.338 47.986C355.665 48.2345 356.075 48.3588 356.569 48.3588Z" fill="#A7B0BF"/>
<path d="M376.86 38.9414V40.2461H372.112V48.9866H370.596V38.9414H376.86ZM380.531 49.1386C379.825 49.1386 379.208 48.9768 378.682 48.653C378.155 48.3293 377.747 47.8764 377.456 47.2944C377.165 46.7124 377.019 46.0322 377.019 45.254C377.019 44.4725 377.165 43.7891 377.456 43.2037C377.747 42.6184 378.155 42.1639 378.682 41.8402C379.208 41.5165 379.825 41.3546 380.531 41.3546C381.237 41.3546 381.854 41.5165 382.38 41.8402C382.907 42.1639 383.315 42.6184 383.606 43.2037C383.897 43.7891 384.043 44.4725 384.043 45.254C384.043 46.0322 383.897 46.7124 383.606 47.2944C383.315 47.8764 382.907 48.3293 382.38 48.653C381.854 48.9768 381.237 49.1386 380.531 49.1386ZM380.536 47.9075C380.994 47.9075 381.373 47.7865 381.674 47.5445C381.975 47.3026 382.197 46.9805 382.341 46.5783C382.488 46.1761 382.562 45.733 382.562 45.2491C382.562 44.7684 382.488 44.327 382.341 43.9248C382.197 43.5193 381.975 43.1939 381.674 42.9487C381.373 42.7034 380.994 42.5808 380.536 42.5808C380.075 42.5808 379.692 42.7034 379.388 42.9487C379.087 43.1939 378.863 43.5193 378.716 43.9248C378.572 44.327 378.5 44.7684 378.5 45.2491C378.5 45.733 378.572 46.1761 378.716 46.5783C378.863 46.9805 379.087 47.3026 379.388 47.5445C379.692 47.7865 380.075 47.9075 380.536 47.9075ZM385.68 51.8118V41.4527H387.112V42.674H387.235C387.32 42.5171 387.442 42.3356 387.603 42.1296C387.763 41.9236 387.985 41.7437 388.27 41.59C388.554 41.4331 388.93 41.3546 389.398 41.3546C390.006 41.3546 390.549 41.5083 391.026 41.8157C391.504 42.123 391.878 42.5661 392.149 43.1449C392.424 43.7237 392.561 44.4201 392.561 45.2344C392.561 46.0486 392.426 46.7467 392.154 47.3287C391.883 47.9075 391.51 48.3538 391.036 48.6678C390.562 48.9784 390.021 49.1337 389.412 49.1337C388.955 49.1337 388.58 49.0569 388.289 48.9032C388.001 48.7495 387.776 48.5697 387.612 48.3637C387.449 48.1577 387.323 47.9745 387.235 47.8143H387.146V51.8118H385.68ZM387.117 45.2196C387.117 45.7494 387.194 46.2137 387.347 46.6126C387.501 47.0115 387.723 47.3238 388.015 47.5494C388.306 47.7718 388.662 47.883 389.084 47.883C389.522 47.883 389.888 47.7669 390.182 47.5347C390.477 47.2993 390.699 46.9805 390.85 46.5783C391.003 46.1761 391.08 45.7232 391.08 45.2196C391.08 44.7226 391.005 44.2763 390.854 43.8806C390.707 43.485 390.485 43.1727 390.187 42.9438C389.893 42.7149 389.525 42.6004 389.084 42.6004C388.659 42.6004 388.299 42.71 388.005 42.9291C387.714 43.1482 387.493 43.4539 387.343 43.8463C387.192 44.2387 387.117 44.6965 387.117 45.2196ZM397.378 49.1386C396.672 49.1386 396.055 48.9768 395.529 48.653C395.002 48.3293 394.594 47.8764 394.303 47.2944C394.012 46.7124 393.866 46.0322 393.866 45.254C393.866 44.4725 394.012 43.7891 394.303 43.2037C394.594 42.6184 395.002 42.1639 395.529 41.8402C396.055 41.5165 396.672 41.3546 397.378 41.3546C398.084 41.3546 398.701 41.5165 399.227 41.8402C399.753 42.1639 400.162 42.6184 400.453 43.2037C400.744 43.7891 400.89 44.4725 400.89 45.254C400.89 46.0322 400.744 46.7124 400.453 47.2944C400.162 47.8764 399.753 48.3293 399.227 48.653C398.701 48.9768 398.084 49.1386 397.378 49.1386ZM397.383 47.9075C397.841 47.9075 398.22 47.7865 398.521 47.5445C398.822 47.3026 399.044 46.9805 399.188 46.5783C399.335 46.1761 399.409 45.733 399.409 45.2491C399.409 44.7684 399.335 44.327 399.188 43.9248C399.044 43.5193 398.822 43.1939 398.521 42.9487C398.22 42.7034 397.841 42.5808 397.383 42.5808C396.922 42.5808 396.539 42.7034 396.235 42.9487C395.934 43.1939 395.71 43.5193 395.563 43.9248C395.419 44.327 395.347 44.7684 395.347 45.2491C395.347 45.733 395.419 46.1761 395.563 46.5783C395.71 46.9805 395.934 47.3026 396.235 47.5445C396.539 47.7865 396.922 47.9075 397.383 47.9075ZM401.791 51.1594V47.7162H402.404C402.561 47.5723 402.694 47.4007 402.801 47.2012C402.913 47.0017 403.006 46.7647 403.081 46.49C403.16 46.2153 403.225 45.8949 403.277 45.5286C403.33 45.1591 403.375 44.7373 403.415 44.2632L403.65 41.4527H408.771V47.7162H409.928V51.1594H408.496V48.9866H403.243V51.1594H401.791ZM403.974 47.7162H407.338V42.7084H404.964L404.808 44.2632C404.732 45.0545 404.637 45.7412 404.523 46.3232C404.409 46.902 404.225 47.3663 403.974 47.7162Z" fill="#A7B0BF"/>
<rect x="250.386" y="109.802" width="161.141" height="11.5101" rx="5.75503" fill="#F1F2F6"/>
<rect x="250.386" y="109.802" width="63.3054" height="11.5101" rx="5.75503" fill="#3B83EF"/>
<path d="M257.449 97.4797L254.074 92.9771H253.005V97.4797H251.489V87.4346H253.005V91.6773H253.5L257.297 87.4346H259.146L255.129 91.9323L259.298 97.4797H257.449ZM262.777 97.6465C262.299 97.6465 261.868 97.5582 261.482 97.3816C261.096 97.2018 260.79 96.9418 260.565 96.6018C260.342 96.2617 260.231 95.8448 260.231 95.351C260.231 94.9259 260.313 94.5761 260.476 94.3014C260.64 94.0267 260.86 93.8093 261.138 93.649C261.416 93.4888 261.727 93.3678 262.07 93.2861C262.414 93.2043 262.764 93.1422 263.12 93.0997C263.571 93.0474 263.937 93.0049 264.219 92.9722C264.5 92.9362 264.704 92.879 264.832 92.8005C264.959 92.722 265.023 92.5945 265.023 92.4179V92.3836C265.023 91.9552 264.902 91.6233 264.66 91.3879C264.421 91.1525 264.065 91.0348 263.591 91.0348C263.097 91.0348 262.708 91.1443 262.423 91.3634C262.142 91.5792 261.948 91.8195 261.84 92.0844L260.462 91.7705C260.625 91.3127 260.864 90.9432 261.178 90.662C261.495 90.3775 261.859 90.1715 262.271 90.044C262.683 89.9132 263.117 89.8478 263.571 89.8478C263.872 89.8478 264.191 89.8837 264.528 89.9557C264.868 90.0244 265.185 90.1519 265.479 90.3383C265.777 90.5246 266.02 90.7911 266.21 91.1378C266.4 91.4811 266.495 91.9274 266.495 92.4768V97.4797H265.062V96.4497H265.003C264.909 96.6394 264.766 96.8258 264.577 97.0089C264.387 97.192 264.143 97.344 263.846 97.465C263.548 97.586 263.192 97.6465 262.777 97.6465ZM263.095 96.4693C263.501 96.4693 263.848 96.3892 264.135 96.229C264.426 96.0688 264.647 95.8595 264.797 95.6012C264.951 95.3396 265.028 95.06 265.028 94.7624V93.7913C264.976 93.8436 264.874 93.8926 264.724 93.9384C264.577 93.9809 264.408 94.0185 264.219 94.0512C264.029 94.0807 263.844 94.1085 263.664 94.1346C263.485 94.1575 263.334 94.1771 263.213 94.1935C262.929 94.2294 262.669 94.2899 262.433 94.375C262.201 94.46 262.015 94.5826 261.874 94.7428C261.737 94.8998 261.668 95.1091 261.668 95.3706C261.668 95.7336 261.802 96.0083 262.07 96.1947C262.338 96.3778 262.68 96.4693 263.095 96.4693ZM268.002 95.4884H269.502C269.522 95.7957 269.661 96.0328 269.919 96.1996C270.181 96.3663 270.519 96.4497 270.935 96.4497C271.356 96.4497 271.716 96.3598 272.014 96.1799C272.311 95.9968 272.46 95.714 272.46 95.3314C272.46 95.1025 272.403 94.9031 272.288 94.733C272.177 94.5597 272.019 94.4256 271.813 94.3308C271.61 94.236 271.37 94.1886 271.092 94.1886H269.865V93.0359H271.092C271.507 93.0359 271.818 92.9411 272.024 92.7515C272.23 92.5618 272.333 92.3247 272.333 92.0402C272.333 91.7329 272.221 91.486 271.999 91.2996C271.78 91.11 271.474 91.0151 271.082 91.0151C270.683 91.0151 270.351 91.1051 270.086 91.2849C269.821 91.4615 269.682 91.6904 269.669 91.9716H268.188C268.198 91.5498 268.325 91.1803 268.571 90.8631C268.819 90.5426 269.153 90.2941 269.571 90.1175C269.993 89.9377 270.472 89.8478 271.008 89.8478C271.567 89.8478 272.051 89.9377 272.46 90.1175C272.869 90.2974 273.184 90.5459 273.407 90.8631C273.632 91.1803 273.745 91.5449 273.745 91.9569C273.745 92.3721 273.621 92.7122 273.372 92.9771C273.127 93.2387 272.807 93.4267 272.411 93.5411V93.6196C272.702 93.6392 272.96 93.7275 273.186 93.8845C273.412 94.0414 273.588 94.2491 273.716 94.5074C273.843 94.7657 273.907 95.0584 273.907 95.3854C273.907 95.8464 273.779 96.2453 273.524 96.5821C273.273 96.9189 272.923 97.1789 272.475 97.362C272.03 97.5419 271.522 97.6318 270.949 97.6318C270.393 97.6318 269.895 97.5451 269.453 97.3718C269.015 97.1953 268.667 96.9467 268.409 96.6263C268.154 96.3058 268.018 95.9265 268.002 95.4884ZM277.614 97.6465C277.136 97.6465 276.705 97.5582 276.319 97.3816C275.933 97.2018 275.627 96.9418 275.402 96.6018C275.179 96.2617 275.068 95.8448 275.068 95.351C275.068 94.9259 275.15 94.5761 275.313 94.3014C275.477 94.0267 275.698 93.8093 275.976 93.649C276.254 93.4888 276.564 93.3678 276.908 93.2861C277.251 93.2043 277.601 93.1422 277.957 93.0997C278.408 93.0474 278.775 93.0049 279.056 92.9722C279.337 92.9362 279.541 92.879 279.669 92.8005C279.797 92.722 279.86 92.5945 279.86 92.4179V92.3836C279.86 91.9552 279.739 91.6233 279.497 91.3879C279.259 91.1525 278.902 91.0348 278.428 91.0348C277.934 91.0348 277.545 91.1443 277.261 91.3634C276.979 91.5792 276.785 91.8195 276.677 92.0844L275.299 91.7705C275.462 91.3127 275.701 90.9432 276.015 90.662C276.332 90.3775 276.697 90.1715 277.109 90.044C277.521 89.9132 277.954 89.8478 278.408 89.8478C278.709 89.8478 279.028 89.8837 279.365 89.9557C279.705 90.0244 280.022 90.1519 280.316 90.3383C280.614 90.5246 280.858 90.7911 281.047 91.1378C281.237 91.4811 281.332 91.9274 281.332 92.4768V97.4797H279.9V96.4497H279.841C279.746 96.6394 279.604 96.8258 279.414 97.0089C279.224 97.192 278.981 97.344 278.683 97.465C278.386 97.586 278.029 97.6465 277.614 97.6465ZM277.933 96.4693C278.338 96.4693 278.685 96.3892 278.972 96.229C279.264 96.0688 279.484 95.8595 279.635 95.6012C279.788 95.3396 279.865 95.06 279.865 94.7624V93.7913C279.813 93.8436 279.711 93.8926 279.561 93.9384C279.414 93.9809 279.246 94.0185 279.056 94.0512C278.866 94.0807 278.681 94.1085 278.502 94.1346C278.322 94.1575 278.171 94.1771 278.05 94.1935C277.766 94.2294 277.506 94.2899 277.271 94.375C277.038 94.46 276.852 94.5826 276.711 94.7428C276.574 94.8998 276.505 95.1091 276.505 95.3706C276.505 95.7336 276.639 96.0083 276.908 96.1947C277.176 96.3778 277.517 96.4693 277.933 96.4693ZM288.391 93.0801V94.3504H284.31V93.0801H288.391ZM284.722 89.9459V97.4797H283.285V89.9459H284.722ZM289.416 89.9459V97.4797H287.984V89.9459H289.416ZM292.482 92.5356H294.669C295.591 92.5356 296.301 92.7645 296.798 93.2223C297.295 93.6801 297.544 94.2703 297.544 94.993C297.544 95.4638 297.432 95.8873 297.21 96.2633C296.988 96.6394 296.662 96.9369 296.234 97.156C295.806 97.3718 295.284 97.4797 294.669 97.4797H291.378V89.9459H292.815V96.2143H294.669C295.091 96.2143 295.438 96.1047 295.709 95.8857C295.98 95.6633 296.116 95.3805 296.116 95.0371C296.116 94.6742 295.98 94.3782 295.709 94.1493C295.438 93.9172 295.091 93.8011 294.669 93.8011H292.482V92.5356Z" fill="black"/>
<path d="M386.923 97.6171C386.249 97.6171 385.647 97.501 385.118 97.2688C384.591 97.0367 384.174 96.7146 383.867 96.3026C383.563 95.8873 383.399 95.4066 383.376 94.8605H384.917C384.936 95.1581 385.036 95.4164 385.216 95.6355C385.399 95.8513 385.638 96.0181 385.932 96.1358C386.226 96.2535 386.553 96.3124 386.913 96.3124C387.308 96.3124 387.658 96.2437 387.962 96.1064C388.27 95.969 388.51 95.7778 388.683 95.5325C388.857 95.284 388.943 94.9979 388.943 94.6742C388.943 94.3374 388.857 94.0414 388.683 93.7864C388.513 93.5281 388.263 93.3253 387.933 93.1782C387.606 93.031 387.21 92.9575 386.746 92.9575H385.897V91.7214H386.746C387.119 91.7214 387.446 91.6544 387.727 91.5203C388.011 91.3863 388.234 91.1999 388.394 90.9612C388.554 90.7192 388.634 90.4364 388.634 90.1126C388.634 89.802 388.564 89.5322 388.423 89.3033C388.286 89.0712 388.09 88.8897 387.835 88.7589C387.583 88.6281 387.286 88.5627 386.942 88.5627C386.615 88.5627 386.309 88.6232 386.025 88.7442C385.744 88.8619 385.515 89.0319 385.338 89.2543C385.162 89.4734 385.067 89.7366 385.054 90.044H383.587C383.604 89.5012 383.764 89.0238 384.068 88.6118C384.375 88.1997 384.781 87.8777 385.284 87.6455C385.788 87.4133 386.347 87.2972 386.962 87.2972C387.606 87.2972 388.162 87.4231 388.629 87.6749C389.1 87.9234 389.463 88.2553 389.718 88.6706C389.977 89.0859 390.104 89.5404 390.101 90.0342C390.104 90.5966 389.947 91.074 389.63 91.4664C389.316 91.8588 388.898 92.122 388.374 92.2561V92.3345C389.042 92.4359 389.558 92.7008 389.924 93.1291C390.294 93.5575 390.477 94.0888 390.474 94.7232C390.477 95.2758 390.323 95.7712 390.013 96.2094C389.705 96.6475 389.285 96.9925 388.752 97.2443C388.219 97.4928 387.609 97.6171 386.923 97.6171ZM395.722 97.6171C395.019 97.6171 394.398 97.4961 393.858 97.2541C393.322 97.0121 392.902 96.6786 392.598 96.2535C392.293 95.8284 392.143 95.3445 392.146 94.8017C392.143 94.3766 392.23 93.9858 392.406 93.6294C392.586 93.2697 392.83 92.9705 393.137 92.7318C393.444 92.4899 393.788 92.3362 394.167 92.2708V92.2119C393.667 92.0909 393.266 91.8228 392.965 91.4075C392.665 90.9922 392.516 90.5148 392.519 89.9753C392.516 89.4619 392.651 89.0041 392.926 88.6019C393.204 88.1965 393.585 87.8777 394.069 87.6455C394.553 87.4133 395.104 87.2972 395.722 87.2972C396.333 87.2972 396.879 87.415 397.36 87.6504C397.844 87.8826 398.225 88.2014 398.503 88.6068C398.781 89.009 398.922 89.4652 398.925 89.9753C398.922 90.5148 398.768 90.9922 398.464 91.4075C398.16 91.8228 397.764 92.0909 397.277 92.2119V92.2708C397.653 92.3362 397.991 92.4899 398.292 92.7318C398.596 92.9705 398.838 93.2697 399.018 93.6294C399.201 93.9858 399.294 94.3766 399.298 94.8017C399.294 95.3445 399.141 95.8284 398.837 96.2535C398.532 96.6786 398.111 97.0121 397.571 97.2541C397.035 97.4961 396.418 97.6171 395.722 97.6171ZM395.722 96.3761C396.137 96.3761 396.497 96.3075 396.801 96.1701C397.105 96.0295 397.341 95.835 397.507 95.5865C397.674 95.3347 397.759 95.0404 397.762 94.7036C397.759 94.3537 397.668 94.0447 397.488 93.7766C397.311 93.5084 397.071 93.2975 396.767 93.1438C396.463 92.9902 396.114 92.9133 395.722 92.9133C395.326 92.9133 394.975 92.9902 394.667 93.1438C394.36 93.2975 394.118 93.5084 393.941 93.7766C393.765 94.0447 393.678 94.3537 393.682 94.7036C393.678 95.0404 393.758 95.3347 393.922 95.5865C394.089 95.835 394.326 96.0295 394.633 96.1701C394.94 96.3075 395.303 96.3761 395.722 96.3761ZM395.722 91.7018C396.055 91.7018 396.351 91.6348 396.61 91.5007C396.868 91.3666 397.071 91.1803 397.218 90.9416C397.368 90.7029 397.445 90.4233 397.448 90.1028C397.445 89.7889 397.37 89.5142 397.223 89.2788C397.079 89.0434 396.878 88.8619 396.62 88.7344C396.361 88.6036 396.062 88.5382 395.722 88.5382C395.375 88.5382 395.071 88.6036 394.81 88.7344C394.551 88.8619 394.35 89.0434 394.206 89.2788C394.062 89.5142 393.992 89.7889 393.995 90.1028C393.992 90.4233 394.064 90.7029 394.211 90.9416C394.358 91.1803 394.561 91.3666 394.819 91.5007C395.081 91.6348 395.382 91.7018 395.722 91.7018ZM406.298 95.5963V95.0665C406.298 94.6872 406.377 94.3406 406.533 94.0267C406.694 93.7095 406.926 93.4561 407.23 93.2665C407.537 93.0735 407.908 92.9771 408.343 92.9771C408.788 92.9771 409.161 93.0719 409.462 93.2616C409.762 93.4512 409.99 93.7046 410.143 94.0218C410.3 94.339 410.379 94.6872 410.379 95.0665V95.5963C410.379 95.9756 410.3 96.3238 410.143 96.641C409.986 96.9549 409.756 97.2083 409.452 97.4013C409.151 97.5909 408.782 97.6857 408.343 97.6857C407.902 97.6857 407.529 97.5909 407.225 97.4013C406.921 97.2083 406.69 96.9549 406.533 96.641C406.377 96.3238 406.298 95.9756 406.298 95.5963ZM407.441 95.0665V95.5963C407.441 95.8775 407.508 96.1325 407.642 96.3614C407.776 96.5903 408.01 96.7048 408.343 96.7048C408.674 96.7048 408.904 96.5903 409.035 96.3614C409.166 96.1325 409.231 95.8775 409.231 95.5963V95.0665C409.231 94.7853 409.167 94.5303 409.04 94.3014C408.916 94.0725 408.683 93.958 408.343 93.958C408.016 93.958 407.784 94.0725 407.647 94.3014C407.51 94.5303 407.441 94.7853 407.441 95.0665ZM401.246 89.8478V89.3181C401.246 88.9387 401.324 88.5905 401.481 88.2733C401.642 87.9561 401.874 87.7027 402.178 87.5131C402.485 87.3234 402.856 87.2286 403.291 87.2286C403.736 87.2286 404.109 87.3234 404.41 87.5131C404.71 87.7027 404.938 87.9561 405.091 88.2733C405.245 88.5905 405.322 88.9387 405.322 89.3181V89.8478C405.322 90.2271 405.243 90.5753 405.087 90.8925C404.933 91.2064 404.704 91.4598 404.4 91.6528C404.099 91.8424 403.73 91.9372 403.291 91.9372C402.847 91.9372 402.472 91.8424 402.168 91.6528C401.867 91.4598 401.638 91.2064 401.481 90.8925C401.324 90.5753 401.246 90.2271 401.246 89.8478ZM402.394 89.3181V89.8478C402.394 90.129 402.459 90.384 402.59 90.6129C402.724 90.8418 402.958 90.9563 403.291 90.9563C403.618 90.9563 403.847 90.8418 403.978 90.6129C404.112 90.384 404.179 90.129 404.179 89.8478V89.3181C404.179 89.0368 404.115 88.7818 403.988 88.5529C403.86 88.324 403.628 88.2096 403.291 88.2096C402.964 88.2096 402.732 88.324 402.595 88.5529C402.461 88.7818 402.394 89.0368 402.394 89.3181ZM401.712 97.4797L408.618 87.4346H409.79L402.884 97.4797H401.712Z" fill="#979797"/>
<rect x="29.3926" y="173.107" width="161.141" height="11.5101" rx="5.75503" fill="#F1F2F6"/>
<rect x="29.3926" y="173.107" width="89.7785" height="11.5101" rx="5.75503" fill="#3B83EF"/>
<path d="M38.8393 152.856H37.309C37.2502 152.529 37.1406 152.241 36.9804 151.993C36.8202 151.744 36.624 151.533 36.3918 151.36C36.1596 151.186 35.8997 151.056 35.6119 150.967C35.3275 150.879 35.025 150.835 34.7045 150.835C34.1258 150.835 33.6075 150.98 33.1497 151.271C32.6952 151.563 32.3355 151.989 32.0706 152.552C31.809 153.114 31.6782 153.801 31.6782 154.612C31.6782 155.429 31.809 156.119 32.0706 156.682C32.3355 157.244 32.6968 157.669 33.1546 157.957C33.6124 158.245 34.1274 158.388 34.6996 158.388C35.0168 158.388 35.3176 158.346 35.6021 158.261C35.8899 158.173 36.1498 158.043 36.382 157.873C36.6142 157.703 36.8104 157.496 36.9706 157.251C37.1341 157.002 37.2469 156.718 37.309 156.397L38.8393 156.402C38.7576 156.896 38.599 157.35 38.3636 157.766C38.1314 158.178 37.8322 158.534 37.466 158.835C37.103 159.132 36.6877 159.363 36.2201 159.526C35.7525 159.69 35.2424 159.772 34.6898 159.772C33.82 159.772 33.0451 159.566 32.3649 159.154C31.6848 158.738 31.1485 158.145 30.7561 157.373C30.367 156.601 30.1725 155.681 30.1725 154.612C30.1725 153.539 30.3686 152.619 30.761 151.85C31.1534 151.079 31.6897 150.487 32.3698 150.075C33.05 149.659 33.8233 149.452 34.6898 149.452C35.2228 149.452 35.7198 149.529 36.1809 149.682C36.6452 149.833 37.0621 150.055 37.4316 150.349C37.8011 150.64 38.1069 150.997 38.3489 151.419C38.5908 151.837 38.7543 152.316 38.8393 152.856ZM48.5056 149.589V159.634H46.9949V150.884H42.2666V159.634H40.7559V149.589H48.5056ZM56.5177 149.295L57.1259 150.222C56.9003 150.428 56.6436 150.575 56.3558 150.663C56.0713 150.748 55.7427 150.802 55.3699 150.825C54.9972 150.845 54.5704 150.863 54.0898 150.879C53.547 150.895 53.1006 151.013 52.7507 151.232C52.4009 151.448 52.1311 151.769 51.9414 152.194C51.7551 152.615 51.6341 153.145 51.5785 153.783H51.6717C51.9169 153.315 52.257 152.965 52.6919 152.733C53.1301 152.501 53.6222 152.385 54.1682 152.385C54.7764 152.385 55.3176 152.524 55.7918 152.802C56.2659 153.08 56.6387 153.487 56.9101 154.023C57.1847 154.556 57.3221 155.208 57.3221 155.98C57.3221 156.762 57.1782 157.437 56.8904 158.006C56.606 158.575 56.2038 159.015 55.6838 159.325C55.1672 159.633 54.5574 159.786 53.8543 159.786C53.1513 159.786 52.5382 159.628 52.015 159.311C51.4951 158.99 51.0913 158.516 50.8035 157.888C50.519 157.26 50.3768 156.485 50.3768 155.563V154.818C50.3768 153.094 50.6842 151.798 51.2989 150.928C51.9136 150.058 52.8325 149.612 54.0554 149.589C54.4511 149.579 54.8042 149.578 55.1149 149.584C55.4255 149.587 55.6969 149.573 55.9291 149.54C56.1645 149.504 56.3607 149.422 56.5177 149.295ZM53.8592 158.555C54.268 158.555 54.6195 158.452 54.9138 158.246C55.2113 158.037 55.4402 157.741 55.6005 157.358C55.7607 156.976 55.8408 156.525 55.8408 156.005C55.8408 155.495 55.7607 155.061 55.6005 154.705C55.4402 154.348 55.2113 154.077 54.9138 153.891C54.6162 153.701 54.2598 153.606 53.8445 153.606C53.5372 153.606 53.2625 153.66 53.0205 153.768C52.7785 153.873 52.5709 154.028 52.3976 154.234C52.2276 154.44 52.0951 154.692 52.0003 154.989C51.9087 155.284 51.8597 155.622 51.8532 156.005C51.8532 156.783 52.0314 157.403 52.3878 157.864C52.7475 158.325 53.238 158.555 53.8592 158.555Z" fill="black"/>
<path d="M165.775 159.772C165.16 159.772 164.608 159.654 164.117 159.418C163.63 159.18 163.241 158.853 162.95 158.437C162.659 158.022 162.503 157.548 162.484 157.015H163.955C163.991 157.447 164.182 157.801 164.529 158.079C164.876 158.357 165.291 158.496 165.775 158.496C166.161 158.496 166.502 158.408 166.8 158.231C167.101 158.052 167.336 157.805 167.506 157.491C167.68 157.177 167.766 156.819 167.766 156.417C167.766 156.008 167.678 155.643 167.501 155.323C167.325 155.002 167.081 154.751 166.771 154.568C166.463 154.384 166.11 154.291 165.711 154.288C165.407 154.288 165.101 154.34 164.794 154.445C164.487 154.55 164.238 154.687 164.048 154.857L162.66 154.651L163.224 149.589H168.747V150.889H164.485L164.166 153.699H164.225C164.421 153.51 164.681 153.351 165.005 153.224C165.332 153.096 165.682 153.032 166.055 153.032C166.666 153.032 167.21 153.178 167.688 153.469C168.169 153.76 168.546 154.157 168.821 154.661C169.099 155.161 169.236 155.737 169.233 156.387C169.236 157.038 169.089 157.618 168.791 158.128C168.497 158.639 168.088 159.041 167.565 159.335C167.045 159.626 166.449 159.772 165.775 159.772ZM170.813 157.672V156.446L175.154 149.589H176.121V151.394H175.507L172.403 156.309V156.387H178.352V157.672H170.813ZM175.576 159.634V157.3L175.586 156.74V149.589H177.023V159.634H175.576ZM185.305 157.751V157.221C185.305 156.842 185.383 156.495 185.54 156.181C185.701 155.864 185.933 155.611 186.237 155.421C186.544 155.228 186.915 155.132 187.35 155.132C187.795 155.132 188.168 155.226 188.468 155.416C188.769 155.606 188.997 155.859 189.15 156.176C189.307 156.494 189.386 156.842 189.386 157.221V157.751C189.386 158.13 189.307 158.478 189.15 158.796C188.993 159.109 188.763 159.363 188.459 159.556C188.158 159.745 187.788 159.84 187.35 159.84C186.909 159.84 186.536 159.745 186.232 159.556C185.928 159.363 185.697 159.109 185.54 158.796C185.383 158.478 185.305 158.13 185.305 157.751ZM186.448 157.221V157.751C186.448 158.032 186.515 158.287 186.649 158.516C186.783 158.745 187.017 158.859 187.35 158.859C187.68 158.859 187.911 158.745 188.042 158.516C188.173 158.287 188.238 158.032 188.238 157.751V157.221C188.238 156.94 188.174 156.685 188.047 156.456C187.922 156.227 187.69 156.113 187.35 156.113C187.023 156.113 186.791 156.227 186.654 156.456C186.516 156.685 186.448 156.94 186.448 157.221ZM180.253 152.002V151.473C180.253 151.093 180.331 150.745 180.488 150.428C180.649 150.111 180.881 149.857 181.185 149.668C181.492 149.478 181.863 149.383 182.298 149.383C182.743 149.383 183.116 149.478 183.416 149.668C183.717 149.857 183.945 150.111 184.098 150.428C184.252 150.745 184.329 151.093 184.329 151.473V152.002C184.329 152.382 184.25 152.73 184.093 153.047C183.94 153.361 183.711 153.614 183.407 153.807C183.106 153.997 182.736 154.092 182.298 154.092C181.853 154.092 181.479 153.997 181.175 153.807C180.874 153.614 180.645 153.361 180.488 153.047C180.331 152.73 180.253 152.382 180.253 152.002ZM181.401 151.473V152.002C181.401 152.284 181.466 152.539 181.597 152.767C181.731 152.996 181.965 153.111 182.298 153.111C182.625 153.111 182.854 152.996 182.985 152.767C183.119 152.539 183.186 152.284 183.186 152.002V151.473C183.186 151.191 183.122 150.936 182.995 150.707C182.867 150.479 182.635 150.364 182.298 150.364C181.971 150.364 181.739 150.479 181.602 150.707C181.468 150.936 181.401 151.191 181.401 151.473ZM180.719 159.634L187.625 149.589H188.797L181.891 159.634H180.719Z" fill="#979797"/>
<rect x="29.3926" y="110.953" width="161.141" height="11.5101" rx="5.75503" fill="#F1F2F6"/>
<rect x="29.3926" y="110.953" width="109.346" height="11.5101" rx="5.75503" fill="#3B83EF"/>
<path d="M30.4962 87.4346H32.3355L35.5335 95.2431H35.6512L38.8491 87.4346H40.6885V97.4797H39.2464V90.2107H39.1532L36.1907 97.465H34.9939L32.0314 90.2058H31.9382V97.4797H30.4962V87.4346ZM45.9477 97.6318C45.2414 97.6318 44.625 97.4699 44.0986 97.1462C43.5721 96.8225 43.1634 96.3696 42.8724 95.7876C42.5813 95.2055 42.4358 94.5254 42.4358 93.7471C42.4358 92.9656 42.5813 92.2822 42.8724 91.6969C43.1634 91.1116 43.5721 90.6571 44.0986 90.3334C44.625 90.0096 45.2414 89.8478 45.9477 89.8478C46.654 89.8478 47.2704 90.0096 47.7968 90.3334C48.3233 90.6571 48.732 91.1116 49.0231 91.6969C49.3141 92.2822 49.4596 92.9656 49.4596 93.7471C49.4596 94.5254 49.3141 95.2055 49.0231 95.7876C48.732 96.3696 48.3233 96.8225 47.7968 97.1462C47.2704 97.4699 46.654 97.6318 45.9477 97.6318ZM45.9526 96.4007C46.4104 96.4007 46.7897 96.2797 47.0905 96.0377C47.3914 95.7957 47.6137 95.4736 47.7576 95.0715C47.9047 94.6693 47.9783 94.2262 47.9783 93.7422C47.9783 93.2616 47.9047 92.8201 47.7576 92.4179C47.6137 92.0125 47.3914 91.6871 47.0905 91.4419C46.7897 91.1966 46.4104 91.074 45.9526 91.074C45.4916 91.074 45.109 91.1966 44.8049 91.4419C44.504 91.6871 44.2801 92.0125 44.1329 92.4179C43.989 92.8201 43.9171 93.2616 43.9171 93.7422C43.9171 94.2262 43.989 94.6693 44.1329 95.0715C44.2801 95.4736 44.504 95.7957 44.8049 96.0377C45.109 96.2797 45.4916 96.4007 45.9526 96.4007ZM54.27 97.6318C53.5408 97.6318 52.913 97.4667 52.3866 97.1364C51.8634 96.8029 51.4612 96.3434 51.18 95.7581C50.8987 95.1728 50.7581 94.5025 50.7581 93.7471C50.7581 92.982 50.902 92.3067 51.1898 91.7214C51.4775 91.1328 51.883 90.6734 52.4062 90.3432C52.9294 90.0129 53.5457 89.8478 54.2553 89.8478C54.8275 89.8478 55.3376 89.954 55.7856 90.1666C56.2336 90.3759 56.5949 90.6702 56.8696 91.0495C57.1475 91.4288 57.3127 91.8718 57.365 92.3787H55.9377C55.8592 92.0255 55.6794 91.7214 55.3981 91.4664C55.1202 91.2113 54.7474 91.0838 54.2798 91.0838C53.8711 91.0838 53.513 91.1917 53.2057 91.4075C52.9016 91.6201 52.6645 91.9242 52.4945 92.3198C52.3244 92.7122 52.2394 93.1765 52.2394 93.7128C52.2394 94.2621 52.3228 94.7363 52.4896 95.1352C52.6563 95.5341 52.8918 95.8431 53.1959 96.0622C53.5032 96.2813 53.8646 96.3909 54.2798 96.3909C54.5578 96.3909 54.8096 96.3402 55.0352 96.2388C55.2641 96.1342 55.4554 95.9854 55.609 95.7925C55.766 95.5995 55.8755 95.3674 55.9377 95.096H57.365C57.3127 95.5832 57.1541 96.0181 56.8892 96.4007C56.6244 96.7832 56.2696 97.0841 55.8249 97.3032C55.3834 97.5222 54.8651 97.6318 54.27 97.6318ZM58.9333 97.4797V89.9459H60.3999V93.1046H61.1062L63.5929 89.9459H65.4077L62.4893 93.6098L65.4421 97.4797H63.6224L61.3514 94.4682H60.3999V97.4797H58.9333ZM66.5812 97.4797V89.9459H69.7056C70.5558 89.9459 71.2294 90.1274 71.7264 90.4903C72.2234 90.85 72.472 91.3389 72.472 91.9569C72.472 92.3983 72.3314 92.7482 72.0501 93.0065C71.7689 93.2648 71.3962 93.4381 70.9318 93.5264C71.2686 93.5657 71.5776 93.667 71.8588 93.8305C72.1401 93.9907 72.3657 94.2066 72.5357 94.478C72.709 94.7494 72.7957 95.0731 72.7957 95.4491C72.7957 95.8481 72.6927 96.2012 72.4867 96.5086C72.2807 96.8127 71.9815 97.0514 71.5891 97.2247C71.2 97.3947 70.7307 97.4797 70.1814 97.4797H66.5812ZM67.9595 96.2535H70.1814C70.5443 96.2535 70.8288 96.1669 71.0348 95.9936C71.2408 95.8203 71.3438 95.5848 71.3438 95.2873C71.3438 94.9374 71.2408 94.6627 71.0348 94.4632C70.8288 94.2605 70.5443 94.1591 70.1814 94.1591H67.9595V96.2535ZM67.9595 93.085H69.7203C69.995 93.085 70.2304 93.0457 70.4266 92.9673C70.6261 92.8888 70.7781 92.7776 70.8828 92.6337C70.9907 92.4866 71.0446 92.3133 71.0446 92.1138C71.0446 91.8228 70.9253 91.5955 70.6866 91.432C70.4479 91.2685 70.1209 91.1868 69.7056 91.1868H67.9595V93.085ZM76.5969 97.6465C76.1195 97.6465 75.6879 97.5582 75.3021 97.3816C74.9162 97.2018 74.6105 96.9418 74.3849 96.6018C74.1625 96.2617 74.0513 95.8448 74.0513 95.351C74.0513 94.9259 74.1331 94.5761 74.2966 94.3014C74.4601 94.0267 74.6808 93.8093 74.9587 93.649C75.2367 93.4888 75.5473 93.3678 75.8906 93.2861C76.234 93.2043 76.5839 93.1422 76.9403 93.0997C77.3915 93.0474 77.7578 93.0049 78.039 92.9722C78.3202 92.9362 78.5246 92.879 78.6521 92.8005C78.7796 92.722 78.8434 92.5945 78.8434 92.4179V92.3836C78.8434 91.9552 78.7224 91.6233 78.4804 91.3879C78.2417 91.1525 77.8853 91.0348 77.4111 91.0348C76.9174 91.0348 76.5283 91.1443 76.2438 91.3634C75.9626 91.5792 75.768 91.8195 75.6601 92.0844L74.2818 91.7705C74.4453 91.3127 74.684 90.9432 74.998 90.662C75.3151 90.3775 75.6797 90.1715 76.0917 90.044C76.5038 89.9132 76.937 89.8478 77.3915 89.8478C77.6924 89.8478 78.0112 89.8837 78.348 89.9557C78.688 90.0244 79.0052 90.1519 79.2995 90.3383C79.5971 90.5246 79.8407 90.7911 80.0303 91.1378C80.22 91.4811 80.3148 91.9274 80.3148 92.4768V97.4797H78.8826V96.4497H78.8237C78.7289 96.6394 78.5867 96.8258 78.397 97.0089C78.2074 97.192 77.9638 97.344 77.6662 97.465C77.3686 97.586 77.0122 97.6465 76.5969 97.6465ZM76.9158 96.4693C77.3212 96.4693 77.6678 96.3892 77.9556 96.229C78.2466 96.0688 78.4673 95.8595 78.6177 95.6012C78.7714 95.3396 78.8483 95.06 78.8483 94.7624V93.7913C78.796 93.8436 78.6946 93.8926 78.5442 93.9384C78.397 93.9809 78.2286 94.0185 78.039 94.0512C77.8493 94.0807 77.6646 94.1085 77.4847 94.1346C77.3049 94.1575 77.1545 94.1771 77.0335 94.1935C76.749 94.2294 76.489 94.2899 76.2536 94.375C76.0214 94.46 75.8351 94.5826 75.6944 94.7428C75.5571 94.8998 75.4884 95.1091 75.4884 95.3706C75.4884 95.7336 75.6225 96.0083 75.8906 96.1947C76.1588 96.3778 76.5005 96.4693 76.9158 96.4693Z" fill="black"/>
<path d="M165.872 97.6171C165.424 97.6105 164.982 97.5288 164.547 97.3718C164.116 97.2149 163.723 96.9533 163.37 96.5871C163.017 96.2208 162.734 95.7287 162.522 95.1107C162.313 94.4927 162.208 93.721 162.208 92.7956C162.208 91.9193 162.295 91.141 162.468 90.4609C162.644 89.7807 162.898 89.2069 163.228 88.7393C163.558 88.2684 163.957 87.9104 164.425 87.6651C164.892 87.4199 165.417 87.2972 165.999 87.2972C166.598 87.2972 167.129 87.415 167.593 87.6504C168.058 87.8858 168.434 88.2112 168.722 88.6265C169.013 89.0417 169.197 89.5142 169.276 90.044H167.78C167.678 89.6254 167.477 89.2837 167.177 89.0189C166.876 88.754 166.483 88.6216 165.999 88.6216C165.264 88.6216 164.69 88.942 164.278 89.5829C163.869 90.2238 163.663 91.1149 163.66 92.2561H163.733C163.907 91.9716 164.119 91.7296 164.371 91.5301C164.626 91.3274 164.91 91.1721 165.224 91.0642C165.542 90.953 165.875 90.8974 166.225 90.8974C166.807 90.8974 167.333 91.0397 167.804 91.3241C168.278 91.6053 168.656 91.9945 168.937 92.4915C169.219 92.9885 169.359 93.5575 169.359 94.1984C169.359 94.8393 169.214 95.4197 168.923 95.9396C168.635 96.4595 168.229 96.8715 167.706 97.1756C167.183 97.4765 166.572 97.6236 165.872 97.6171ZM165.867 96.3418C166.253 96.3418 166.598 96.247 166.902 96.0573C167.206 95.8677 167.446 95.6126 167.623 95.2922C167.799 94.9717 167.888 94.6137 167.888 94.218C167.888 93.8322 167.801 93.4806 167.628 93.1635C167.458 92.8463 167.222 92.5945 166.921 92.4081C166.624 92.2217 166.284 92.1285 165.901 92.1285C165.61 92.1285 165.34 92.1841 165.092 92.2953C164.847 92.4065 164.631 92.5602 164.444 92.7564C164.258 92.9526 164.111 93.1782 164.003 93.4332C163.898 93.685 163.846 93.9515 163.846 94.2327C163.846 94.6088 163.933 94.957 164.106 95.2775C164.283 95.5979 164.523 95.8562 164.827 96.0524C165.134 96.2453 165.481 96.3418 165.867 96.3418ZM174.643 97.6465C173.868 97.6432 173.206 97.4389 172.656 97.0334C172.107 96.6279 171.687 96.0377 171.396 95.2627C171.105 94.4878 170.959 93.5542 170.959 92.4621C170.959 91.3732 171.105 90.4429 171.396 89.6712C171.69 88.8995 172.112 88.3109 172.661 87.9055C173.214 87.5 173.874 87.2972 174.643 87.2972C175.411 87.2972 176.07 87.5016 176.62 87.9104C177.169 88.3158 177.589 88.9044 177.88 89.6761C178.174 90.4445 178.322 91.3732 178.322 92.4621C178.322 93.5575 178.176 94.4927 177.885 95.2676C177.594 96.0393 177.174 96.6296 176.624 97.0383C176.075 97.4438 175.415 97.6465 174.643 97.6465ZM174.643 96.3369C175.323 96.3369 175.854 96.005 176.237 95.3412C176.623 94.6774 176.816 93.7177 176.816 92.4621C176.816 91.6282 176.727 90.9236 176.551 90.3481C176.378 89.7693 176.127 89.3311 175.8 89.0336C175.477 88.7327 175.091 88.5823 174.643 88.5823C173.966 88.5823 173.435 88.9159 173.049 89.5829C172.663 90.25 172.468 91.2097 172.465 92.4621C172.465 93.2992 172.552 94.0071 172.725 94.5859C172.902 95.1614 173.152 95.5979 173.476 95.8955C173.799 96.1898 174.188 96.3369 174.643 96.3369ZM185.305 95.5963V95.0665C185.305 94.6872 185.383 94.3406 185.54 94.0267C185.701 93.7095 185.933 93.4561 186.237 93.2665C186.544 93.0735 186.915 92.9771 187.35 92.9771C187.795 92.9771 188.168 93.0719 188.468 93.2616C188.769 93.4512 188.997 93.7046 189.15 94.0218C189.307 94.339 189.386 94.6872 189.386 95.0665V95.5963C189.386 95.9756 189.307 96.3238 189.15 96.641C188.993 96.9549 188.763 97.2083 188.459 97.4013C188.158 97.5909 187.788 97.6857 187.35 97.6857C186.909 97.6857 186.536 97.5909 186.232 97.4013C185.928 97.2083 185.697 96.9549 185.54 96.641C185.383 96.3238 185.305 95.9756 185.305 95.5963ZM186.448 95.0665V95.5963C186.448 95.8775 186.515 96.1325 186.649 96.3614C186.783 96.5903 187.017 96.7048 187.35 96.7048C187.68 96.7048 187.911 96.5903 188.042 96.3614C188.173 96.1325 188.238 95.8775 188.238 95.5963V95.0665C188.238 94.7853 188.174 94.5303 188.047 94.3014C187.922 94.0725 187.69 93.958 187.35 93.958C187.023 93.958 186.791 94.0725 186.654 94.3014C186.516 94.5303 186.448 94.7853 186.448 95.0665ZM180.253 89.8478V89.3181C180.253 88.9387 180.331 88.5905 180.488 88.2733C180.649 87.9561 180.881 87.7027 181.185 87.5131C181.492 87.3234 181.863 87.2286 182.298 87.2286C182.743 87.2286 183.116 87.3234 183.416 87.5131C183.717 87.7027 183.945 87.9561 184.098 88.2733C184.252 88.5905 184.329 88.9387 184.329 89.3181V89.8478C184.329 90.2271 184.25 90.5753 184.093 90.8925C183.94 91.2064 183.711 91.4598 183.407 91.6528C183.106 91.8424 182.736 91.9372 182.298 91.9372C181.853 91.9372 181.479 91.8424 181.175 91.6528C180.874 91.4598 180.645 91.2064 180.488 90.8925C180.331 90.5753 180.253 90.2271 180.253 89.8478ZM181.401 89.3181V89.8478C181.401 90.129 181.466 90.384 181.597 90.6129C181.731 90.8418 181.965 90.9563 182.298 90.9563C182.625 90.9563 182.854 90.8418 182.985 90.6129C183.119 90.384 183.186 90.129 183.186 89.8478V89.3181C183.186 89.0368 183.122 88.7818 182.995 88.5529C182.867 88.324 182.635 88.2096 182.298 88.2096C181.971 88.2096 181.739 88.324 181.602 88.5529C181.468 88.7818 181.401 89.0368 181.401 89.3181ZM180.719 97.4797L187.625 87.4346H188.797L181.891 97.4797H180.719Z" fill="#979797"/>
<rect x="250.386" y="171.956" width="161.141" height="11.5101" rx="5.75503" fill="#F1F2F6"/>
<rect x="250.386" y="171.956" width="50.6443" height="11.5101" rx="5.75503" fill="#3B83EF"/>
<path d="M251.489 158.483V148.438H255.07C255.851 148.438 256.499 148.58 257.012 148.865C257.526 149.149 257.91 149.538 258.165 150.032C258.42 150.523 258.547 151.075 258.547 151.69C258.547 152.308 258.418 152.864 258.16 153.358C257.905 153.848 257.519 154.237 257.002 154.525C256.489 154.809 255.843 154.952 255.065 154.952H252.603V153.667H254.928C255.421 153.667 255.822 153.582 256.129 153.412C256.437 153.238 256.662 153.003 256.806 152.705C256.95 152.408 257.022 152.069 257.022 151.69C257.022 151.311 256.95 150.974 256.806 150.68C256.662 150.385 256.435 150.155 256.124 149.988C255.817 149.821 255.412 149.738 254.908 149.738H253.005V158.483H251.489ZM263.286 158.635C262.579 158.635 261.963 158.473 261.436 158.15C260.91 157.826 260.501 157.373 260.21 156.791C259.919 156.209 259.774 155.529 259.774 154.751C259.774 153.969 259.919 153.286 260.21 152.7C260.501 152.115 260.91 151.66 261.436 151.337C261.963 151.013 262.579 150.851 263.286 150.851C263.992 150.851 264.608 151.013 265.135 151.337C265.661 151.66 266.07 152.115 266.361 152.7C266.652 153.286 266.797 153.969 266.797 154.751C266.797 155.529 266.652 156.209 266.361 156.791C266.07 157.373 265.661 157.826 265.135 158.15C264.608 158.473 263.992 158.635 263.286 158.635ZM263.29 157.404C263.748 157.404 264.128 157.283 264.428 157.041C264.729 156.799 264.952 156.477 265.095 156.075C265.243 155.673 265.316 155.23 265.316 154.746C265.316 154.265 265.243 153.824 265.095 153.421C264.952 153.016 264.729 152.691 264.428 152.445C264.128 152.2 263.748 152.077 263.29 152.077C262.829 152.077 262.447 152.2 262.143 152.445C261.842 152.691 261.618 153.016 261.471 153.421C261.327 153.824 261.255 154.265 261.255 154.746C261.255 155.23 261.327 155.673 261.471 156.075C261.618 156.477 261.842 156.799 262.143 157.041C262.447 157.283 262.829 157.404 263.29 157.404ZM271.608 158.635C270.879 158.635 270.251 158.47 269.724 158.14C269.201 157.806 268.799 157.347 268.518 156.762C268.237 156.176 268.096 155.506 268.096 154.751C268.096 153.985 268.24 153.31 268.528 152.725C268.815 152.136 269.221 151.677 269.744 151.347C270.267 151.016 270.884 150.851 271.593 150.851C272.165 150.851 272.675 150.957 273.123 151.17C273.571 151.379 273.933 151.674 274.207 152.053C274.485 152.432 274.65 152.875 274.703 153.382H273.275C273.197 153.029 273.017 152.725 272.736 152.47C272.458 152.215 272.085 152.087 271.618 152.087C271.209 152.087 270.851 152.195 270.543 152.411C270.239 152.623 270.002 152.928 269.832 153.323C269.662 153.716 269.577 154.18 269.577 154.716C269.577 155.266 269.661 155.74 269.827 156.139C269.994 156.538 270.23 156.847 270.534 157.066C270.841 157.285 271.202 157.394 271.618 157.394C271.896 157.394 272.147 157.344 272.373 157.242C272.602 157.138 272.793 156.989 272.947 156.796C273.104 156.603 273.213 156.371 273.275 156.099H274.703C274.65 156.587 274.492 157.022 274.227 157.404C273.962 157.787 273.607 158.087 273.163 158.307C272.721 158.526 272.203 158.635 271.608 158.635ZM275.701 152.215V150.949H282.058V152.215H279.6V158.483H278.168V152.215H275.701ZM286.432 158.635C285.725 158.635 285.109 158.473 284.582 158.15C284.056 157.826 283.647 157.373 283.356 156.791C283.065 156.209 282.92 155.529 282.92 154.751C282.92 153.969 283.065 153.286 283.356 152.7C283.647 152.115 284.056 151.66 284.582 151.337C285.109 151.013 285.725 150.851 286.432 150.851C287.138 150.851 287.754 151.013 288.281 151.337C288.807 151.66 289.216 152.115 289.507 152.7C289.798 153.286 289.943 153.969 289.943 154.751C289.943 155.529 289.798 156.209 289.507 156.791C289.216 157.373 288.807 157.826 288.281 158.15C287.754 158.473 287.138 158.635 286.432 158.635ZM286.436 157.404C286.894 157.404 287.274 157.283 287.574 157.041C287.875 156.799 288.098 156.477 288.241 156.075C288.389 155.673 288.462 155.23 288.462 154.746C288.462 154.265 288.389 153.824 288.241 153.421C288.098 153.016 287.875 152.691 287.574 152.445C287.274 152.2 286.894 152.077 286.436 152.077C285.975 152.077 285.593 152.2 285.289 152.445C284.988 152.691 284.764 153.016 284.617 153.421C284.473 153.824 284.401 154.265 284.401 154.746C284.401 155.23 284.473 155.673 284.617 156.075C284.764 156.477 284.988 156.799 285.289 157.041C285.593 157.283 285.975 157.404 286.436 157.404ZM291.58 158.483V150.949H294.705C295.555 150.949 296.229 151.131 296.726 151.494C297.223 151.853 297.471 152.342 297.471 152.96C297.471 153.402 297.331 153.752 297.049 154.01C296.768 154.268 296.395 154.442 295.931 154.53C296.268 154.569 296.577 154.67 296.858 154.834C297.139 154.994 297.365 155.21 297.535 155.481C297.708 155.753 297.795 156.077 297.795 156.453C297.795 156.851 297.692 157.205 297.486 157.512C297.28 157.816 296.981 158.055 296.588 158.228C296.199 158.398 295.73 158.483 295.181 158.483H291.58ZM292.959 157.257H295.181C295.544 157.257 295.828 157.17 296.034 156.997C296.24 156.824 296.343 156.588 296.343 156.291C296.343 155.941 296.24 155.666 296.034 155.467C295.828 155.264 295.544 155.163 295.181 155.163H292.959V157.257ZM292.959 154.088H294.72C294.994 154.088 295.23 154.049 295.426 153.971C295.625 153.892 295.777 153.781 295.882 153.637C295.99 153.49 296.044 153.317 296.044 153.117C296.044 152.826 295.924 152.599 295.686 152.435C295.447 152.272 295.12 152.19 294.705 152.19H292.959V154.088Z" fill="black"/>
<path d="M386.869 158.62C386.195 158.62 385.593 158.504 385.064 158.272C384.537 158.04 384.12 157.718 383.813 157.306C383.509 156.891 383.345 156.41 383.322 155.864H384.863C384.882 156.162 384.982 156.42 385.162 156.639C385.345 156.855 385.584 157.022 385.878 157.139C386.172 157.257 386.499 157.316 386.859 157.316C387.255 157.316 387.604 157.247 387.908 157.11C388.216 156.972 388.456 156.781 388.629 156.536C388.803 156.287 388.889 156.001 388.889 155.678C388.889 155.341 388.803 155.045 388.629 154.79C388.459 154.531 388.209 154.329 387.879 154.182C387.552 154.034 387.156 153.961 386.692 153.961H385.844V152.725H386.692C387.065 152.725 387.392 152.658 387.673 152.524C387.958 152.39 388.18 152.203 388.34 151.965C388.5 151.723 388.58 151.44 388.58 151.116C388.58 150.805 388.51 150.536 388.37 150.307C388.232 150.075 388.036 149.893 387.781 149.762C387.529 149.632 387.232 149.566 386.888 149.566C386.561 149.566 386.256 149.627 385.971 149.748C385.69 149.865 385.461 150.035 385.284 150.258C385.108 150.477 385.013 150.74 385 151.047H383.533C383.55 150.505 383.71 150.027 384.014 149.615C384.321 149.203 384.727 148.881 385.23 148.649C385.734 148.417 386.293 148.301 386.908 148.301C387.552 148.301 388.108 148.427 388.576 148.678C389.046 148.927 389.409 149.259 389.664 149.674C389.923 150.089 390.05 150.544 390.047 151.038C390.05 151.6 389.893 152.077 389.576 152.47C389.262 152.862 388.844 153.125 388.32 153.259V153.338C388.988 153.439 389.504 153.704 389.87 154.133C390.24 154.561 390.423 155.092 390.42 155.727C390.423 156.279 390.269 156.775 389.959 157.213C389.651 157.651 389.231 157.996 388.698 158.248C388.165 158.496 387.555 158.62 386.869 158.62ZM395.781 158.62C395.333 158.614 394.891 158.532 394.456 158.375C394.025 158.218 393.632 157.957 393.279 157.59C392.926 157.224 392.643 156.732 392.431 156.114C392.221 155.496 392.117 154.724 392.117 153.799C392.117 152.923 392.204 152.144 392.377 151.464C392.553 150.784 392.807 150.21 393.137 149.743C393.467 149.272 393.866 148.914 394.334 148.669C394.801 148.423 395.326 148.301 395.908 148.301C396.507 148.301 397.038 148.418 397.502 148.654C397.967 148.889 398.343 149.215 398.631 149.63C398.922 150.045 399.106 150.518 399.185 151.047H397.689C397.587 150.629 397.386 150.287 397.085 150.022C396.785 149.757 396.392 149.625 395.908 149.625C395.173 149.625 394.599 149.945 394.187 150.586C393.778 151.227 393.572 152.118 393.569 153.259H393.642C393.816 152.975 394.028 152.733 394.28 152.534C394.535 152.331 394.819 152.176 395.133 152.068C395.451 151.956 395.784 151.901 396.134 151.901C396.716 151.901 397.242 152.043 397.713 152.328C398.187 152.609 398.565 152.998 398.846 153.495C399.128 153.992 399.268 154.561 399.268 155.202C399.268 155.843 399.123 156.423 398.832 156.943C398.544 157.463 398.138 157.875 397.615 158.179C397.092 158.48 396.481 158.627 395.781 158.62ZM395.776 157.345C396.162 157.345 396.507 157.25 396.811 157.061C397.115 156.871 397.355 156.616 397.532 156.296C397.708 155.975 397.797 155.617 397.797 155.221C397.797 154.836 397.71 154.484 397.537 154.167C397.367 153.85 397.131 153.598 396.83 153.412C396.533 153.225 396.193 153.132 395.81 153.132C395.519 153.132 395.249 153.188 395.001 153.299C394.756 153.41 394.54 153.564 394.353 153.76C394.167 153.956 394.02 154.182 393.912 154.437C393.807 154.688 393.755 154.955 393.755 155.236C393.755 155.612 393.842 155.96 394.015 156.281C394.192 156.601 394.432 156.86 394.736 157.056C395.043 157.249 395.39 157.345 395.776 157.345ZM406.298 156.6V156.07C406.298 155.691 406.377 155.344 406.533 155.03C406.694 154.713 406.926 154.46 407.23 154.27C407.537 154.077 407.908 153.98 408.343 153.98C408.788 153.98 409.161 154.075 409.462 154.265C409.762 154.455 409.99 154.708 410.143 155.025C410.3 155.342 410.379 155.691 410.379 156.07V156.6C410.379 156.979 410.3 157.327 410.143 157.644C409.986 157.958 409.756 158.212 409.452 158.405C409.151 158.594 408.782 158.689 408.343 158.689C407.902 158.689 407.529 158.594 407.225 158.405C406.921 158.212 406.69 157.958 406.533 157.644C406.377 157.327 406.298 156.979 406.298 156.6ZM407.441 156.07V156.6C407.441 156.881 407.508 157.136 407.642 157.365C407.776 157.594 408.01 157.708 408.343 157.708C408.674 157.708 408.904 157.594 409.035 157.365C409.166 157.136 409.231 156.881 409.231 156.6V156.07C409.231 155.789 409.167 155.534 409.04 155.305C408.916 155.076 408.683 154.961 408.343 154.961C408.016 154.961 407.784 155.076 407.647 155.305C407.51 155.534 407.441 155.789 407.441 156.07ZM401.246 150.851V150.321C401.246 149.942 401.324 149.594 401.481 149.277C401.642 148.96 401.874 148.706 402.178 148.516C402.485 148.327 402.856 148.232 403.291 148.232C403.736 148.232 404.109 148.327 404.41 148.516C404.71 148.706 404.938 148.96 405.091 149.277C405.245 149.594 405.322 149.942 405.322 150.321V150.851C405.322 151.231 405.243 151.579 405.087 151.896C404.933 152.21 404.704 152.463 404.4 152.656C404.099 152.846 403.73 152.941 403.291 152.941C402.847 152.941 402.472 152.846 402.168 152.656C401.867 152.463 401.638 152.21 401.481 151.896C401.324 151.579 401.246 151.231 401.246 150.851ZM402.394 150.321V150.851C402.394 151.132 402.459 151.387 402.59 151.616C402.724 151.845 402.958 151.96 403.291 151.96C403.618 151.96 403.847 151.845 403.978 151.616C404.112 151.387 404.179 151.132 404.179 150.851V150.321C404.179 150.04 404.115 149.785 403.988 149.556C403.86 149.327 403.628 149.213 403.291 149.213C402.964 149.213 402.732 149.327 402.595 149.556C402.461 149.785 402.394 150.04 402.394 150.321ZM401.712 158.483L408.618 148.438H409.79L402.884 158.483H401.712Z" fill="#979797"/>
<rect x="29.3926" y="234.111" width="161.141" height="11.5101" rx="5.75503" fill="#F1F2F6"/>
<rect x="29.3926" y="234.111" width="69.0604" height="11.5101" rx="5.75503" fill="#3B83EF"/>
<path d="M30.4962 221.789V211.743H36.794V213.048H32.0118V216.109H36.4654V217.409H32.0118V220.484H36.8529V221.789H30.4962ZM38.7008 221.789V214.255H40.1673V217.413H40.8736L43.3604 214.255H45.1752L42.2568 217.919L45.2095 221.789H43.3898L41.1189 218.777H40.1673V221.789H38.7008ZM48.5411 221.955C48.0637 221.955 47.6321 221.867 47.2463 221.69C46.8604 221.511 46.5547 221.251 46.3291 220.911C46.1067 220.571 45.9955 220.154 45.9955 219.66C45.9955 219.235 46.0773 218.885 46.2408 218.61C46.4043 218.336 46.625 218.118 46.9029 217.958C47.1809 217.798 47.4915 217.677 47.8348 217.595C48.1782 217.513 48.5281 217.451 48.8845 217.409C49.3357 217.356 49.702 217.314 49.9832 217.281C50.2644 217.245 50.4688 217.188 50.5963 217.109C50.7238 217.031 50.7876 216.903 50.7876 216.727V216.692C50.7876 216.264 50.6666 215.932 50.4246 215.697C50.1859 215.461 49.8295 215.344 49.3554 215.344C48.8616 215.344 48.4725 215.453 48.188 215.672C47.9068 215.888 47.7122 216.128 47.6043 216.393L46.2261 216.079C46.3896 215.622 46.6283 215.252 46.9422 214.971C47.2593 214.686 47.6239 214.48 48.0359 214.353C48.448 214.222 48.8812 214.157 49.3357 214.157C49.6366 214.157 49.9554 214.193 50.2922 214.265C50.6323 214.333 50.9494 214.461 51.2437 214.647C51.5413 214.833 51.7849 215.1 51.9745 215.447C52.1642 215.79 52.259 216.236 52.259 216.786V221.789H50.8268V220.759H50.768C50.6731 220.948 50.5309 221.135 50.3412 221.318C50.1516 221.501 49.908 221.653 49.6104 221.774C49.3128 221.895 48.9564 221.955 48.5411 221.955ZM48.86 220.778C49.2654 220.778 49.612 220.698 49.8998 220.538C50.1908 220.378 50.4115 220.168 50.562 219.91C50.7156 219.648 50.7925 219.369 50.7925 219.071V218.1C50.7402 218.152 50.6388 218.201 50.4884 218.247C50.3412 218.29 50.1728 218.327 49.9832 218.36C49.7935 218.39 49.6088 218.417 49.4289 218.443C49.2491 218.466 49.0987 218.486 48.9777 218.502C48.6932 218.538 48.4332 218.599 48.1978 218.684C47.9656 218.769 47.7793 218.891 47.6387 219.052C47.5013 219.209 47.4327 219.418 47.4327 219.679C47.4327 220.042 47.5667 220.317 47.8348 220.504C48.103 220.687 48.4447 220.778 48.86 220.778ZM53.278 215.52V214.255H59.6347V215.52H57.1774V221.789H55.7452V215.52H53.278ZM64.0822 221.941C63.3399 221.941 62.7007 221.782 62.1644 221.465C61.6314 221.144 61.2194 220.695 60.9284 220.116C60.6406 219.534 60.4967 218.852 60.4967 218.071C60.4967 217.299 60.6406 216.619 60.9284 216.03C61.2194 215.442 61.6249 214.982 62.1448 214.652C62.668 214.322 63.2794 214.157 63.9792 214.157C64.4043 214.157 64.8163 214.227 65.2152 214.368C65.6141 214.508 65.9722 214.729 66.2894 215.03C66.6066 215.331 66.8567 215.721 67.0398 216.202C67.2229 216.679 67.3145 217.26 67.3145 217.943V218.463H61.3257V217.364H65.8774C65.8774 216.979 65.7989 216.637 65.6419 216.339C65.485 216.038 65.2643 215.801 64.9798 215.628C64.6986 215.455 64.3683 215.368 63.989 215.368C63.577 215.368 63.2173 215.469 62.9099 215.672C62.6058 215.872 62.3704 216.133 62.2036 216.457C62.0401 216.777 61.9584 217.126 61.9584 217.502V218.36C61.9584 218.864 62.0467 219.292 62.2233 219.645C62.4031 219.998 62.6532 220.268 62.9737 220.454C63.2941 220.638 63.6686 220.729 64.0969 220.729C64.3749 220.729 64.6283 220.69 64.8572 220.611C65.0861 220.53 65.2839 220.409 65.4506 220.248C65.6174 220.088 65.7449 219.89 65.8332 219.655L67.2213 219.905C67.1101 220.314 66.9107 220.672 66.6229 220.979C66.3384 221.283 65.9804 221.52 65.5487 221.69C65.1204 221.857 64.6315 221.941 64.0822 221.941ZM68.9417 224.614V214.255H70.3739V215.476H70.4965C70.5815 215.319 70.7042 215.138 70.8644 214.932C71.0246 214.726 71.247 214.546 71.5314 214.392C71.8159 214.235 72.192 214.157 72.6596 214.157C73.2678 214.157 73.8106 214.31 74.288 214.618C74.7654 214.925 75.1398 215.368 75.4112 215.947C75.6859 216.526 75.8232 217.222 75.8232 218.036C75.8232 218.851 75.6875 219.549 75.4161 220.131C75.1447 220.71 74.7719 221.156 74.2978 221.47C73.8237 221.78 73.2825 221.936 72.6743 221.936C72.2165 221.936 71.8421 221.859 71.5511 221.705C71.2633 221.552 71.0377 221.372 70.8742 221.166C70.7107 220.96 70.5848 220.777 70.4965 220.616H70.4082V224.614H68.9417ZM70.3788 218.022C70.3788 218.551 70.4556 219.016 70.6093 219.415C70.763 219.814 70.9854 220.126 71.2764 220.351C71.5674 220.574 71.9238 220.685 72.3457 220.685C72.7838 220.685 73.1501 220.569 73.4443 220.337C73.7386 220.101 73.961 219.782 74.1114 219.38C74.2651 218.978 74.3419 218.525 74.3419 218.022C74.3419 217.525 74.2667 217.078 74.1163 216.683C73.9692 216.287 73.7468 215.975 73.4492 215.746C73.155 215.517 72.7871 215.402 72.3457 215.402C71.9206 215.402 71.5609 215.512 71.2666 215.731C70.9756 215.95 70.7548 216.256 70.6044 216.648C70.454 217.041 70.3788 217.498 70.3788 218.022ZM80.7133 221.941C79.9711 221.941 79.3318 221.782 78.7955 221.465C78.2626 221.144 77.8505 220.695 77.5595 220.116C77.2718 219.534 77.1279 218.852 77.1279 218.071C77.1279 217.299 77.2718 216.619 77.5595 216.03C77.8505 215.442 78.256 214.982 78.7759 214.652C79.2991 214.322 79.9106 214.157 80.6103 214.157C81.0354 214.157 81.4474 214.227 81.8464 214.368C82.2453 214.508 82.6034 214.729 82.9205 215.03C83.2377 215.331 83.4879 215.721 83.671 216.202C83.8541 216.679 83.9456 217.26 83.9456 217.943V218.463H77.9568V217.364H82.5085C82.5085 216.979 82.43 216.637 82.2731 216.339C82.1161 216.038 81.8954 215.801 81.6109 215.628C81.3297 215.455 80.9995 215.368 80.6202 215.368C80.2081 215.368 79.8485 215.469 79.5411 215.672C79.237 215.872 79.0016 216.133 78.8348 216.457C78.6713 216.777 78.5895 217.126 78.5895 217.502V218.36C78.5895 218.864 78.6778 219.292 78.8544 219.645C79.0343 219.998 79.2844 220.268 79.6048 220.454C79.9253 220.638 80.2997 220.729 80.7281 220.729C81.006 220.729 81.2594 220.69 81.4883 220.611C81.7172 220.53 81.915 220.409 82.0818 220.248C82.2486 220.088 82.3761 219.89 82.4644 219.655L83.8525 219.905C83.7413 220.314 83.5418 220.672 83.2541 220.979C82.9696 221.283 82.6115 221.52 82.1799 221.69C81.7515 221.857 81.2627 221.941 80.7133 221.941ZM90.6788 217.389V218.659H86.598V217.389H90.6788ZM87.01 214.255V221.789H85.5728V214.255H87.01ZM91.7039 214.255V221.789H90.2717V214.255H91.7039ZM99.4781 211.449L100.086 212.376C99.8607 212.582 99.604 212.729 99.3163 212.818C99.0318 212.903 98.7031 212.957 98.3304 212.979C97.9576 212.999 97.5309 213.017 97.0502 213.033C96.5074 213.05 96.0611 213.167 95.7112 213.387C95.3613 213.602 95.0915 213.923 94.9019 214.348C94.7155 214.77 94.5945 215.299 94.5389 215.937H94.6321C94.8774 215.469 95.2174 215.12 95.6523 214.887C96.0905 214.655 96.5826 214.539 97.1287 214.539C97.7369 214.539 98.2781 214.678 98.7522 214.956C99.2263 215.234 99.5991 215.641 99.8705 216.177C100.145 216.71 100.283 217.363 100.283 218.134C100.283 218.916 100.139 219.591 99.8509 220.16C99.5664 220.729 99.1642 221.169 98.6443 221.48C98.1276 221.787 97.5178 221.941 96.8148 221.941C96.1117 221.941 95.4986 221.782 94.9755 221.465C94.4555 221.144 94.0517 220.67 93.764 220.042C93.4795 219.415 93.3372 218.64 93.3372 217.718V216.972C93.3372 215.249 93.6446 213.952 94.2593 213.082C94.8741 212.213 95.7929 211.766 97.0159 211.743C97.4115 211.734 97.7647 211.732 98.0753 211.739C98.386 211.742 98.6574 211.727 98.8895 211.694C99.125 211.658 99.3212 211.577 99.4781 211.449ZM96.8197 220.71C97.2284 220.71 97.5799 220.607 97.8742 220.4C98.1718 220.191 98.4007 219.895 98.5609 219.513C98.7211 219.13 98.8012 218.679 98.8012 218.159C98.8012 217.649 98.7211 217.216 98.5609 216.859C98.4007 216.503 98.1718 216.231 97.8742 216.045C97.5767 215.855 97.2202 215.761 96.805 215.761C96.4976 215.761 96.2229 215.814 95.9809 215.922C95.739 216.027 95.5313 216.182 95.358 216.388C95.188 216.594 95.0556 216.846 94.9607 217.144C94.8692 217.438 94.8201 217.776 94.8136 218.159C94.8136 218.937 94.9918 219.557 95.3482 220.018C95.7079 220.479 96.1984 220.71 96.8197 220.71ZM102.848 224.614C102.629 224.614 102.429 224.596 102.249 224.56C102.07 224.527 101.935 224.491 101.847 224.452L102.2 223.25C102.468 223.322 102.707 223.353 102.916 223.343C103.126 223.334 103.31 223.255 103.471 223.108C103.634 222.961 103.778 222.72 103.902 222.387L104.084 221.887L101.327 214.255H102.897L104.805 220.101H104.883L106.791 214.255H108.366L105.261 222.794C105.117 223.186 104.934 223.518 104.712 223.79C104.489 224.064 104.224 224.27 103.917 224.408C103.61 224.545 103.253 224.614 102.848 224.614ZM109.744 224.614V214.255H111.176V215.476H111.299C111.384 215.319 111.506 215.138 111.667 214.932C111.827 214.726 112.049 214.546 112.334 214.392C112.618 214.235 112.994 214.157 113.462 214.157C114.07 214.157 114.613 214.31 115.09 214.618C115.568 214.925 115.942 215.368 116.213 215.947C116.488 216.526 116.625 217.222 116.625 218.036C116.625 218.851 116.49 219.549 116.218 220.131C115.947 220.71 115.574 221.156 115.1 221.47C114.626 221.78 114.085 221.936 113.477 221.936C113.019 221.936 112.644 221.859 112.353 221.705C112.066 221.552 111.84 221.372 111.676 221.166C111.513 220.96 111.387 220.777 111.299 220.616H111.211V224.614H109.744ZM111.181 218.022C111.181 218.551 111.258 219.016 111.412 219.415C111.565 219.814 111.788 220.126 112.079 220.351C112.37 220.574 112.726 220.685 113.148 220.685C113.586 220.685 113.952 220.569 114.247 220.337C114.541 220.101 114.763 219.782 114.914 219.38C115.067 218.978 115.144 218.525 115.144 218.022C115.144 217.525 115.069 217.078 114.919 216.683C114.771 216.287 114.549 215.975 114.252 215.746C113.957 215.517 113.589 215.402 113.148 215.402C112.723 215.402 112.363 215.512 112.069 215.731C111.778 215.95 111.557 216.256 111.407 216.648C111.256 217.041 111.181 217.498 111.181 218.022ZM123.085 214.255V215.52H119.716V221.789H118.269V214.255H123.085Z" fill="black"/>
<path d="M161.911 219.827V218.6L166.252 211.743H167.218V213.548H166.605L163.5 218.463V218.542H169.45V219.827H161.911ZM166.674 221.789V219.454L166.684 218.895V211.743H168.121V221.789H166.674ZM174.656 221.926C173.983 221.926 173.381 221.81 172.851 221.578C172.325 221.346 171.908 221.023 171.601 220.611C171.297 220.196 171.133 219.715 171.11 219.169H172.65C172.67 219.467 172.77 219.725 172.95 219.944C173.133 220.16 173.371 220.327 173.666 220.445C173.96 220.562 174.287 220.621 174.647 220.621C175.042 220.621 175.392 220.553 175.696 220.415C176.004 220.278 176.244 220.087 176.417 219.841C176.591 219.593 176.677 219.307 176.677 218.983C176.677 218.646 176.591 218.35 176.417 218.095C176.247 217.837 175.997 217.634 175.667 217.487C175.34 217.34 174.944 217.266 174.48 217.266H173.631V216.03H174.48C174.853 216.03 175.18 215.963 175.461 215.829C175.745 215.695 175.968 215.509 176.128 215.27C176.288 215.028 176.368 214.745 176.368 214.421C176.368 214.111 176.298 213.841 176.157 213.612C176.02 213.38 175.824 213.199 175.569 213.068C175.317 212.937 175.019 212.872 174.676 212.872C174.349 212.872 174.043 212.932 173.759 213.053C173.478 213.171 173.249 213.341 173.072 213.563C172.896 213.782 172.801 214.045 172.788 214.353H171.321C171.337 213.81 171.498 213.333 171.802 212.921C172.109 212.509 172.515 212.186 173.018 211.954C173.522 211.722 174.081 211.606 174.696 211.606C175.34 211.606 175.896 211.732 176.363 211.984C176.834 212.232 177.197 212.564 177.452 212.979C177.711 213.395 177.838 213.849 177.835 214.343C177.838 214.905 177.681 215.383 177.364 215.775C177.05 216.168 176.631 216.431 176.108 216.565V216.643C176.775 216.745 177.292 217.01 177.658 217.438C178.028 217.866 178.211 218.398 178.208 219.032C178.211 219.585 178.057 220.08 177.746 220.518C177.439 220.956 177.019 221.301 176.486 221.553C175.953 221.802 175.343 221.926 174.656 221.926ZM185.305 219.905V219.375C185.305 218.996 185.383 218.649 185.54 218.336C185.701 218.018 185.933 217.765 186.237 217.575C186.544 217.382 186.915 217.286 187.35 217.286C187.795 217.286 188.168 217.381 188.468 217.57C188.769 217.76 188.997 218.013 189.15 218.331C189.307 218.648 189.386 218.996 189.386 219.375V219.905C189.386 220.284 189.307 220.633 189.15 220.95C188.993 221.264 188.763 221.517 188.459 221.71C188.158 221.9 187.788 221.995 187.35 221.995C186.909 221.995 186.536 221.9 186.232 221.71C185.928 221.517 185.697 221.264 185.54 220.95C185.383 220.633 185.305 220.284 185.305 219.905ZM186.448 219.375V219.905C186.448 220.186 186.515 220.441 186.649 220.67C186.783 220.899 187.017 221.014 187.35 221.014C187.68 221.014 187.911 220.899 188.042 220.67C188.173 220.441 188.238 220.186 188.238 219.905V219.375C188.238 219.094 188.174 218.839 188.047 218.61C187.922 218.381 187.69 218.267 187.35 218.267C187.023 218.267 186.791 218.381 186.654 218.61C186.516 218.839 186.448 219.094 186.448 219.375ZM180.253 214.157V213.627C180.253 213.248 180.331 212.899 180.488 212.582C180.649 212.265 180.881 212.012 181.185 211.822C181.492 211.632 181.863 211.537 182.298 211.537C182.743 211.537 183.116 211.632 183.416 211.822C183.717 212.012 183.945 212.265 184.098 212.582C184.252 212.899 184.329 213.248 184.329 213.627V214.157C184.329 214.536 184.25 214.884 184.093 215.201C183.94 215.515 183.711 215.769 183.407 215.962C183.106 216.151 182.736 216.246 182.298 216.246C181.853 216.246 181.479 216.151 181.175 215.962C180.874 215.769 180.645 215.515 180.488 215.201C180.331 214.884 180.253 214.536 180.253 214.157ZM181.401 213.627V214.157C181.401 214.438 181.466 214.693 181.597 214.922C181.731 215.151 181.965 215.265 182.298 215.265C182.625 215.265 182.854 215.151 182.985 214.922C183.119 214.693 183.186 214.438 183.186 214.157V213.627C183.186 213.346 183.122 213.091 182.995 212.862C182.867 212.633 182.635 212.518 182.298 212.518C181.971 212.518 181.739 212.633 181.602 212.862C181.468 213.091 181.401 213.346 181.401 213.627ZM180.719 221.789L187.625 211.743H188.797L181.891 221.789H180.719Z" fill="#979797"/>
<path d="M345.16 240.937C345.16 242.01 344.964 242.932 344.572 243.703C344.179 244.472 343.642 245.064 342.958 245.479C342.278 245.891 341.505 246.097 340.638 246.097C339.768 246.097 338.992 245.891 338.308 245.479C337.628 245.064 337.092 244.47 336.7 243.699C336.307 242.927 336.111 242.006 336.111 240.937C336.111 239.865 336.307 238.944 336.7 238.176C337.092 237.404 337.628 236.812 338.308 236.4C338.992 235.985 339.768 235.777 340.638 235.777C341.505 235.777 342.278 235.985 342.958 236.4C343.642 236.812 344.179 237.404 344.572 238.176C344.964 238.944 345.16 239.865 345.16 240.937ZM343.66 240.937C343.66 240.12 343.527 239.431 343.262 238.872C343.001 238.31 342.641 237.885 342.183 237.597C341.729 237.306 341.214 237.16 340.638 237.16C340.059 237.16 339.543 237.306 339.088 237.597C338.634 237.885 338.274 238.31 338.009 238.872C337.748 239.431 337.617 240.12 337.617 240.937C337.617 241.755 337.748 242.445 338.009 243.007C338.274 243.566 338.634 243.991 339.088 244.282C339.543 244.57 340.059 244.714 340.638 244.714C341.214 244.714 341.729 244.57 342.183 244.282C342.641 243.991 343.001 243.566 343.262 243.007C343.527 242.445 343.66 241.755 343.66 240.937ZM350.106 246.112C349.377 246.112 348.749 245.947 348.222 245.616C347.699 245.283 347.297 244.823 347.016 244.238C346.734 243.653 346.594 242.982 346.594 242.227C346.594 241.462 346.738 240.787 347.025 240.201C347.313 239.613 347.719 239.153 348.242 238.823C348.765 238.493 349.381 238.328 350.091 238.328C350.663 238.328 351.173 238.434 351.621 238.647C352.069 238.856 352.431 239.15 352.705 239.529C352.983 239.909 353.148 240.352 353.201 240.859H351.773C351.695 240.506 351.515 240.201 351.234 239.946C350.956 239.691 350.583 239.564 350.116 239.564C349.707 239.564 349.349 239.672 349.041 239.888C348.737 240.1 348.5 240.404 348.33 240.8C348.16 241.192 348.075 241.657 348.075 242.193C348.075 242.742 348.158 243.216 348.325 243.615C348.492 244.014 348.727 244.323 349.032 244.542C349.339 244.761 349.7 244.871 350.116 244.871C350.393 244.871 350.645 244.82 350.871 244.719C351.1 244.614 351.291 244.465 351.445 244.272C351.602 244.08 351.711 243.847 351.773 243.576H353.201C353.148 244.063 352.99 244.498 352.725 244.881C352.46 245.263 352.105 245.564 351.661 245.783C351.219 246.002 350.701 246.112 350.106 246.112ZM354.199 239.691V238.426H360.556V239.691H358.098V245.96H356.666V239.691H354.199ZM363.948 246.126C363.471 246.126 363.039 246.038 362.654 245.862C362.268 245.682 361.962 245.422 361.736 245.082C361.514 244.742 361.403 244.325 361.403 243.831C361.403 243.406 361.485 243.056 361.648 242.781C361.812 242.507 362.032 242.289 362.31 242.129C362.588 241.969 362.899 241.848 363.242 241.766C363.585 241.684 363.935 241.622 364.292 241.58C364.743 241.527 365.109 241.485 365.39 241.452C365.672 241.416 365.876 241.359 366.004 241.28C366.131 241.202 366.195 241.074 366.195 240.898V240.864C366.195 240.435 366.074 240.103 365.832 239.868C365.593 239.632 365.237 239.515 364.763 239.515C364.269 239.515 363.88 239.624 363.595 239.843C363.314 240.059 363.12 240.3 363.012 240.564L361.633 240.25C361.797 239.793 362.036 239.423 362.349 239.142C362.667 238.857 363.031 238.651 363.443 238.524C363.855 238.393 364.289 238.328 364.743 238.328C365.044 238.328 365.363 238.364 365.699 238.436C366.04 238.504 366.357 238.632 366.651 238.818C366.949 239.005 367.192 239.271 367.382 239.618C367.572 239.961 367.666 240.407 367.666 240.957V245.96H366.234V244.93H366.175C366.08 245.119 365.938 245.306 365.749 245.489C365.559 245.672 365.315 245.824 365.018 245.945C364.72 246.066 364.364 246.126 363.948 246.126ZM364.267 244.949C364.673 244.949 365.019 244.869 365.307 244.709C365.598 244.549 365.819 244.339 365.969 244.081C366.123 243.82 366.2 243.54 366.2 243.242V242.271C366.147 242.324 366.046 242.373 365.896 242.418C365.749 242.461 365.58 242.499 365.39 242.531C365.201 242.561 365.016 242.588 364.836 242.615C364.656 242.637 364.506 242.657 364.385 242.673C364.101 242.709 363.841 242.77 363.605 242.855C363.373 242.94 363.187 243.063 363.046 243.223C362.909 243.38 362.84 243.589 362.84 243.851C362.84 244.214 362.974 244.488 363.242 244.675C363.51 244.858 363.852 244.949 364.267 244.949ZM369.026 245.96L369.021 244.689H369.291C369.5 244.689 369.675 244.645 369.816 244.557C369.96 244.465 370.077 244.312 370.169 244.096C370.261 243.88 370.331 243.582 370.38 243.203C370.429 242.821 370.465 242.34 370.488 241.761L370.62 238.426H375.878V245.96H374.441V239.691H371.979L371.861 242.252C371.832 242.873 371.768 243.416 371.67 243.88C371.575 244.344 371.436 244.732 371.253 245.043C371.07 245.35 370.834 245.58 370.547 245.734C370.259 245.885 369.909 245.96 369.497 245.96H369.026ZM378.938 241.016H381.125C382.047 241.016 382.757 241.245 383.254 241.702C383.751 242.16 384 242.75 384 243.473C384 243.944 383.888 244.367 383.666 244.743C383.444 245.119 383.118 245.417 382.69 245.636C382.262 245.852 381.74 245.96 381.125 245.96H377.834V238.426H379.271V244.694H381.125C381.547 244.694 381.894 244.585 382.165 244.366C382.437 244.143 382.572 243.86 382.572 243.517C382.572 243.154 382.437 242.858 382.165 242.629C381.894 242.397 381.547 242.281 381.125 242.281H378.938V241.016ZM390.75 241.56V242.83H386.669V241.56H390.75ZM387.081 238.426V245.96H385.644V238.426H387.081ZM391.775 238.426V245.96H390.343V238.426H391.775ZM394.84 241.016H397.028C397.95 241.016 398.66 241.245 399.157 241.702C399.654 242.16 399.902 242.75 399.902 243.473C399.902 243.944 399.791 244.367 399.569 244.743C399.346 245.119 399.021 245.417 398.593 245.636C398.164 245.852 397.643 245.96 397.028 245.96H393.737V238.426H395.174V244.694H397.028C397.45 244.694 397.796 244.585 398.068 244.366C398.339 244.143 398.475 243.86 398.475 243.517C398.475 243.154 398.339 242.858 398.068 242.629C397.796 242.397 397.45 242.281 397.028 242.281H394.84V241.016ZM400.972 245.96V238.426H402.438V245.96H400.972ZM407.653 246.112C406.911 246.112 406.272 245.953 405.735 245.636C405.202 245.316 404.79 244.866 404.499 244.287C404.212 243.705 404.068 243.023 404.068 242.242C404.068 241.47 404.212 240.79 404.499 240.201C404.79 239.613 405.196 239.153 405.716 238.823C406.239 238.493 406.85 238.328 407.55 238.328C407.975 238.328 408.387 238.398 408.786 238.539C409.185 238.679 409.543 238.9 409.86 239.201C410.178 239.502 410.428 239.892 410.611 240.373C410.794 240.85 410.886 241.431 410.886 242.114V242.634H404.897V241.536H409.448C409.448 241.15 409.37 240.808 409.213 240.51C409.056 240.21 408.835 239.973 408.551 239.799C408.27 239.626 407.939 239.539 407.56 239.539C407.148 239.539 406.788 239.641 406.481 239.843C406.177 240.043 405.941 240.304 405.775 240.628C405.611 240.949 405.529 241.297 405.529 241.673V242.531C405.529 243.035 405.618 243.463 405.794 243.816C405.974 244.169 406.224 244.439 406.545 244.626C406.865 244.809 407.24 244.9 407.668 244.9C407.946 244.9 408.199 244.861 408.428 244.783C408.657 244.701 408.855 244.58 409.022 244.42C409.188 244.259 409.316 244.062 409.404 243.826L410.792 244.076C410.681 244.485 410.482 244.843 410.194 245.15C409.909 245.455 409.551 245.692 409.12 245.862C408.691 246.028 408.203 246.112 407.653 246.112Z" fill="#0450C0"/>
<path d="M335.331 248.706H411.533V249.648H335.331V248.706Z" fill="#0450C0"/>
</svg>
