<svg width="333" height="279" viewBox="0 0 333 279" fill="none" xmlns="http://www.w3.org/2000/svg">
<rect x="0.661133" y="0.0803223" width="331.49" height="278.544" rx="14.9631" fill="white"/>
<path d="M44.5121 40.522H40.9315C40.8661 40.0587 40.7326 39.6473 40.531 39.2876C40.3293 38.9224 40.0704 38.6118 39.7544 38.3557C39.4383 38.0995 39.0731 37.9033 38.6589 37.7671C38.2502 37.6308 37.806 37.5627 37.3264 37.5627C36.4599 37.5627 35.7051 37.778 35.062 38.2085C34.419 38.6336 33.9203 39.2549 33.5661 40.0724C33.2118 40.8844 33.0347 41.8708 33.0347 43.0316C33.0347 44.2251 33.2118 45.2279 33.5661 46.0399C33.9257 46.852 34.4271 47.4651 35.0702 47.8793C35.7133 48.2935 36.4572 48.5005 37.3019 48.5005C37.7761 48.5005 38.2148 48.4379 38.6181 48.3125C39.0268 48.1872 39.3892 48.0046 39.7053 47.7648C40.0214 47.5196 40.283 47.2226 40.4901 46.8738C40.7026 46.525 40.8498 46.1271 40.9315 45.6803L44.5121 45.6966C44.4194 46.465 44.1878 47.2062 43.8172 47.9201C43.4521 48.6286 42.9589 49.2635 42.3376 49.8249C41.7217 50.3807 40.986 50.8222 40.1304 51.1492C39.2802 51.4707 38.3183 51.6315 37.2447 51.6315C35.7514 51.6315 34.4162 51.2936 33.2391 50.6178C32.0673 49.942 31.1409 48.9638 30.4596 47.6831C29.7839 46.4024 29.446 44.8519 29.446 43.0316C29.446 41.2059 29.7893 39.6527 30.476 38.372C31.1627 37.0913 32.0946 36.1158 33.2718 35.4454C34.4489 34.7697 35.7732 34.4318 37.2447 34.4318C38.2148 34.4318 39.114 34.568 39.9424 34.8405C40.7762 35.113 41.5147 35.5108 42.1577 36.034C42.8008 36.5518 43.324 37.1867 43.7273 37.9387C44.136 38.6908 44.3976 39.5519 44.5121 40.522ZM63.2098 38.8461V51.4026H59.9072V38.8461H63.2098ZM61.5994 44.3559V47.1027C61.3323 47.2226 60.9999 47.337 60.602 47.446C60.2042 47.5495 59.7873 47.634 59.3513 47.6994C58.9153 47.7648 58.5066 47.7975 58.1251 47.7975C56.3212 47.7975 54.9015 47.4269 53.866 46.6857C52.8306 45.9391 52.3128 44.7483 52.3128 43.1134V38.8298H55.5991V43.1134C55.5991 43.5984 55.6808 43.9826 55.8443 44.266C56.0133 44.5494 56.2803 44.7538 56.6455 44.8791C57.016 44.999 57.5093 45.059 58.1251 45.059C58.6973 45.059 59.2587 44.999 59.8091 44.8791C60.3595 44.7592 60.9563 44.5848 61.5994 44.3559ZM71.6359 51.6478C70.3443 51.6478 69.2326 51.3862 68.3006 50.8631C67.3742 50.3344 66.6602 49.5878 66.1588 48.6232C65.6575 47.6531 65.4068 46.5059 65.4068 45.1816C65.4068 43.89 65.6575 42.7564 66.1588 41.7809C66.6602 40.8054 67.366 40.0451 68.2761 39.5001C69.1917 38.9551 70.2653 38.6827 71.497 38.6827C72.3253 38.6827 73.0965 38.8162 73.8104 39.0832C74.5298 39.3448 75.1565 39.7399 75.6906 40.2686C76.2302 40.7972 76.6498 41.4621 76.9495 42.2632C77.2493 43.0589 77.3991 43.9908 77.3991 45.059V46.0154H66.7965V43.8573H74.1211C74.1211 43.3559 74.0121 42.9117 73.7941 42.5248C73.5761 42.1379 73.2736 41.8354 72.8867 41.6174C72.5052 41.394 72.061 41.2822 71.5542 41.2822C71.0256 41.2822 70.5569 41.4049 70.1481 41.6501C69.7448 41.8899 69.4287 42.2142 69.1999 42.6229C68.971 43.0262 68.8538 43.4758 68.8483 43.9717V46.0236C68.8483 46.6449 68.9628 47.1817 69.1917 47.634C69.426 48.0864 69.7557 48.4351 70.1808 48.6804C70.6059 48.9256 71.11 49.0483 71.6932 49.0483C72.0801 49.0483 72.4343 48.9938 72.7559 48.8848C73.0774 48.7758 73.3526 48.6123 73.5815 48.3943C73.8104 48.1763 73.9848 47.9092 74.1047 47.5931L77.3256 47.8057C77.1621 48.5796 76.8269 49.2553 76.3201 49.833C75.8187 50.4053 75.1702 50.8522 74.3745 51.1737C73.5843 51.4898 72.6714 51.6478 71.6359 51.6478ZM88.2716 38.8461V41.5847H83.0561V51.4026H79.6717V38.8461H88.2716ZM95.6186 51.6478C94.3488 51.6478 93.2507 51.3781 92.3242 50.8385C91.4032 50.2935 90.692 49.536 90.1906 48.5659C89.6892 47.5904 89.4385 46.4596 89.4385 45.1734C89.4385 43.8764 89.6892 42.7428 90.1906 41.7727C90.692 40.7972 91.4032 40.0397 92.3242 39.5001C93.2507 38.9551 94.3488 38.6827 95.6186 38.6827C96.8885 38.6827 97.9839 38.9551 98.9049 39.5001C99.8314 40.0397 100.545 40.7972 101.047 41.7727C101.548 42.7428 101.799 43.8764 101.799 45.1734C101.799 46.4596 101.548 47.5904 101.047 48.5659C100.545 49.536 99.8314 50.2935 98.9049 50.8385C97.9839 51.3781 96.8885 51.6478 95.6186 51.6478ZM95.635 48.9502C96.2127 48.9502 96.695 48.7867 97.0819 48.4597C97.4689 48.1272 97.7604 47.6749 97.9566 47.1027C98.1583 46.5304 98.2591 45.8792 98.2591 45.1489C98.2591 44.4186 98.1583 43.7674 97.9566 43.1951C97.7604 42.6229 97.4689 42.1706 97.0819 41.8381C96.695 41.5057 96.2127 41.3395 95.635 41.3395C95.0519 41.3395 94.5614 41.5057 94.1635 41.8381C93.7712 42.1706 93.4741 42.6229 93.2725 43.1951C93.0763 43.7674 92.9782 44.4186 92.9782 45.1489C92.9782 45.8792 93.0763 46.5304 93.2725 47.1027C93.4741 47.6749 93.7712 48.1272 94.1635 48.4597C94.5614 48.7867 95.0519 48.9502 95.635 48.9502ZM109.391 51.4026V38.8461H120.37V51.4026H117.043V41.5847H112.677V51.4026H109.391ZM128.823 51.6478C127.553 51.6478 126.455 51.3781 125.528 50.8385C124.607 50.2935 123.896 49.536 123.394 48.5659C122.893 47.5904 122.642 46.4596 122.642 45.1734C122.642 43.8764 122.893 42.7428 123.394 41.7727C123.896 40.7972 124.607 40.0397 125.528 39.5001C126.455 38.9551 127.553 38.6827 128.823 38.6827C130.092 38.6827 131.188 38.9551 132.109 39.5001C133.035 40.0397 133.749 40.7972 134.251 41.7727C134.752 42.7428 135.003 43.8764 135.003 45.1734C135.003 46.4596 134.752 47.5904 134.251 48.5659C133.749 49.536 133.035 50.2935 132.109 50.8385C131.188 51.3781 130.092 51.6478 128.823 51.6478ZM128.839 48.9502C129.417 48.9502 129.899 48.7867 130.286 48.4597C130.673 48.1272 130.964 47.6749 131.16 47.1027C131.362 46.5304 131.463 45.8792 131.463 45.1489C131.463 44.4186 131.362 43.7674 131.16 43.1951C130.964 42.6229 130.673 42.1706 130.286 41.8381C129.899 41.5057 129.417 41.3395 128.839 41.3395C128.256 41.3395 127.765 41.5057 127.367 41.8381C126.975 42.1706 126.678 42.6229 126.476 43.1951C126.28 43.7674 126.182 44.4186 126.182 45.1489C126.182 45.8792 126.28 46.5304 126.476 47.1027C126.678 47.6749 126.975 48.1272 127.367 48.4597C127.765 48.7867 128.256 48.9502 128.839 48.9502ZM142.94 51.6478C141.654 51.6478 140.548 51.3753 139.621 50.8304C138.7 50.2799 137.992 49.5169 137.496 48.5414C137.005 47.5659 136.76 46.4432 136.76 45.1734C136.76 43.8873 137.008 42.7591 137.504 41.7891C138.005 40.8135 138.717 40.0533 139.638 39.5083C140.559 38.9579 141.654 38.6827 142.924 38.6827C144.019 38.6827 144.979 38.8816 145.801 39.2794C146.624 39.6772 147.276 40.2359 147.755 40.9552C148.235 41.6746 148.499 42.5193 148.548 43.4894H145.262C145.169 42.8627 144.924 42.3586 144.526 41.9771C144.134 41.5901 143.619 41.3967 142.981 41.3967C142.442 41.3967 141.97 41.5438 141.567 41.8381C141.169 42.127 140.858 42.5493 140.635 43.1052C140.412 43.6611 140.3 44.3341 140.3 45.1244C140.3 45.9255 140.409 46.6067 140.627 47.1681C140.85 47.7294 141.164 48.1572 141.567 48.4515C141.97 48.7458 142.442 48.8929 142.981 48.8929C143.379 48.8929 143.736 48.8112 144.052 48.6477C144.374 48.4842 144.638 48.2471 144.845 47.9365C145.058 47.6204 145.197 47.2416 145.262 46.8002H148.548C148.494 47.7594 148.232 48.6041 147.763 49.3344C147.3 50.0592 146.66 50.626 145.842 51.0347C145.025 51.4435 144.058 51.6478 142.94 51.6478ZM156.5 51.6478C155.209 51.6478 154.097 51.3862 153.165 50.8631C152.238 50.3344 151.525 49.5878 151.023 48.6232C150.522 47.6531 150.271 46.5059 150.271 45.1816C150.271 43.89 150.522 42.7564 151.023 41.7809C151.525 40.8054 152.23 40.0451 153.14 39.5001C154.056 38.9551 155.13 38.6827 156.361 38.6827C157.19 38.6827 157.961 38.8162 158.675 39.0832C159.394 39.3448 160.021 39.7399 160.555 40.2686C161.094 40.7972 161.514 41.4621 161.814 42.2632C162.114 43.0589 162.263 43.9908 162.263 45.059V46.0154H151.661V43.8573H158.985C158.985 43.3559 158.876 42.9117 158.658 42.5248C158.44 42.1379 158.138 41.8354 157.751 41.6174C157.369 41.394 156.925 41.2822 156.418 41.2822C155.89 41.2822 155.421 41.4049 155.012 41.6501C154.609 41.8899 154.293 42.2142 154.064 42.6229C153.835 43.0262 153.718 43.4758 153.713 43.9717V46.0236C153.713 46.6449 153.827 47.1817 154.056 47.634C154.29 48.0864 154.62 48.4351 155.045 48.6804C155.47 48.9256 155.974 49.0483 156.557 49.0483C156.944 49.0483 157.299 48.9938 157.62 48.8848C157.942 48.7758 158.217 48.6123 158.446 48.3943C158.675 48.1763 158.849 47.9092 158.969 47.5931L162.19 47.8057C162.026 48.5796 161.691 49.2553 161.184 49.833C160.683 50.4053 160.034 50.8522 159.239 51.1737C158.449 51.4898 157.536 51.6478 156.5 51.6478ZM184.262 48.664L184.016 54.9995H180.82V51.4026H179.422V48.664H184.262ZM164.536 38.8461H167.863V48.6395H171.403V38.8461H174.73V48.6395H178.27V38.8461H181.597V51.4026H164.536V38.8461ZM189.923 51.6397C189.122 51.6397 188.408 51.5007 187.781 51.2227C187.154 50.9394 186.658 50.5224 186.293 49.972C185.933 49.4161 185.754 48.724 185.754 47.8956C185.754 47.198 185.882 46.6122 186.138 46.138C186.394 45.6639 186.743 45.2824 187.184 44.9936C187.626 44.7047 188.127 44.4867 188.688 44.3396C189.255 44.1924 189.849 44.0889 190.47 44.029C191.201 43.9527 191.789 43.8818 192.236 43.8164C192.683 43.7456 193.007 43.642 193.209 43.5058C193.411 43.3695 193.511 43.1679 193.511 42.9008V42.8518C193.511 42.334 193.348 41.9335 193.021 41.6501C192.699 41.3667 192.242 41.225 191.648 41.225C191.021 41.225 190.522 41.364 190.152 41.6419C189.781 41.9144 189.536 42.2578 189.416 42.6719L186.195 42.4103C186.359 41.6474 186.68 40.9879 187.16 40.4321C187.639 39.8707 188.258 39.4402 189.015 39.1404C189.778 38.8352 190.661 38.6827 191.664 38.6827C192.362 38.6827 193.029 38.7644 193.667 38.9279C194.31 39.0914 194.879 39.3448 195.375 39.6881C195.877 40.0315 196.272 40.4729 196.561 41.0125C196.849 41.5465 196.994 42.1869 196.994 42.9335V51.4026H193.691V49.6614H193.593C193.392 50.0538 193.122 50.3998 192.784 50.6996C192.446 50.9938 192.04 51.2255 191.566 51.3944C191.092 51.5579 190.544 51.6397 189.923 51.6397ZM190.92 49.2363C191.432 49.2363 191.885 49.1355 192.277 48.9338C192.669 48.7267 192.977 48.4488 193.201 48.1C193.424 47.7512 193.536 47.3561 193.536 46.9146V45.5822C193.427 45.653 193.277 45.7184 193.086 45.7783C192.901 45.8328 192.691 45.8846 192.457 45.9337C192.223 45.9773 191.988 46.0181 191.754 46.0563C191.52 46.089 191.307 46.119 191.116 46.1462C190.708 46.2062 190.351 46.3015 190.045 46.4323C189.74 46.5631 189.503 46.7402 189.334 46.9637C189.165 47.1817 189.081 47.4542 189.081 47.7812C189.081 48.2553 189.252 48.6177 189.596 48.8684C189.945 49.1137 190.386 49.2363 190.92 49.2363ZM206.636 43.8082V46.5713H199.826V43.8082H206.636ZM202.516 38.8461V51.4026H199.042V38.8461H202.516ZM210.396 51.6478C209.154 51.6478 208.08 51.3699 207.176 50.814C206.271 50.2581 205.573 49.4897 205.083 48.5087C204.598 47.5277 204.355 46.4024 204.355 45.1325C204.355 43.8627 204.598 42.7428 205.083 41.7727C205.573 40.8026 206.271 40.0451 207.176 39.5001C208.08 38.9551 209.154 38.6827 210.396 38.6827C211.644 38.6827 212.718 38.9551 213.617 39.5001C214.522 40.0451 215.217 40.8026 215.702 41.7727C216.192 42.7428 216.438 43.8627 216.438 45.1325C216.438 46.4024 216.192 47.5277 215.702 48.5087C215.217 49.4897 214.522 50.2581 213.617 50.814C212.718 51.3699 211.644 51.6478 210.396 51.6478ZM210.396 48.8357C211.045 48.8357 211.568 48.6777 211.966 48.3616C212.364 48.04 212.655 47.6013 212.841 47.0454C213.026 46.4841 213.119 45.8465 213.119 45.1325C213.119 44.4186 213.026 43.7864 212.841 43.236C212.655 42.6801 212.364 42.2441 211.966 41.928C211.568 41.6119 211.045 41.4539 210.396 41.4539C209.753 41.4539 209.23 41.6119 208.827 41.928C208.424 42.2387 208.127 42.6692 207.936 43.2196C207.751 43.7701 207.658 44.4077 207.658 45.1325C207.658 45.8519 207.751 46.4896 207.936 47.0454C208.127 47.6013 208.424 48.04 208.827 48.3616C209.23 48.6777 209.753 48.8357 210.396 48.8357ZM217.588 41.5847V38.8461H228.967V41.5847H224.921V51.4026H221.602V41.5847H217.588Z" fill="black"/>
<path d="M220.355 149.886C219.78 149.886 219.255 149.763 218.781 149.518C218.31 149.273 217.934 148.944 217.653 148.532C217.375 148.12 217.236 147.662 217.236 147.159C217.236 146.76 217.326 146.38 217.505 146.021C217.689 145.661 217.939 145.354 218.256 145.098C218.576 144.84 218.943 144.664 219.355 144.569V144.53C218.835 144.35 218.406 144.041 218.07 143.603C217.736 143.164 217.569 142.669 217.569 142.116C217.569 141.639 217.693 141.209 217.942 140.826C218.194 140.441 218.531 140.135 218.952 139.909C219.374 139.68 219.842 139.566 220.355 139.566C220.862 139.566 221.326 139.679 221.748 139.904C222.17 140.13 222.507 140.436 222.759 140.821C223.014 141.204 223.141 141.636 223.141 142.116C223.141 142.662 222.976 143.158 222.646 143.603C222.315 144.044 221.885 144.353 221.356 144.53V144.569C221.768 144.657 222.132 144.83 222.45 145.089C222.77 145.347 223.02 145.658 223.2 146.021C223.383 146.38 223.475 146.76 223.475 147.159C223.475 147.662 223.334 148.12 223.053 148.532C222.775 148.944 222.399 149.273 221.925 149.518C221.454 149.763 220.931 149.886 220.355 149.886ZM220.355 149.572C220.878 149.572 221.351 149.462 221.773 149.243C222.198 149.021 222.535 148.726 222.783 148.36C223.035 147.991 223.161 147.584 223.161 147.139C223.161 146.694 223.035 146.289 222.783 145.923C222.535 145.553 222.198 145.259 221.773 145.04C221.351 144.817 220.878 144.706 220.355 144.706C219.832 144.706 219.358 144.817 218.933 145.04C218.511 145.259 218.174 145.553 217.922 145.923C217.674 146.289 217.55 146.694 217.55 147.139C217.55 147.584 217.674 147.991 217.922 148.36C218.174 148.726 218.513 149.021 218.938 149.243C219.363 149.462 219.835 149.572 220.355 149.572ZM220.355 144.431C220.81 144.431 221.223 144.325 221.596 144.113C221.969 143.9 222.266 143.619 222.489 143.269C222.714 142.916 222.827 142.532 222.827 142.116C222.827 141.698 222.714 141.32 222.489 140.983C222.266 140.643 221.969 140.375 221.596 140.179C221.223 139.979 220.81 139.88 220.355 139.88C219.904 139.88 219.49 139.979 219.114 140.179C218.741 140.375 218.442 140.643 218.217 140.983C217.994 141.32 217.883 141.698 217.883 142.116C217.883 142.532 217.994 142.916 218.217 143.269C218.442 143.619 218.741 143.9 219.114 144.113C219.49 144.325 219.904 144.431 220.355 144.431ZM228.619 149.886C228.194 149.886 227.8 149.789 227.437 149.596C227.074 149.403 226.756 149.114 226.485 148.728C226.217 148.339 226.008 147.85 225.857 147.262C225.71 146.673 225.636 145.985 225.636 145.197C225.636 144.52 225.684 143.849 225.779 143.186C225.877 142.519 226.04 141.912 226.269 141.366C226.498 140.82 226.812 140.383 227.211 140.056C227.61 139.729 228.112 139.566 228.717 139.566C229.214 139.566 229.647 139.679 230.017 139.904C230.386 140.127 230.679 140.437 230.894 140.836C231.11 141.232 231.235 141.691 231.267 142.214H230.953C230.904 141.524 230.684 140.964 230.291 140.532C229.902 140.097 229.377 139.88 228.717 139.88C227.801 139.88 227.111 140.349 226.647 141.287C226.183 142.223 225.95 143.571 225.95 145.334H225.99C226.098 145 226.279 144.704 226.534 144.446C226.792 144.185 227.098 143.98 227.451 143.833C227.804 143.683 228.174 143.607 228.56 143.607C229.086 143.607 229.567 143.745 230.002 144.019C230.44 144.294 230.79 144.668 231.051 145.143C231.313 145.617 231.444 146.151 231.444 146.747C231.444 147.302 231.324 147.819 231.086 148.296C230.85 148.774 230.52 149.158 230.095 149.449C229.673 149.74 229.181 149.886 228.619 149.886ZM228.619 149.572C229.103 149.572 229.533 149.444 229.909 149.189C230.288 148.934 230.585 148.592 230.801 148.164C231.02 147.736 231.13 147.263 231.13 146.747C231.13 146.217 231.014 145.739 230.782 145.314C230.553 144.886 230.242 144.548 229.85 144.299C229.461 144.047 229.024 143.921 228.54 143.921C228.158 143.921 227.803 144.001 227.476 144.162C227.149 144.319 226.869 144.536 226.637 144.814C226.408 145.089 226.245 145.404 226.147 145.761C226.048 146.117 226.035 146.491 226.107 146.884C226.219 147.472 226.392 147.966 226.627 148.365C226.866 148.764 227.154 149.065 227.491 149.268C227.831 149.47 228.207 149.572 228.619 149.572ZM238.835 147.924V147.61C238.835 147.217 238.907 146.874 239.051 146.58C239.198 146.285 239.396 146.057 239.645 145.893C239.893 145.73 240.173 145.648 240.483 145.648C240.794 145.648 241.074 145.73 241.322 145.893C241.571 146.057 241.767 146.285 241.911 146.58C242.058 146.874 242.132 147.217 242.132 147.61V147.924C242.132 148.316 242.058 148.659 241.911 148.954C241.767 149.248 241.571 149.477 241.322 149.64C241.074 149.804 240.794 149.886 240.483 149.886C240.173 149.886 239.893 149.804 239.645 149.64C239.396 149.477 239.198 149.248 239.051 148.954C238.907 148.659 238.835 148.316 238.835 147.924ZM239.149 147.61V147.924C239.149 148.424 239.277 148.825 239.532 149.125C239.79 149.423 240.107 149.572 240.483 149.572C240.86 149.572 241.175 149.423 241.43 149.125C241.688 148.825 241.818 148.424 241.818 147.924V147.61C241.818 147.109 241.688 146.711 241.43 146.413C241.175 146.112 240.86 145.962 240.483 145.962C240.107 145.962 239.79 146.112 239.532 146.413C239.277 146.711 239.149 147.109 239.149 147.61ZM233.656 141.842V141.528C233.656 141.135 233.728 140.792 233.872 140.498C234.019 140.203 234.217 139.975 234.465 139.811C234.714 139.648 234.993 139.566 235.304 139.566C235.615 139.566 235.894 139.648 236.143 139.811C236.391 139.975 236.587 140.203 236.731 140.498C236.878 140.792 236.952 141.135 236.952 141.528V141.842C236.952 142.231 236.878 142.574 236.731 142.872C236.587 143.166 236.391 143.395 236.143 143.558C235.894 143.722 235.615 143.804 235.304 143.804C234.993 143.804 234.714 143.722 234.465 143.558C234.217 143.395 234.019 143.166 233.872 142.872C233.728 142.574 233.656 142.231 233.656 141.842ZM233.97 141.528V141.842C233.97 142.342 234.097 142.743 234.352 143.043C234.611 143.341 234.928 143.49 235.304 143.49C235.68 143.49 235.996 143.341 236.251 143.043C236.509 142.743 236.638 142.342 236.638 141.842V141.528C236.638 141.027 236.509 140.629 236.251 140.331C235.996 140.03 235.68 139.88 235.304 139.88C234.928 139.88 234.611 140.03 234.352 140.331C234.097 140.629 233.97 141.027 233.97 141.528ZM234.264 149.748L241.151 139.703H241.523L234.637 149.748H234.264Z" fill="white"/>
<path d="M156.065 114.95C157.297 113.502 159.474 113.316 160.865 114.611C167.566 120.845 172.982 128.335 176.795 136.661C180.605 144.98 182.732 153.952 183.069 163.067C183.139 164.972 181.564 166.5 179.658 166.476L120.256 165.738C117.332 165.702 115.775 162.274 117.671 160.047L156.065 114.95Z" fill="#0450C0"/>
<path d="M145.116 145.195L145.244 155.239L144.327 155.251L144.211 146.168L144.152 146.169L141.818 147.763L141.806 146.812L144.159 145.207L145.116 145.195ZM148.026 153.045L148.017 152.3L152.404 145.102L152.953 145.095L152.969 146.346L152.562 146.351L149.04 152.145L149.041 152.208L154.912 152.133L154.922 152.957L148.026 153.045ZM152.743 155.144L152.712 152.75L152.708 152.407L152.615 145.099L153.488 145.088L153.616 155.132L152.743 155.144ZM161.997 153.161L161.991 152.705C161.986 152.329 162.057 151.99 162.204 151.687C162.35 151.381 162.561 151.138 162.837 150.958C163.113 150.778 163.442 150.686 163.824 150.681C164.21 150.676 164.542 150.76 164.818 150.933C165.095 151.106 165.309 151.344 165.46 151.646C165.611 151.945 165.689 152.282 165.694 152.658L165.7 153.114C165.705 153.49 165.634 153.83 165.487 154.132C165.344 154.435 165.136 154.678 164.864 154.861C164.591 155.041 164.264 155.134 163.881 155.139C163.492 155.144 163.157 155.06 162.877 154.887C162.6 154.71 162.385 154.473 162.231 154.174C162.08 153.875 162.002 153.537 161.997 153.161ZM162.761 152.696L162.767 153.152C162.772 153.521 162.866 153.836 163.049 154.095C163.235 154.351 163.51 154.476 163.873 154.472C164.226 154.467 164.491 154.335 164.667 154.074C164.844 153.81 164.93 153.494 164.925 153.124L164.919 152.668C164.914 152.299 164.822 151.986 164.642 151.73C164.462 151.47 164.193 151.343 163.833 151.348C163.476 151.352 163.207 151.486 163.024 151.75C162.844 152.011 162.756 152.326 162.761 152.696ZM156.861 147.365L156.855 146.909C156.85 146.533 156.921 146.194 157.068 145.891C157.214 145.588 157.425 145.347 157.701 145.167C157.977 144.983 158.306 144.889 158.688 144.884C159.074 144.879 159.405 144.965 159.682 145.141C159.959 145.315 160.173 145.551 160.324 145.849C160.475 146.148 160.553 146.486 160.558 146.862L160.564 147.318C160.568 147.694 160.498 148.035 160.351 148.341C160.208 148.644 160 148.885 159.727 149.065C159.455 149.245 159.128 149.338 158.745 149.343C158.356 149.347 158.021 149.263 157.741 149.09C157.464 148.917 157.249 148.681 157.094 148.383C156.943 148.08 156.866 147.741 156.861 147.365ZM157.625 146.899L157.631 147.355C157.635 147.725 157.729 148.039 157.913 148.299C158.099 148.554 158.374 148.68 158.737 148.676C159.09 148.671 159.354 148.538 159.531 148.278C159.708 148.014 159.793 147.697 159.789 147.328L159.783 146.872C159.778 146.502 159.686 146.19 159.506 145.933C159.326 145.674 159.056 145.547 158.697 145.551C158.34 145.556 158.071 145.69 157.888 145.954C157.708 146.215 157.62 146.53 157.625 146.899ZM157.41 155.084L164.183 144.952L165.051 144.941L158.279 155.073L157.41 155.084Z" fill="white"/>
<rect x="206.116" y="105.398" width="17.2651" height="17.2651" rx="5.17953" fill="#0450C0" stroke="#0450C0" stroke-width="1.15101"/>
<path d="M242.359 108.777V118.822H242.045V109.091H235.944V118.822H235.63V108.777H242.359ZM250.92 118.822L247.447 113.829H245.573V118.822H245.259V108.777H245.573V113.525H247.241L250.302 108.777H250.674L247.624 113.525L251.302 118.822H250.92Z" fill="#A7B0BF"/>
<rect x="206.116" y="136.475" width="17.2651" height="17.2651" rx="5.17953" fill="#3B83EF" stroke="#3B83EF" stroke-width="1.15101"/>
<path d="M235.159 140.168V139.854H241.947V140.168H238.71V149.899H238.396V140.168H235.159ZM245.853 150.056C245.196 150.056 244.62 149.884 244.126 149.541C243.636 149.198 243.255 148.732 242.984 148.143C242.712 147.555 242.576 146.891 242.576 146.152C242.576 145.413 242.712 144.749 242.984 144.16C243.258 143.572 243.631 143.106 244.102 142.763C244.573 142.419 245.104 142.248 245.696 142.248C246.134 142.248 246.54 142.341 246.912 142.527C247.288 142.714 247.615 142.972 247.893 143.302C248.171 143.632 248.387 144.013 248.541 144.445C248.698 144.873 248.776 145.331 248.776 145.818V146.132H242.733V145.818H248.462C248.462 145.213 248.338 144.666 248.09 144.175C247.841 143.681 247.507 143.289 247.089 142.998C246.67 142.707 246.206 142.562 245.696 142.562C245.179 142.562 244.712 142.715 244.293 143.023C243.875 143.33 243.539 143.748 243.288 144.278C243.036 144.808 242.903 145.406 242.89 146.073V146.113C242.89 146.77 243.005 147.375 243.234 147.927C243.466 148.477 243.803 148.917 244.244 149.247C244.686 149.577 245.222 149.742 245.853 149.742C246.317 149.742 246.706 149.66 247.02 149.497C247.337 149.333 247.591 149.145 247.78 148.933C247.973 148.72 248.116 148.539 248.207 148.388L248.462 148.565C248.351 148.755 248.184 148.966 247.962 149.198C247.74 149.43 247.455 149.631 247.109 149.801C246.762 149.971 246.343 150.056 245.853 150.056ZM250.116 149.899V149.585H250.273C250.627 149.585 250.9 149.526 251.092 149.409C251.289 149.288 251.431 149.098 251.519 148.84C251.608 148.578 251.668 148.236 251.701 147.815C251.737 147.393 251.771 146.878 251.804 146.27L252.02 142.365H256.336V149.899H256.022V142.679H252.314L252.118 146.289C252.085 146.891 252.049 147.419 252.01 147.873C251.974 148.325 251.902 148.701 251.794 149.002C251.689 149.299 251.518 149.523 251.279 149.674C251.043 149.824 250.708 149.899 250.273 149.899H250.116ZM261.864 150.056C261.206 150.056 260.631 149.884 260.137 149.541C259.647 149.198 259.266 148.732 258.994 148.143C258.723 147.555 258.587 146.891 258.587 146.152C258.587 145.413 258.723 144.749 258.994 144.16C259.269 143.572 259.642 143.106 260.113 142.763C260.583 142.419 261.115 142.248 261.707 142.248C262.145 142.248 262.55 142.341 262.923 142.527C263.299 142.714 263.626 142.972 263.904 143.302C264.182 143.632 264.398 144.013 264.551 144.445C264.708 144.873 264.787 145.331 264.787 145.818V146.132H258.744V145.818H264.473C264.473 145.213 264.349 144.666 264.1 144.175C263.852 143.681 263.518 143.289 263.1 142.998C262.681 142.707 262.217 142.562 261.707 142.562C261.19 142.562 260.722 142.715 260.304 143.023C259.885 143.33 259.55 143.748 259.298 144.278C259.047 144.808 258.914 145.406 258.901 146.073V146.113C258.901 146.77 259.015 147.375 259.244 147.927C259.477 148.477 259.813 148.917 260.255 149.247C260.696 149.577 261.232 149.742 261.864 149.742C262.328 149.742 262.717 149.66 263.031 149.497C263.348 149.333 263.602 149.145 263.791 148.933C263.984 148.72 264.126 148.539 264.218 148.388L264.473 148.565C264.362 148.755 264.195 148.966 263.973 149.198C263.75 149.43 263.466 149.631 263.119 149.801C262.773 149.971 262.354 150.056 261.864 150.056ZM270.443 152.469V139.854H270.757V152.469H270.443ZM270.443 150.056C269.907 150.056 269.404 149.956 268.933 149.757C268.465 149.554 268.053 149.275 267.697 148.918C267.34 148.559 267.061 148.145 266.858 147.677C266.658 147.206 266.559 146.704 266.559 146.171C266.559 145.632 266.658 145.127 266.858 144.656C267.061 144.182 267.34 143.766 267.697 143.41C268.053 143.054 268.465 142.774 268.933 142.571C269.404 142.369 269.907 142.267 270.443 142.267H270.522V150.056H270.443ZM270.443 149.742H270.483V142.581H270.443C269.95 142.581 269.487 142.674 269.055 142.861C268.624 143.047 268.244 143.305 267.917 143.636C267.59 143.963 267.334 144.344 267.147 144.778C266.964 145.21 266.873 145.674 266.873 146.171C266.873 146.829 267.033 147.429 267.353 147.972C267.677 148.511 268.109 148.943 268.648 149.266C269.191 149.587 269.789 149.745 270.443 149.742ZM270.757 150.056H270.679V142.267H270.757C271.294 142.267 271.796 142.369 272.263 142.571C272.734 142.774 273.148 143.054 273.504 143.41C273.86 143.766 274.138 144.182 274.338 144.656C274.541 145.127 274.642 145.632 274.642 146.171C274.642 146.704 274.541 147.206 274.338 147.677C274.138 148.145 273.86 148.559 273.504 148.918C273.148 149.275 272.734 149.554 272.263 149.757C271.796 149.956 271.294 150.056 270.757 150.056ZM270.757 149.742C271.248 149.742 271.709 149.651 272.14 149.468C272.572 149.281 272.951 149.024 273.278 148.697C273.609 148.367 273.865 147.986 274.048 147.555C274.235 147.123 274.328 146.662 274.328 146.171C274.328 145.511 274.168 144.909 273.847 144.366C273.527 143.824 273.095 143.39 272.552 143.067C272.013 142.743 271.415 142.581 270.757 142.581H270.718V149.742H270.757ZM279.525 150.056C278.933 150.056 278.402 149.886 277.931 149.546C277.46 149.203 277.087 148.737 276.812 148.148C276.541 147.556 276.405 146.891 276.405 146.152C276.405 145.41 276.541 144.744 276.812 144.156C277.087 143.567 277.46 143.103 277.931 142.763C278.402 142.419 278.933 142.248 279.525 142.248C280.117 142.248 280.646 142.419 281.114 142.763C281.585 143.106 281.958 143.572 282.232 144.16C282.507 144.749 282.644 145.413 282.644 146.152C282.644 146.891 282.507 147.556 282.232 148.148C281.961 148.737 281.59 149.203 281.119 149.546C280.648 149.886 280.117 150.056 279.525 150.056ZM279.525 149.742C280.058 149.742 280.535 149.585 280.957 149.271C281.382 148.957 281.717 148.529 281.962 147.986C282.208 147.443 282.33 146.832 282.33 146.152C282.33 145.472 282.206 144.862 281.958 144.322C281.712 143.78 281.379 143.351 280.957 143.037C280.535 142.72 280.058 142.562 279.525 142.562C278.995 142.562 278.518 142.72 278.093 143.037C277.671 143.351 277.336 143.78 277.087 144.322C276.842 144.862 276.719 145.472 276.719 146.152C276.719 146.832 276.842 147.443 277.087 147.986C277.332 148.529 277.666 148.957 278.088 149.271C278.513 149.585 278.992 149.742 279.525 149.742ZM290.035 145.975V146.289H285.061V145.975H290.035ZM285.169 142.365V149.899H284.855V142.365H285.169ZM290.201 142.365V149.899H289.887V142.365H290.201Z" fill="#A7B0BF"/>
<path d="M161.802 173.307C164.345 173.307 166.422 175.371 166.254 177.908C165.315 192.094 160.051 205.694 151.116 216.846C141.219 229.2 127.409 237.813 111.961 241.266C96.5129 244.719 80.3496 242.806 66.1346 235.842C51.9197 228.878 40.5014 217.279 33.7617 202.957C27.022 188.634 25.3631 172.443 29.0583 157.051C32.7535 141.659 41.5824 127.986 54.0898 118.284C66.5973 108.582 82.0368 103.431 97.864 103.68C112.152 103.904 125.987 108.517 137.516 116.836C139.578 118.324 139.844 121.24 138.223 123.199L103.007 165.768C100.524 168.77 102.659 173.307 106.554 173.307H161.802Z" fill="#3B83EF"/>
<path d="M54.8046 189.869C54.1637 189.869 53.5931 189.748 53.0928 189.506C52.5925 189.264 52.2001 188.934 51.9156 188.515C51.6311 188.093 51.4889 187.617 51.4889 187.088C51.4889 186.672 51.5756 186.285 51.7489 185.925C51.9222 185.562 52.1609 185.258 52.465 185.013C52.7691 184.764 53.1108 184.603 53.4901 184.527V184.473C52.9963 184.33 52.599 184.047 52.2982 183.625C51.9974 183.2 51.8486 182.717 51.8519 182.178C51.8486 181.678 51.9761 181.23 52.2344 180.834C52.4928 180.438 52.8443 180.126 53.289 179.897C53.737 179.665 54.2422 179.549 54.8046 179.549C55.3637 179.549 55.8657 179.665 56.3104 179.897C56.7551 180.126 57.1066 180.438 57.3649 180.834C57.6265 181.23 57.7589 181.678 57.7622 182.178C57.7589 182.714 57.6069 183.197 57.3061 183.625C57.0052 184.05 56.6096 184.333 56.1191 184.473V184.527C56.4984 184.599 56.8385 184.76 57.1393 185.008C57.4401 185.257 57.6788 185.562 57.8554 185.925C58.032 186.285 58.1203 186.672 58.1203 187.088C58.1203 187.617 57.9764 188.093 57.6886 188.515C57.4042 188.934 57.0118 189.264 56.5115 189.506C56.0144 189.748 55.4455 189.869 54.8046 189.869ZM54.8046 189.045C55.282 189.045 55.7005 188.96 56.0602 188.79C56.4232 188.616 56.706 188.379 56.9088 188.079C57.1148 187.778 57.2178 187.433 57.2178 187.044C57.2178 186.641 57.1115 186.283 56.899 185.969C56.6864 185.652 56.3987 185.402 56.0357 185.219C55.6727 185.033 55.2624 184.939 54.8046 184.939C54.3468 184.939 53.9348 185.033 53.5686 185.219C53.2056 185.402 52.9178 185.652 52.7053 185.969C52.496 186.283 52.3914 186.641 52.3914 187.044C52.3914 187.433 52.4911 187.778 52.6906 188.079C52.8933 188.379 53.1762 188.616 53.5391 188.79C53.9054 188.96 54.3272 189.045 54.8046 189.045ZM54.8046 184.155C55.197 184.155 55.5485 184.071 55.8591 183.904C56.1698 183.738 56.415 183.51 56.5949 183.223C56.778 182.932 56.8712 182.601 56.8744 182.232C56.8712 181.866 56.7796 181.542 56.5998 181.261C56.4199 180.976 56.1747 180.756 55.864 180.599C55.5567 180.438 55.2035 180.358 54.8046 180.358C54.4057 180.358 54.0492 180.438 53.7353 180.599C53.4247 180.756 53.1794 180.976 52.9996 181.261C52.823 181.542 52.7364 181.866 52.7396 182.232C52.7364 182.601 52.8247 182.932 53.0045 183.223C53.1876 183.51 53.4345 183.738 53.7451 183.904C54.059 184.071 54.4122 184.155 54.8046 184.155ZM63.3206 189.869C62.9054 189.866 62.4999 189.782 62.1042 189.619C61.7086 189.452 61.3522 189.185 61.035 188.819C60.7178 188.45 60.466 187.962 60.2796 187.357C60.0932 186.753 60.0001 186.009 60.0001 185.126C60.0001 184.308 60.072 183.559 60.2159 182.879C60.3597 182.199 60.5756 181.611 60.8633 181.114C61.1511 180.617 61.5108 180.232 61.9424 179.961C62.374 179.686 62.8792 179.549 63.458 179.549C64.0008 179.549 64.4798 179.662 64.8951 179.887C65.3104 180.11 65.6472 180.42 65.9055 180.819C66.1638 181.218 66.3257 181.678 66.3911 182.198H65.4886C65.397 181.668 65.1796 181.231 64.8362 180.888C64.4929 180.545 64.0335 180.373 63.458 180.373C62.634 180.373 61.9963 180.756 61.5451 181.521C61.0938 182.283 60.8666 183.365 60.8633 184.768H60.9271C61.0873 184.47 61.2933 184.213 61.5451 183.998C61.8001 183.779 62.0895 183.609 62.4132 183.488C62.737 183.363 63.077 183.301 63.4335 183.301C63.9926 183.301 64.5044 183.443 64.9687 183.728C65.433 184.009 65.8041 184.397 66.0821 184.89C66.36 185.381 66.499 185.942 66.499 186.573C66.499 187.171 66.3666 187.722 66.1017 188.226C65.8401 188.729 65.4706 189.13 64.9932 189.427C64.5191 189.725 63.9615 189.872 63.3206 189.869ZM63.3206 189.045C63.7588 189.045 64.1496 188.934 64.4929 188.711C64.8395 188.489 65.1126 188.191 65.312 187.819C65.5115 187.443 65.6112 187.027 65.6112 186.573C65.6112 186.118 65.5115 185.706 65.312 185.337C65.1126 184.967 64.8395 184.673 64.4929 184.454C64.1496 184.235 63.7588 184.125 63.3206 184.125C62.9871 184.125 62.6765 184.194 62.3887 184.331C62.101 184.465 61.8508 184.65 61.6383 184.885C61.429 185.118 61.2688 185.384 61.1576 185.685C61.0497 185.986 61.0088 186.301 61.035 186.632C61.0709 187.093 61.1903 187.506 61.393 187.873C61.599 188.235 61.8672 188.522 62.1974 188.731C62.531 188.94 62.9054 189.045 63.3206 189.045ZM73.6552 187.868V187.411C73.6552 187.035 73.7304 186.697 73.8808 186.396C74.0312 186.092 74.2454 185.852 74.5233 185.675C74.8013 185.499 75.1315 185.41 75.5141 185.41C75.9 185.41 76.2302 185.499 76.5049 185.675C76.7796 185.852 76.9905 186.092 77.1376 186.396C77.2848 186.697 77.3584 187.035 77.3584 187.411V187.868C77.3584 188.244 77.2831 188.582 77.1327 188.883C76.9856 189.184 76.7747 189.424 76.5 189.604C76.2253 189.78 75.8967 189.869 75.5141 189.869C75.125 189.869 74.7915 189.78 74.5135 189.604C74.2389 189.424 74.0263 189.184 73.8759 188.883C73.7288 188.582 73.6552 188.244 73.6552 187.868ZM74.4252 187.411V187.868C74.4252 188.237 74.5152 188.553 74.695 188.814C74.8781 189.073 75.1512 189.202 75.5141 189.202C75.8673 189.202 76.1338 189.073 76.3136 188.814C76.4935 188.553 76.5834 188.237 76.5834 187.868V187.411C76.5834 187.042 76.4951 186.728 76.3185 186.47C76.1419 186.208 75.8738 186.077 75.5141 186.077C75.1577 186.077 74.8863 186.208 74.6999 186.47C74.5168 186.728 74.4252 187.042 74.4252 187.411ZM68.5934 182.006V181.55C68.5934 181.174 68.6686 180.836 68.819 180.535C68.9694 180.234 69.1836 179.995 69.4615 179.819C69.7395 179.639 70.0697 179.549 70.4523 179.549C70.8382 179.549 71.1684 179.639 71.4431 179.819C71.7178 179.995 71.9287 180.234 72.0758 180.535C72.223 180.836 72.2965 181.174 72.2965 181.55V182.006C72.2965 182.382 72.2213 182.722 72.0709 183.027C71.9238 183.327 71.7129 183.566 71.4382 183.743C71.1635 183.919 70.8349 184.007 70.4523 184.007C70.0632 184.007 69.7297 183.919 69.4517 183.743C69.177 183.566 68.9645 183.327 68.8141 183.027C68.6669 182.722 68.5934 182.382 68.5934 182.006ZM69.3634 181.55V182.006C69.3634 182.376 69.4534 182.691 69.6332 182.953C69.8163 183.211 70.0893 183.34 70.4523 183.34C70.8055 183.34 71.072 183.211 71.2518 182.953C71.4316 182.691 71.5216 182.376 71.5216 182.006V181.55C71.5216 181.181 71.4333 180.867 71.2567 180.608C71.0801 180.347 70.812 180.216 70.4523 180.216C70.0959 180.216 69.8245 180.347 69.6381 180.608C69.455 180.867 69.3634 181.181 69.3634 181.55ZM69.0446 189.731L75.9458 179.686H76.8139L69.9128 189.731H69.0446Z" fill="white"/>
</svg>
