<svg width="25" height="25" viewBox="0 0 25 25" fill="none" xmlns="http://www.w3.org/2000/svg">
<path d="M12.5 3.33331C11.3732 3.31665 11.3732 5.01598 12.5 4.99998H15V7.10931L10.3288 10.9993L8.70433 6.66665H9.16667C10.2935 6.68331 10.2935 4.98398 9.16667 4.99998H5.83333C4.7065 4.98331 4.7065 6.68265 5.83333 6.66665H6.9205L8.405 10.625C7.62533 10.2373 6.75983 9.99998 5.83333 9.99998C2.6215 9.99998 0 12.6215 0 15.8333C0 19.0451 2.6215 21.6666 5.83333 21.6666C9.04517 21.6666 11.6667 19.0451 11.6667 15.8333C11.6667 14.7168 11.3328 13.6815 10.7845 12.793L15.485 8.87698L16.2565 10.8106C14.519 11.8228 13.3333 13.6853 13.3333 15.8333C13.3333 19.0451 15.9548 21.6666 19.1667 21.6666C22.3785 21.6666 25 19.0451 25 15.8333C25 12.6215 22.3785 9.99998 19.1667 9.99998C18.6948 9.99998 18.2427 10.0723 17.8027 10.179L16.6667 7.33715V4.16665C16.6667 3.70648 16.2935 3.33331 15.8333 3.33331H12.5ZM5.83333 11.6666C6.8205 11.6666 7.71267 12.0198 8.4245 12.5878L5.2995 15.192C4.448 15.9041 5.5125 17.1828 6.36717 16.4745L9.49217 13.8703C9.80583 14.4566 10 15.1185 10 15.8333C10 18.1443 8.14433 20 5.83333 20C3.52233 20 1.66667 18.1443 1.66667 15.8333C1.66667 13.5223 3.52217 11.6666 5.83333 11.6666ZM19.1667 11.6666C21.4777 11.6666 23.3333 13.5223 23.3333 15.8333C23.3333 18.1443 21.4777 20 19.1667 20C16.8557 20 15 18.1443 15 15.8333C15 14.3716 15.7447 13.0965 16.875 12.3535L18.392 16.1425C18.802 17.181 20.3593 16.5593 19.9415 15.524L18.4278 11.7415C18.6682 11.6988 18.9135 11.6666 19.1667 11.6666Z" fill="#A7B0BF"/>
</svg>
