<svg width="25" height="25" viewBox="0 0 25 25" fill="none" xmlns="http://www.w3.org/2000/svg">
<path d="M6.66663 0C4.39396 0 1.66663 1.23883 1.66663 4.57683V13.6653V20C1.66663 20 1.66663 21.6667 3.33329 21.6667V23.3333C3.33329 23.3333 3.33329 25 4.99996 25C6.66663 25 6.66663 23.3333 6.66663 23.3333V21.6667H18.3333V23.3333C18.3333 23.3333 18.3333 25 20 25C21.6666 25 21.6666 23.3333 21.6666 23.3333V21.6667C21.6666 21.6667 23.3333 21.6667 23.3333 20V4.57683C23.3333 1.16767 21.2733 0 19.0006 0H6.66663ZM7.08329 2.5H17.9166C18.1475 2.5 18.3333 2.68583 18.3333 2.91667C18.3333 3.1475 18.1475 3.33333 17.9166 3.33333H7.08329C6.85246 3.33333 6.66663 3.1475 6.66663 2.91667C6.66663 2.68583 6.85246 2.5 7.08329 2.5ZM4.99996 5H20C21.6666 5 21.6666 6.61133 21.6666 6.61133V11.6667C21.6666 11.6667 21.6666 13.3333 20 13.3333H4.99996C3.33329 13.3333 3.33329 11.6667 3.33329 11.6667V6.66667C3.33329 6.66667 3.33329 5 4.99996 5ZM4.99996 16.6667C5.92046 16.6667 6.66663 17.4128 6.66663 18.3333C6.66663 19.2538 5.92046 20 4.99996 20C4.07946 20 3.33329 19.2538 3.33329 18.3333C3.33329 17.4128 4.07946 16.6667 4.99996 16.6667ZM20 16.6667C20.9205 16.6667 21.6666 17.4128 21.6666 18.3333C21.6666 19.2538 20.9205 20 20 20C19.0795 20 18.3333 19.2538 18.3333 18.3333C18.3333 17.4128 19.0795 16.6667 20 16.6667Z" fill="#A7B0BF"/>
</svg>
