<svg width="25" height="25" viewBox="0 0 25 25" fill="none" xmlns="http://www.w3.org/2000/svg">
<path d="M16.6666 5.00002C17.5871 5.00002 18.3333 4.25385 18.3333 3.33335C18.3333 2.41285 17.5871 1.66669 16.6666 1.66669C15.7461 1.66669 15 2.41285 15 3.33335C15 4.25385 15.7461 5.00002 16.6666 5.00002ZM4.16663 16.6667H8.33329L9.99996 11.6667L11.6666 8.75002L9.99996 8.33335L6.16663 10C5.70646 10.1842 5.18413 9.96019 4.99996 9.50002C4.81579 9.03985 5.03979 8.51752 5.49996 8.33335L9.99996 6.66669H13.3333L16.6666 8.33335L18.3333 10H20.8333C21.2935 10 21.6666 10.3732 21.6666 10.8334C21.6666 11.2935 21.2935 11.6667 20.8333 11.6667H16.6666L15 10L13.3333 13.3334L16.6666 16.6667V22.5C16.6666 22.9602 16.2935 23.3334 15.8333 23.3334C15.3731 23.3334 15 22.9602 15 22.5V17.3167L11.6666 15L9.99996 18.3334H4.16663C3.70646 18.3334 3.33329 17.9602 3.33329 17.5C3.33329 17.0399 3.70646 16.6667 4.16663 16.6667Z" fill="white"/>
</svg>
