<svg width="25" height="25" viewBox="0 0 25 25" fill="none" xmlns="http://www.w3.org/2000/svg">
<path d="M23.0666 11.42L21 9.50002L19.1666 5.83336C19.0092 5.57734 18.7885 5.36618 18.5258 5.22022C18.2631 5.07427 17.9672 4.99843 17.6666 5.00002H7.33329C7.03275 4.99843 6.73687 5.07427 6.47414 5.22022C6.21142 5.36618 5.99072 5.57734 5.83329 5.83336L3.99996 9.50002L1.93329 11.42C1.8491 11.4981 1.78195 11.5927 1.73607 11.698C1.69018 11.8033 1.66654 11.9169 1.66663 12.0317V19.1667C1.66663 19.3877 1.75442 19.5997 1.9107 19.7559C2.06698 19.9122 2.27895 20 2.49996 20H5.83329C6.16663 20 6.66663 19.6667 6.66663 19.3334V18.3334H18.3333V19.1667C18.3333 19.5 18.6666 20 19 20H22.5C22.721 20 22.9329 19.9122 23.0892 19.7559C23.2455 19.5997 23.3333 19.3877 23.3333 19.1667V12.0317C23.3334 11.9169 23.3097 11.8033 23.2639 11.698C23.218 11.5927 23.1508 11.4981 23.0666 11.42ZM7.49996 6.66669H17.5L19.1666 10H5.83329L7.49996 6.66669ZM8.33329 14.3334C8.33329 14.6667 7.83329 15 7.49996 15H3.99996C3.66663 15 3.33329 14.5 3.33329 14.1667V12.3334C3.49996 11.8334 3.83329 11.5 4.33329 11.6667L7.66663 12.3334C7.99996 12.3334 8.33329 12.8334 8.33329 13.1667V14.3334ZM21.6666 14.1667C21.6666 14.5 21.3333 15 21 15H17.5C17.1666 15 16.6666 14.6667 16.6666 14.3334V13.1667C16.6666 12.8334 17 12.3334 17.3333 12.3334L20.6666 11.6667C21.1666 11.5 21.5 11.8334 21.6666 12.3334V14.1667Z" fill="white"/>
</svg>
