<svg width="23" height="23" viewBox="0 0 23 23" fill="none" xmlns="http://www.w3.org/2000/svg">
<path fill-rule="evenodd" clip-rule="evenodd" d="M10.9995 23V12.0016H5.00012C5.0769 15.1093 5.86319 17.8679 7.05003 19.8502C8.17937 21.7366 9.58257 22.7975 10.9995 23ZM12.0004 23V12.0016H17.9998C17.923 15.1093 17.1367 17.8679 15.9499 19.8502C14.8205 21.7366 13.4173 22.7975 12.0004 23ZM12.0004 10.9984H17.9998C17.923 7.89074 17.1367 5.13215 15.9499 3.14976C14.8205 1.26341 13.4173 0.202518 12.0004 0V10.9984ZM15.1763 22.4349C17.3808 20.3627 18.8954 16.4845 19.001 12.0016H22.9999C22.7923 16.865 19.5801 20.9484 15.1763 22.4349ZM19.001 10.9984H22.9999C22.7923 6.13505 19.5801 2.0516 15.1763 0.565114C17.3808 2.63732 18.8954 6.51554 19.001 10.9984ZM5.00012 10.9984H10.9995V0C9.58257 0.202518 8.17937 1.26341 7.05003 3.14976C5.86319 5.13215 5.0769 7.89074 5.00012 10.9984ZM7.82357 0.565114C5.61912 2.63732 4.10449 6.51554 3.99891 10.9984H1.19319e-07C0.207598 6.13505 3.41981 2.0516 7.82357 0.565114ZM7.82357 22.4349C3.41981 20.9484 0.207598 16.865 0 12.0016H3.99891C4.10449 16.4845 5.61912 20.3627 7.82357 22.4349Z" fill="#A7B0BF"/>
</svg>
