<svg width="29" height="29" viewBox="0 0 29 29" fill="none" xmlns="http://www.w3.org/2000/svg">
<g opacity="0.4" clip-path="url(#clip0_16_1166)">
<path fill-rule="evenodd" clip-rule="evenodd" d="M7.21617 7.10256C6.52833 7.63036 5.95118 8.28848 5.51768 9.03932C5.08417 9.79017 4.80281 10.6191 4.68964 11.4786C4.57647 12.3382 4.63372 13.2117 4.85812 14.0492C5.08252 14.8866 5.46967 15.6717 5.99747 16.3595C6.52527 17.0474 7.18338 17.6245 7.93423 18.058C8.68508 18.4915 9.51396 18.7729 10.3735 18.886C11.2331 18.9992 12.1066 18.942 12.9441 18.7176C13.7815 18.4932 14.5666 18.106 15.2544 17.5782C15.9423 17.0504 16.5194 16.3923 16.9529 15.6415C17.3864 14.8906 17.6678 14.0617 17.781 13.2021C17.8941 12.3426 17.8369 11.4691 17.6125 10.6316C17.3881 9.79417 17.0009 9.00911 16.4731 8.32127C15.9453 7.63343 15.2872 7.05628 14.5364 6.62277C13.7855 6.18927 12.9566 5.90791 12.097 5.79474C11.2375 5.68157 10.364 5.73882 9.52654 5.96322C8.68907 6.18762 7.90401 6.57477 7.21617 7.10256ZM4.12835 8.23719C4.66719 7.3039 5.38458 6.48587 6.23956 5.82982C7.09454 5.17377 8.07037 4.69255 9.11132 4.41362C10.1523 4.1347 11.238 4.06354 12.3064 4.2042C13.3749 4.34487 14.4052 4.69461 15.3385 5.23345C16.2718 5.77229 17.0898 6.48968 17.7459 7.34466C18.4019 8.19964 18.8831 9.17546 19.1621 10.2164C19.441 11.2574 19.5122 12.3431 19.3715 13.4115C19.2308 14.48 18.8811 15.5103 18.3422 16.4436C17.8034 17.3769 17.086 18.1949 16.231 18.851C15.3761 19.507 14.4002 19.9882 13.3593 20.2672C12.3183 20.5461 11.2326 20.6172 10.1641 20.4766C9.09569 20.3359 8.0654 19.9862 7.1321 19.4473C6.1988 18.9085 5.38077 18.1911 4.72472 17.3361C4.06868 16.4811 3.58745 15.5053 3.30853 14.4644C3.0296 13.4234 2.95844 12.3377 3.09911 11.2692C3.23977 10.2008 3.58951 9.17049 4.12835 8.23719Z" fill="#A7B0BF"/>
<path fill-rule="evenodd" clip-rule="evenodd" d="M23.3897 24.5821C22.994 24.9778 22.3524 24.9778 21.9567 24.5821L16.2964 18.9218C15.9007 18.5261 15.9007 17.8845 16.2964 17.4888C16.6921 17.0931 17.3337 17.0931 17.7294 17.4888L23.3897 23.1491C23.7854 23.5448 23.7854 24.1864 23.3897 24.5821Z" fill="#A7B0BF"/>
</g>
<defs>
<clipPath id="clip0_16_1166">
<rect width="29" height="29" fill="white"/>
</clipPath>
</defs>
</svg>
