<svg width="24" height="14" viewBox="0 0 24 14" fill="none" xmlns="http://www.w3.org/2000/svg">
<path d="M20.308 8.55645C20.0495 8.21542 19.9916 7.87023 20.1328 7.52047C20.4853 6.58732 25.6193 0.660479 23.4805 0.660479C22.0109 0.679469 20.2435 0.660479 18.8345 0.660479C18.573 0.722379 18.4037 0.855833 18.2978 1.12736C17.4739 2.97437 16.4657 5.22838 14.9881 6.677C14.7937 6.82938 14.6725 6.82289 14.451 6.76654C13.4145 5.70563 14.5197 2.07093 13.8894 0.634725C13.7652 0.353599 13.4933 0.226624 13.2151 0.155123C11.8079 -0.170926 8.59402 0.0231486 8.06964 0.679469C7.91974 0.867091 7.89883 0.96948 8.00705 0.98632C8.50667 1.06295 8.86037 1.24628 9.06853 1.53611C9.46126 2.37693 9.75067 6.8558 8.59402 6.8558C7.43737 6.8558 5.57224 2.46027 5.05985 1.24175C4.9235 0.87486 4.57639 0.664521 4.21064 0.602432L0.788754 0.627872C0.187268 0.627872 -0.14889 0.916336 0.0642997 1.4975C1.84657 5.79867 5.74677 14.1358 11.7287 13.9271C12.3279 13.9271 13.3589 14.1507 13.8269 13.6457C14.47 12.8161 13.6856 11.3387 14.7885 10.7752C15.0666 10.6313 15.3549 10.7519 15.5939 10.9288C16.8206 11.8369 17.4719 13.4309 18.9847 13.9148C19.2507 14 19.4838 14.0213 19.6839 13.9787L22.8808 13.9276C23.4744 13.9276 24.0591 13.6709 23.9362 12.981C23.4702 11.5016 21.6129 9.98081 20.308 8.55645Z" fill="#A7B0BF"/>
</svg>
