<svg width="14" height="22" viewBox="0 0 14 22" fill="none" xmlns="http://www.w3.org/2000/svg">
<path d="M13.2219 5.67745C13.2219 8.80729 10.4249 11.3532 6.98416 11.3532C3.54415 11.3532 0.74646 8.80729 0.74646 5.67745C0.74646 2.5466 3.54415 0 6.98416 0C10.4249 0 13.2219 2.5466 13.2219 5.67745ZM9.56689 5.67743C9.56689 4.3812 8.4084 3.32717 6.98417 3.32717C5.56107 3.32717 4.40146 4.3812 4.40146 5.67743C4.40146 6.97264 5.56107 8.02736 6.98417 8.02736C8.4084 8.02736 9.56689 6.97264 9.56689 5.67743Z" fill="#A7B0BF"/>
<path d="M9.52385 15.9869C10.7936 15.7237 12.0181 15.2665 13.146 14.6218C13.9996 14.1319 14.2567 13.1051 13.7189 12.3282C13.1815 11.5497 12.0539 11.3153 11.1989 11.8051C8.64379 13.2674 5.35419 13.2671 2.80058 11.8051C1.94553 11.3153 0.817641 11.5497 0.281317 12.3282C-0.256499 13.1058 -9.40442e-05 14.1319 0.853471 14.6218C1.98136 15.2658 3.20591 15.7237 4.47562 15.9869L0.988205 19.1609C0.275346 19.8104 0.275346 20.8634 0.988951 21.5129C1.34613 21.8373 1.8134 21.9997 2.28068 21.9997C2.74871 21.9997 3.21673 21.8373 3.57391 21.5129L6.99936 18.3939L10.4278 21.5129C11.1407 22.1624 12.2973 22.1624 13.0109 21.5129C13.7252 20.8634 13.7252 19.8097 13.0109 19.1609L9.52385 15.9869Z" fill="#A7B0BF"/>
</svg>
