<svg width="29" height="29" viewBox="0 0 29 29" fill="none" xmlns="http://www.w3.org/2000/svg">
<path d="M17.168 20.2807C17.3528 20.4648 17.6031 20.5683 17.864 20.5683C18.1249 20.5683 18.3752 20.4648 18.56 20.2807L19.9714 18.8693L24.1667 23.0647L23.4514 23.78C22.7218 24.5587 21.7304 25.0406 20.6674 25.1333L17.864 25.1333C16.7942 25.0453 15.7951 24.563 15.0607 23.78L5.2587 13.978C4.46144 13.2498 3.96499 12.25 3.8667 11.1747L3.8667 8.37133C3.96499 7.29603 4.46144 6.29623 5.2587 5.568L5.97403 4.872L10.1694 9.06733L8.75803 10.4787C8.57386 10.6635 8.47045 10.9138 8.47045 11.1747C8.47045 11.4356 8.57386 11.6859 8.75803 11.8707L17.168 20.2807ZM24.1667 23.0647C24.5384 22.7115 24.7547 22.2252 24.7678 21.7126C24.781 21.2001 24.59 20.7033 24.2369 20.3315C24.2141 20.3075 24.1907 20.2841 24.1667 20.2613L22.7747 18.8693C22.4216 18.4976 21.9352 18.2814 21.4227 18.2682C20.9101 18.2551 20.4133 18.446 20.0415 18.7992C20.0176 18.822 19.9942 18.8454 19.9714 18.8693L24.1667 23.0647ZM10.1694 9.06733C10.5411 8.71419 10.7573 8.22785 10.7705 7.71529C10.7836 7.20273 10.5927 6.70593 10.2395 6.33417C10.2167 6.3102 8.77737 4.872 8.77737 4.872C8.42422 4.50027 7.93788 4.28404 7.42532 4.27088C6.91276 4.25772 6.41596 4.4487 6.04421 4.80182C6.02024 4.82463 5.99685 4.84802 5.97403 4.872L10.1694 9.06733Z" fill="#A7B0BF"/>
</svg>
