<svg width="35" height="30" viewBox="0 0 35 30" fill="none" xmlns="http://www.w3.org/2000/svg">
<g opacity="0.5">
<circle cx="23.9492" cy="14.8479" r="7.04608" fill="#FCFCFE"/>
<path fill-rule="evenodd" clip-rule="evenodd" d="M24.0001 4C24.4201 4 24.7605 4.34043 24.7605 4.76037L24.7605 6.07834C24.7605 6.49828 24.4201 6.83871 24.0001 6.83871C23.5802 6.83871 23.2397 6.49828 23.2397 6.07834L23.2397 4.76037C23.2397 4.34043 23.5802 4 24.0001 4Z" fill="#FCFCFE"/>
<path fill-rule="evenodd" clip-rule="evenodd" d="M24.0001 23.1613C24.4201 23.1613 24.7605 23.5017 24.7605 23.9217L24.7605 25.2397C24.7605 25.6596 24.4201 26 24.0001 26C23.5802 26 23.2397 25.6596 23.2397 25.2397L23.2397 23.9217C23.2397 23.5017 23.5802 23.1613 24.0001 23.1613Z" fill="#FCFCFE"/>
<path fill-rule="evenodd" clip-rule="evenodd" d="M35 15C35 15.4199 34.6596 15.7604 34.2396 15.7604L32.9217 15.7604C32.5017 15.7604 32.1613 15.4199 32.1613 15C32.1613 14.5801 32.5017 14.2396 32.9217 14.2396L34.2396 14.2396C34.6596 14.2396 35 14.5801 35 15Z" fill="#FCFCFE"/>
<path fill-rule="evenodd" clip-rule="evenodd" d="M15.8386 15C15.8386 15.4199 15.4982 15.7604 15.0783 15.7604L13.7603 15.7604C13.3403 15.7604 12.9999 15.4199 12.9999 15C12.9999 14.5801 13.3403 14.2396 13.7603 14.2396L15.0783 14.2396C15.4982 14.2396 15.8386 14.5801 15.8386 15Z" fill="#FCFCFE"/>
<path fill-rule="evenodd" clip-rule="evenodd" d="M31.7783 22.7781C31.4813 23.0751 30.9999 23.0751 30.7029 22.7781L29.771 21.8462C29.474 21.5493 29.474 21.0678 29.771 20.7709C30.0679 20.4739 30.5494 20.4739 30.8463 20.7709L31.7783 21.7028C32.0752 21.9998 32.0752 22.4812 31.7783 22.7781Z" fill="#FCFCFE"/>
<path fill-rule="evenodd" clip-rule="evenodd" d="M18.2292 9.22907C17.9322 9.52601 17.4508 9.52601 17.1539 9.22907L16.2219 8.29712C15.925 8.00018 15.925 7.51874 16.2219 7.2218C16.5189 6.92485 17.0003 6.92485 17.2972 7.2218L18.2292 8.15374C18.5261 8.45069 18.5261 8.93213 18.2292 9.22907Z" fill="#FCFCFE"/>
<path fill-rule="evenodd" clip-rule="evenodd" d="M16.2219 22.7782C15.9249 22.4813 15.9249 21.9998 16.2219 21.7029L17.1538 20.7709C17.4507 20.474 17.9322 20.474 18.2291 20.7709C18.5261 21.0679 18.5261 21.5493 18.2291 21.8462L17.2972 22.7782C17.0002 23.0751 16.5188 23.0751 16.2219 22.7782Z" fill="#FCFCFE"/>
<path fill-rule="evenodd" clip-rule="evenodd" d="M29.7709 9.22906C29.474 8.93212 29.474 8.45068 29.7709 8.15374L30.7029 7.22179C30.9998 6.92485 31.4813 6.92485 31.7782 7.22179C32.0751 7.51873 32.0751 8.00017 31.7782 8.29711L30.8463 9.22906C30.5493 9.526 30.0679 9.526 29.7709 9.22906Z" fill="#FCFCFE"/>
</g>
</svg>
