<svg width="128" height="128" viewBox="0 0 128 128" fill="none" xmlns="http://www.w3.org/2000/svg">
<circle cx="64" cy="64" r="59.5" fill="#004BFF" stroke="#0040C3" stroke-width="9"/>
<path d="M27.8693 79V49.9091H39.0057C41.108 49.9091 42.8551 50.2405 44.2472 50.9034C45.6487 51.5568 46.6951 52.4517 47.3864 53.5881C48.0871 54.7244 48.4375 56.0123 48.4375 57.4517C48.4375 58.6354 48.2102 59.6487 47.7557 60.4915C47.3011 61.3248 46.6903 62.0019 45.9233 62.5227C45.1562 63.0436 44.2992 63.4176 43.3523 63.6449V63.929C44.3845 63.9858 45.3741 64.303 46.321 64.8807C47.2775 65.4489 48.0587 66.2538 48.6648 67.2955C49.2708 68.3371 49.5739 69.5966 49.5739 71.0739C49.5739 72.5795 49.2093 73.9337 48.4801 75.1364C47.7509 76.3295 46.6525 77.2718 45.1847 77.9631C43.7169 78.6544 41.8703 79 39.6449 79H27.8693ZM33.1392 74.5966H38.8068C40.7197 74.5966 42.0975 74.232 42.9403 73.5028C43.7926 72.7642 44.2188 71.8172 44.2188 70.6619C44.2188 69.8002 44.0057 69.0237 43.5795 68.3324C43.1534 67.6316 42.5473 67.0824 41.7614 66.6847C40.9754 66.2775 40.0379 66.0739 38.9489 66.0739H33.1392V74.5966ZM33.1392 62.2812H38.3523C39.2614 62.2812 40.0805 62.1155 40.8097 61.7841C41.5388 61.4432 42.1117 60.965 42.5284 60.3494C42.9545 59.7244 43.1676 58.9858 43.1676 58.1335C43.1676 57.0066 42.7699 56.0786 41.9744 55.3494C41.1884 54.6203 40.0189 54.2557 38.4659 54.2557H33.1392V62.2812ZM52.88 54.3267V49.9091H76.0902V54.3267H67.0987V79H61.8714V54.3267H52.88ZM80.5646 79V49.9091H99.272V54.3267H85.8345V61.1449H91.4453C93.6707 61.1449 95.5788 61.5095 97.1697 62.2386C98.7701 62.9583 99.9964 63.9763 100.849 65.2926C101.701 66.6089 102.127 68.1572 102.127 69.9375C102.127 71.7273 101.701 73.304 100.849 74.6676C99.9964 76.0218 98.7701 77.0824 97.1697 77.8494C95.5788 78.6165 93.6707 79 91.4453 79H80.5646ZM85.8345 74.6818H91.4453C92.6196 74.6818 93.6139 74.4593 94.4283 74.0142C95.2427 73.5691 95.8582 72.982 96.2749 72.2528C96.701 71.5237 96.9141 70.733 96.9141 69.8807C96.9141 68.6496 96.4406 67.6032 95.4936 66.7415C94.5561 65.8703 93.2067 65.4347 91.4453 65.4347H85.8345V74.6818Z" fill="white"/>
</svg>
