<svg width="21" height="30" viewBox="0 0 21 30" fill="none" xmlns="http://www.w3.org/2000/svg">
<path fill-rule="evenodd" clip-rule="evenodd" d="M9.18439 7.42138C9.36233 7.96149 9.08827 8.55033 8.57226 8.73658C5.12293 9.98159 3.32786 11.6037 2.53058 13.0695C1.74865 14.5072 1.86688 15.8916 2.43614 16.9297C3.02046 17.9953 4.0829 18.7072 5.23416 18.7582C6.34487 18.8075 7.71136 18.2437 8.91466 16.39C12.3899 11.0361 17.9435 11.4783 20.1493 14.9299C21.254 16.6586 21.3605 18.9772 20.0068 21.2513C18.6803 23.4797 15.9889 25.6268 11.5591 27.349C11.0474 27.548 10.4786 27.2751 10.2885 26.7395C10.0985 26.2039 10.3592 25.6085 10.8709 25.4095C15.0888 23.7697 17.3254 21.8436 18.3292 20.1572C19.3057 18.5167 19.1447 17.0791 18.5063 16.0802C17.2257 14.0763 13.3902 13.1766 10.5496 17.5527C9.03524 19.8857 7.06636 20.9103 5.15051 20.8253C3.27521 20.7422 1.61991 19.5974 0.721839 17.9596C-0.191284 16.2945 -0.320095 14.1289 0.812823 12.0459C1.9304 9.99115 4.21206 8.12184 7.92789 6.78064C8.4439 6.59439 9.00646 6.88126 9.18439 7.42138Z" fill="#A7B0BF"/>
<path d="M13.3798 3.83975C14.1019 3.86993 14.5587 4.73 14.2021 5.38788L10.5912 12.0489C10.2346 12.7068 9.332 12.669 8.96656 11.981L5.26649 5.0144C4.90105 4.32635 5.34683 3.504 6.0689 3.53418L13.3798 3.83975Z" fill="#A7B0BF"/>
<ellipse cx="10.7208" cy="25.8621" rx="3.95324" ry="4.13793" fill="#A7B0BF"/>
</svg>
